<?xml version="1.0" encoding="UTF-8" standalone="no"?>
<svg
   aria-label="Capital One"
   version="1.1"
   viewBox="0 0 269.67303 85.333336"
   id="svg17"
   sodipodi:docname="capital-one.svg"
   inkscape:version="1.1.1 (c3084ef, 2021-09-22)"
   width="269.67303"
   height="85.333336"
   xmlns:inkscape="http://www.inkscape.org/namespaces/inkscape"
   xmlns:sodipodi="http://sodipodi.sourceforge.net/DTD/sodipodi-0.dtd"
   xmlns="http://www.w3.org/2000/svg"
   xmlns:svg="http://www.w3.org/2000/svg">
  <defs
     id="defs21" />
  <sodipodi:namedview
     id="namedview19"
     pagecolor="#ffffff"
     bordercolor="#666666"
     borderopacity="1.0"
     inkscape:pageshadow="2"
     inkscape:pageopacity="0.0"
     inkscape:pagecheckerboard="0"
     showgrid="false"
     inkscape:zoom="2.7344498"
     inkscape:cx="91.974628"
     inkscape:cy="42.970254"
     inkscape:window-width="1312"
     inkscape:window-height="847"
     inkscape:window-x="0"
     inkscape:window-y="25"
     inkscape:window-maximized="0"
     inkscape:current-layer="svg17"
     fit-margin-top="0"
     fit-margin-left="16"
     fit-margin-right="16"
     fit-margin-bottom="0" />
  <path
     d="m 177.30157,61.708015 h -0.0569 c -10.12168,7.164777 -22.06298,14.670747 -34.97096,22.574747 l -0.51177,0.28432 a 0.39804342,0.39804342 0 1 0 0.45491,0.62549 l 0.39804,-0.22745 c 10.97462,-5.68633 23.54142,-12.45307 36.16509,-19.447263 l 0.22745,-0.113727 a 14.045246,14.045246 0 0 1 -1.7059,-3.696117 z M 243.71796,7.9152901 C 227.79622,-9.6554829 125.10102,6.1525261 81.486825,15.705569 l -1.02354,0.227454 a 0.45490677,0.45490677 0 0 0 -0.34118,0.454906 0.34118008,0.34118008 0 0 0 0.45491,0.284317 l 1.02354,-0.17059 c 36.165095,-6.425559 111.395295,-15.3531039 127.544485,0.68236 4.94711,4.890248 3.80985,11.202079 -1.93335,18.651177 a 14.61388,14.61388 0 0 1 6.25497,8.984409 c 22.34729,-14.841333 37.35921,-29.057169 30.2513,-36.9043119 z"
     fill="#cc2427"
     id="path9"
     style="stroke-width:0.568633" />
  <g
     fill="#013d5b"
     id="g15"
     transform="matrix(0.56863344,0,0,0.56863344,15.980254,0.01128615)">
    <path
       d="m 133,84.3 a 10.4,10.4 0 0 0 -6.1,2 9.4,9.4 0 0 0 -3.3,6 c -0.6,3.1 -0.3,5.2 0.9,6.6 a 7.1,7.1 0 0 0 5.3,2 10.2,10.2 0 0 0 4.4,-0.9 8.1,8.1 0 0 0 3.3,-2.8 12.5,12.5 0 0 0 1.9,-4.6 c 0.5,-2.8 0.1,-4.8 -1.2,-6.2 A 6.7,6.7 0 0 0 133,84.3 Z m -31.1,38.8 8.3,-46.8 h 15 l -1.2,6 a 14.2,14.2 0 0 1 6.3,-4.5 27,27 0 0 1 9.7,-2 c 3.9,0 6.3,0.2 9.2,1.7 a 12.4,12.4 0 0 1 6,6.6 16.8,16.8 0 0 1 0.8,9.5 20.7,20.7 0 0 1 -8.4,13.7 c -4.6,3.3 -8.7,4.2 -14.6,4.2 a 20.4,20.4 0 0 1 -5.3,-0.6 12.1,12.1 0 0 1 -3.4,-1.3 15.5,15.5 0 0 1 -2.8,-2.6 l -2.8,16.1 z M 275,111 h -17.4 l 8.8,-48.6 16.9,0.4 z m -86.8,-35.1 1.2,-7.1 17.8,-3.8 -1.9,10.9 h 8.8 l -1.7,7.1 h -8.5 l -5.1,28 h -17.3 l 5.2,-28 h -6.5 l 1.3,-7 h 6.7 z M 49.6,98.5 A 62.3,62.3 0 0 1 35.4,100 C 27.3,100 20.8,96 21.2,88.5 21.4,83.6 27.3,73.2 42.1,73.2 a 24.3,24.3 0 0 1 13.3,3.6 L 57.5,64.7 A 40.3,40.3 0 0 0 40.7,61.9 c -19.5,0.2 -38.2,9 -40.5,27 -2.3,18 20,22.9 29.9,22.9 5.7,0 11.7,-0.3 17.2,-0.8 z m 189.7,-3.5 -2.9,0.8 -6.7,1.2 a 10.8,10.8 0 0 0 -4.5,1.4 3,3 0 0 0 -1.5,2.2 2.2,2.2 0 0 0 0.9,2.4 c 0.9,0.6 2.3,0.8 4.3,0.8 a 16.1,16.1 0 0 0 4.4,-0.6 10.2,10.2 0 0 0 3.6,-1.9 5.1,5.1 0 0 0 1.5,-2.3 22.4,22.4 0 0 0 0.9,-4 z m 18.4,-11.5 c -0.1,1.7 -0.4,3.3 -0.8,5.8 l -3.1,17.5 a 3.2,3.2 0 0 0 1.7,3.6 v 0.6 h -17.9 v -4.5 a 36,36 0 0 1 -8.6,3.7 32.2,32.2 0 0 1 -8.6,1 c -5.7,0 -9,-0.6 -11.3,-2.6 -2.3,-2 -3.4,-3.4 -3.3,-6.2 a 9.5,9.5 0 0 1 2.2,-5.2 13.3,13.3 0 0 1 4.7,-3.3 25.4,25.4 0 0 1 7.1,-2 c 3.2,-0.5 7.6,-1 13.5,-1.5 a 24,24 0 0 0 5.8,-1.3 c 1.2,-0.5 1.7,-1 1.9,-2 0.2,-1 -0.2,-2.8 -2.6,-3.3 -6.4,-1.3 -18.4,0.8 -24.6,2.3 l 3.3,-9 a 161.7,161.7 0 0 1 23.9,-2 c 12.7,0.1 16.8,3.8 16.7,8.4 z M 155.5,111 161.7,76.1 h 17.1 l -6.2,34.9 z m 7.2,-42.9 c 0.5,-2.9 5,-5.2 10.1,-5.2 5.1,0 8.7,2.3 8.2,5.2 -0.5,2.9 -5,5.2 -10.1,5.2 -5.1,0 -8.7,-2.4 -8.2,-5.2 z M 85.5,94.9 a 13,13 0 0 1 -2.9,0.8 L 76,96.9 a 10.8,10.8 0 0 0 -4.6,1.4 3.2,3.2 0 0 0 -1.5,2.3 2.1,2.1 0 0 0 1,2.3 7.3,7.3 0 0 0 4.2,0.9 16.2,16.2 0 0 0 4.4,-0.7 10.2,10.2 0 0 0 3.6,-1.9 5.1,5.1 0 0 0 1.5,-2.3 14.7,14.7 0 0 0 0.9,-4 z m 18.4,-11.4 c -0.1,1.7 -0.4,3.2 -0.8,5.8 l -3.1,17.4 a 3.2,3.2 0 0 0 1.7,3.6 V 111 H 83.8 v -4.4 a 40.2,40.2 0 0 1 -8.6,3.6 31.8,31.8 0 0 1 -8.5,1.1 c -5.8,0 -9.1,-0.6 -11.3,-2.6 -2.2,-2 -3.5,-3.4 -3.4,-6.3 a 9.6,9.6 0 0 1 2.2,-5.1 13.5,13.5 0 0 1 4.7,-3.4 28.9,28.9 0 0 1 7.2,-2 c 3.1,-0.5 7.5,-1 13.4,-1.5 a 15.7,15.7 0 0 0 5.8,-1.3 c 1.3,-0.5 1.7,-1 1.9,-2 0.2,-1 -0.2,-2.8 -2.6,-3.3 -6.4,-1.2 -18.4,0.8 -24.6,2.4 l 3.3,-9.1 a 162.8,162.8 0 0 1 23.9,-2 c 12.7,0 16.8,3.7 16.7,8.4 z"
       id="path11" />
    <path
       d="m 344.6,88.2 3.9,-0.4 c 1.3,0 2.4,0.3 2.5,1.5 0.1,1.2 -1.3,6 -1.6,7.3 l -2.7,11.7 c -1,4.8 -2.2,9.8 -3.2,13.8 h 6.8 l 3.8,-18.6 c 11.8,-12.2 16.3,-16.2 19,-16.2 a 2,2 0 0 1 2.2,2.2 c 0.1,2.1 -1.3,7 -1.7,8.4 l -4,13.5 c -0.8,3.1 -1.5,5.8 -1.4,7.8 0.1,2 1.9,4.3 4.5,4.3 5,0 8.7,-5.2 11.8,-10.3 l -0.9,-1.7 c -1.3,2 -4.2,6.5 -6.6,6.5 -0.7,0 -1.4,-0.5 -1.4,-1.7 a 20.5,20.5 0 0 1 1,-5.5 L 381,94.9 c 1.1,-4.4 1.7,-7.2 1.7,-8.7 0,-1.5 -1.9,-4.3 -4.5,-4.3 -4.5,0 -10.5,3.3 -23.1,17.8 h -0.2 l 1.6,-7.1 c 0.9,-3.9 1.7,-7.9 2.5,-10.7 A 114.5,114.5 0 0 1 344.5,86 Z m 66.9,0.4 c -0.1,-2.8 -1.5,-4.7 -4.4,-4.7 -7,0 -14.4,13.7 -15.7,19.2 11.4,0 20.4,-6.8 20.1,-14.5 z m 1.5,21.5 1.3,0.9 c -3.4,6.9 -10.3,12.5 -18.5,12.5 -6.7,0 -12.1,-4.4 -12.4,-12.7 -0.6,-15 13.5,-28.9 24.9,-28.9 4.9,0 9.5,2.2 9.7,7.5 0.4,11.9 -16.3,15.5 -27.3,15.7 a 14.3,14.3 0 0 0 -0.4,4.4 c 0.2,5 3.2,9.1 9.3,9.1 6.1,0 10.7,-4.3 13.4,-8.5 z m -117.9,-9.7 c 0.3,10.9 7.2,19.8 16.2,19.8 17.4,0 24.8,-21.4 24.3,-35.7 -0.4,-10.9 -7.4,-19.8 -16.4,-19.8 -15,0 -24.7,21.3 -24.1,35.7 z m -9.2,-0.6 c -0.7,-18.6 13.9,-37.6 35,-37.6 14.2,0 23.4,9.5 23.9,23.9 0.7,19.6 -12.9,37.6 -35,37.6 -14.2,0 -23.4,-9.4 -23.9,-23.9 z"
       id="path13" />
  </g>
</svg>
