<?xml version="1.0" encoding="UTF-8" standalone="no"?>
<svg
   width="435.11465"
   height="85.333336"
   viewBox="0 0 435.11465 85.333336"
   version="1.1"
   id="svg157"
   sodipodi:docname="cfpb-with-text.svg"
   inkscape:version="1.1.1 (c3084ef, 2021-09-22)"
   xmlns:inkscape="http://www.inkscape.org/namespaces/inkscape"
   xmlns:sodipodi="http://sodipodi.sourceforge.net/DTD/sodipodi-0.dtd"
   xmlns="http://www.w3.org/2000/svg"
   xmlns:svg="http://www.w3.org/2000/svg">
  <defs
     id="defs161" />
  <sodipodi:namedview
     id="namedview159"
     pagecolor="#ffffff"
     bordercolor="#666666"
     borderopacity="1.0"
     inkscape:pageshadow="2"
     inkscape:pageopacity="0.0"
     inkscape:pagecheckerboard="0"
     showgrid="false"
     fit-margin-left="16"
     fit-margin-right="16"
     fit-margin-top="0"
     fit-margin-bottom="0"
     inkscape:zoom="2.3776371"
     inkscape:cx="168.44454"
     inkscape:cy="42.689441"
     inkscape:window-width="1296"
     inkscape:window-height="847"
     inkscape:window-x="0"
     inkscape:window-y="25"
     inkscape:window-maximized="0"
     inkscape:current-layer="svg157" />
  <path
     fill="#75787b"
     d="m 223.104,25.770667 c -1.024,-1.365333 -2.64534,-2.048 -4.26667,-2.048 -3.84,0 -6.48533,3.328 -6.48533,7.082667 0,3.925333 2.64533,7.082666 6.48533,7.082666 2.048,0 3.75467,-0.853333 4.94933,-2.389333 l 1.536,1.28 c -1.536,2.048 -3.75466,2.986667 -6.48533,2.986667 -4.864,0 -8.704,-3.754667 -8.704,-8.96 0,-5.034667 3.584,-8.96 8.704,-8.96 2.304,0 4.608,0.768 6.05867,2.645333 z m 10.06933,1.962667 c 3.49867,0 6.05867,2.389333 6.05867,5.973333 0,3.498667 -2.56,5.973333 -6.05867,5.973333 -3.49867,0 -6.05867,-2.389333 -6.05867,-5.973333 0,-3.584 2.56,-5.973333 6.05867,-5.973333 z m 0,10.154666 c 2.47467,0 4.01067,-1.877333 4.01067,-4.181333 0,-2.389333 -1.536,-4.181333 -4.01067,-4.181333 -2.47467,0 -4.01067,1.792 -4.01067,4.181333 0,2.304 1.62134,4.181333 4.01067,4.181333 z m 8.96,-7.168 c 0,-1.024 -0.0853,-1.962666 -0.0853,-2.645333 h 1.792 c 0,0.597333 0.0853,1.194667 0.0853,1.877333 h 0.0853 c 0.51203,-1.109333 1.87737,-2.133333 3.7547,-2.133333 2.98667,0 4.26667,1.877333 4.26667,4.608 V 39.424 h -1.87734 v -6.826666 c 0,-1.877334 -0.85333,-3.072 -2.56,-3.072 -2.47466,0 -3.49866,1.792 -3.49866,4.352 V 39.424 h -1.87734 V 30.72 Z m 13.65333,5.632 c 0.768,0.938667 1.536,1.536 2.90134,1.536 1.19466,0 2.47466,-0.512 2.47466,-1.706666 0,-1.194667 -1.19466,-1.536 -2.38933,-1.792 -2.13333,-0.512 -4.01067,-0.938667 -4.01067,-3.328 0,-2.218667 2.13334,-3.328 4.26667,-3.328 1.62133,0 3.072,0.597333 3.84,2.048 l -1.536,1.024 c -0.512,-0.768 -1.28,-1.365334 -2.38933,-1.365334 -1.024,0 -2.21867,0.512 -2.21867,1.536 0,0.938667 1.36533,1.365334 2.816,1.621334 1.96267,0.426666 3.66933,1.109333 3.66933,3.413333 0,2.56 -2.304,3.584 -4.52266,3.584 -1.87734,0 -3.24267,-0.512 -4.43734,-2.133333 z m 19.968,0.341334 c 0,1.024 0.0853,1.962666 0.0853,2.645333 h -1.792 c 0,-0.597333 -0.0853,-1.194667 -0.0853,-1.877333 -0.512,1.109333 -1.87733,2.133333 -3.75466,2.133333 -2.98667,0 -4.26667,-1.877333 -4.26667,-4.608 v -6.997333 h 1.87733 V 34.816 c 0,1.877334 0.85334,3.072 2.56,3.072 2.47467,0 3.49867,-1.792 3.49867,-4.352 v -5.546666 h 1.87733 z M 279.25333,30.72 c 0,-1.024 -0.0853,-1.962666 -0.0853,-2.645333 h 1.792 c 0,0.597333 0.0853,1.194667 0.0853,1.877333 h 0.0853 c 0.51203,-1.109333 1.87737,-2.133333 3.7547,-2.133333 2.47467,0 3.24267,1.365333 3.584,2.133333 0.85333,-1.365333 1.87733,-2.133333 3.584,-2.133333 3.24267,0 4.26667,1.792 4.26667,4.693333 v 6.826667 h -1.87734 v -6.741333 c 0,-1.536 -0.59733,-3.072 -2.73066,-3.072 -1.62134,0 -2.90134,1.28 -2.90134,3.328 v 6.485333 h -1.87733 v -6.4 c 0,-2.474667 -0.59733,-3.413333 -2.13333,-3.413333 -2.47467,0 -3.49867,1.792 -3.49867,4.352 V 39.424 H 279.424 V 30.72 Z m 30.72,6.570667 c -1.36533,1.706667 -2.90133,2.304 -5.03467,2.304 -3.584,0 -5.71733,-2.645333 -5.71733,-5.973333 0,-3.498667 2.47467,-5.973334 5.80267,-5.973334 3.15733,0 5.376,2.133334 5.376,5.888 v 0.597334 h -9.13067 c 0.17067,1.962666 1.62133,3.584 3.66933,3.584 1.62134,0 2.73067,-0.597334 3.584,-1.706667 z m -1.62133,-4.608 c -0.0853,-1.877333 -1.36534,-3.157333 -3.41334,-3.157333 -2.048,0 -3.41333,1.28 -3.66933,3.157333 z M 313.30133,30.72 c 0,-1.024 -0.0853,-1.962666 -0.0853,-2.645333 h 1.792 c 0,0.597333 0.0853,1.194667 0.0853,1.877333 h 0.0853 c 0.51203,-1.109333 1.87737,-2.133333 3.7547,-2.133333 0.256,0 0.512,0 0.768,0.08533 l -0.0853,1.877334 c -0.34134,-0.08533 -0.68267,-0.170667 -1.024,-0.170667 -2.304,0 -3.328,1.621333 -3.328,4.181333 v 5.54667 h -1.87734 V 30.72 Z M 328.832,22.272 h 10.58133 v 1.877334 H 330.88 v 5.632 h 7.936 v 1.877333 h -7.936 v 7.68 h -2.048 z m 14.25066,0 c 0.768,0 1.36534,0.597334 1.36534,1.365334 0,0.768 -0.59734,1.365333 -1.36534,1.365333 -0.768,0 -1.36533,-0.597333 -1.36533,-1.365333 -0.0853,-0.768 0.59733,-1.365334 1.36533,-1.365334 z m -0.93866,5.717334 h 1.87733 v 11.264 H 342.144 Z M 347.69066,30.72 c 0,-1.024 -0.0853,-1.962666 -0.0853,-2.645333 h 1.792 c 0,0.597333 0.0853,1.194667 0.0853,1.877333 h 0.0853 c 0.51204,-1.109333 1.87737,-2.133333 3.7547,-2.133333 2.98667,0 4.26667,1.877333 4.26667,4.608 V 39.424 H 355.712 v -6.826666 c 0,-1.877334 -0.85334,-3.072 -2.56,-3.072 -2.47467,0 -3.49867,1.792 -3.49867,4.352 V 39.424 H 347.776 V 30.72 Z m 13.312,-1.28 c 1.19467,-1.194666 2.816,-1.706666 4.52267,-1.706666 3.328,0 4.69333,1.621333 4.69333,4.778666 v 4.864 c 0,0.682667 0.0853,1.365334 0.17067,1.962667 h -1.792 c -0.0853,-0.512 -0.0853,-1.194667 -0.0853,-1.706667 h -0.0853 c -0.768,1.194667 -1.96266,1.962667 -3.75466,1.962667 -2.304,0 -4.18134,-1.194667 -4.18134,-3.328 0,-3.754667 4.352,-3.925333 7.168,-3.925333 h 0.68267 V 32 c 0,-1.621333 -1.024,-2.474666 -2.816,-2.474666 -1.19467,0 -2.47467,0.426666 -3.328,1.194666 z m 5.46134,4.437334 c -2.38934,0 -3.92534,0.682666 -3.92534,2.133333 0,1.450667 1.024,1.962667 2.47467,1.962667 2.13333,0 3.328,-1.536 3.328,-3.413334 V 33.877334 Z M 373.71733,30.72 c 0,-1.024 -0.0853,-1.962666 -0.0853,-2.645333 h 1.792 c 0,0.597333 0.0853,1.194667 0.0853,1.877333 h 0.0853 c 0.51203,-1.109333 1.87737,-2.133333 3.7547,-2.133333 2.98667,0 4.26667,1.877333 4.26667,4.608 V 39.424 h -1.87734 v -6.826666 c 0,-1.877334 -0.85333,-3.072 -2.56,-3.072 -2.47466,0 -3.49866,1.792 -3.49866,4.352 V 39.424 h -1.87734 V 30.72 Z m 21.41867,0.170667 c -0.768,-0.938667 -1.70667,-1.365333 -2.816,-1.365333 -2.56,0 -3.84,1.877333 -3.84,4.181333 0,2.304 1.536,4.181333 3.84,4.181333 1.19466,0 2.13333,-0.426666 2.90133,-1.365333 l 1.36533,1.365333 c -1.10933,1.28 -2.64533,1.792 -4.26666,1.792 -3.49867,0 -5.80267,-2.474666 -5.80267,-5.973333 0,-3.413333 2.38933,-5.973333 5.80267,-5.973333 1.70666,0 3.24266,0.597333 4.352,1.792 z M 399.91466,22.272 c 0.768,0 1.36534,0.597334 1.36534,1.365334 0,0.768 -0.59734,1.365333 -1.36534,1.365333 -0.768,0 -1.36533,-0.597333 -1.36533,-1.365333 -0.0853,-0.768 0.512,-1.365334 1.36533,-1.365334 z m -0.93866,5.717334 h 1.87733 v 11.264 H 398.976 Z M 404.43733,29.44 c 1.19467,-1.194666 2.816,-1.706666 4.52267,-1.706666 3.328,0 4.69333,1.621333 4.69333,4.778666 v 4.864 c 0,0.682667 0.0853,1.365334 0.17067,1.962667 h -1.792 c -0.0853,-0.512 -0.0853,-1.194667 -0.0853,-1.706667 h -0.0854 c -0.768,1.194667 -1.96267,1.962667 -3.75467,1.962667 -2.304,0 -4.18133,-1.194667 -4.18133,-3.328 0,-3.754667 4.352,-3.925333 7.168,-3.925333 H 411.776 V 32 c 0,-1.621333 -1.024,-2.474666 -2.816,-2.474666 -1.19467,0 -2.47467,0.426666 -3.328,1.194666 z m 5.46133,4.437334 c -2.38933,0 -3.92533,0.682666 -3.92533,2.133333 0,1.450667 1.024,1.962667 2.47467,1.962667 2.13333,0 3.328,-1.536 3.328,-3.413334 v -0.682666 z m 7.33867,-12.8 h 1.87733 v 18.261333 h -1.87733 z m -206.08,25.6 h 5.03467 c 3.15733,0 5.97333,1.109333 5.97333,4.693333 0,3.754667 -3.15733,4.693333 -5.632,4.693333 H 213.12 v 7.68 h -2.048 V 46.677334 Z M 213.12,54.272 h 3.41333 c 2.048,0 3.41333,-0.938666 3.41333,-2.816 0,-1.877333 -1.36533,-2.816 -3.41333,-2.816 H 213.12 Z m 12.032,0.938667 c 0,-1.024 -0.0853,-1.962667 -0.0853,-2.645333 h 1.792 c 0,0.597333 0.0853,1.194666 0.0853,1.877333 h 0.0853 c 0.512,-1.109333 1.87733,-2.133333 3.75467,-2.133333 0.256,0 0.512,0 0.768,0.08533 l -0.0853,1.877333 c -0.34133,-0.08533 -0.68266,-0.170666 -1.024,-0.170666 -2.304,0 -3.328,1.621333 -3.328,4.181333 v 5.546667 h -1.87734 V 55.210667 Z M 238.54933,52.224 c 3.49867,0 6.05867,2.389334 6.05867,5.973334 0,3.498666 -2.56,5.973333 -6.05867,5.973333 -3.49867,0 -6.05867,-2.389333 -6.05867,-5.973333 0,-3.584 2.56,-5.973334 6.05867,-5.973334 z m 0,10.154667 c 2.47467,0 4.01067,-1.877333 4.01067,-4.181333 0,-2.304 -1.536,-4.181334 -4.01067,-4.181334 -2.47467,0 -4.01067,1.877334 -4.01067,4.181334 0,2.304 1.62134,4.181333 4.01067,4.181333 z m 15.18933,-8.277333 h -3.328 v 5.632 c 0,1.450666 0,2.645333 1.70667,2.645333 0.59733,0 1.19467,-0.08533 1.70667,-0.426667 l 0.0853,1.706667 c -0.68267,0.256 -1.536,0.426667 -2.21867,0.426667 -2.64533,0 -3.15733,-1.450667 -3.15733,-3.754667 v -6.229333 h -2.47467 V 52.48 h 2.47467 v -3.242666 h 1.87733 V 52.48 h 3.328 z m 12.37334,7.68 c -1.36534,1.706666 -2.90134,2.304 -5.03467,2.304 -3.584,0 -5.71733,-2.645334 -5.71733,-5.973334 0,-3.498666 2.47466,-5.973333 5.80266,-5.973333 3.15734,0 5.376,2.133333 5.376,5.888 V 58.624 H 257.408 c 0.17066,1.962667 1.62133,3.584 3.66933,3.584 1.62133,0 2.73067,-0.597333 3.584,-1.706666 z M 264.49066,57.088 c -0.0853,-1.877333 -1.36533,-3.157333 -3.41333,-3.157333 -2.048,0 -3.41333,1.28 -3.66933,3.157333 z m 13.056,-1.792 c -0.768,-0.938666 -1.70666,-1.365333 -2.816,-1.365333 -2.56,0 -3.84,1.877333 -3.84,4.181333 0,2.304 1.536,4.181334 3.84,4.181334 1.19467,0 2.21867,-0.426667 2.90134,-1.365334 l 1.36533,1.365334 c -1.10933,1.28 -2.64533,1.792 -4.26667,1.792 -3.49866,0 -5.80266,-2.474667 -5.80266,-5.973334 0,-3.413333 2.38933,-5.973333 5.80266,-5.973333 1.70667,0 3.24267,0.512 4.352,1.792 z m 9.728,-1.194666 h -3.328 v 5.632 c 0,1.450666 0,2.645333 1.70667,2.645333 0.512,0 1.19467,-0.08533 1.70667,-0.426667 l 0.0853,1.706667 c -0.68267,0.256 -1.536,0.426667 -2.21867,0.426667 -2.64533,0 -3.15733,-1.450667 -3.15733,-3.754667 v -6.229333 h -2.47467 V 52.48 h 2.47467 v -3.242666 h 1.87733 V 52.48 h 3.328 z m 3.41334,-7.424 c 0.768,0 1.36533,0.597333 1.36533,1.365333 0,0.768 -0.59733,1.365333 -1.36533,1.365333 -0.768,0 -1.36534,-0.597333 -1.36534,-1.365333 0,-0.682667 0.59734,-1.365333 1.36534,-1.365333 z M 289.74933,52.48 h 1.87733 v 11.264 h -1.87733 z m 11.008,-0.256 c 3.49867,0 6.05867,2.389334 6.05867,5.973334 0,3.498666 -2.56,5.973333 -6.05867,5.973333 -3.49867,0 -6.05867,-2.389333 -6.05867,-5.973333 0.0853,-3.584 2.64534,-5.973334 6.05867,-5.973334 z m 0,10.154667 c 2.47467,0 4.01067,-1.877333 4.01067,-4.181333 0,-2.304 -1.536,-4.181334 -4.01067,-4.181334 -2.47467,0 -4.01067,1.877334 -4.01067,4.181334 0,2.304 1.62134,4.181333 4.01067,4.181333 z m 8.96,-7.168 c 0,-1.024 -0.0853,-1.962667 -0.0853,-2.645333 h 1.792 c 0,0.597333 0.0853,1.194666 0.0853,1.877333 h 0.0853 c 0.512,-1.109333 1.87734,-2.133333 3.75467,-2.133333 2.98667,0 4.26667,1.877333 4.26667,4.608 v 6.997333 h -1.87734 V 57.088 c 0,-1.877333 -0.85333,-3.072 -2.56,-3.072 -2.47466,0 -3.49866,1.792 -3.49866,4.352 v 5.546667 h -1.87734 v -8.704 z m 20.48,-8.533333 h 5.20533 c 2.816,0 5.71734,1.024 5.71734,4.181333 0,1.962667 -1.19467,3.328 -2.98667,3.84 v 0.08533 c 2.21867,0.170667 3.84,1.962667 3.84,4.181334 0,3.754666 -3.49867,4.778666 -6.656,4.778666 h -5.12 z m 2.048,7.253333 h 2.816 c 1.87733,0 3.92533,-0.426667 3.92533,-2.816 0,-2.133333 -1.87733,-2.56 -3.66933,-2.56 h -2.98667 v 5.376 z m 0,8.021333 h 3.41333 c 1.96267,0 4.096,-0.768 4.096,-2.986666 0,-2.389334 -2.048,-3.072 -4.096,-3.072 H 332.16 V 61.952 Z M 354.944,61.098667 c 0,1.024 0.0853,1.962667 0.0853,2.645333 h -1.792 c 0,-0.597333 -0.0853,-1.194666 -0.0853,-1.877333 h -0.0853 C 352.5547,62.976 351.18937,64 349.31204,64 c -2.98667,0 -4.26667,-1.877333 -4.26667,-4.608 v -6.997333 h 1.87733 v 6.826667 c 0,1.877333 0.85334,3.072 2.56,3.072 2.47467,0 3.49867,-1.792 3.49867,-4.352 v -5.546667 h 1.87733 v 8.704 z m 3.584,-5.888 c 0,-1.024 -0.0853,-1.962667 -0.0853,-2.645333 h 1.792 c 0,0.597333 0.0853,1.194666 0.0853,1.877333 h 0.0853 c 0.512,-1.109333 1.87733,-2.133333 3.75467,-2.133333 0.256,0 0.512,0 0.768,0.08533 l -0.0853,1.877333 c -0.34133,-0.08533 -0.68266,-0.170666 -1.024,-0.170666 -2.304,0 -3.328,1.621333 -3.328,4.181333 v 5.546667 h -1.87734 v -8.618664 z m 18.176,6.570667 c -1.36534,1.706666 -2.90134,2.304 -5.03467,2.304 -3.584,0 -5.71733,-2.645334 -5.71733,-5.973334 0,-3.498666 2.47466,-5.973333 5.80266,-5.973333 3.15734,0 5.376,2.133333 5.376,5.888 V 58.624 H 368 c 0.17066,1.962667 1.62133,3.584 3.66933,3.584 1.62133,0 2.73067,-0.597333 3.584,-1.706666 z M 375.08266,57.088 c -0.0853,-1.877333 -1.36533,-3.157333 -3.41333,-3.157333 -2.048,0 -3.41333,1.28 -3.66933,3.157333 z m 4.77867,-3.157333 C 381.056,52.736 382.67733,52.224 384.384,52.224 c 3.328,0 4.77866,1.621334 4.77866,4.778667 v 4.864 c 0,0.682667 0.0853,1.365333 0.17067,1.962667 H 387.456 c -0.0853,-0.512 -0.0853,-1.194667 -0.0853,-1.706667 h -0.0853 c -0.768,1.194667 -2.048,1.962667 -3.75467,1.962667 -2.304,0 -4.18133,-1.194667 -4.18133,-3.328 0,-3.754667 4.352,-3.925334 7.168,-3.925334 h 0.68267 v -0.341333 c 0,-1.621333 -1.024,-2.474667 -2.816,-2.474667 -1.19467,0 -2.47467,0.426667 -3.328,1.194667 z m 5.46133,4.437333 c -2.38933,0 -3.92533,0.682667 -3.92533,2.133334 0,1.450666 1.024,1.962666 2.47467,1.962666 2.13333,0 3.328,-1.536 3.328,-3.413333 V 58.368 Z m 17.06667,2.730667 c 0,1.024 0.0853,1.962667 0.0853,2.645333 h -1.792 c 3e-5,-0.597333 -0.0853,-1.194666 -0.0853,-1.877333 h -0.0853 C 400.00003,62.976 398.63469,64 396.75736,64 c -2.98667,0 -4.26667,-1.877333 -4.26667,-4.608 v -6.997333 h 1.87734 v 6.826667 c 0,1.877333 0.85333,3.072 2.56,3.072 2.47466,0 3.49866,-1.792 3.49866,-4.352 v -5.546667 h 1.87734 v 8.704 z"
     id="path151"
     style="stroke-width:0.853333" />
  <path
     fill="#2cb34a"
     d="m 65.749333,51.712 13.568,2.133334 v 9.984 h -13.568 z m 22.86933,-29.354666 h -9.30133 v -2.730667 c 0,-4.096 0.768,-7.68 5.97333,-7.68 1.10934,0 2.21867,0.170667 3.328,0.426667 V 0.6826667 c 0,0 -0.256,-0.085333 -1.792,-0.3413333 C 85.205333,0.0853334 83.584003,0 81.792003,0 67.626666,0 65.749333,9.7279997 65.749333,19.2 v 15.36 l 22.86933,-3.669333 z M 157.056,0.9386667 H 143.57333 V 22.101334 L 157.056,19.882667 Z M 94.933333,85.333334 H 108.416 V 61.696 c 2.98666,2.048 6.656,3.157334 10.83733,3.157334 3.84,0 7.33867,-1.024 10.32533,-2.901334 L 94.933333,56.32 Z M 118.912,21.418667 c -4.18134,0 -7.59467,1.194667 -10.496,3.413333 V 22.357334 H 94.933333 v 7.509333 l 34.730667,-5.632 c -3.072,-1.792 -6.74134,-2.816 -10.752,-2.816 z M 45.696,48.384 c -1.450667,2.218667 -3.84,3.754667 -7.253334,3.754667 -5.802666,0 -8.874666,-4.608 -8.874666,-9.045333 0,-4.522667 3.072,-9.045334 8.874666,-9.045334 3.413334,0 5.802667,1.536 7.253334,3.754667 L 59.52,35.584 C 56.533333,27.050667 48.597333,21.418667 38.357333,21.418667 25.386666,21.418667 16,30.549334 16,43.093334 16,55.637334 25.386666,64.768 38.357333,64.768 48.512,64.768 56.533333,59.136 59.52,50.602667 Z"
     id="path153"
     style="stroke-width:0.853333" />
  <path
     fill="#addc91"
     d="m 79.317333,34.133334 v 19.712 L 65.749333,51.712 V 34.56 l 22.86933,-3.669333 v 3.242667 z m 64.085327,29.696 V 22.016 L 157.056,19.797334 v 4.693333 c 2.98666,-2.048 6.48533,-3.157333 10.66666,-3.157333 11.43467,0 20.13867,9.301333 20.13867,21.674666 0,12.8 -8.448,21.674667 -20.48,21.674667 -4.18133,0 -8.27733,-1.194667 -11.09333,-3.413333 V 63.744 h -12.88534 z m 13.22667,-20.736 c 0,4.522666 3.072,9.045333 8.87467,9.045333 5.80266,0 8.87466,-4.522667 8.87466,-9.045333 0,-4.522667 -3.072,-9.045334 -8.87466,-9.045334 -5.80267,0 -8.87467,4.522667 -8.87467,9.045334 z M 129.408,61.952 94.762663,56.32 V 29.866667 l 34.730667,-5.632 c 6.05867,3.584 9.728,10.410667 9.728,18.858667 0,8.277333 -3.84,15.189333 -9.81333,18.858666 z m -3.75467,-18.858666 c 0,-4.522667 -3.072,-9.045334 -8.87467,-9.045334 -5.80266,0 -8.87466,4.522667 -8.87466,9.045334 0,4.522666 3.072,9.045333 8.87466,9.045333 5.888,0.08533 8.87467,-4.522667 8.87467,-9.045333 z"
     id="path155"
     style="stroke-width:0.853333" />
</svg>
