<?xml version="1.0" encoding="UTF-8" standalone="no"?>
<!-- Created with Inkscape (http://www.inkscape.org/) -->

<svg
   version="1.1"
   id="svg1517"
   xml:space="preserve"
   width="456.42606"
   height="85.333336"
   viewBox="0 0 456.42606 85.333336"
   sodipodi:docname="chicago-with-text.svg"
   inkscape:version="1.1.1 (c3084ef, 2021-09-22)"
   xmlns:inkscape="http://www.inkscape.org/namespaces/inkscape"
   xmlns:sodipodi="http://sodipodi.sourceforge.net/DTD/sodipodi-0.dtd"
   xmlns="http://www.w3.org/2000/svg"
   xmlns:svg="http://www.w3.org/2000/svg"><defs
     id="defs1521"><clipPath
       clipPathUnits="userSpaceOnUse"
       id="clipPath1549"><path
         d="M 0,612 H 792 V 0 H 0 Z"
         id="path1547" /></clipPath><clipPath
       clipPathUnits="userSpaceOnUse"
       id="clipPath1609"><path
         d="M 0,0 H 792 V 612 H 0 Z"
         id="path1607" /></clipPath></defs><sodipodi:namedview
     id="namedview1519"
     pagecolor="#ffffff"
     bordercolor="#666666"
     borderopacity="1.0"
     inkscape:pageshadow="2"
     inkscape:pageopacity="0.0"
     inkscape:pagecheckerboard="0"
     showgrid="false"
     fit-margin-top="0"
     fit-margin-left="16"
     fit-margin-right="16"
     fit-margin-bottom="0"
     inkscape:zoom="0.5"
     inkscape:cx="227"
     inkscape:cy="541"
     inkscape:window-width="1406"
     inkscape:window-height="847"
     inkscape:window-x="0"
     inkscape:window-y="25"
     inkscape:window-maximized="0"
     inkscape:current-layer="g1523" /><g
     id="g1523"
     inkscape:groupmode="layer"
     inkscape:label="_uchicago.identity.guidelines"
     transform="matrix(1.3333333,0,0,-1.3333333,-284.20653,1013.1468)"><g
       id="g1603"
       transform="matrix(0.48237438,0,0,0.48237438,202.54893,548.24314)"><g
         id="g1605"
         clip-path="url(#clipPath1609)"><g
           id="g1611"
           transform="translate(703.1044,429.3434)"><path
             d="M 0,0 0.042,0.081 0.037,0.173 C -0.051,1.776 -0.1,3.846 -0.1,6.003 V 6.43 L -0.517,6.335 C -1.053,6.212 -3.782,6.212 -6.421,6.212 h -8.156 c -1.668,0 -3.151,0.038 -5.12,0.131 l -0.087,0.004 -0.079,-0.039 c -0.367,-0.179 -0.427,-0.699 -0.438,-0.855 -0.025,-0.387 0.088,-0.694 0.312,-0.842 l 0.853,-0.142 c 2.249,-0.271 2.359,-0.516 2.359,-5.248 v -15.952 c 0,-4.686 -0.11,-4.929 -2.358,-5.201 l -1.224,-0.146 -0.083,-0.082 c -0.253,-0.25 -0.292,-0.663 -0.244,-0.964 0.052,-0.33 0.204,-0.58 0.416,-0.688 l 0.079,-0.04 0.089,0.005 c 2.075,0.085 3.57,0.131 5.525,0.131 1.79,0 3.325,-0.048 5.885,-0.132 l 0.085,-0.003 0.078,0.039 c 0.29,0.145 0.415,0.539 0.434,0.861 0.023,0.383 -0.09,0.687 -0.313,0.833 l -1.662,0.187 c -2.259,0.192 -2.393,0.483 -2.393,5.2 v 6.162 c 0,0.856 0,0.856 1.122,0.856 h 3.014 c 1.555,0 2.715,-0.036 3.309,-0.206 0.622,-0.198 0.958,-0.605 1.193,-1.443 l 0.466,-1.835 0.082,-0.07 c 0.439,-0.376 1.379,-0.356 1.66,0.071 l 0.057,0.085 v 0.103 c 0,0.46 -0.035,1.052 -0.074,1.71 -0.048,0.803 -0.102,1.714 -0.102,2.589 0,0.898 0.054,1.847 0.101,2.685 0.039,0.689 0.075,1.311 0.075,1.791 v 0.102 l -0.057,0.086 c -0.21,0.317 -0.66,0.351 -0.843,0.351 -0.368,0 -0.688,-0.12 -0.857,-0.321 l -0.467,-1.914 c -0.249,-1.075 -0.547,-1.182 -0.885,-1.303 -0.468,-0.156 -1.836,-0.25 -3.658,-0.25 h -3.014 c -1.122,0 -1.122,0 -1.122,0.855 v 9.352 c 0,1.432 0,1.432 0.991,1.432 h 2.702 c 1.832,0 3.278,0 4.212,-0.257 1.9,-0.494 2.469,-1.765 2.852,-3.939 l 0.022,-0.12 0.092,-0.079 c 0.17,-0.147 0.408,-0.228 0.67,-0.228 0.341,0 0.759,0.144 0.922,0.466 m -29.743,-8.618 c 0,7.483 -4.918,15.538 -15.719,15.538 -9.188,0 -16.117,-6.871 -16.117,-15.984 0,-7.633 5.536,-15.361 16.117,-15.361 8.962,0 15.719,6.796 15.719,15.807 m -5.113,-1.376 c 0,-9.135 -5.402,-12.376 -10.028,-12.376 -9.143,0 -11.583,9.256 -11.583,14.725 0,9.234 5.523,12.511 10.253,12.511 8.384,0 11.358,-8.005 11.358,-14.86 m -36.247,-75.543 c 0,-19.144 14.25,-36.054 37.86,-36.054 20.527,0 36.904,15.635 36.904,37.118 0,18.716 -12.338,36.477 -36.904,36.477 -21.907,0 -37.86,-16.273 -37.86,-37.541 m 10.635,3.403 c 0,23.29 14.356,30.841 25.418,30.841 20.312,0 28.076,-18.929 28.076,-36.479 0,-20.949 -12.124,-30.524 -24.886,-30.524 -20.95,0 -28.608,20.423 -28.608,36.162 M -83.966,4.638 c 0.226,0.197 0.346,0.516 0.321,0.855 -0.026,0.339 -0.195,0.637 -0.451,0.798 l -0.092,0.058 -0.109,-0.006 c -3.151,-0.184 -5.008,-0.183 -8.338,0 l -0.09,0.005 -0.082,-0.041 c -0.247,-0.124 -0.417,-0.374 -0.467,-0.684 -0.058,-0.358 0.053,-0.729 0.289,-0.968 l 0.086,-0.086 0.913,-0.1 c 0.861,-0.107 1.396,-0.317 1.552,-0.434 -0.14,-0.634 -1.69,-3.509 -2.63,-5.254 l -0.203,-0.377 c -1.067,-2.064 -2.299,-4.287 -3.857,-6.959 -1.167,2.109 -2.306,4.429 -3.41,6.678 -0.433,0.883 -0.866,1.762 -1.298,2.626 -0.32,0.641 -1.321,2.906 -1.338,3.259 0,0.089 0.204,0.267 1.573,0.463 l 0.687,0.104 0.081,0.081 c 0.239,0.241 0.342,0.678 0.248,1.06 -0.072,0.303 -0.263,0.526 -0.521,0.61 l -0.065,0.022 -0.067,-0.006 c -1.087,-0.086 -2.673,-0.13 -4.715,-0.13 -2.051,0 -3.677,0.042 -5.116,0.131 l -0.102,0.006 -0.089,-0.051 c -0.217,-0.124 -0.365,-0.357 -0.416,-0.654 -0.061,-0.356 0.031,-0.728 0.24,-0.971 l 0.079,-0.092 1.362,-0.242 c 1.173,-0.197 1.762,-0.297 3.254,-3.186 l 5.226,-10.196 c 1.253,-2.412 1.382,-2.911 1.382,-5.339 v -2.259 c 0,-4.81 -0.11,-5.057 -2.351,-5.291 l -1.497,-0.143 -0.085,-0.088 c -0.252,-0.253 -0.289,-0.667 -0.238,-0.97 0.053,-0.326 0.206,-0.573 0.418,-0.679 l 0.077,-0.039 0.087,0.004 c 2.387,0.086 3.94,0.131 5.792,0.131 1.799,0 3.386,-0.05 6.015,-0.132 l 0.087,-0.003 0.075,0.039 c 0.214,0.106 0.368,0.356 0.42,0.684 0.049,0.303 0.01,0.716 -0.244,0.968 l -0.089,0.088 -1.807,0.141 c -2.05,0.155 -2.344,0.492 -2.344,5.29 v 2.306 c 0,3.32 0.095,3.647 2.036,7.006 l 2.792,4.831 c 0.254,0.436 0.496,0.858 0.729,1.266 1.742,3.045 3.001,5.245 4.885,5.572 l 1.334,0.236 z m -15.529,-54.23 c -1.81,0.425 -7.446,1.594 -13.509,1.594 -16.059,0 -26.588,-4.995 -33.712,-12.442 -6.594,-7.017 -9.574,-16.163 -9.574,-25.204 0,-9.36 3.405,-17.76 9.786,-24.141 8.188,-8.296 19.781,-11.806 32.436,-11.806 5.744,0 13.401,1.277 19.039,2.765 2.019,0.53 3.935,0.958 5.208,0.958 0.428,0.319 0.428,0.959 0.109,1.276 -1.913,0.745 -2.552,3.295 -2.552,7.55 v 5.957 c 0,5.423 0.106,8.4 4.571,8.934 l 1.704,0.213 c 0.743,0.636 0.636,2.231 -0.106,2.658 -3.51,-0.212 -7.128,-0.318 -11.274,-0.318 -6.276,0 -12.124,0.106 -15.209,0.318 -0.745,-0.318 -0.851,-2.235 0,-2.658 l 4.68,-0.534 c 6.593,-0.743 6.912,-1.383 6.912,-10.314 v -4.256 c 0,-3.403 -0.531,-5.317 -1.061,-6.06 -1.174,-1.807 -5.106,-3.194 -11.703,-3.194 -21.376,0 -31.905,16.064 -31.905,36.481 0,15.952 9.043,30.629 29.674,30.629 10.848,0 18.823,-3.617 21.802,-15.101 0.639,-0.64 2.554,-0.534 2.872,0.318 -0.957,6.382 -1.597,11.912 -1.597,15.419 -1.275,-0.211 -4.572,0.534 -6.591,0.958 m -18.131,56.483 0.033,0.123 -0.056,0.115 c -0.162,0.33 -0.621,0.366 -0.812,0.366 -0.111,0 -0.274,-0.011 -0.417,-0.069 l -0.111,-0.043 -0.059,-0.104 c -0.569,-0.987 -0.805,-1.067 -3.163,-1.067 h -18.318 c -1.983,0 -2.872,0.103 -3.057,1.095 l -0.019,0.104 -0.076,0.075 c -0.124,0.123 -0.323,0.182 -0.611,0.182 -0.106,0 -0.465,-0.009 -0.661,-0.14 l -0.122,-0.081 -0.024,-0.144 c -0.312,-1.771 -0.967,-4.576 -1.67,-6.548 l -0.049,-0.137 0.065,-0.131 c 0.268,-0.533 1.175,-0.794 1.662,-0.428 l 0.072,0.053 0.036,0.083 c 0.451,1.026 0.877,1.995 1.911,2.944 0.977,0.897 3.189,1.018 5.222,1.018 h 2.438 c 0.988,0 0.988,0 0.988,-1.076 v -19.812 c 0,-4.802 -0.277,-5.011 -2.436,-5.2 l -1.595,-0.132 -0.15,-0.049 c -0.265,-0.163 -0.413,-0.495 -0.395,-0.888 0.013,-0.299 0.132,-0.668 0.423,-0.812 l 0.076,-0.038 0.085,0.002 c 2.712,0.082 4.349,0.132 6.148,0.132 1.732,0 3.162,-0.042 5.792,-0.132 l 0.086,-0.003 0.077,0.038 c 0.365,0.18 0.426,0.7 0.437,0.855 0.024,0.386 -0.088,0.692 -0.309,0.839 l -1.576,0.188 c -2.217,0.191 -2.348,0.483 -2.348,5.2 V 3.135 c -0.001,0.45 -0.001,0.875 0.071,0.947 0.075,0.075 0.556,0.075 0.875,0.075 h 3.144 c 2.374,0 3.99,-0.341 4.938,-1.042 0.419,-0.307 0.781,-1.429 0.972,-3.002 l 0.011,-0.098 0.063,-0.077 c 0.163,-0.198 0.463,-0.316 0.805,-0.316 0.421,0 0.772,0.181 0.916,0.471 l 0.044,0.087 -0.01,0.098 c -0.129,1.271 0.177,4.84 0.654,6.613 m -40.4,-23.532 v 15.775 c 0,4.843 0.133,5.142 2.385,5.333 l 1.201,0.095 0.073,0.05 c 0.221,0.148 0.333,0.454 0.309,0.841 -0.011,0.155 -0.072,0.675 -0.436,0.855 l -0.077,0.038 -0.087,-0.003 c -2.096,-0.083 -3.664,-0.131 -5.482,-0.131 -1.901,0 -3.425,0.046 -5.571,0.131 l -0.087,0.003 -0.079,-0.039 c -0.362,-0.181 -0.422,-0.703 -0.433,-0.858 -0.024,-0.385 0.088,-0.69 0.308,-0.837 l 0.074,-0.05 1.195,-0.094 c 2.259,-0.192 2.392,-0.491 2.392,-5.334 v -15.775 c 0,-4.771 -0.112,-5.019 -2.403,-5.291 l -1.226,-0.146 -0.083,-0.084 c -0.251,-0.251 -0.289,-0.664 -0.241,-0.967 0.053,-0.327 0.204,-0.577 0.416,-0.683 l 0.079,-0.039 0.088,0.004 c 2.255,0.086 3.736,0.131 5.571,0.131 1.761,0 3.228,-0.045 5.482,-0.131 l 0.087,-0.004 0.078,0.039 c 0.365,0.181 0.425,0.703 0.435,0.858 0.023,0.384 -0.089,0.689 -0.309,0.835 l -1.26,0.187 c -2.288,0.272 -2.399,0.52 -2.399,5.291 m -7.302,-100.589 c -4.574,0.532 -5.955,2.128 -9.04,11.274 l -14.571,42.753 c -1.593,4.678 -3.295,9.571 -4.68,14.251 -0.212,0.743 -0.955,0.956 -1.593,0.956 -1.172,-1.383 -2.977,-3.297 -5.531,-4.042 0.321,-1.702 -0.318,-3.72 -1.808,-7.549 l -10.847,-28.715 c -4.467,-11.912 -7.446,-18.825 -9.361,-23.716 -1.487,-3.829 -3.827,-5.001 -6.379,-5.212 l -3.51,-0.319 c -0.638,-0.532 -0.424,-2.235 0.215,-2.659 2.871,0.105 6.697,0.318 10.207,0.318 4.998,-0.105 8.298,-0.105 11.063,-0.318 0.955,0.424 0.955,2.127 0.211,2.659 l -3.509,0.319 c -2.553,0.211 -3.086,0.851 -3.086,2.128 0,1.169 0.746,4.04 2.341,8.827 l 3.721,11.165 c 0.746,2.235 1.383,2.553 4.042,2.553 h 16.059 c 3.189,0 3.616,-0.318 4.362,-2.658 l 4.677,-14.464 c 0.853,-2.552 1.383,-4.467 1.383,-5.636 0,-1.064 -1.488,-1.704 -3.719,-1.915 l -3.087,-0.319 c -0.746,-0.532 -0.639,-2.235 0.213,-2.659 3.085,0.105 7.124,0.318 12.229,0.318 4.786,0 8.509,-0.105 12.869,-0.318 0.531,0.424 0.743,2.127 0,2.659 z m -27.438,28.928 h -13.081 c -2.978,0 -3.084,0.106 -2.234,2.55 l 6.701,18.507 c 1.17,3.189 2.232,5.743 2.55,6.275 h 0.214 c 0.64,-1.275 1.595,-4.149 2.444,-6.7 l 5.745,-17.335 c 0.958,-2.873 0.746,-3.297 -2.339,-3.297 m 4.34,88.588 c 0,1.71 0.641,4.58 4.935,4.58 3.908,0 5.098,-2.543 5.699,-4.757 l 0.066,-0.127 c 0.141,-0.174 0.38,-0.269 0.67,-0.269 0.335,0 0.785,0.135 0.98,0.432 l 0.056,0.085 v 0.102 c 0,1.811 -0.373,4.341 -0.814,5.526 l -0.083,0.222 h -0.236 c -0.313,0 -0.903,0.078 -1.468,0.251 -1.058,0.285 -2.719,0.589 -4.205,0.589 -5.611,0 -9.381,-3.2 -9.381,-7.961 0,-4.048 3.093,-6.692 4.938,-7.908 l 4.211,-2.751 c 3.06,-1.968 3.481,-4.007 3.481,-5.918 0,-2.365 -1.607,-4.753 -5.2,-4.753 -4.485,0 -6.443,3.458 -7.296,6.359 l -0.044,0.094 c -0.133,0.198 -0.372,0.306 -0.676,0.306 -0.294,0 -0.717,-0.113 -0.946,-0.432 l -0.067,-0.095 0.004,-0.117 c 0.084,-2.003 0.654,-5.283 1.237,-6.352 l 0.045,-0.084 0.083,-0.048 c 0.868,-0.507 3.298,-1.685 7.083,-1.685 5.851,0 9.78,3.432 9.78,8.539 0,3.543 -1.864,6.42 -5.698,8.795 l -3.547,2.217 c -1.347,0.836 -3.607,2.617 -3.607,5.16 m -11.162,-24.196 c 0.204,0.162 0.308,0.424 0.269,0.684 -0.037,0.242 -0.186,0.437 -0.4,0.521 l -0.099,0.022 c -1.057,0.077 -2.126,0.51 -2.864,1.163 -3.051,2.559 -5.478,6.296 -8.835,11.706 -0.233,0.374 -0.266,0.546 -0.261,0.619 1.473,0.614 5.631,2.785 5.631,7.666 0,3.712 -2.101,5.587 -3.86,6.503 -2.222,1.207 -5.069,1.369 -7.561,1.369 -4.057,0 -7.206,-0.113 -9.911,-0.354 l -0.123,-0.035 c -0.257,-0.129 -0.428,-0.415 -0.456,-0.763 -0.03,-0.381 0.111,-0.746 0.363,-0.928 l 0.07,-0.052 1.507,-0.185 c 1.445,-0.176 1.652,-0.489 1.652,-4.845 v -15.912 c 0,-4.686 -0.109,-4.929 -2.358,-5.201 l -1.24,-0.148 -0.087,-0.1 c -0.251,-0.291 -0.276,-0.714 -0.216,-1.012 0.06,-0.3 0.207,-0.519 0.413,-0.621 l 0.077,-0.038 0.087,0.004 c 1.97,0.081 3.582,0.131 5.525,0.131 1.831,0 3.37,-0.05 5.26,-0.131 l 0.088,-0.005 0.078,0.04 c 0.326,0.162 0.407,0.587 0.427,0.762 0.044,0.392 -0.059,0.732 -0.275,0.911 l -0.073,0.06 -1.027,0.147 c -2.277,0.316 -2.365,0.51 -2.365,5.201 v 5.586 c 0,0.632 0,0.632 1.741,0.632 1.703,0 2.281,-0.408 2.868,-1.269 0.673,-0.978 1.457,-2.219 2.215,-3.419 0.793,-1.253 1.541,-2.437 2.13,-3.275 3.044,-4.335 5.341,-5.727 9.451,-5.727 0.855,0 1.604,0.087 2.055,0.237 z m -13.356,16.49 c -1.266,-0.959 -2.993,-1.082 -4.356,-1.082 -2.001,0 -2.618,0.075 -2.801,0.131 -0.051,0.183 -0.051,0.706 -0.051,1.213 v 10.37 c 0,0.996 0,1.077 2.54,1.077 4.982,0 6.749,-3.493 6.749,-6.484 0,-2.456 -0.662,-4.117 -2.081,-5.225 m -22.901,-9.996 0.021,0.106 -0.045,0.099 c -0.191,0.427 -0.662,0.618 -1.043,0.618 -0.219,0 -0.417,-0.059 -0.572,-0.17 l -0.106,-0.125 c -1.271,-2.537 -2.415,-3.822 -2.996,-4.145 -0.952,-0.476 -2.293,-0.629 -5.52,-0.629 -3.693,0 -4.642,0.441 -5.111,0.911 -0.629,0.668 -0.753,2.111 -0.753,4.376 v 6.247 c 0,0.858 0,0.858 1.123,0.858 h 2.571 c 1.548,0 2.705,-0.035 3.329,-0.212 0.616,-0.153 0.931,-0.554 1.127,-1.43 l 0.396,-1.726 0.069,-0.142 c 0.166,-0.2 0.477,-0.32 0.831,-0.32 0.406,0 0.735,0.153 0.88,0.409 l 0.046,0.079 v 0.091 c 0,0.433 -0.035,1.004 -0.073,1.646 -0.049,0.808 -0.105,1.723 -0.105,2.61 0,0.927 0.056,1.876 0.103,2.712 0.04,0.678 0.075,1.286 0.075,1.762 v 0.09 l -0.045,0.079 c -0.146,0.258 -0.476,0.412 -0.883,0.412 -0.353,0 -0.663,-0.12 -0.829,-0.32 l -0.427,-1.968 c -0.2,-1.013 -0.449,-1.164 -0.835,-1.292 -0.475,-0.159 -1.809,-0.249 -3.659,-0.249 h -2.571 c -1.123,0 -1.123,0 -1.123,0.902 v 8.862 c 0,1.432 0,1.432 0.992,1.432 h 3.189 c 1.882,0 3.319,-0.044 4.218,-0.258 2.019,-0.505 2.425,-1.783 3.04,-3.717 l 0.084,-0.266 0.062,-0.112 c 0.151,-0.184 0.407,-0.284 0.722,-0.284 0.306,0 0.733,0.104 0.93,0.398 l 0.067,0.1 -0.059,0.652 c -0.229,2.582 -0.44,4.773 -0.678,5.447 l -0.104,0.29 -0.3,-0.073 c -0.492,-0.122 -3.241,-0.122 -5.898,-0.122 h -8.331 c -1.708,0 -3.17,0.037 -5.213,0.131 l -0.088,0.004 -0.077,-0.039 c -0.365,-0.179 -0.427,-0.698 -0.437,-0.852 -0.026,-0.388 0.086,-0.696 0.306,-0.844 l 0.86,-0.143 c 2.266,-0.269 2.402,-0.563 2.402,-5.248 v -15.952 c 0,-4.802 -0.276,-5.01 -2.439,-5.2 l -1.582,-0.143 -0.088,-0.087 c -0.251,-0.251 -0.291,-0.663 -0.242,-0.966 0.053,-0.328 0.205,-0.579 0.418,-0.685 l 0.077,-0.039 0.087,0.003 c 2.56,0.084 4.103,0.132 6.016,0.132 h 3.987 c 3.867,0 7.75,-0.043 11.871,-0.132 l 0.219,-0.005 0.095,0.198 c 0.595,1.244 1.708,4.683 2.019,6.239 m -30.4,22.071 c 0.24,0.242 0.28,0.663 0.241,0.95 -0.044,0.323 -0.187,0.568 -0.404,0.693 l -0.087,0.051 -0.103,-0.006 c -1.485,-0.089 -2.844,-0.131 -4.278,-0.131 -1.741,0 -3.413,0.047 -4.584,0.131 l -0.104,0.007 -0.091,-0.053 c -0.244,-0.14 -0.411,-0.434 -0.444,-0.784 -0.035,-0.354 0.079,-0.681 0.304,-0.875 l 0.08,-0.07 0.9,-0.099 c 1.55,-0.177 1.693,-0.503 1.694,-0.503 0,-0.289 -0.043,-0.734 -0.375,-1.605 -0.763,-1.93 -2.876,-7.005 -4.116,-9.916 -0.328,-0.754 -0.742,-1.738 -1.2,-2.821 -0.84,-1.992 -1.863,-4.416 -2.732,-6.321 -2.097,4.817 -4.029,9.65 -5.988,14.588 -1.297,3.182 -2.042,5.496 -2.18,6.072 0.068,0.141 0.452,0.332 1.777,0.507 l 0.765,0.101 0.077,0.066 c 0.226,0.194 0.34,0.521 0.306,0.874 -0.034,0.351 -0.201,0.646 -0.445,0.786 l -0.087,0.051 -0.1,-0.005 c -1.972,-0.093 -3.521,-0.131 -5.346,-0.131 -1.85,0 -3.264,0.04 -4.587,0.131 l -0.109,0.007 -0.093,-0.059 c -0.258,-0.16 -0.427,-0.459 -0.454,-0.798 -0.026,-0.339 0.094,-0.658 0.32,-0.855 l 0.081,-0.07 0.903,-0.099 c 1.724,-0.201 2.311,-0.992 3.314,-3.426 l 7.799,-19.229 c 0.928,-2.302 1.608,-4.272 2.022,-5.852 l 0.043,-0.165 0.159,-0.065 c 0.257,-0.104 0.524,-0.157 0.792,-0.157 0.255,0 0.496,0.068 0.679,0.19 l 0.1,0.066 0.035,0.113 c 0.761,2.38 2.888,7.603 4.596,11.532 l 2.392,5.45 c 2.054,4.66 3.763,8.172 4.941,10.152 0.565,0.911 1.157,1.315 2.038,1.389 l 1.458,0.097 z m -28.935,-61.69 c -8.083,-6.276 -13.401,-16.38 -13.401,-28.185 0,-13.717 6.595,-23.395 15.102,-29.246 7.765,-5.21 16.91,-7.125 26.482,-7.125 6.806,0 14.466,1.596 16.803,2.446 1.171,0.425 2.447,0.849 3.723,1.064 1.595,2.02 4.36,9.039 5.105,14.57 -0.424,0.743 -2.022,0.956 -2.764,0.426 -2.447,-6.275 -8.51,-15.211 -22.229,-15.211 -17.441,0 -31.587,12.34 -31.587,34.672 0,22.015 13.827,32.331 30.099,32.331 15.422,0 20.206,-8.294 21.801,-15.528 0.743,-0.636 2.34,-0.53 2.871,0.213 -0.85,6.487 -1.381,13.187 -1.489,15.634 -0.958,-0.106 -1.7,0.107 -2.977,0.424 -4.999,1.383 -13.082,2.552 -18.825,2.552 -11.06,0 -20.95,-2.976 -28.714,-9.037 m -13.597,40.394 v 15.775 c 0,4.795 0.156,5.144 2.391,5.333 l 1.196,0.095 0.073,0.05 c 0.222,0.148 0.334,0.455 0.308,0.843 -0.009,0.155 -0.071,0.674 -0.437,0.853 l -0.077,0.038 -0.086,-0.003 c -2.093,-0.083 -3.661,-0.131 -5.481,-0.131 -1.904,0 -3.426,0.046 -5.569,0.131 l -0.086,0.003 -0.077,-0.038 c -0.366,-0.179 -0.427,-0.7 -0.438,-0.855 -0.024,-0.387 0.088,-0.694 0.311,-0.842 l 0.073,-0.049 1.193,-0.094 c 2.236,-0.19 2.393,-0.539 2.393,-5.334 v -15.775 c 0,-4.771 -0.113,-5.018 -2.404,-5.291 l -1.224,-0.146 -0.083,-0.083 c -0.253,-0.253 -0.292,-0.667 -0.242,-0.97 0.053,-0.327 0.206,-0.576 0.42,-0.681 l 0.077,-0.039 0.087,0.004 c 2.252,0.086 3.731,0.131 5.569,0.131 1.754,0 3.279,-0.047 5.481,-0.131 l 0.086,-0.004 0.078,0.038 c 0.367,0.181 0.428,0.702 0.437,0.857 0.025,0.385 -0.088,0.691 -0.31,0.837 l -1.255,0.187 c -2.292,0.273 -2.404,0.52 -2.404,5.291 m -22.243,-87.083 v 37.861 c 0,11.273 0.212,13.082 6.487,13.612 l 2.659,0.213 c 0.638,0.428 0.424,2.341 -0.213,2.658 -5.318,-0.212 -8.933,-0.317 -13.187,-0.317 -4.467,0 -8.083,0.105 -13.4,0.317 -0.638,-0.317 -0.851,-2.23 -0.213,-2.658 l 2.659,-0.213 c 6.274,-0.53 6.487,-2.339 6.487,-13.612 v -37.861 c 0,-11.274 -0.213,-12.761 -6.487,-13.506 l -2.659,-0.319 c -0.638,-0.637 -0.425,-2.341 0.213,-2.659 5.317,0.213 8.933,0.318 13.4,0.318 4.254,0 7.869,-0.105 13.187,-0.318 0.637,0.318 0.851,2.235 0.213,2.659 l -2.659,0.319 c -6.275,0.745 -6.487,2.232 -6.487,13.506 m 5.484,108.379 c 0.213,0.214 0.32,0.561 0.281,0.906 -0.036,0.316 -0.193,0.582 -0.429,0.73 l -0.093,0.058 -0.109,-0.006 c -1.454,-0.085 -2.609,-0.131 -4.545,-0.131 -1.563,0 -3.025,0.037 -5.213,0.131 l -0.069,0.003 -0.064,-0.024 c -0.258,-0.095 -0.438,-0.337 -0.499,-0.665 -0.072,-0.396 0.048,-0.797 0.306,-1.02 l 0.079,-0.068 0.855,-0.1 c 1.521,-0.19 2.293,-0.417 2.501,-0.731 0.529,-0.837 0.833,-4.113 0.833,-8.989 v -9.484 c 0,-0.429 0,-0.925 -0.028,-1.265 -1.536,1.588 -3.144,3.387 -5.142,5.624 l -6.164,6.916 c -4.384,4.918 -6.894,8.143 -7.461,9.587 l -0.099,0.253 -0.27,-0.041 c -0.531,-0.08 -1.256,-0.127 -1.988,-0.127 -0.775,0 -3.133,0 -4.981,0.131 l -0.093,0.006 -0.084,-0.042 c -0.235,-0.119 -0.398,-0.362 -0.449,-0.669 -0.06,-0.369 0.046,-0.755 0.27,-0.982 l 0.084,-0.086 0.87,-0.101 c 1.181,-0.147 2.062,-0.481 2.537,-0.956 0.827,-0.905 0.887,-1.722 0.887,-2.959 l 10e-4,-13.21 c 0.002,-2.142 0.008,-7.159 -0.547,-8.587 -0.104,-0.227 -0.48,-0.53 -1.677,-0.689 l -1.315,-0.145 -0.085,-0.084 c -0.197,-0.197 -0.298,-0.512 -0.27,-0.846 0.028,-0.333 0.174,-0.617 0.401,-0.778 l 0.097,-0.069 0.119,0.007 c 1.541,0.085 2.73,0.131 4.591,0.131 1.5,0 2.998,-0.038 5.17,-0.131 l 0.117,-0.006 0.095,0.068 c 0.208,0.148 0.348,0.384 0.392,0.665 0.05,0.324 -0.033,0.66 -0.227,0.921 l -0.09,0.121 -1.531,0.147 c -1.063,0.086 -1.806,0.336 -1.991,0.673 -0.478,0.842 -0.751,4.124 -0.751,9.004 v 9.661 c 0,0.793 0.013,1.638 0.092,2.24 0.705,-0.788 1.878,-2.174 2.933,-3.422 0.724,-0.856 1.394,-1.649 1.827,-2.146 l 10.282,-11.697 c 3.415,-3.887 5.052,-5.817 5.649,-6.663 l 0.102,-0.144 h 0.176 c 0.583,0 1.017,0.27 1.166,0.722 l 0.023,0.071 -0.009,0.074 c -0.06,0.516 -0.13,2.273 -0.13,7.714 l -0.002,11.192 c -0.008,2.27 -0.023,6.994 0.629,8.376 0.056,0.112 0.587,0.49 2.227,0.746 l 0.733,0.104 z m -39.727,0.066 c 0.197,0.238 0.289,0.603 0.236,0.932 -0.045,0.277 -0.19,0.503 -0.407,0.639 l -0.091,0.057 -0.108,-0.006 c -1.54,-0.085 -2.735,-0.131 -4.634,-0.131 -1.699,0 -3.346,0.043 -5.033,0.131 l -0.113,0.006 -0.094,-0.064 c -0.205,-0.136 -0.346,-0.388 -0.388,-0.69 -0.046,-0.332 0.036,-0.652 0.228,-0.877 l 0.092,-0.108 1.249,-0.096 c 1.017,-0.084 1.709,-0.355 1.946,-0.762 0.516,-0.91 0.8,-4.108 0.8,-9.003 v -5.098 c 0,-5.222 -1.479,-11.446 -8.523,-11.446 -5.906,0 -8.657,3.652 -8.657,11.492 v 9.57 c 0,4.713 0.154,5.056 2.346,5.247 l 1.152,0.092 0.073,0.05 c 0.221,0.147 0.334,0.446 0.309,0.819 -0.02,0.309 -0.145,0.69 -0.435,0.833 l -0.079,0.038 -0.086,-0.003 c -2.101,-0.085 -3.59,-0.131 -5.436,-0.131 -1.82,0 -3.388,0.048 -5.48,0.131 l -0.086,0.003 -0.078,-0.038 c -0.29,-0.142 -0.416,-0.521 -0.437,-0.829 -0.025,-0.374 0.086,-0.674 0.307,-0.823 l 0.075,-0.05 1.195,-0.092 c 2.193,-0.191 2.347,-0.534 2.347,-5.247 v -10.456 c 0,-5.359 1.103,-8.666 3.574,-10.72 1.952,-1.669 4.815,-2.516 8.51,-2.516 3.491,0 6.83,1.283 8.712,3.345 2.148,2.301 3.192,5.841 3.192,10.82 v 5.009 c 0,2.246 0,7.507 0.591,8.899 0.206,0.446 0.965,0.787 1.932,0.866 l 1.208,0.096 z m -50.942,-56.759 c 0.638,0.428 0.425,2.341 -0.213,2.658 -4.573,-0.212 -8.189,-0.317 -12.336,-0.317 -4.573,0 -8.189,0.211 -13.401,0.317 -0.638,-0.317 -0.851,-2.23 -0.212,-2.658 l 2.764,-0.213 c 5.532,-0.425 6.276,-2.234 6.276,-13.4 v -38.286 c 0,-11.165 -0.213,-12.231 -6.169,-13.293 l -1.807,-0.319 c -0.639,-0.637 -0.425,-2.341 0.211,-2.659 4.149,0.105 7.765,0.318 12.338,0.318 4.147,0 7.763,-0.105 13.506,-0.318 0.639,0.318 0.851,2.235 0.213,2.659 l -3.083,0.319 c -5.956,0.638 -6.489,2.128 -6.489,13.293 v 14.997 c 0,3.188 0.213,3.401 5.318,3.401 h 30.416 c 5.105,0 5.319,-0.213 5.319,-3.401 v -14.997 c 0,-11.165 0,-12.231 -6.489,-13.293 l -2.02,-0.319 c -0.638,-0.637 -0.425,-2.341 0.212,-2.659 4.68,0.213 8.51,0.318 12.869,0.318 4.148,0 7.764,-0.105 12.869,-0.318 0.637,0.318 0.849,2.235 0.213,2.659 l -2.554,0.319 c -6.168,0.745 -6.38,2.128 -6.38,13.293 v 38.286 c 0,11.166 0.212,12.764 6.38,13.4 l 2.235,0.213 c 0.638,0.428 0.424,2.341 -0.214,2.658 -4.785,-0.212 -8.401,-0.317 -12.549,-0.317 -4.359,0 -7.977,0.105 -12.869,0.317 -0.637,-0.317 -0.85,-2.23 -0.212,-2.658 l 2.02,-0.213 c 6.275,-0.636 6.489,-2.234 6.489,-13.4 V -77.88 c 0,-3.299 -0.214,-3.405 -5.319,-3.405 h -30.416 c -5.105,0 -5.318,0.106 -5.318,3.405 v 12.229 c 0,11.166 0.213,12.764 6.382,13.4 z m -4.289,34.622 0.022,0.106 -0.045,0.099 c -0.191,0.427 -0.661,0.618 -1.043,0.618 -0.219,0 -0.417,-0.059 -0.572,-0.17 l -0.107,-0.125 c -1.271,-2.538 -2.415,-3.823 -2.994,-4.145 -0.954,-0.476 -2.296,-0.629 -5.522,-0.629 -3.691,0 -4.642,0.442 -5.112,0.911 -0.628,0.669 -0.75,2.111 -0.75,4.376 v 6.247 c 0,0.858 0,0.858 1.122,0.858 h 2.571 c 1.547,0 2.703,-0.035 3.328,-0.212 0.617,-0.154 0.932,-0.554 1.126,-1.431 l 0.397,-1.725 0.07,-0.141 c 0.165,-0.2 0.476,-0.321 0.83,-0.321 0.405,0 0.734,0.153 0.881,0.409 l 0.045,0.079 v 0.091 c 0,0.433 -0.034,1.004 -0.073,1.646 -0.049,0.808 -0.104,1.723 -0.104,2.61 0,0.927 0.055,1.876 0.103,2.712 0.039,0.678 0.074,1.286 0.074,1.762 v 0.09 l -0.044,0.079 c -0.147,0.258 -0.477,0.412 -0.883,0.412 -0.354,0 -0.664,-0.12 -0.829,-0.32 l -0.427,-1.968 c -0.2,-1.012 -0.449,-1.164 -0.837,-1.292 -0.472,-0.159 -1.806,-0.249 -3.657,-0.249 h -2.571 c -1.122,0 -1.122,0 -1.122,0.902 v 8.862 c 0,1.432 0,1.432 0.989,1.432 h 3.191 c 1.882,0 3.319,-0.044 4.216,-0.258 2.021,-0.505 2.427,-1.783 3.042,-3.717 l 0.085,-0.266 0.061,-0.112 c 0.151,-0.184 0.407,-0.284 0.721,-0.284 0.306,0 0.733,0.104 0.93,0.397 l 0.067,0.101 -0.059,0.655 c -0.23,2.58 -0.44,4.77 -0.678,5.443 l -0.103,0.291 -0.3,-0.073 c -0.492,-0.122 -3.241,-0.122 -5.9,-0.122 h -8.331 c -1.707,0 -3.168,0.037 -5.211,0.131 l -0.088,0.004 -0.078,-0.039 c -0.365,-0.179 -0.427,-0.698 -0.437,-0.852 -0.026,-0.388 0.086,-0.696 0.307,-0.844 l 0.859,-0.143 c 2.269,-0.269 2.403,-0.563 2.403,-5.248 v -15.952 c 0,-4.801 -0.276,-5.01 -2.438,-5.2 l -1.584,-0.143 -0.087,-0.087 c -0.253,-0.252 -0.291,-0.665 -0.243,-0.969 0.053,-0.327 0.206,-0.576 0.419,-0.682 l 0.077,-0.039 0.086,0.003 c 2.561,0.084 4.103,0.132 6.015,0.132 h 3.989 c 3.865,0 7.747,-0.043 11.869,-0.132 l 0.219,-0.005 0.095,0.198 c 0.595,1.237 1.709,4.677 2.02,6.239 m -37.036,0.685 v 15.952 c 0,4.721 0.132,5.015 2.35,5.247 l 0.927,0.088 0.156,0.055 c 0.222,0.147 0.336,0.452 0.312,0.838 -0.01,0.156 -0.07,0.678 -0.434,0.859 l -0.079,0.039 -0.088,-0.004 c -2.142,-0.094 -3.604,-0.131 -5.216,-0.131 -1.92,0 -3.469,0.05 -5.345,0.131 l -0.086,0.004 -0.079,-0.039 c -0.364,-0.179 -0.426,-0.699 -0.437,-0.854 -0.025,-0.387 0.087,-0.694 0.309,-0.842 l 0.996,-0.143 c 2.263,-0.233 2.397,-0.528 2.397,-5.248 v -5.093 c 0,-1.079 0,-1.079 -1.874,-1.079 h -12.674 c -1.875,0 -1.875,0 -1.875,1.079 v 5.093 c 0,4.721 0.132,5.015 2.354,5.248 l 0.841,0.087 0.153,0.056 c 0.222,0.147 0.335,0.454 0.31,0.841 -0.01,0.156 -0.072,0.676 -0.437,0.855 l -0.078,0.039 -0.088,-0.004 c -2.017,-0.093 -3.502,-0.131 -5.125,-0.131 -1.157,0 -2.166,0.033 -3.268,0.067 -0.709,0.023 -1.457,0.047 -2.306,0.064 l -0.083,0.002 -0.074,-0.037 c -0.365,-0.178 -0.427,-0.696 -0.438,-0.85 -0.026,-0.389 0.086,-0.697 0.307,-0.846 l 0.075,-0.05 1.241,-0.095 c 1.953,-0.15 2.301,-0.552 2.301,-5.246 v -15.952 c 0,-4.614 -0.086,-4.808 -2.289,-5.204 l -0.858,-0.15 -0.075,-0.076 c -0.254,-0.252 -0.292,-0.666 -0.244,-0.969 0.053,-0.327 0.206,-0.576 0.419,-0.682 l 0.075,-0.038 0.085,0.002 c 0.61,0.015 1.191,0.036 1.772,0.056 1.048,0.037 2.131,0.076 3.36,0.076 1.665,0 3.079,-0.041 5.618,-0.132 l 0.087,-0.003 0.078,0.039 c 0.29,0.145 0.414,0.54 0.433,0.861 0.023,0.383 -0.091,0.687 -0.312,0.833 l -1.436,0.186 c -2.126,0.23 -2.398,0.442 -2.398,5.201 v 6.25 c 0,1.076 0,1.076 1.875,1.076 h 12.674 c 1.874,0 1.874,0 1.874,-1.076 v -6.25 c 0,-4.714 -0.045,-4.811 -2.415,-5.203 l -0.952,-0.149 -0.078,-0.079 c -0.253,-0.253 -0.29,-0.668 -0.24,-0.971 0.053,-0.326 0.206,-0.574 0.419,-0.679 l 0.079,-0.04 0.088,0.005 c 2.121,0.093 3.669,0.131 5.344,0.131 1.747,0 3.284,-0.048 5.349,-0.131 l 0.086,-0.004 0.078,0.038 c 0.366,0.18 0.427,0.7 0.437,0.855 0.025,0.386 -0.087,0.692 -0.309,0.839 l -1.21,0.187 c -2.249,0.272 -2.359,0.515 -2.359,5.201 m -36.436,23.622 0.034,0.126 -0.059,0.117 c -0.171,0.335 -0.665,0.361 -0.813,0.361 -0.11,0 -0.273,-0.012 -0.416,-0.069 l -0.109,-0.044 -0.06,-0.102 c -0.57,-0.988 -0.807,-1.068 -3.161,-1.068 h -18.32 c -1.984,0 -2.872,0.103 -3.059,1.095 l -0.02,0.104 -0.075,0.075 c -0.123,0.123 -0.323,0.182 -0.611,0.182 -0.106,0 -0.466,-0.01 -0.661,-0.141 l -0.12,-0.081 -0.025,-0.143 c -0.31,-1.764 -0.965,-4.565 -1.67,-6.549 l -0.048,-0.136 0.065,-0.13 c 0.266,-0.534 1.175,-0.793 1.661,-0.429 l 0.071,0.054 0.036,0.082 c 0.45,1.023 0.874,1.989 1.912,2.944 0.976,0.897 3.187,1.018 5.222,1.018 h 2.436 c 0.99,0 0.99,0 0.99,-1.076 v -19.812 c 0,-4.801 -0.276,-5.01 -2.436,-5.2 l -1.595,-0.132 -0.15,-0.049 c -0.264,-0.163 -0.411,-0.493 -0.394,-0.885 0.012,-0.298 0.13,-0.67 0.42,-0.815 l 0.076,-0.039 0.087,0.003 c 2.713,0.082 4.352,0.132 6.148,0.132 1.73,0 3.161,-0.042 5.795,-0.132 l 0.087,-0.003 0.077,0.039 c 0.29,0.145 0.414,0.54 0.433,0.861 0.024,0.383 -0.09,0.687 -0.311,0.833 l -1.575,0.187 c -2.217,0.191 -2.348,0.483 -2.348,5.2 V 3.128 c -10e-4,0.453 -10e-4,0.881 0.072,0.954 0.075,0.075 0.555,0.075 0.873,0.075 h 3.145 c 2.375,0 3.99,-0.341 4.939,-1.042 0.421,-0.308 0.784,-1.43 0.972,-3.001 l 0.012,-0.099 0.064,-0.078 c 0.162,-0.197 0.463,-0.315 0.803,-0.315 0.421,0 0.772,0.181 0.915,0.471 l 0.044,0.087 -0.01,0.098 c -0.126,1.276 0.181,4.846 0.657,6.613 m -30.185,-92.111 c 0,-13.717 6.594,-23.395 15.102,-29.246 7.763,-5.21 16.91,-7.125 26.481,-7.125 6.807,0 14.464,1.596 16.804,2.446 1.17,0.425 2.447,0.849 3.721,1.064 1.596,2.02 4.361,9.039 5.106,14.57 -0.427,0.743 -2.021,0.956 -2.765,0.426 -2.447,-6.275 -8.509,-15.211 -22.227,-15.211 -17.442,0 -31.587,12.34 -31.587,34.672 0,22.015 13.826,32.331 30.097,32.331 15.42,0 20.208,-8.294 21.803,-15.528 0.743,-0.636 2.34,-0.53 2.87,0.213 -0.85,6.487 -1.382,13.187 -1.488,15.634 -0.957,-0.106 -1.701,0.107 -2.977,0.424 -5,1.383 -13.082,2.552 -18.826,2.552 -11.059,0 -20.95,-2.976 -28.714,-9.037 -8.083,-6.276 -13.4,-16.38 -13.4,-28.185 m -27.656,17.946 -0.004,74.079 c -59.511,5.738 -104.429,0 -104.429,0 0,0 -10e-4,-74.074 0,-74.091 4.742,-50.217 51.775,-56.116 52.221,-56.035 8.401,1.515 47.832,9.444 52.212,56.047 m -87.665,-18.491 c 0.95,-0.645 2.07,-0.929 3.096,-1.368 1.272,-3.324 0.031,-6.592 -0.683,-5.237 -1.252,2.377 -1.745,4.349 -2.413,6.605 m 0.058,36.412 -0.078,0.077 c -0.093,0 -6.61,-4.112 -10.845,-2.138 3.155,1.744 14.082,8.688 17.071,10.657 1.41,-0.304 1.98,0.205 2.431,0.518 -1.142,-0.07 -4.928,-0.661 -3.014,2.726 0.735,-3.036 6.044,-0.242 7.949,0.196 5.311,1.222 5.273,-4.454 4.82,-6.8 -0.169,-0.875 1.627,-1.495 2.512,-1.369 -1.522,-3.751 -4.121,-0.215 -4.43,-1.646 -0.127,-0.579 -1.866,-1.034 -1.859,-2.475 0.011,-1.969 0.78,-0.893 0.851,-2.419 0.078,-1.478 -0.631,-0.328 -0.47,-1.927 0.254,-2.538 4.455,0.338 6.19,-0.349 0.868,-0.343 1.443,-1.12 2.29,-0.967 0.247,0.203 0.135,1.163 0.097,1.506 -0.089,0.806 -1.58,0.9 -2.274,2.001 -0.605,0.96 0.686,3.848 1.385,4.697 1.002,-4.768 5.471,-3.273 6.138,-8.287 0.421,-1.419 -1.536,-2.994 0.051,-5.302 -1.179,-1.144 -2.596,-6.573 -0.128,-9.123 -0.419,-1.154 -0.969,-3.819 1.227,-5.374 -0.738,-1.573 -0.569,-3.496 0.053,-5.454 -1.367,-0.005 -1.095,7.67 -9.29,7.914 -0.183,0.058 -0.228,-0.869 0.008,-1.285 0.982,-1.725 2.301,-1.625 2.018,-5.684 -0.097,-1.39 -0.911,0.242 -1.346,0.626 -0.992,0.876 -1.759,0.993 -2.191,3.849 -3.33,-2.61 -3.003,-5.771 -2.795,-7.377 0.002,-0.003 -0.735,2.003 -1.576,4.061 -0.044,0.109 3.382,4.232 3.927,5.212 6.915,12.445 -4.464,-4.024 -4.488,-3.967 -0.613,1.418 -1.148,2.641 -1.508,3.028 0.088,0.172 1.986,2.289 2.845,4.076 5.348,11.136 -3.178,-3.708 -3.483,-3.435 -0.645,0.579 -1.177,1.305 -1.585,1.045 -0.096,-1.71 -0.504,-1.479 -0.386,-3.224 -0.892,-1.19 -2.804,-3.06 -4.141,-3.986 0,0 -0.334,3.091 -0.244,3.2 0.671,0.818 3.302,3.636 3.839,4.48 8.763,13.763 -4.103,-3.316 -4.127,-3.169 -0.09,0.544 -0.796,1.442 -1.546,2.209 0,0 2.841,3.872 3.541,5.311 5.332,10.964 -4.286,-4.859 -4.393,-4.801 -0.231,0.121 -0.254,0.118 -0.522,0.21 -0.268,0.09 0.294,3.157 0.665,5.004 0.722,3.653 -1.214,0.709 -1.741,-5.079 -0.494,-0.079 -1.695,-0.203 -2.149,-0.616 0.294,-1.544 0.659,-0.356 1.307,-1.841 0.774,-1.778 -1.08,-4.693 0.534,-6.828 0.624,-0.823 0.66,-0.685 0.537,-1.226 -0.993,0.072 -1.596,0.091 -2.223,-0.767 -1.22,5.544 -1.182,8.214 -0.896,13.849 0.127,2.562 0.968,6.437 0.584,6.51 -0.365,0.07 -6.172,-14.883 -7.573,-17.814 -2.449,0.827 1.524,13.769 6.573,19.998 0.476,1.981 -2.647,-2.01 -4.512,-3.599 -1.71,-1.457 -3.875,-3.358 -6.233,-2.707 3.029,3.204 9.972,9.196 10.745,10.693 0.646,1.284 -4.738,-3.994 -10.427,-2.032 3.681,1.972 12.271,6.357 12.285,9.414 m 10.242,-28.127 c 0.022,-1.364 -0.074,-2.373 0.323,-3.759 0.644,-2.092 0.321,-1.447 -0.557,-0.728 -0.698,0.776 -1.351,1.415 -1.687,2.322 -0.082,0.645 0.436,0.68 1.921,2.165 m 13.75,33.699 c -0.83,1.415 0.989,2.765 0.989,2.765 -0.055,-3.979 5.032,-1.248 7.687,-2.513 0.639,-0.293 1.087,-0.854 1.35,-1.446 -2.856,1.974 -8.135,-2.037 -10.026,1.194 m -29.921,31.787 c -4.54,0 -4.445,6.808 0,6.808 4.467,0 4.467,-6.808 0,-6.808 m 0,-13.596 c -4.644,0 -4.644,6.804 0,6.804 4.467,0 4.495,-6.804 0,-6.804 m 8.616,14.688 h -3.957 v 3.893 h 3.957 z m 0,-13.564 h -3.957 v 3.893 h 3.957 z m 31.977,-6.706 c 0,0 -4.142,2.247 -9.004,2.57 -4.702,0.313 -14.2,-3.443 -21.493,-2.948 V 0.498 c 0,0 8.316,-1.105 11.732,0.213 11.616,4.48 18.765,-0.526 18.765,-0.526 z m 8.025,-5.202 c 0.203,-1.211 -0.919,-1.513 -0.916,-1.513 1.744,-0.407 2.577,0.63 2.918,1.286 0.67,-2.785 -2.137,-2.942 -3.013,-3.109 -0.002,0 1.423,-0.41 1.497,-1.337 0.185,-2.356 1.701,-2.155 2.027,-1.969 -0.053,-0.285 -0.522,-1.707 -2.224,-0.423 -0.289,-0.285 0.464,-0.724 0.613,-1.894 0.192,-1.478 0.145,-2.849 1.852,-3.751 -1.046,-0.832 -2.279,1.335 -2.386,1.076 -0.122,-0.29 1.453,-1.086 -0.281,-5.174 -0.791,0.455 -0.35,0.368 -1.267,1.458 -0.702,0.588 -0.978,0.721 -0.392,-0.248 1.023,-1.278 1.264,-4.202 0.912,-4.99 -0.844,0.367 -0.627,1.04 -1.622,1.957 -0.091,-0.39 0.305,-2.328 1.333,-3.256 1.777,-1.602 2.406,-3.539 2.438,-3.921 0.141,-1.458 -0.317,-3.377 -0.49,-5.254 -0.852,0.122 -1.576,2.542 -1.783,2.405 -0.252,-0.163 0.108,-2.368 1.714,-3.87 0.778,-2.272 0.466,-3.493 0.258,-3.575 -0.274,-0.118 -1.14,2.324 -1.611,1.899 2.287,-5.818 0.687,-7.845 0.082,-9.639 -0.473,1.838 -0.712,3.214 -1.304,5.295 -1.247,-0.978 -1.546,-2.429 -3.07,-3.757 0,2.373 -1.372,8.103 -2.46,9.438 -0.05,0.061 -1.965,-5.137 -2.838,-7.449 -1.133,-2.995 -1.308,-6.741 0,-9.659 -2.824,4.016 -3.127,11.494 -0.69,12.501 0.211,0.536 -0.147,2.295 -0.69,2.077 -0.156,-0.861 -0.052,-1.596 -0.765,-2.436 -1.87,0.547 -1.018,2.83 -0.849,3.587 2.425,2.908 0.909,3.582 0.796,3.505 -0.263,-0.667 -0.492,-1.483 -1.233,-1.787 -1.556,2.675 -0.558,6.872 2.398,10.009 0.124,1.172 -1.323,-0.872 -2.265,-0.801 -0.246,2.257 0.572,6.172 4.745,6.315 -0.796,0.234 -1.223,0.378 -1.416,1.043 1.262,0.188 5.219,0.49 4.566,3.611 -0.375,-0.375 -0.495,-0.936 -1.526,-1.563 -0.694,-0.423 -1.449,-0.459 -1.842,0.152 1.836,0.606 1.229,2.84 -1.167,2.183 -0.734,-0.201 -1.808,0.566 -1.861,1.417 0.534,-0.533 1.615,-0.138 2.24,0.268 2.696,1.752 4.342,-0.786 4.706,-1.332 0.109,0 1.21,2.537 -2.619,3.219 -0.319,0.892 -1.195,2.467 -3.793,2.269 -0.857,3.021 -3.447,1.531 -3.362,0.164 -2.753,2.027 0.048,4.585 1.159,4.979 0.771,-0.063 0.601,-2.504 1.954,-2.093 0.328,0.097 -1.052,1.681 -0.523,2.399 1.241,0.709 1.213,-0.908 1.825,-0.306 0.304,1.06 1.522,1.652 2.525,1.766 2.814,0.399 5.002,-2.685 7.7,-1.172 m 25.318,4.711 c -6.111,-0.417 -18.788,3.061 -22.011,3.061 -6.65,0 -9.866,-2.595 -9.866,-2.595 0,0 0.009,30.186 0,31.272 0,0 8.737,4.098 15.095,1.752 7.785,-2.874 16.782,-1.602 16.782,-1.602 z m 8.046,12.332 c 3.368,0.492 3.875,-3.482 3.875,-3.482 h -0.006 c -0.83,0.658 -2.496,0.957 -3.625,0.229 -3.763,-2.422 -7.154,-2.45 -7.154,-2.45 v 6.07 c 0,0 0.716,-1.271 6.91,-0.367 m 3.986,8.311 c -0.025,0.18 -0.063,0.455 -0.117,0.845 -0.085,0.607 -1.827,0.958 -3.058,0.421 -1.723,-0.753 -6.038,-3.216 -7.612,-2.751 v 6.07 c 3.883,-1.684 5.401,-0.163 6.649,-0.163 3.835,0 4.027,-3.577 4.027,-3.577 0.051,-0.39 0.087,-0.665 0.111,-0.845 m -4.339,-62.917 c -1.135,-0.295 -4.127,-1.49 -4.849,-2.665 0.383,6.47 -1.707,12.824 -2.372,14.359 -1.297,2.99 0.58,-6.958 0.708,-9.249 0.003,-0.103 -10.737,13.802 -4.252,3.094 1.68,-2.775 4.305,-4.588 4.306,-4.634 0.045,-1.931 -0.084,-3.351 -0.452,-4.388 -0.66,-0.527 -14.624,18.583 -6.905,5.348 0.956,-1.642 6.556,-6.608 6.51,-6.708 -0.355,-0.754 -0.984,-1.852 -1.852,-2.662 -0.147,0.147 -3.221,2.414 -3.243,2.552 -0.232,1.477 -0.241,2.873 -2.066,1.826 0,0 -6.879,8.01 -3.693,2.397 1.392,-2.455 2.306,-2.726 2.677,-3.162 0,0 -1.068,-1.447 -1.411,-2.984 -0.138,-0.615 -5.965,6.46 -3.679,2.016 0.733,-1.424 3.397,-2.979 3.369,-3.08 -0.273,-0.925 -0.55,-1.822 -0.841,-2.405 -0.367,-0.738 -5.483,-4.816 -5.476,-4.813 0,0.002 1.001,3.231 3.176,4.813 1.241,0.909 1.245,0.709 2.067,1.226 -0.017,0.477 -0.477,1.256 -1.072,1.463 -0.747,0.264 -3.168,-0.176 -3.168,-0.176 0.226,1.21 -0.834,3.822 -0.82,6.695 -0.912,-0.09 -2.512,-1.5 -2.898,-2.302 -0.28,-4.758 -1.315,-3.333 -2.282,-6.756 -1.052,1.436 0.073,3.498 -0.957,4.842 -1.419,1.848 -1.634,3.094 -1.843,5.368 0.331,0.185 1.779,1.784 0.461,5.139 -0.215,5.273 2.141,7.288 -2.072,10.977 0.355,0.115 0.609,2.757 0.609,2.761 3.104,-1.656 2.488,1.916 3.697,2.617 1.92,1.114 1.572,2.269 0.71,3.708 5.49,-1.562 -0.248,-5.314 2.237,-5.396 1.802,-0.055 3.01,0.402 3.792,1.614 0.834,1.281 -0.143,2.067 2.185,4.143 0.233,0.208 0.85,1.594 -0.996,1.974 -0.404,0.086 0.003,1.664 0.003,1.664 -1.479,-1.251 -1.944,-3.014 -4.321,-1.899 -1.216,0.573 -2.006,0.01 -2.504,-0.23 0,0 -0.253,0.994 0.754,1.33 2.602,0.874 3.244,1.912 3.102,2.48 -0.351,1.352 -0.457,0 -0.382,1.424 0.033,0.566 0.691,1.335 1.236,1.993 1.764,2.129 3.013,1.33 3.464,1.141 1.025,0.794 1.206,0.738 2.16,1.115 1.634,0.642 5.174,-0.425 7.152,-1.343 0.96,-0.434 2.106,-0.695 3.225,-0.448 -0.011,-0.578 -0.415,-0.888 -0.817,-1.004 -0.618,-0.193 -1.354,0 -1.306,-0.452 0.028,-0.264 0.874,-0.31 1.403,-0.453 2.932,-0.802 6.728,-3.429 4.235,-2.875 -0.294,0.065 1.798,-1.563 3.376,-3.681 l 5.592,-5.431 c -0.258,-0.309 -2.218,-0.029 -8.427,5.79 -0.883,-0.788 7.552,-7.146 11.034,-13.893 -0.301,-0.21 -4.64,1.37 -6.205,2.983 -2.411,2.494 -5.181,8.835 -6.32,7.907 -0.137,-0.053 4.584,-7.402 6.916,-11.762 1.178,-2.206 2.147,-5.366 2.226,-7.748 0.374,-11.741 -1.394,-10.84 -1.393,-10.841 -2.75,9.255 -4.038,20.001 -8.051,24.959 -1.603,1.981 4.29,-8.673 4.543,-18.278 m -12.163,-10.556 c -1.242,-1.09 -2.051,-1.477 -1.781,-0.936 0.302,0.603 0.525,1.115 0.694,1.565 0.057,0.15 1.087,-0.629 1.087,-0.629 m -0.815,1.457 c 0.275,0.987 0.276,1.668 0.403,2.537 0.057,0.373 0.065,0.329 0.083,0.643 0.005,0.104 2.69,-2.234 2.84,-2.329 -0.674,-0.844 -1.25,-1.146 -1.892,-1.744 -0.455,0.392 -1.46,0.798 -1.434,0.893 m 8.716,-2.987 c -3.728,-3.682 -9.317,-2.349 -13.723,-4.32 -3.992,-1.456 -6.883,-5.147 -11.069,-6.079 -1.231,-0.398 -1.434,-1.013 -0.649,-0.992 0.459,0.013 3.011,-2.65 7.093,-0.597 1.363,0.685 5.597,3.045 6.313,3.179 -2.292,-2.182 -3.442,-4.132 -5.491,-5.285 -1.253,-0.702 -6.36,-2.531 -11.453,-1.543 -2.257,0.44 -3.994,-1.641 -3.419,-1.594 1.208,0.323 2.562,0.159 3.376,-0.908 1.479,-1.158 3.621,-2.602 5.464,-0.45 0.612,0.712 3.536,2.231 6.284,-0.558 -2.923,0.154 -2.633,-5.104 -8.172,-4.487 -2.051,0.014 -6.581,4.704 -7.871,3.255 -2.289,-2.573 4.92,-5.015 1.798,-8.25 -2.819,-2.922 -6.188,2.327 -6.188,2.327 1.76,-0.738 5.006,-1.212 3.576,1.647 -0.567,1.135 -1.646,2.156 -1.646,4.257 -0.247,1.045 -6.699,-8.31 -10.967,-4.083 -1.677,1.66 -5.073,5.302 -8.15,6.688 8.147,0.694 9.389,-2.568 9.778,-3.091 2.606,-3.516 5.014,0.054 5.569,0.68 0.849,0.967 2.05,2.297 1.624,2.498 -3.16,1.498 -6.771,1.817 -9.468,0.579 5.774,7.936 10.267,0.505 10.266,0.507 0.633,-0.394 -0.162,4.705 -5.872,4.988 -3.567,0.176 -6.706,-3.035 -9.165,-3.031 -2,0.003 -8.064,4.098 -9.489,7.735 3.528,-2.639 8.028,-4.155 10.832,-2.482 5.273,3.143 11.914,-1.596 12.23,-1.03 -1.474,1.152 -4.828,5.65 -13.883,3.086 -3.512,-2.017 -4.993,1.496 -7.15,1.556 3.669,3.256 6.213,1.599 7.495,1.5 0.305,0 -1.53,1.509 -2.817,1.646 -10.005,1.04 -16.343,3.791 -16.343,3.791 -0.052,0 0.834,2.017 5.134,0.563 0,0 -3.856,2.361 -3.824,5.396 0.125,1.87 1.03,3.873 -0.401,5.431 5.807,0.239 1.683,-7.859 5.76,-9.946 0.087,-0.034 -1.201,1.935 0.614,3.461 0.842,-2.378 2.915,-3.607 4.373,-3.993 0.343,0.188 0.765,0.917 0.765,0.916 -1.534,2.537 -1.735,5.493 -1.323,8.879 l 0.061,0.034 c 0.33,-0.016 0.889,-1.165 1.281,-2.009 0.847,-1.82 0.827,-4.441 2.514,-6.601 0.935,-1.19 1.513,-2.378 2.352,-2.954 0.362,0.844 0.094,2.293 0.038,2.678 -0.191,1.376 -1.053,3.785 1.298,5.912 1.1,-3.174 2.596,-2.253 2.799,-3.776 0.28,-2.133 0.187,-1.793 -0.031,-3.43 0.112,-2.257 2.162,-2.891 3.982,-4.334 4.105,-2.233 6.83,-3.442 8.616,-6.302 0.872,4.826 -12.155,5.791 -10.476,15.104 -0.174,3.72 0.464,4.032 -2.172,6.303 5.227,-0.153 8.075,-8.734 8.359,-10.299 0.523,-2.878 2.27,-3.027 4.669,-6.78 0.346,-0.126 -4.289,9.997 1.236,18.665 0,0 1.863,-4.503 0.984,-7.456 -0.53,-1.778 -0.038,-3.745 0.061,-4.86 0.101,-1.137 -0.227,4.107 3.72,6.821 0.245,-1.984 2.147,-5.058 0.345,-8.352 -2.193,-4.008 -2.353,-2.567 -2.386,-7.496 0.199,0.085 0.766,3.398 2.271,5.278 3.179,3.974 0.908,6.112 4.011,9.556 0.246,-1.722 0.685,-1.04 0.871,-2.575 0.416,-3.442 -3.179,-7.208 -2.384,-7.093 0.915,0.129 2.384,0.925 2.876,3.537 0,0 1.324,-2.385 0.113,-3.18 -2.193,-1.438 -2.649,-2.988 -2.308,-4.729 1.759,2.101 4.162,4.428 3.746,7.418 0.199,1.805 2.156,2.537 2.545,6.731 0.065,0.695 0.76,1.539 1.454,1.909 -0.303,-2.356 1.527,-4.792 -0.554,-7.675 0.474,-0.254 2.235,2.249 4.807,1.337 -5.164,-0.931 -3.657,-6.525 -7.613,-9.115 -1.193,-0.78 -0.989,-1.657 -1.346,-1.756 3.533,0.2 6.255,4.408 6.727,4.728 3.551,2.4 4.328,2.769 5.748,6.661 0.555,1.48 0.152,2.134 2.119,4.131 0.863,-1.969 -0.391,-6.049 -0.689,-6.929 -0.636,-1.879 -2.868,-3.505 -2.395,-3.505 9.518,4.201 9.398,7.021 11.675,10.03 0.683,1.149 4.069,3.143 5.335,3.329 -0.309,-0.627 -1.625,-1.682 -1.687,-2.821 -0.115,-2.104 -0.794,-3.388 -1.857,-5.076 0.592,-0.733 1.727,1.386 2.889,0.323 -1.537,-0.51 -2.221,-2.222 -3.415,-3.228 m 1.59,0.558 c -0.565,-2.774 -1.522,-5.343 -3.191,-7.732 -1.168,-1.693 -1.643,1.599 -0.637,4.786 1.429,0.569 2.857,1.677 3.828,2.946 m -7.249,70.353 c -0.221,0.083 -0.683,0.169 -0.977,0.169 -0.292,0 -0.448,-0.416 -0.085,-0.513 0.232,-0.064 0.664,-0.14 1.078,-0.16 0.282,-0.026 0.191,0.417 -0.016,0.504 m -1.082,-1.331 c 0.228,-0.068 0.645,-0.13 1.072,-0.161 0.268,-0.034 0.18,0.416 -0.026,0.5 -0.209,0.076 -0.671,0.165 -0.956,0.17 -0.308,0 -0.453,-0.399 -0.09,-0.509 m 0,-6.064 c -0.21,0.247 -0.777,0.717 -1.286,1.077 -0.292,-0.24 -0.892,-0.676 -1.275,-0.876 -0.285,0.322 -0.663,0.767 -1.24,1.214 -0.348,-0.237 -1.35,-1.152 -1.772,-1.392 0.609,-0.016 1.519,-0.217 1.552,-0.784 0.021,-0.46 -0.033,-3.329 0,-3.853 0.373,-0.08 0.814,-0.042 1.358,-0.012 0.026,0.406 0.016,3.713 0.026,4.115 0.182,0.102 0.396,0.204 0.502,0.297 0.21,-0.156 0.849,-0.89 1.22,-1.088 0.252,0.194 0.915,0.774 1.207,1.049 0.308,0.305 -0.025,0.5 -0.292,0.253 m -1.673,4.82 c 0.348,0.629 0.86,1.647 0.827,2.422 -0.046,0.953 -0.631,2.367 -2.029,2.832 -1.772,-0.63 -2.867,-2.029 -2.916,-3.683 -0.033,-0.967 0.79,-2.961 2.491,-2.972 0.522,0.503 1.076,1.037 1.627,1.401 m -1.076,-0.376 c -0.328,0.159 -1.525,1.083 -1.799,1.79 -0.359,0.954 -0.359,2.007 0.655,2.625 0.792,-0.292 1.715,-1.07 1.798,-1.786 0.113,-0.928 -0.154,-2.028 -0.654,-2.629 m -0.044,7.37 1.273,1.393 c 0,0 -0.566,0.444 -0.902,0.856 0,0.292 0,3.081 0.123,3.231 -0.958,0.854 -1.657,0.962 -2.07,0.907 -0.775,-0.116 -1.569,-1.111 -1.821,-1.444 -0.184,-0.264 -0.137,-0.595 0,-0.718 0.154,-0.126 0.354,-0.253 0.565,-0.38 -0.035,0.021 -0.068,0.043 -0.105,0.058 -0.363,-0.342 -0.892,-1.325 -0.875,-1.993 0.008,-0.67 0.612,-1.643 1.017,-2.007 0.45,0.347 1.114,0.929 2.09,1.118 0.107,-0.47 0.331,-0.754 0.705,-1.021 m -0.767,3.213 c -0.628,0.225 -1.865,0.806 -2.314,1.178 -0.119,0.093 -0.131,0.148 0.015,0.381 0.286,0.424 0.611,0.796 0.838,0.778 0.195,0 1.453,-0.673 1.413,-1.027 0.044,-0.25 0.051,-0.78 0.048,-1.31 m 0.009,-1.887 c -0.327,-0.018 -0.613,-0.106 -1.03,-0.305 -0.343,0.279 -1.233,1.354 -0.577,2.556 -0.09,0.055 -0.185,0.102 -0.272,0.158 0.604,-0.339 1.31,-0.635 1.866,-0.814 -0.005,-0.478 -0.02,-0.909 -0.02,-1.066 -10e-4,-0.204 0.015,-0.369 0.033,-0.529 m -3.662,5.728 c -0.302,0 -2.315,-0.042 -2.367,0.072 -0.147,0.431 -0.184,0.956 0.162,1.685 0.172,0.364 -0.162,0.516 -0.291,0.151 -0.127,-0.358 -1.136,-1.751 -2.183,-2.2 -0.539,-0.212 0.657,-0.708 0.574,-0.685 -0.006,-1.342 0.187,-3.355 0.473,-4.161 0.177,-0.48 0.723,-1.26 1.098,-1.022 0.243,0.153 0.769,1.197 0.935,1.33 0.291,0.236 0.007,0.639 -0.236,0.397 -0.27,-0.236 -0.498,0.132 -0.572,0.377 -0.089,0.238 -0.336,3.189 -0.211,3.247 0,0 2.381,0.288 2.618,0.288 0.162,0 0.17,0.521 0,0.521 m -6.541,-5.441 0.983,1.278 c -0.713,0.123 -1.008,0.255 -1.506,0.823 l 0.02,3.173 -1.006,1.005 -0.343,-0.038 -1.576,-1.384 c -0.163,-0.242 0.261,-0.242 0.471,0.046 l 1.144,-0.656 0.05,-3.07 c 0.088,-0.368 0.392,-0.723 0.846,-1.177 z m -0.852,7.044 0.553,0.48 v 0.77 l -0.746,0.724 -0.74,-0.63 0.017,-0.889 0.459,-0.455 z m -2.525,0.979 c -0.423,0.051 -1.821,-0.067 -2.325,-0.147 -0.505,-0.076 -0.505,-0.322 -0.084,-0.373 0.418,-0.043 0.498,-0.131 0.719,-0.695 0.202,-0.567 -0.806,-3.137 -1.058,-3.743 -0.294,0.441 -1.364,2.794 -1.364,3.112 0,0.229 0.472,0.458 0.674,0.512 0.396,0.123 0.387,0.394 0.088,0.453 -0.836,0.119 -3.782,0.378 -4.303,0.442 -0.376,0.032 -0.547,-0.403 -0.091,-0.403 0.473,-0.013 0.963,0.128 1.479,-0.628 0.595,-0.855 2.461,-4.868 2.907,-6.556 0.22,0.355 2.083,5.756 2.19,6.328 0.134,0.56 0.527,1.106 1.075,1.268 0.564,0.152 0.513,0.393 0.093,0.43 m -8.839,-13.058 c 0.024,-2.247 0.918,-2.437 1.939,-3.025 0.968,-0.547 2.594,-0.437 3.812,-0.116 0.462,0.135 0.712,0.163 0.697,-0.236 0,-0.249 0.35,-0.195 0.35,-0.01 0,0.184 0.016,2.068 0.016,2.276 0,0.236 -0.34,0.201 -0.34,0 0,-0.315 0,-0.408 -0.309,-0.856 -0.839,-1.241 -2.937,-1.191 -4.061,0.326 -0.385,0.516 -0.734,1.207 -0.289,1.338 0.443,0.135 1.793,-0.145 2.685,-0.22 0.535,-0.035 1.769,-0.161 1.924,-0.25 0.138,-0.102 0.346,-0.232 0.346,0.037 0.012,0.263 0.012,1.13 0.012,1.398 0,0.259 -0.201,0.134 -0.352,0.042 -0.153,-0.106 -1.469,-0.326 -1.996,-0.419 -0.53,-0.098 -2.162,-0.229 -2.592,-0.084 -0.439,0.146 -0.293,1.028 0.097,1.533 1.138,1.504 3.436,1.4 4.266,0.147 0.286,-0.435 0.286,-0.538 0.286,-0.865 0,-0.197 0.33,-0.22 0.33,0 0.019,0.213 0.027,2.487 0.027,2.669 0,0.177 -0.333,0.242 -0.333,0 0,-0.166 -0.366,-0.262 -0.726,-0.166 -0.713,0.225 -2.792,-0.096 -3.719,-0.604 -0.822,-0.47 -2.087,-1.554 -2.07,-2.915 m 0.397,-3.987 c 0.025,-0.639 0.259,-6.135 0.19,-6.898 -0.044,-0.436 0.541,-0.898 1.075,-1.261 0.259,0.314 0.824,1.135 1.291,1.481 0.275,0.225 0.084,0.373 -0.128,0.29 -0.42,-0.196 -0.845,-0.043 -0.886,0.443 -0.038,0.488 -0.038,5.216 0,5.898 -0.324,0 -1.238,0.018 -1.542,0.047 m 4.533,-4.492 c -0.365,-0.344 -1.016,-1.237 -1.002,-1.896 0.011,-0.674 0.335,-1.322 0.725,-1.686 0.667,0.465 1.084,1.106 2.193,1.533 0.137,-0.517 0.502,-0.597 0.934,-0.923 0.26,0.282 1.202,1.44 1.409,1.643 0.209,0.198 0.09,0.402 -0.207,0.198 -0.297,-0.198 -0.501,-0.076 -0.997,0.457 0.018,0.289 -0.034,2.652 0.081,2.783 -0.453,0.487 -0.868,1.151 -1.403,1.101 -0.777,-0.064 -1.765,-1.419 -2.01,-1.771 -0.195,-0.253 0.009,-1.223 0.155,-1.345 0.052,-0.048 0.077,-0.052 0.122,-0.094 m 0.543,-0.395 c 0.434,-0.242 0.652,-0.092 1.325,-0.019 -0.003,-0.424 -0.014,-0.805 -0.016,-1.01 -0.296,-0.211 -0.661,-0.397 -1.081,-0.604 -0.333,0.275 -0.82,0.508 -0.228,1.633 m -0.355,1.949 c 0.283,0.432 0.462,0.516 0.687,0.516 0.205,-0.012 0.993,-0.554 0.952,-0.919 0.039,-0.237 0.047,-0.732 0.045,-1.236 -0.59,-0.072 -1.006,-0.139 -1.668,0.419 -0.122,0.098 -0.156,0.995 -0.016,1.22 m 4.759,0.872 c -0.503,-0.251 0.671,-0.715 0.593,-0.694 -0.017,-1.331 -0.285,-3.506 0.173,-4.196 0.28,-0.423 0.924,-0.7 1.355,-0.534 0.413,0.165 0.941,0.991 1.097,1.126 0.307,0.229 0.045,0.474 -0.211,0.237 -0.253,-0.237 -0.941,-0.068 -1.033,0.171 -0.071,0.249 -0.159,3.153 -0.039,3.211 0,0 0.829,0.018 1.049,0.011 0.174,0 0.186,0.527 0.016,0.527 -0.302,0.005 -0.97,0.065 -1.009,0.184 -0.099,0.273 0.023,1.158 0.195,1.517 0.177,0.364 -0.161,0.522 -0.294,0.168 -0.137,-0.377 -1.007,-1.292 -1.892,-1.728 m 0.241,6.042 c 0.051,-1.258 -0.604,-2.579 -1.317,-3.176 1.232,0.319 1.393,1.054 2.067,1.918 0.371,-0.55 1.064,-1.215 1.569,-1.503 0.355,0.236 1.362,1.367 1.583,1.6 -0.726,0.194 -2.129,0.936 -2.478,1.719 -0.276,0.581 -0.21,0.855 0.065,1.313 0.244,-0.322 1.95,-1.106 2.717,0.203 -0.839,0.305 -1.593,0.855 -1.849,1.299 -0.225,-0.186 -0.975,-1.003 -1.396,-1.262 -0.098,0.45 -0.788,0.933 -1.346,1.034 -0.181,-0.195 -1.497,-1.198 -2.098,-1.49 -0.185,-0.089 -0.115,-0.492 0.144,-0.39 0.245,0.107 0.652,0.416 1.122,0.639 0.544,-0.211 1.161,-0.765 1.217,-1.904 m 5.895,-0.203 c 0.151,0.762 0.686,1.075 0.932,1.304 0.347,-0.386 0.697,-0.821 1.219,-0.821 0.511,-0.005 1.043,0.232 1.207,0.443 -0.421,0.34 -1.381,1.351 -1.574,1.541 -0.487,-0.27 -2.599,-1.366 -2.778,-2.633 -0.257,-1.867 0.335,-2.239 1.155,-3.265 0.461,-0.583 1.233,-0.609 1.583,-0.519 0.379,0.262 1.761,1.574 1.915,1.739 0.139,0.161 -0.062,0.309 -0.234,0.144 -0.171,-0.156 -0.104,-0.224 -0.333,-0.258 -0.235,-0.038 -1.176,-0.195 -1.723,0.09 -0.683,0.359 -1.574,1.202 -1.369,2.235 m -1.033,-5.962 c -0.311,-0.317 -0.856,-0.682 -1.366,-1.248 0.422,-0.03 0.773,-0.121 0.976,-0.526 0.209,-0.401 0.033,-2.096 0.062,-2.749 0.034,-0.634 0.417,-0.769 0.92,-1.294 0.502,0.128 1.901,0.713 2.373,1.036 -0.042,-0.52 0.616,-1.104 1.004,-1.219 0.261,0.285 0.544,0.44 0.927,0.796 -0.373,0.25 -0.324,0.284 -0.465,0.78 -0.109,0.478 0.027,2.289 0.04,3.065 -0.296,0.449 -0.783,0.987 -1.28,1.359 -0.352,-0.32 -0.826,-0.749 -1.381,-1.334 0.414,0.056 1.228,-0.11 1.267,-0.458 0.024,-0.448 0.092,-1.43 0,-2.192 -0.093,-0.768 -2.16,-0.416 -2.187,0.102 -0.047,0.532 0.105,2.061 0.116,2.785 -0.292,0.449 -0.465,0.695 -1.006,1.097 m -13.72,-18.591 v 0.076 c -1.195,0.172 -2.132,1.007 -3.226,1.421 -1.512,0.572 -3.115,-0.595 -3.115,-0.781 0,-0.408 0.43,-0.616 1.653,0.153 -0.959,-1.109 0.13,-2.011 0.13,-2.011 -0.398,0.06 -0.967,0.193 -1.33,0.401 -0.074,-0.401 0.478,-0.548 0.741,-0.722 2.029,-0.833 3.363,1.119 5.147,1.463 m -3.418,-1.031 c 0,0 0.538,0.583 0.536,1.001 -10e-4,0.566 -0.535,0.979 -0.535,0.979 0.459,-0.132 1.547,-0.745 1.937,-1.002 z m -11.121,15.386 0.583,0.644 c -0.656,0.122 -0.35,0.115 -0.697,0.434 l -0.02,2.666 -0.852,1.25 -0.323,-0.045 -1.334,-1.247 c -0.354,-0.309 -0.042,-0.458 0.369,-0.116 l 0.883,-0.457 0.021,-2.823 c 0.074,-0.349 0.384,-0.429 0.814,-0.872 z m 0.291,9.279 c 0.451,-1.28 1.511,-1.683 2.302,-1.746 0.235,0.438 0.672,1.104 0.913,1.413 0.355,0.472 -0.008,0.756 -0.256,0.212 -0.192,-0.419 -1.218,0.039 -1.59,0.397 -0.5,0.465 -0.811,1.686 -0.413,2.114 0.402,0.434 0.98,0.236 1.724,0.257 0.49,0.024 0.594,0.476 0.678,0.707 -0.237,0.111 -0.591,0.312 -1.056,0.593 -0.479,-0.305 -1.219,-0.934 -1.538,-1.199 -0.399,-0.336 -1.215,-1.501 -0.764,-2.748 m 1.926,-7.048 c -0.483,-0.497 -0.842,-1.047 -0.836,-1.739 0.024,-0.659 0.243,-1.314 0.913,-1.611 0.594,0.437 1.357,0.968 2.093,1.106 0.36,-0.433 0.915,-0.722 1.247,-0.983 0.23,0.278 0.964,0.874 1.167,1.059 0.193,0.197 0,0.473 -0.203,0.214 -0.156,-0.238 -0.674,-0.066 -0.822,0.177 0,0.281 -0.268,3.243 -0.149,3.38 -0.428,0.476 -1.164,1.551 -1.66,1.498 -0.721,-0.074 -1.8,-1.105 -2.032,-1.442 -0.176,-0.253 0.053,-1.473 0.191,-1.589 0.038,-0.027 0.056,-0.037 0.091,-0.07 m 1.896,-0.254 c -0.544,-0.012 -1.012,0.156 -1.606,0.678 -0.113,0.096 -0.219,0.771 -0.09,0.992 0.261,0.415 0.261,0.545 0.489,0.54 0.177,0 1.273,-0.662 1.215,-1.015 0.042,-0.253 0.022,-0.729 -0.008,-1.195 m -1.44,-0.099 c 0.499,-0.337 0.785,-0.292 1.415,-0.231 -0.026,-0.341 -0.051,-0.654 -0.051,-0.794 0,-0.151 0.063,-0.271 0.105,-0.399 -0.325,-0.115 -0.74,-0.185 -1.059,-0.345 -0.29,0.255 -1.355,0.983 -0.41,1.769 m 4.106,5.492 0.597,0.642 c -0.669,0.127 -0.669,0.082 -1.025,0.402 l 0.026,3.087 -0.583,0.86 -0.312,-0.041 -1.342,-1.238 c -0.361,-0.324 -0.038,-0.478 0.365,-0.12 l 0.693,-0.424 0.025,-2.907 c 0.071,-0.348 0.377,-0.467 0.804,-0.908 z m -1.048,10.803 c -0.276,0.017 -0.695,-0.489 0.919,-0.655 0.25,-0.029 0.586,0.563 -0.919,0.655 m 0.019,0.964 c -0.266,0.015 -0.684,-0.72 0.925,-0.659 0.252,0.009 0.438,0.581 -0.925,0.659 m 0.309,-4.849 -0.69,0.715 -0.695,-0.625 0.013,-0.86 0.425,-0.436 h 0.431 l 0.516,0.466 z m -1.405,6.605 c -0.469,0.322 -0.98,1.103 -2.113,1.153 -1.138,0.046 -2.422,-0.982 -2.839,-1.629 -0.554,-0.856 0.125,-1.606 0.849,-2.162 -0.463,-0.395 -1.106,-1.006 -1.701,-1.564 0.238,-0.259 1.541,-0.875 2.272,-0.857 1.106,0.025 2.128,0.595 2.758,1.101 1.15,0.91 0.751,1.876 -0.419,2.559 -0.112,0.067 -0.22,0.087 -0.331,0.108 0.726,0.576 1.36,1.089 1.524,1.291 m -2.906,-2.381 c 0.385,-0.174 0.776,-0.347 1.202,-0.599 0.617,-0.349 0.3,-1.013 -0.365,-1.319 -0.676,-0.311 -1.885,0.563 -2.073,0.921 0.247,0.214 0.713,0.583 1.236,0.997 m 1.219,1.624 c -0.101,-0.082 -0.392,-0.317 -0.705,-0.568 -0.184,-0.031 -0.372,-0.053 -0.564,-0.029 -0.579,0.083 -0.858,0.519 -1.125,0.87 -0.276,0.366 0.436,0.67 0.786,0.633 0.356,-0.049 1.14,-0.469 1.608,-0.906 m -4.761,-2.506 c -1.692,-0.427 -2.484,0.93 -2.653,1.292 0.683,0.7 1.847,1.844 2.555,2.425 -0.468,0.432 -0.661,1.147 -1.493,1.209 -0.726,-0.02 -2.418,-0.842 -2.714,-2.991 -0.285,-2.062 1.652,-3.177 3.186,-3.239 0.512,0 1.15,0.662 1.467,0.818 0.68,0.333 0.427,0.663 -0.348,0.486 m -2.776,1.699 c -0.428,1.375 -0.267,1.848 0.587,2.527 0.192,-0.473 0.682,-0.814 0.955,-0.979 -0.482,-0.468 -1.231,-1.318 -1.542,-1.548 m -1.957,1.224 c 0.289,0.284 -0.019,0.49 -0.276,0.243 -0.192,0.229 -0.681,0.733 -0.942,1.041 -0.278,-0.231 -0.915,-0.614 -1.271,-0.812 -0.278,0.318 -0.621,0.318 -1.177,0.754 -0.309,-0.236 -0.992,-0.736 -1.359,-1.181 0.648,-0.189 1.136,-0.227 1.177,-0.782 0.024,-0.453 -0.048,-3.239 -0.009,-3.75 0.346,-0.075 0.77,-0.041 1.263,-0.016 0.038,0.399 0.02,3.893 0.02,4.28 0.186,0.104 0.378,0.206 0.469,0.292 0.205,-0.156 0.609,-0.745 0.935,-0.939 0.251,0.186 0.894,0.593 1.17,0.87 m -5.344,-7.217 c -0.734,-0.067 -1.797,-0.926 -2.114,-1.667 -0.127,-0.295 0.054,-1.362 0.19,-1.479 0.096,-0.085 0.171,-0.143 0.255,-0.208 -0.483,-0.449 -0.935,-0.831 -0.921,-1.498 0.02,-0.642 0.53,-1.214 1.19,-1.514 0.353,0.538 0.904,0.868 1.494,1.006 0.049,-0.512 0.168,-0.888 0.504,-1.146 0.242,0.267 1.21,1.103 1.396,1.292 0.205,0.193 0.052,0.424 -0.186,0.193 -0.142,-0.132 -0.488,0.063 -0.59,0.231 0,0.281 0,3.236 0.124,3.37 -0.438,0.474 -0.853,1.474 -1.342,1.42 m 0.058,-3 c -0.82,-0.531 -1.081,-0.513 -1.645,0.123 -0.281,0.325 -0.255,0.938 -0.126,1.17 0.255,0.399 0.701,0.803 0.914,0.798 0.184,-0.012 0.845,-0.815 0.799,-1.165 0.035,-0.193 0.049,-0.551 0.058,-0.926 m 0.008,-1.478 c -0.004,-0.16 0,-0.296 0.003,-0.44 -0.158,-0.04 -0.336,-0.078 -0.557,-0.189 -0.301,0.255 -1.725,0.721 -0.792,1.473 0.572,-0.337 0.793,-0.074 1.346,0.268 0.004,-0.482 0,-0.938 0,-1.112 m -0.639,6.258 c -0.1,0.127 -0.29,0.333 -0.298,0.591 0,0.17 0.02,1.952 0.02,2.174 0,0.21 -0.42,0.188 -0.42,0 -0.02,-0.317 0.027,-0.856 -0.255,-1.294 -0.782,-1.209 -2.271,-1.707 -3.317,-0.224 -0.356,0.492 -0.441,1.238 -0.486,1.77 -0.07,0.71 0.468,1.629 0.499,1.712 1.332,1.745 3.179,0.449 3.329,-0.26 0.099,-0.473 0.205,-1.053 0.205,-1.357 -0.012,-0.202 0.425,-0.182 0.433,0.027 0,0.218 0.012,2.899 0.012,3.087 0.008,0.174 -0.352,0.231 -0.359,0 -0.02,-0.424 -0.27,-0.46 -0.595,-0.356 -0.674,0.201 -2.167,0.521 -3.035,0.023 -0.763,-0.45 -1.934,-1.502 -1.913,-2.827 0.023,-2.178 0.846,-2.362 1.801,-2.949 0.894,-0.526 2.131,-0.185 3.26,0.142 0.448,0.122 0.504,-0.162 0.719,-0.479 0.365,-0.489 0.661,-0.177 0.4,0.22 m -6.039,-3.08 c -0.754,-1.153 -1.167,-2.972 0.14,-4.037 0.614,-0.514 1.124,-0.915 2.379,-0.691 0.249,0.497 0.36,0.663 0.801,1.238 -0.865,-0.14 -1.533,0.016 -2.164,0.494 -1.3,1.009 -0.898,2.633 -0.514,3.188 0.701,1.042 1.698,-0.447 1.877,-0.65 0.231,0.277 0.632,0.673 1.023,0.98 -0.388,0.512 -0.705,0.988 -0.968,1.297 -0.831,-0.3 -2.053,-1.045 -2.574,-1.819 m 0.537,-9.969 c -0.279,-2.074 1.677,-3.308 2.617,-3.707 0.237,0.477 0.717,1.25 1.188,1.792 0.358,0.418 -0.037,0.528 -0.358,0.207 -0.433,-0.473 -1.725,-0.024 -2.067,0.6 0.624,0.471 2.251,1.832 2.959,2.412 -0.467,0.438 -1.19,1.529 -1.302,2.154 -0.631,-0.425 -2.719,-1.302 -3.037,-3.458 m 2.02,2.247 c 0.188,-0.48 0.789,-1.395 1.061,-1.556 -0.468,-0.468 -1.615,-1.246 -1.937,-1.473 -0.587,0.737 -0.903,1.94 0.876,3.029 m 4.276,0.753 c -0.406,-0.383 -0.725,-0.732 -1.318,-1.201 0.276,-0.316 0.743,-0.716 0.785,-1.26 0.035,-0.551 0.014,-3.103 0.049,-3.741 0.434,0 0.357,-0.046 1.103,-0.017 -0.074,0.433 -0.012,3.746 -0.012,4.22 0.28,0.267 0.32,0.308 0.64,0.547 0.231,-0.202 0.771,-0.321 0.771,-0.676 0,-0.357 0.106,-1.929 -0.019,-2.51 -0.157,-0.709 -0.087,-1.219 0.296,-1.934 0.29,0.324 1.374,1.082 1.61,1.272 0.232,0.201 0.111,0.352 -0.189,0.27 -0.321,-0.069 -0.378,-0.131 -0.378,0.072 0,0.382 -0.151,2.107 -0.174,3.209 -0.04,1.104 -0.579,1.429 -0.889,1.582 -0.317,-0.352 -1.023,-0.795 -1.445,-1.155 -0.319,0.235 -0.476,0.764 -0.83,1.322 m 4.445,2.672 c 0.372,0.297 0.646,0.799 0.799,0.917 0.286,0.236 0.05,0.478 -0.192,0.252 -0.193,-0.19 -0.699,0.25 -0.721,0.28 -0.165,0.193 -0.405,2.721 -0.293,2.778 0,0 1.608,0.198 1.82,0.194 0.159,-0.011 0.18,0.501 0.008,0.51 -0.261,0 -1.488,-0.169 -1.532,-0.049 -0.067,0.267 -0.233,1.168 0.17,1.942 0.19,0.338 -0.006,0.664 -0.131,0.319 -0.143,-0.352 -1.15,-1.915 -1.801,-2.172 -0.531,-0.218 -0.471,-0.341 -0.129,-0.428 0.271,-0.052 0.553,-0.377 0.501,-0.373 -0.053,-1.297 -0.181,-2.898 0.223,-3.577 0.256,-0.429 0.959,-0.873 1.278,-0.593 m 5.524,-0.575 c -0.199,-0.392 -0.52,-0.75 -1.105,-1.017 0.356,-0.31 0.82,-0.71 1.126,-0.911 0.351,0.392 0.674,0.754 1.079,1.137 -0.401,0.079 -0.865,0.279 -1.1,0.791 m -2.532,1.431 c 0.511,0.042 1.333,-0.264 2.247,-0.189 1.086,0.078 1.938,1.761 1.469,3.07 -0.437,1.243 -1.823,1.025 -2.756,1.322 -0.858,0.234 -1.213,0.773 -0.277,1.388 1.1,0.71 2.465,-0.429 2.596,-0.669 0.202,-0.362 0.37,-0.356 0.37,0.115 0.029,1.029 -0.066,0.447 -0.168,1.416 -0.034,0.346 -0.287,0.376 -0.31,0.043 -0.023,-0.338 -0.435,-0.235 -0.745,-0.235 -0.315,0.007 -1.233,0.147 -2.026,-0.293 -0.504,-0.293 -1.658,-1.197 -1.012,-2.281 0.378,-0.632 2.593,-1.146 3.144,-1.511 0.554,-0.361 0.678,-1.291 0.149,-1.718 -0.659,-0.523 -2.451,-0.083 -2.727,0.234 -0.363,0.402 -0.501,0.733 -0.578,1.198 -0.076,0.477 -0.476,0.436 -0.476,0 0,-0.434 0.102,-1.923 0.181,-2.272 0.072,-0.364 0.435,-0.243 0.469,0.032 0.041,0.256 0.212,0.33 0.45,0.35 m -2.322,-4.643 c -0.421,-0.316 0.497,-0.757 0.415,-0.733 0.033,-1.3 -0.156,-2.637 0.287,-3.297 0.281,-0.411 1.153,-0.712 1.304,-0.319 0.147,0.396 0.808,1.204 0.957,1.341 0.275,0.243 0.032,0.465 -0.199,0.226 -0.479,-0.507 -0.746,-0.273 -1.098,0.062 -0.17,0.194 -0.235,2.012 -0.112,2.067 0,0 0.878,0.127 1.089,0.127 0.163,0 0.149,0.506 -0.022,0.506 -0.263,0 -1.047,-0.008 -1.092,0.115 -0.098,0.252 0.156,1.478 0.2,2.029 0.037,0.388 -0.172,0.511 -0.277,0.149 -0.113,-0.355 -0.955,-1.911 -1.452,-2.273"
             style="fill:#8b0021;fill-opacity:1;fill-rule:nonzero;stroke:none"
             id="path1613" /></g></g></g></g></svg>
