<?xml version="1.0" encoding="UTF-8" standalone="no"?>

<svg
   version="1.1"
   id="Layer_1"
   x="0px"
   y="0px"
   viewBox="0 0 412.56242 85.333333"
   xml:space="preserve"
   sodipodi:docname="cornell-with-text.svg"
   width="412.56241"
   height="85.333336"
   inkscape:version="1.1.1 (c3084ef, 2021-09-22)"
   xmlns:inkscape="http://www.inkscape.org/namespaces/inkscape"
   xmlns:sodipodi="http://sodipodi.sourceforge.net/DTD/sodipodi-0.dtd"
   xmlns="http://www.w3.org/2000/svg"
   xmlns:svg="http://www.w3.org/2000/svg"><defs
   id="defs362" /><sodipodi:namedview
   id="namedview360"
   borderopacity="1.0"
   inkscape:pageshadow="2"
   inkscape:pageopacity="0.0"
   inkscape:pagecheckerboard="0"
   showgrid="false"
   fit-margin-top="0"
   fit-margin-left="16"
   fit-margin-right="16"
   fit-margin-bottom="0"
   inkscape:zoom="0.70450712"
   inkscape:cx="206.52737"
   inkscape:cy="43.292678"
   inkscape:window-width="1296"
   inkscape:window-height="847"
   inkscape:window-x="0"
   inkscape:window-y="25"
   inkscape:window-maximized="0"
   inkscape:current-layer="Layer_1" />
<g
   id="Layer_2"
   transform="translate(-593.5688,-136.68333)">
</g>
<g
   id="g357"
   transform="matrix(0.23789611,0,0,0.23789611,16,0)">
	<g
   id="Layer_1_1_">
		<path stroke="#B31B1B" 
   d="M 178.9,358.7 C 80.1,358.7 0,277.6 0,178.9 0,80.2 80.1,0 178.9,0 c 98.8,0 178.9,80.1 178.9,178.9 0,98.6 -80.3,179.8 -178.9,179.8 z m 0,-339.1 C 91,19.6 19.5,91 19.5,179 c 0,88 71.4,159.4 159.4,159.4 88,0 159.4,-71.4 159.4,-159.4 C 338.2,90.8 266.8,19.6 178.9,19.6 Z"
   id="path281" />
		<path stroke="#B31B1B" 
   d="M 136.8,198.5"
   id="path283" />
		<path stroke="#B31B1B" 
   d="m 178.9,337.2 -2.9,-1 C 172,334.3 70.5,290.3 70.5,209.1 V 64.6 h 217 v 146.6 c 0,77.2 -100.6,122.3 -105.5,124.1 z M 86.1,79.2 v 130 c 0,64.5 77.2,104.6 93.8,112.4 15.8,-7.8 93.8,-48.9 93.8,-109.5 V 80.1 H 86 c 0.1,0 0.1,-0.9 0.1,-0.9 z"
   id="path285" />
		<path stroke="#B31B1B" 
   d="m 133.1,149.6 -1.9,-1 c 0,0 -11.8,-6.9 -18.6,-11.8 -5.9,-4 -8.8,-8.8 -9.9,-12.8 0,-1 0,-12.8 0,-36.1 V 83 h 61.6 v 4.9 c 0,23.5 0,35.2 0,36.1 0,4.9 -2.9,8.8 -8.8,12.8 -7.8,4.9 -18.6,11.8 -19.5,11.8 z M 111.4,91.8 c 0,12.8 0,29.4 0,31.2 0,1 1.9,4 4.9,5.9 4.9,2.9 11.8,7.8 15.8,9.9 4,-1.9 11.8,-6.9 16.6,-9.9 1.9,-1 4.9,-2.9 4.9,-4.9 0,-1.9 0,-17.6 0,-31.2 h -42.1 v -1 z"
   id="path287" />
		<path stroke="#B31B1B" 
   d="m 228.7,149.6 -1.9,-1 c 0,0 -11.8,-6.9 -18.6,-11.8 -5.9,-4 -8.8,-8.8 -9.9,-12.8 0,-1 0,-12.8 0,-36.1 V 83 h 61.6 v 4.9 c 0,23.5 0,35.2 0,36.1 0,4.9 -2.9,8.8 -8.8,12.8 -7.8,4.9 -18.6,11.8 -19.5,11.8 z M 207.3,91.8 c 0,12.8 0,29.4 0,31.2 0,1 1.9,4 4.9,5.9 4.9,2.9 11.7,7.8 15.8,9.9 4,-1.9 11.7,-6.9 16.6,-9.9 1.9,-1 4.9,-2.9 4.9,-4.9 0,-1.9 0,-17.6 0,-31.2 h -42 v -1 z"
   id="path289" />
		<rect
   x="74.300003"
   y="152.5"
   width="211.10001"
   height="12.8"
   id="rect291" />
		<g
   id="g297">
			<g
   id="g295">
				<path stroke="#B31B1B" 
   d="m 178.9,280.5 c -4,0 -5.9,-2.9 -6.9,-4 -1,-1 -1.9,-1.9 -2.9,-1.9 -5.9,0 -9.9,0 -14.6,1 -4.9,0 -9.9,1 -17.6,1 -7.7,0 -13.6,0 -13.6,0 h -5.9 v -98.8 h 5.9 c 4,0 8.8,0 16.6,0 4,0 7.8,-1 12.8,-1 2.9,0 5.9,-1 8.8,-1 6.9,-1 12.8,1 13.6,1 1.9,0 2.9,1 4.9,1.9 1,-1 2.9,-1 4.9,-1.9 0,0 6.9,-1 13.6,-1 2.9,0 5.9,1 8.8,1 4.9,1 8.8,1 12.8,1 7.7,0 12.7,0 16.6,0 h 5.9 v 98.8 h -5.8 c 0,0 -5.9,0 -13.6,0 -7.8,0 -12.8,-1 -17.6,-1 -4.9,0 -8.8,-1 -14.6,-1 -1.9,0 -1.9,0 -2.9,1.9 -3.3,2.1 -5.3,4 -9.2,4 z m -9.8,-16.7 c 4.9,0 8.8,1.9 10.8,4 1.9,-1.9 5.9,-4 10.8,-4 5.9,0 10.8,0 15.8,1 4.9,0 9.9,1 16.6,1 2.9,0 4.9,0 6.9,0 v -76.1 c -2.9,0 -6.9,0 -10.8,0 -3.9,0 -8.8,-1 -13.6,-1 -2.9,0 -5.9,-1 -8.8,-1 -4.9,-1 -9.9,0 -9.9,0 -1,0 -1.9,1 -1.9,1 0,0 0,0 1,-1 l -5.9,-1 -5.9,1 c 0,1 0,1 1,1 0,0 0,0 -1.9,-1 v 0 c 0,0 -4.9,-1 -9.9,0 -2.9,0 -5.9,1 -8.8,1 -4.9,1 -9.9,1 -13.6,1 -4.9,0 -7.8,0 -10.8,0 v 76.1 c 1.9,0 4.9,0 6.9,0 6.9,0 11.8,-1 16.6,-1 4.7,-1 8.6,-1 15.4,-1 z"
   id="path293" />
			</g>
		</g>
		<rect
   x="106.6"
   y="101.7"
   width="50.700001"
   height="8.8000002"
   id="rect299" />
		<rect
   x="173.89999"
   y="155.5"
   width="11.7"
   height="173.89999"
   id="rect301" />
		<polygon
   points="201.4,114.3 227.8,95.8 255.1,114.3 250.3,121.2 227.8,106.6 207.3,121.2 "
   id="polygon303" />
		<path stroke="#B31B1B" 
   d="M 226.8,122.2"
   id="path305" />
		<rect
   x="136.8"
   y="200.3"
   width="25.4"
   height="8.8000002"
   id="rect307" />
		<rect
   x="136.8"
   y="220.8"
   width="25.4"
   height="8.8000002"
   id="rect309" />
		<rect
   x="136.8"
   y="241.5"
   width="25.4"
   height="8.8000002"
   id="rect311" />
		<rect
   x="193.5"
   y="200.3"
   width="25.4"
   height="8.8000002"
   id="rect313" />
		<rect
   x="193.5"
   y="220.8"
   width="25.4"
   height="8.8000002"
   id="rect315" />
		<rect
   x="193.5"
   y="241.5"
   width="25.4"
   height="8.8000002"
   id="rect317" />
	</g>
	<g
   id="Layer_3">
		<g
   id="g354">
			<path stroke="#B31B1B" 
   d="m 518.9,228.7 c -8.8,5.9 -24.5,8.8 -34.2,8.8 -37.1,0 -62.5,-21.6 -62.5,-56.6 0,-17.6 6.9,-32.2 19.5,-42 11.8,-9.9 27.2,-14.6 44.9,-14.6 14.6,0 28.4,4 36.1,6.9 -1.9,7.8 -2.9,15.7 -2.9,23.5 h -4.9 v -11.9 c 0,-4 -5.9,-6.9 -13.6,-9.9 -4.9,-1.9 -11.8,-2.9 -17.6,-2.9 -29.4,0 -44.9,21.6 -44.9,47.9 0,31.2 20.5,50.8 51.7,50.8 11.8,0 24.5,-4 31.3,-9.9 l 1,1.9 z"
   id="path320" />
			<path stroke="#B31B1B" 
   d="m 558.2,236.6 c -19.5,0 -33.1,-15.8 -33.1,-36.1 0,-23.5 14.6,-40.1 40.1,-40.1 19.5,0 35.2,15.8 35.2,35.2 0,23.5 -16.6,41.1 -41.1,41.1 h -1 v -0.1 z m -18.7,-43 c 0,16.6 5.9,38.1 26.4,38.1 14.6,0 20.5,-14.6 20.5,-28.4 0,-20.5 -9.9,-37.1 -24.5,-37.1 -17.5,-1 -22.4,12.6 -22.4,27.4 z"
   id="path322" />
			<path stroke="#B31B1B" 
   d="m 611.8,182.7 c 0,-4.9 0,-8.8 -1,-9.9 -1,-1 -2.9,-1.9 -5.9,-1.9 H 599 v -4 c 8.8,-1 18.6,-4 24.5,-6.9 l 1,1 v 15.8 0 l 8.8,-9.9 c 4,-4.9 8.7,-6.9 12.7,-6.9 2.9,0 5.9,1 6.9,1.9 l -1,18.6 H 649 c -1.9,-4 -4.9,-6.9 -10.8,-6.9 -6.9,0 -13.6,6.9 -13.6,17.6 v 27.2 c 0,4 0,7.8 1,8.8 1,1 2.9,1.9 6.9,1.9 h 7.8 v 4.9 c -7.8,0 -14.6,0 -22.5,0 -7.8,0 -13.6,0 -19.5,0 v -4.9 h 6.9 c 2.9,0 4,-1 4.9,-1.9 1,-1.9 1,-4.9 1,-8.8 v -36.1 h 0.6 v 0.2 h 0.1 z"
   id="path324" />
			<path stroke="#B31B1B" 
   d="m 684.2,218 c 0,4 0,7.8 1,8.8 1,1 1.9,1.9 4.9,1.9 h 6.9 v 4.9 c -5.9,0 -11.8,0 -19.5,0 -7.7,0 -13.6,0 -19.5,0 v -4.9 h 6.9 c 2.9,0 4,-1 4.9,-1.9 1,-1.9 1,-4.9 1,-8.8 v -35.3 c 0,-4.9 0,-8.8 -1,-9.9 -1,-1.1 -2.9,-1.9 -5.9,-1.9 H 659 v -4 c 8.8,-1 18.6,-4 24.5,-6.9 l 1,1 v 13.6 0 l 11.8,-9.9 c 4,-2.9 6.9,-4 12.8,-4 18.6,0 25.4,9.9 25.4,27.2 v 30.2 c 0,4 0,7.8 1,8.8 1,1 1.9,1.9 4.9,1.9 h 6.9 v 4.9 c -4,0 -8.8,0 -12.8,0 -4,0 -8.8,0 -12.8,0 v -44 c 0,-12.8 -7.8,-19.5 -17.6,-19.5 -9.9,0 -19.5,7.8 -19.5,14.6 z"
   id="path326" />
			<path stroke="#B31B1B" 
   d="m 812.2,188.6 c 0,1.9 0,4 0,6.9 -9.9,1.9 -18.6,1.9 -28.4,1.9 h -22.5 c 0,18.6 8.8,31.2 28.4,31.2 7.8,0 13.6,-4 19.5,-7.8 l 1.9,1.9 -2.9,4.9 c -1,1.9 -14.6,8.8 -25.4,8.8 -23.5,0 -36.1,-14.6 -36.1,-36.1 0,-15.7 4,-24.5 11.8,-30.2 2.9,-1.9 5.9,-4.9 9.9,-5.9 5.9,-2.9 9.9,-4 15.8,-4 15.3,0 28,10.9 28,28.4 z m -50.8,1 v 1.9 c 6.9,1 13.6,1 19.5,1 5.9,0 11.8,0 17.6,0 0,-14.6 -4.9,-26.4 -16.6,-26.4 -11.7,-0.9 -20.5,8 -20.5,23.5 z"
   id="path328" />
			<path stroke="#B31B1B" 
   d="m 826.8,136.8 c 0,-4 0,-6.9 -4,-6.9 H 814 V 126 c 7.8,-1 16.6,-2.9 24.5,-5.9 l 1,1 v 96.8 c 0,4 0,7.8 1,8.8 1,1 1.9,1.9 4.9,1.9 h 6.9 v 4.9 c -5.9,0 -11.8,0 -19.5,0 -7.7,0 -13.6,0 -19.5,0 v -4.9 h 6.9 c 2.9,0 4,-1 4.9,-1.9 1,-1.9 1,-4.9 1,-8.8 v -81.1 z"
   id="path330" />
			<path stroke="#B31B1B" 
   d="m 866.1,136.8 c 0,-4 0,-6.9 -4,-6.9 h -8.8 V 126 c 7.8,-1 16.6,-2.9 24.5,-5.9 l 1,1 v 96.8 c 0,4 0,7.8 1,8.8 1,1 1.9,1.9 4.9,1.9 h 6.9 v 4.9 c -5.9,0 -11.8,0 -19.5,0 -7.8,0 -13.6,0 -19.5,0 v -4.9 h 6.9 c 2.9,0 4,-1 4.9,-1.9 1,-1.9 1,-4.9 1,-8.8 v -81.1 z"
   id="path332" />
			<path stroke="#B31B1B" 
   d="m 939.3,144.7 c 0,-5.9 0,-9.9 -1,-11.8 -1,-1.9 -2.9,-1.9 -6.9,-1.9 h -7.8 v -5 c 7.8,0 15.8,0 23.5,0 6.9,0 14.6,0 22.5,0 v 4.9 h -7.8 c -4,0 -5.9,1 -6.9,1.9 -1,1.9 -1,5.9 -1,11.8 v 53.8 c 0,22.5 11.8,28.4 32.2,28.4 16.6,0 32.2,-6.9 32.2,-32.2 v -49.9 c 0,-5.9 0,-9.9 -1,-11.8 -1,-1.9 -2.9,-1.9 -6.9,-1.9 h -6.9 v -4.8 c 5.9,0 12.8,0 18.6,0 5.8,0 11.8,0 18.6,0 v 4.9 h -6.8 c -4,0 -5.9,1 -6.9,1.9 -1,1.9 -1,5.9 -1,11.8 v 44.9 c 0,33.1 -12.8,47 -44,47 -26.4,0 -42,-7.8 -42,-36.1 v -55.8 z"
   id="path334" />
			<path stroke="#B31B1B" 
   d="m 1061.4,218 c 0,4 0,7.8 1,8.8 1,1 1.9,1.9 4.9,1.9 h 6.9 v 4.9 c -5.9,0 -11.8,0 -19.5,0 -7.7,0 -13.6,0 -19.5,0 v -4.9 h 6.9 c 2.9,0 4,-1 4.9,-1.9 1,-1.9 1,-4.9 1,-8.8 v -35.3 c 0,-4.9 0,-8.8 -1,-9.9 -1,-1.1 -2.9,-1.9 -5.9,-1.9 h -5.9 v -4 c 8.8,-1 18.6,-4 24.5,-6.9 l 1,1 v 13.6 0 l 11.8,-9.9 c 4,-2.9 6.9,-4 12.8,-4 18.6,0 25.4,9.9 25.4,27.2 v 30.2 c 0,4 0,7.8 1,8.8 1,1 1.9,1.9 4.9,1.9 h 6.9 v 4.9 c -4,0 -8.8,0 -12.8,0 -4,0 -8.8,0 -12.8,0 v -44 c 0,-12.8 -7.8,-19.5 -17.6,-19.5 -9.9,0 -19.5,7.8 -19.5,14.6 v 32.6 h 0.8 z"
   id="path336" />
			<path stroke="#B31B1B" 
   d="m 1155.3,218 c 0,4 0,7.8 1,8.8 1,1 1.9,1.9 4.9,1.9 h 6.9 v 4.9 c -5.9,0 -11.8,0 -19.5,0 -7.7,0 -13.6,0 -19.5,0 v -4.9 h 6.9 c 2.9,0 4,-1 4.9,-1.9 1,-1.9 1,-4.9 1,-8.8 v -35.3 c 0,-4.9 0,-8.8 -1,-9.9 -1,-1.1 -2.9,-1.9 -5.9,-1.9 h -5.9 v -4 c 8.8,-1 18.6,-4 24.5,-6.9 l 1,1 v 56.8 h 0.8 v 0.2 z m 1,-83.2 c 0,4.9 -4,8.8 -8.8,8.8 -4.9,0 -8.8,-4 -8.8,-8.8 0,-4.8 4,-8.8 8.8,-8.8 4.8,0 8.8,4 8.8,8.8 z"
   id="path338" />
			<path stroke="#B31B1B" 
   d="m 1213.9,218 c -2.9,5.9 -4,11.8 -6.9,16.6 h -7.8 l -27.5,-63.5 c -1,-1.9 -1.9,-4.9 -4.9,-4.9 h -4.9 v -4 c 5.9,0 11.8,0 18.6,0 5.9,0 11.8,0 18.6,0 v 4 h -7.8 c -2.9,0 -4,1 -4,2.9 0,1 0,2.9 1,5.9 l 18.6,44.9 c 2.9,-6.9 6.9,-14.6 9.9,-21.6 l 6.9,-16.6 c 1.9,-4.9 2.9,-8.8 2.9,-11.8 0,-2.9 -1,-4 -4,-4 h -6.9 v -4 c 4.9,0 9.9,0 14.6,0 4.7,0 9.9,0 14.6,0 v 4 h -4.9 c -4,0 -6.9,5.9 -8.8,10.8 z"
   id="path340" />
			<path stroke="#B31B1B" 
   d="m 1307.7,188.6 c 0,1.9 0,4 0,6.9 -9.9,1.9 -18.6,1.9 -28.4,1.9 h -22.5 c 0,18.6 8.8,31.2 28.4,31.2 7.7,0 13.6,-4 19.5,-7.8 l 1.9,1.9 -2.9,4.9 c -1,1.9 -14.6,8.8 -25.4,8.8 -23.5,0 -36.1,-14.6 -36.1,-36.1 0,-15.7 4,-24.5 11.8,-30.2 2.9,-1.9 5.9,-4.9 9.9,-5.9 5.9,-2.9 9.9,-4 15.8,-4 15.4,0 28,10.9 28,28.4 z m -51.8,1 v 1.9 c 6.9,1 13.6,1 19.5,1 5.9,0 11.8,0 17.6,0 0,-14.6 -4.9,-26.4 -16.6,-26.4 -10.6,-0.9 -20.5,8 -20.5,23.5 z"
   id="path342" />
			<path stroke="#B31B1B" 
   d="m 1325.3,182.7 c 0,-4.9 0,-8.8 -1,-9.9 -1,-1 -2.9,-1.9 -5.9,-1.9 h -5.9 v -4 c 8.8,-1 18.6,-4 24.5,-6.9 l 1,1 v 15.8 0 l 8.8,-9.9 c 4,-4.9 8.8,-6.9 12.8,-6.9 2.9,0 5.9,1 6.9,1.9 l -1,18.6 h -2.9 c -1.9,-4 -4.9,-6.9 -10.8,-6.9 -6.9,0 -13.6,6.9 -13.6,17.6 v 27.2 c 0,4 0,7.8 1,8.8 1,1 2.9,1.9 6.9,1.9 h 7.8 v 4.9 c -7.8,0 -14.6,0 -22.5,0 -7.9,0 -13.6,0 -19.5,0 v -4.9 h 6.9 c 2.9,0 4,-1 4.9,-1.9 1,-1.9 1,-4.9 1,-8.8 v -36.1 h 0.6 z"
   id="path344" />
			<path stroke="#B31B1B" 
   d="m 1379.1,211.2 v 6.9 c 0,9.9 10.8,13.6 20.5,13.6 9.9,0 18.6,-5.9 18.6,-14.6 0,-4.9 -2.9,-8.8 -7.7,-10.7 -6.9,-1.9 -15.8,-4 -23.5,-5.9 -7.7,-2.9 -13.6,-7.8 -13.6,-16.6 0,-16.6 14.6,-22.5 29.4,-22.5 7.7,0 13.6,1.9 20.5,4 0,5.9 -1,11.8 -1,17.6 h -4 v -4 c 0,-7.8 -8.8,-12.8 -18.6,-12.8 -13.6,0 -15.8,7.8 -15.8,12.8 0,6.9 4.9,10.8 16.6,12.8 18.6,2.9 27.2,7.8 27.2,19.5 0,17.6 -17.6,26.4 -34.2,26.4 -7.8,0 -14.6,-1 -21.6,-4 1.9,-6.9 1.9,-14.6 1.9,-21.6 h 4.9 v -1 h 0.5 z"
   id="path346" />
			<path stroke="#B31B1B" 
   d="m 1460.2,218 c 0,4 0,7.8 1,8.8 1,1 1.9,1.9 4.9,1.9 h 6.9 v 4.9 c -5.9,0 -11.8,0 -19.5,0 -7.7,0 -13.6,0 -19.5,0 v -4.9 h 6.9 c 2.9,0 4,-1 4.9,-1.9 1,-1.9 1,-4.9 1,-8.8 v -35.3 c 0,-4.9 0,-8.8 -1,-9.9 -1,-1.1 -2.9,-1.9 -5.9,-1.9 h -5.9 v -4 c 8.8,-1 18.6,-4 24.5,-6.9 l 1,1 v 56.8 h 0.8 z m 2,-83.2 c 0,4.9 -4,8.8 -8.8,8.8 -4.9,0 -8.8,-4 -8.8,-8.8 0,-4.8 4,-8.8 8.8,-8.8 3.9,0.1 8.8,4 8.8,8.8 z"
   id="path348" />
			<path stroke="#B31B1B" 
   d="m 1470.9,175 v -2.9 l 11.8,-5.9 v -10.7 c 0,-4 0,-7.8 -1,-12.8 5.9,-1.9 10.8,-4 13.6,-5.9 l 1.9,1.9 c -1,6.9 -1.9,15.8 -1.9,22.5 v 5.9 l 21.6,-1 -1,8.8 h -19.5 V 216 c 0,6.9 1.9,10.8 8.8,10.8 4,0 6.9,-1.9 8.8,-2.9 l 1.9,2.9 -7.8,7.8 c -1,1.9 -6.9,1.9 -9.9,1.9 -7.7,0 -15.8,-4 -15.8,-16.6 v -45.1 z"
   id="path350" />
			<path stroke="#B31B1B" 
   d="m 1580.4,175 c 1,-1.9 1,-2.9 1,-4 0,-2.9 -1.9,-4 -6.9,-4 h -4 v -4 c 4.9,0 9.9,0 14.6,0 4.9,0 9.9,0 14.6,0 v 4 h -4 c -4,0 -6.9,4.9 -12.8,18.6 l -31.2,73.4 c -4.9,11.8 -10.7,19.5 -23.5,19.5 -2.9,0 -5.9,-1 -7.8,-1.9 l 4,-11.8 h 1.9 c 1.9,1.9 5.9,4 7.7,4 v 0 c 8.8,-1 13.6,-13.6 16.6,-20.5 l 4,-9.9 -25.4,-63.5 c -2.9,-5.9 -4.9,-7.8 -7.8,-7.8 h -2.9 v -4 c 5.9,0 11.8,0 18.6,0 5.9,0 11.8,0 18.6,0 v 4 h -5.9 c -2.9,0 -4.9,1 -4.9,4 0,1.9 0,4 1,5.9 l 17.6,43 z"
   id="path352" />
		</g>
	</g>
</g>
</svg>
