<?xml version="1.0" encoding="UTF-8" standalone="no"?>
<!-- Generator: Adobe Illustrator 23.0.1, SVG Export Plug-In . SVG Version: 6.00 Build 0)  -->

<svg
   version="1.1"
   id="Livello_1"
   x="0px"
   y="0px"
   width="244.72229"
   height="85.333336"
   viewBox="0 0 244.72229 85.333339"
   enable-background="new 0 0 1000 401.149"
   xml:space="preserve"
   sodipodi:docname="ibm.svg"
   inkscape:version="1.1.1 (c3084ef, 2021-09-22)"
   xmlns:inkscape="http://www.inkscape.org/namespaces/inkscape"
   xmlns:sodipodi="http://sodipodi.sourceforge.net/DTD/sodipodi-0.dtd"
   xmlns="http://www.w3.org/2000/svg"
   xmlns:svg="http://www.w3.org/2000/svg"><defs
   id="defs202" /><sodipodi:namedview
   id="namedview200"
   pagecolor="#ffffff"
   bordercolor="#666666"
   borderopacity="1.0"
   inkscape:pageshadow="2"
   inkscape:pageopacity="0.0"
   inkscape:pagecheckerboard="0"
   showgrid="false"
   fit-margin-top="0"
   fit-margin-left="16"
   fit-margin-right="16"
   fit-margin-bottom="0"
   inkscape:zoom="1.127"
   inkscape:cx="122.00532"
   inkscape:cy="43.034605"
   inkscape:window-width="1296"
   inkscape:window-height="847"
   inkscape:window-x="0"
   inkscape:window-y="25"
   inkscape:window-maximized="0"
   inkscape:current-layer="Livello_1" />
<g
   id="g197"
   transform="matrix(0.21272229,0,0,0.21272229,16,0)">
	<g
   id="g162">
		<polygon
   id="Rectangle-path"
   fill="#1f70c1"
   points="0,401.05 0,373.217 194.433,373.217 194.433,401.05 " />
		<polygon
   id="Rectangle-path_1_"
   fill="#1f70c1"
   points="0,347.761 0,319.83 194.433,319.83 194.433,347.761 " />
		<polygon
   id="Rectangle-path_2_"
   fill="#1f70c1"
   points="55.468,294.473 55.468,266.541 138.867,266.541 138.867,294.473 " />
		<polygon
   id="Rectangle-path_3_"
   fill="#1f70c1"
   points="55.468,241.185 55.468,213.253 138.867,213.253 138.867,241.185 " />
		<polygon
   id="Rectangle-path_4_"
   fill="#1f70c1"
   points="55.468,187.896 55.468,159.964 138.867,159.964 138.867,187.896 " />
		<polygon
   id="Rectangle-path_5_"
   fill="#1f70c1"
   points="55.468,134.509 55.468,106.577 138.867,106.577 138.867,134.509 " />
		<rect
   id="Rectangle-path_6_"
   y="53.287998"
   fill="#1f70c1"
   width="194.433"
   height="27.931999"
   x="0" />
		<rect
   id="Rectangle-path_7_"
   fill="#1f70c1"
   width="194.433"
   height="27.931999"
   x="0"
   y="0" />
	</g>
	<g
   id="g174">
		<path
   id="Shape_16_"
   fill="#1f70c1"
   d="m 222.167,347.761 h 299.029 c 5.051,-8.617 8.815,-18.027 11.094,-27.932 H 222.167 Z" />
		<path
   id="Shape_17_"
   fill="#1f70c1"
   d="M 497.92,213.253 H 277.734 v 27.932 h 243.463 c -6.34,-10.698 -14.165,-20.107 -23.277,-27.932 z" />
		<path
   id="Shape_18_"
   fill="#1f70c1"
   d="m 277.734,159.964 v 27.932 H 497.92 c 9.311,-7.825 17.135,-17.235 23.277,-27.932 z" />
		<path
   id="Shape_19_"
   fill="#1f70c1"
   d="M 521.197,53.288 H 222.167 V 81.22 H 532.29 c -2.575,-9.905 -6.339,-19.314 -11.093,-27.932 z" />
		<path
   id="Shape_20_"
   fill="#1f70c1"
   d="M 429.279,0 H 222.167 V 27.932 H 500.693 C 482.072,10.697 456.815,0 429.279,0 Z" />
		<rect
   id="Rectangle-path_8_"
   x="277.73401"
   y="106.577"
   fill="#1f70c1"
   width="83.300003"
   height="27.931999" />
		<path
   id="Shape_21_"
   fill="#1f70c1"
   d="m 444.433,134.509 h 87.163 c 2.476,-8.914 3.764,-18.324 3.764,-27.932 h -90.927 z" />
		<polygon
   id="Rectangle-path_9_"
   fill="#1f70c1"
   points="277.734,294.473 277.734,266.541 361.034,266.541 361.034,294.473 " />
		<path
   id="Shape_22_"
   fill="#1f70c1"
   d="m 444.433,266.541 v 27.932 h 90.927 c 0,-9.608 -1.288,-19.017 -3.764,-27.932 z" />
		<path
   id="Shape_23_"
   fill="#1f70c1"
   d="m 222.167,400.852 207.112,0.297 c 27.734,0 52.793,-10.697 71.513,-27.932 H 222.167 Z" />
	</g>
	<g
   id="g195">
		<polygon
   id="Rectangle-path_10_"
   fill="#1f70c1"
   points="555.567,401.05 555.567,373.217 694.433,373.217 694.433,401.05 " />
		<polygon
   id="Rectangle-path_11_"
   fill="#1f70c1"
   points="555.567,347.761 555.567,319.83 694.433,319.83 694.433,347.761 " />
		<polygon
   id="Rectangle-path_12_"
   fill="#1f70c1"
   points="611.034,294.473 611.034,266.541 694.433,266.541 694.433,294.473 " />
		<polygon
   id="Rectangle-path_13_"
   fill="#1f70c1"
   points="611.034,241.185 611.034,213.253 694.433,213.253 694.433,241.185 " />
		<polygon
   id="Shape_24_"
   fill="#1f70c1"
   points="742.67,81.22 733.063,53.288 555.567,53.288 555.567,81.22 " />
		<polygon
   id="Shape_25_"
   fill="#1f70c1"
   points="724.247,27.932 714.639,0 555.567,0 555.567,27.932 " />
		<polygon
   id="Rectangle-path_14_"
   fill="#1f70c1"
   points="861.034,401.05 861.034,373.217 1000,373.217 1000,401.05 " />
		<polygon
   id="Rectangle-path_15_"
   fill="#1f70c1"
   points="861.034,347.761 861.034,319.83 1000,319.83 1000,347.761 " />
		<polygon
   id="Rectangle-path_16_"
   fill="#1f70c1"
   points="861.034,294.473 861.034,266.541 944.433,266.541 944.433,294.473 " />
		<polygon
   id="Rectangle-path_17_"
   fill="#1f70c1"
   points="861.034,241.185 861.034,213.253 944.433,213.253 944.433,241.185 " />
		<polygon
   id="Shape_26_"
   fill="#1f70c1"
   points="861.034,159.964 861.034,159.964 785.559,159.964 777.734,182.548 769.909,159.964 694.433,159.964 694.433,159.964 611.034,159.964 611.034,187.896 694.433,187.896 694.433,162.242 703.249,187.896 852.219,187.896 861.034,162.242 861.034,187.896 944.433,187.896 944.433,159.964 " />
		<polygon
   id="Shape_27_"
   fill="#1f70c1"
   points="944.433,134.509 944.433,106.577 803.982,106.577 794.374,134.509 " />
		<polygon
   id="Shape_28_"
   fill="#1f70c1"
   points="1000,0 840.927,0 831.319,27.932 1000,27.932 " />
		<polygon
   id="Shape_29_"
   fill="#1f70c1"
   points="777.734,400.852 787.341,373.217 768.126,373.217 " />
		<polygon
   id="Shape_30_"
   fill="#1f70c1"
   points="749.505,319.83 759.311,347.761 796.157,347.761 806.062,319.83 " />
		<polygon
   id="Shape_31_"
   fill="#1f70c1"
   points="730.784,266.541 740.59,294.473 814.877,294.473 824.683,266.541 " />
		<polygon
   id="Shape_32_"
   fill="#1f70c1"
   points="712.361,213.253 721.969,241.185 833.597,241.185 843.106,213.253 " />
		<polygon
   id="Shape_33_"
   fill="#1f70c1"
   points="611.034,106.577 611.034,134.509 761.093,134.509 751.486,106.577 " />
		<polygon
   id="Shape_34_"
   fill="#1f70c1"
   points="822.405,53.288 812.896,81.22 1000,81.22 1000,53.288 " />
	</g>
</g>
</svg>
