<?xml version="1.0" encoding="UTF-8" standalone="no"?>
<!-- Created with Inkscape (http://www.inkscape.org/) -->

<svg
   width="714.66669"
   height="85.333336"
   id="svg2606"
   sodipodi:version="0.32"
   inkscape:version="1.1.1 (c3084ef, 2021-09-22)"
   version="1.0"
   sodipodi:docname="jpmc.svg"
   inkscape:output_extension="org.inkscape.output.svg.inkscape"
   xmlns:inkscape="http://www.inkscape.org/namespaces/inkscape"
   xmlns:sodipodi="http://sodipodi.sourceforge.net/DTD/sodipodi-0.dtd"
   xmlns="http://www.w3.org/2000/svg"
   xmlns:svg="http://www.w3.org/2000/svg"
   xmlns:rdf="http://www.w3.org/1999/02/22-rdf-syntax-ns#"
   xmlns:cc="http://creativecommons.org/ns#"
   xmlns:dc="http://purl.org/dc/elements/1.1/">
  <defs
     id="defs2608">
    <clipPath
       clipPathUnits="userSpaceOnUse"
       id="clipPath23">
      <path
         d="m 19.257,642.097 h 300.131 v 19.904 H 19.257 Z"
         id="path25" />
    </clipPath>
    <inkscape:perspective
       sodipodi:type="inkscape:persp3d"
       inkscape:vp_x="0 : 566.51443 : 1"
       inkscape:vp_y="0 : 1000 : 0"
       inkscape:vp_z="744.09448 : 566.51443 : 1"
       inkscape:persp3d-origin="372.04724 : 391.12073 : 1"
       id="perspective2614" />
  </defs>
  <sodipodi:namedview
     id="base"
     pagecolor="#ffffff"
     bordercolor="#666666"
     borderopacity="1.0"
     gridtolerance="10000"
     guidetolerance="10"
     objecttolerance="10"
     inkscape:pageopacity="0.0"
     inkscape:pageshadow="2"
     inkscape:zoom="1.979899"
     inkscape:cx="196.47467"
     inkscape:cy="111.87439"
     inkscape:document-units="pt"
     inkscape:current-layer="layer1"
     showgrid="true"
     units="pt"
     inkscape:window-width="1279"
     inkscape:window-height="847"
     inkscape:window-x="0"
     inkscape:window-y="25"
     inkscape:pagecheckerboard="0"
     inkscape:window-maximized="0"
     fit-margin-left="16"
     fit-margin-right="16"
     fit-margin-top="0"
     fit-margin-bottom="0">
    <inkscape:grid
       type="xygrid"
       id="grid2664"
       visible="true"
       enabled="true"
       units="pt"
       spacingx="9pt"
       spacingy="9pt"
       empspacing="8"
       originx="177.33333"
       originy="20.166666" />
  </sodipodi:namedview>
  <metadata
     id="metadata2611">
    <rdf:RDF>
      <cc:Work
         rdf:about="">
        <dc:format>image/svg+xml</dc:format>
        <dc:type
           rdf:resource="http://purl.org/dc/dcmitype/StillImage" />
        <dc:title>J. P. Morgan Chase &amp; Co. Logo</dc:title>
        <dc:date>2008.11.23</dc:date>
        <dc:source>Frank Trampe</dc:source>
        <dc:creator>
          <cc:Agent>
            <dc:title>J. P. Morgan Chase &amp; Co.</dc:title>
          </cc:Agent>
        </dc:creator>
      </cc:Work>
    </rdf:RDF>
  </metadata>
  <g
     inkscape:label="Layer 1"
     inkscape:groupmode="layer"
     id="layer1"
     transform="translate(177.33333,20.166666)">
    <path
       style="fill:#000000;fill-opacity:1;fill-rule:nonzero;stroke:none;stroke-width:1.8963"
       d="m 371.94072,1.8777774 c -2.408,0 -4.3923,0.811852 -5.98518,2.42963 -1.59082,1.6198519 -2.37038,3.4453318 -2.37038,5.5111098 0,2.6216298 1.16502,5.5348158 3.4963,8.7703698 -3.87021,2.584296 -6.51257,4.762668 -7.88147,6.45926 -1.36472,1.70074 -2.01484,3.78015 -2.01482,6.281482 0,2.188147 0.56208,4.080587 1.65926,5.748147 1.09512,1.669628 2.4631,2.988146 4.20742,3.91111 1.74427,0.922962 3.59671,1.422226 5.51109,1.422224 3.90342,0 7.63344,-1.971556 11.14074,-5.866668 2.94934,3.89511 6.3671,5.86667 10.25186,5.866668 1.792,0 3.37602,-0.536892 4.74074,-1.540742 1.36268,-1.001776 2.24562,-2.340146 2.66666,-3.97037 h -1.42222 c -1.01422,1.789926 -2.45512,2.725924 -4.32592,2.725926 -1.37512,0 -2.63648,-0.425186 -3.85186,-1.244444 -1.21334,-0.817186 -2.90694,-2.756448 -5.03704,-5.807407 0.89392,-1.188444 1.89274,-3.03378 2.96296,-5.57037 1.2735,-3.071704 2.53038,-5.17185 3.73334,-6.281482 1.20504,-1.111704 2.5938,-1.875554 4.2074,-2.31111 v -1.422224 h -12.8 v 1.422224 c 3.13392,0.35674 4.68152,1.631704 4.6815,3.91111 0,0.949926 -0.34994,2.277926 -1.00742,3.97037 -0.6554,1.694518 -1.53424,3.331852 -2.66666,4.91852 -3.14844,-4.467558 -6.47228,-9.079702 -10.01482,-13.866668 5.71822,-2.87674 8.53336,-5.82963 8.53334,-8.8888878 0,-1.9662219 -0.81836,-3.5887419 -2.54816,-4.7999998 -1.73184,-1.21126 -3.7179,-1.777778 -5.86666,-1.777778 z m 54.4,0.17778 c -3.48238,0 -6.68592,0.795258 -9.6,2.4296299 -2.91408,1.63437 -5.1867,4.1514059 -6.81482,7.5259257 -1.62606,3.372444 -2.42962,6.964738 -2.42962,10.785184 0,5.817778 1.74396,10.508147 5.27408,14.044443 3.528,3.536296 8.12622,5.274072 13.68888,5.274074 5.26398,0 9.59084,-1.925628 12.97778,-5.748148 0.896,1.180148 1.49066,2.543704 1.83704,4.08889 h 1.3037 V 26.885187 h -1.3037 c -0.22814,2.242074 -0.99288,4.590816 -2.25186,6.992591 -1.2569,2.403852 -2.94132,4.090368 -5.0963,5.096296 -2.16118,1.005924 -4.27494,1.481482 -6.34074,1.481482 -3.86192,0 -7.12178,-1.529778 -9.71852,-4.622222 -2.5905,-3.094519 -3.85186,-7.530073 -3.85184,-13.333333 0,-6.12889 1.18072,-10.871408 3.55556,-14.1629618 2.37896,-3.2957059 5.56386,-4.9185198 9.6,-4.9185198 3.29362,0 6.26312,1.0322959 8.88888,3.0814819 2.62578,2.0491859 4.36238,5.6509617 5.21482,10.8444437 h 1.3037 L 442.2222,2.7074094 h -1.3037 c -0.1762,1.7277039 -0.64562,3.4254799 -1.48148,5.0370358 -1.15318,-1.4373339 -2.93866,-2.7288899 -5.27408,-3.9111098 -2.33956,-1.182224 -4.94756,-1.777778 -7.82222,-1.777778 z m -227.55555,0.11852 c -3.48238,0 -6.6859,0.79526 -9.6,2.4296299 -2.91614,1.63437 -5.18664,4.1514099 -6.8148,7.5259257 -1.62816,3.372446 -2.42962,6.962666 -2.42964,10.785184 0,5.815704 1.744,10.506073 5.27408,14.044445 3.52594,3.536296 8.06282,5.274072 13.62962,5.274074 5.25986,0 9.59292,-1.864298 12.97778,-5.68889 0.90016,1.184296 1.55408,2.541634 1.8963,4.08889 h 1.3037 V 27.003707 h -1.3037 c -0.22814,2.244148 -0.99082,4.590816 -2.25186,6.992591 -1.2569,2.403852 -2.93718,4.090372 -5.09628,5.096296 -2.1612,1.005926 -4.27706,1.540746 -6.34076,1.540742 -3.86192,0 -7.12384,-1.591112 -9.7185,-4.681482 -2.59468,-3.09452 -3.85184,-7.527999 -3.85186,-13.333333 0,-6.12889 1.17868,-10.812148 3.55556,-14.1037038 2.37688,-3.2936279 5.56798,-4.9777758 9.6,-4.9777758 3.29776,0 6.26728,1.0322959 8.88888,3.0814799 2.62372,2.0491839 4.3603,5.6509657 5.21482,10.8444437 h 1.3037 L 214.66665,2.8851894 h -1.3037 c -0.1742,1.7277039 -0.70486,3.3662199 -1.54074,4.9777758 -1.15318,-1.4373319 -2.87526,-2.7309619 -5.21482,-3.9111098 -2.33332,-1.182222 -4.94548,-1.777778 -7.82222,-1.777778 z m -281.896276,0.11852 c -2.17985,0 -5.230812,0.08564 -9.125925,0.237038 l -4.859258,0.17778 v 1.303704 h 0.71111 c 1.972444,0 3.25867,0.19112 3.851852,0.5333319 0.59526,0.344298 0.953778,0.941038 1.125926,1.837038 0.17214,0.896 0.296294,2.9031119 0.296296,5.9851837 v 18.962964 c 0,3.237629 -0.12414,5.336591 -0.296296,6.222221 -0.17214,0.88563 -0.544298,1.53659 -1.185184,1.955556 -0.64089,0.418954 -1.830814,0.592584 -3.496296,0.592584 h -1.007408 v 1.303704 h 17.837035 v -1.303704 h -1.303702 c -1.742222,0 -2.922962,-0.1914 -3.555556,-0.651852 -0.632594,-0.45837 -1.042072,-1.187558 -1.185186,-2.133334 -0.14518,-0.945776 -0.17778,-2.927996 -0.17778,-5.985183 v -8.177778 h 4.266668 c 4.442666,0 7.540742,-0.408596 9.303702,-1.244444 1.76504,-0.837926 3.08385,-2.056296 4.02963,-3.674074 0.943704,-1.619852 1.422222,-3.516148 1.422222,-5.62963 0,-2.434962 -0.68859,-4.4453338 -2.074074,-6.0444437 -1.38548,-1.599112 -3.165928,-2.6900739 -5.333332,-3.3185199 -2.167408,-0.628444 -5.235258,-0.948148 -9.244446,-0.948148 z m -36.681474,0.414816 v 1.303704 h 0.88888 c 1.96415,0 3.21186,0.1911 3.7926,0.5333319 0.58281,0.342222 1.00474,0.945184 1.18518,1.837038 0.18044,0.893924 0.23704,2.9072599 0.23704,5.9851837 v 13.155556 c 0,4.312 -0.10992,7.432887 -0.41482,9.303703 -0.30074,1.874962 -1.24711,3.482074 -2.72592,4.85926 -1.47882,1.377184 -3.29067,2.074072 -5.45185,2.074074 -1.06193,0 -1.94489,-0.19318 -2.66667,-0.533334 -0.71763,-0.340148 -1.06666,-0.816594 -1.06666,-1.422222 0,-0.22815 0.0868,-0.553186 0.29629,-1.007408 0.23023,-0.512296 0.35556,-1.00652 0.35556,-1.481482 0,-0.796444 -0.26341,-1.465184 -0.82963,-2.014814 -0.56415,-0.551704 -1.29126,-0.829628 -2.13334,-0.82963 -0.8234,0 -1.50785,0.33422 -2.07407,0.948148 -0.56415,0.613926 -0.82963,1.35378 -0.82963,2.251852 0,1.489184 0.79615,2.77126 2.37037,3.851852 1.57837,1.078518 3.77393,1.600002 6.6963,1.6 2.60088,0 4.90992,-0.428448 6.87407,-1.303704 1.96415,-0.877332 3.56474,-2.109334 4.74074,-3.733332 1.176,-1.626076 1.87407,-3.323856 2.13333,-5.037038 0.25511,-1.711111 0.35556,-4.191703 0.35556,-7.466665 V 12.366671 c 0,-3.2148138 0.10548,-5.2471097 0.2963,-6.1037037 0.18874,-0.856592 0.59614,-1.466666 1.18518,-1.777776 0.58696,-0.3173339 1.83348,-0.4740739 3.73333,-0.4740739 h 0.94815 v -1.303704 z m 58.548142,0 v 1.303704 h 1.066666 c 1.972444,0 3.207702,0.1911 3.792592,0.5333319 0.584887,0.344296 1.004737,0.941038 1.185185,1.837038 0.18252,0.896 0.237034,2.9010359 0.237038,5.9851837 v 16.82963 c 0,3.198224 -0.06608,5.395555 -0.296298,6.577777 -0.228148,1.180148 -0.910219,2.217482 -1.955553,3.022222 -1.04326,0.808888 -2.362074,1.210372 -4.02963,1.303704 v 1.303704 h 13.925923 v -1.30371 c -1.789926,-0.11408 -3.158818,-0.576002 -4.148148,-1.422222 -0.993482,-0.846222 -1.589038,-1.838816 -1.777778,-2.962964 -0.19082,-1.124148 -0.2963,-3.237925 -0.296296,-6.340739 V 6.7370373 l 15.407406,34.6666647 h 1.362964 L -21.540738,6.7370373 V 31.388887 c 0,3.237629 -0.0566,5.277333 -0.237038,6.162963 -0.18044,0.88563 -0.60356,1.534516 -1.244443,1.955556 -0.642962,0.418962 -1.788142,0.592592 -3.437038,0.592592 h -1.362962 v 1.303704 h 18.6074071 v -1.303704 h -1.7185201 c -1.754666,0 -2.937482,-0.19348 -3.555554,-0.651852 -0.622224,-0.456296 -1.033784,-1.132444 -1.185186,-2.074074 -0.15348,-0.94163 -0.237036,-2.99763 -0.237038,-6.044443 V 12.366665 c 0,-3.2168878 0.09304,-5.2450377 0.296298,-6.1037037 0.19704,-0.856592 0.594074,-1.464592 1.185184,-1.777776 0.591112,-0.3131879 1.886514,-0.4740739 3.792592,-0.4740739 h 1.4222241 V 2.7074074 H -21.185184 L -35.229627,34.766664 -49.451849,2.7074074 Z m 433.303678,0.651846 c 1.45392,0 2.60444,0.492148 3.4963,1.4814799 0.88562,0.99141 1.36294,2.24652 1.36296,3.8518519 0,2.6921498 -2.0175,5.2091878 -5.98518,7.5259258 -2.43706,-3.345482 -3.61484,-5.999406 -3.61482,-7.9407398 0,-1.4062239 0.4326,-2.5463719 1.3037,-3.4962959 0.86904,-0.9478519 1.99556,-1.4222219 3.43704,-1.4222219 z m -454.577752,0.296296 c 3.530072,0 6.072294,0.7522959 7.644444,2.2518519 1.572148,1.49748 2.370372,3.8453359 2.37037,7.0518517 0,2.101036 -0.448292,3.902222 -1.362962,5.333332 -0.91674,1.431112 -2.066074,2.333038 -3.437038,2.785186 -1.373038,0.448 -3.162964,0.711112 -5.392592,0.71111 h -2.785186 V 3.7740734 c 0.686518,-0.07674 1.66874,-0.11852 2.962964,-0.11852 z M 300.65185,11.003703 c -2.2649,0 -4.09156,0.661628 -5.57038,2.074074 -1.47674,1.412444 -2.25186,3.211556 -2.25186,5.333334 0,1.391702 0.38636,2.68326 1.06668,3.91111 0.6803,1.229926 1.57394,2.256888 2.78518,3.022222 1.21126,0.769482 3.06668,1.64415 5.45186,2.666668 2.67556,1.142814 4.50518,2.206518 5.5111,3.2 1.008,1.007998 1.4815,2.242075 1.48148,3.733331 0,1.476742 -0.57156,2.837036 -1.71852,4.02963 -1.14904,1.192592 -2.7665,1.777776 -4.85926,1.777778 -4.65214,0 -7.58518,-3.128296 -8.82962,-9.362963 h -1.12592 v 9.599999 h 1.12592 c 0.23436,-1.246518 0.57926,-2.21718 1.06666,-2.903702 2.18608,2.501334 4.90904,3.733336 8.17778,3.733332 2.84356,0 5.11408,-0.777482 6.81482,-2.37037 1.70074,-1.597038 2.54816,-3.67526 2.54814,-6.222222 0,-1.609481 -0.36562,-3.036739 -1.06666,-4.266665 -0.70724,-1.227852 -1.61748,-2.14963 -2.78518,-2.844446 -1.16564,-0.694814 -3.064,-1.638222 -5.62964,-2.785184 -2.68178,-1.209186 -4.48236,-2.301034 -5.5111,-3.25926 -1.04742,-0.941628 -1.59998,-2.07437 -1.6,-3.437036 0,-1.128296 0.41276,-2.188742 1.24444,-3.140742 0.83378,-0.947852 2.1274,-1.422224 3.9111,-1.422222 1.8729,0 3.55912,0.667558 4.97778,1.955556 1.42488,1.29215 2.40296,3.025778 2.96296,5.274074 h 0.94816 v -7.762962 h -0.94816 c -0.085,0.935408 -0.45184,1.804742 -1.12592,2.607406 -1.17392,-1.285926 -2.32326,-2.139556 -3.43704,-2.548148 -1.11792,-0.410666 -2.34756,-0.59259 -3.6148,-0.592592 z M 9.0370396,11.062963 c -4.5878519,0 -8.36948779,1.366818 -11.4370377,4.14815 -3.0675559,2.779258 -4.6222199,6.487406 -4.6222219,11.08148 0,4.712296 1.538968,8.466665 4.5629619,11.318519 3.02399991,2.856 6.8942218,4.325926 11.6148157,4.325926 4.8471094,0 8.7591114,-1.469928 11.7333174,-4.325926 2.97216,-2.851852 4.44446,-6.532145 4.44446,-11.140741 0,-4.755852 -1.57868,-8.50696 -4.68148,-11.259258 -3.104894,-2.750222 -6.985494,-4.14815 -11.6148154,-4.14815 z m 68.7999944,0 c -4.63348,0 -8.2646,1.595556 -10.96296,4.8 -2.69836,3.202372 -4.0889,6.944 -4.0889,11.2 0,4.301632 1.44594,7.864593 4.26668,10.666667 2.81864,2.802074 6.35348,4.207404 10.6074,4.207408 2.117639,0 4.387279,-0.490962 6.874079,-1.422224 1.82518,-0.684444 3.3203,-1.007406 4.44444,-1.007406 0.27794,0 0.60174,-8.88e-4 0.94814,0.05926 v -3.14074 c 0,-2.571852 0.0752,-4.191407 0.23704,-4.859259 0.1596,-0.665776 0.5013,-1.195258 1.00742,-1.48148 0.50398,-0.286224 1.48502,-0.414818 2.9037,-0.414816 v -1.007408 h -12.85926 v 1.007408 h 0.7111 c 1.18014,0 1.98788,0.1117 2.42964,0.296296 0.44178,0.18044 0.73448,0.533628 0.94814,1.066668 0.21364,0.53511 0.35556,1.600888 0.35556,3.199999 0,1.362664 -0.2569,2.485926 -0.71112,3.377778 -0.45006,0.893924 -1.25068,1.629626 -2.48888,2.25185 -1.2403,0.62637 -2.63408,0.94815 -4.14814,0.94815 -2.957619,0 -5.471419,-1.058668 -7.466679,-3.25926 -1.99732,-2.196446 -2.96296,-5.982813 -2.96296,-11.259259 0,-5.290962 1.0646,-8.946074 3.14074,-11.022222 2.07616,-2.074074 4.49302,-3.14074 7.288899,-3.14074 2.70458,0 4.98044,0.891258 6.87406,2.666666 1.89572,1.777482 3.07322,4.186962 3.4963,7.22963 h 1.0074 v -9.955556 h -1.0074 c -0.1328,1.20089 -0.45866,2.338666 -0.94814,3.377778 -2.61334,-2.918222 -5.90992,-4.385186 -9.896299,-4.385188 z m 388.088866,0 c -4.58784,0 -8.36948,1.366818 -11.43704,4.14815 -3.06756,2.779258 -4.62218,6.487406 -4.62222,11.08148 0,4.712296 1.4797,8.466665 4.50372,11.318519 3.024,2.856 6.89628,4.325926 11.6148,4.325926 4.85126,0 8.75912,-1.469928 11.73334,-4.325926 2.97214,-2.851852 4.50368,-6.532145 4.5037,-11.140741 0,-4.755852 -1.57866,-8.50696 -4.68148,-11.259258 -3.10488,-2.750222 -6.98754,-4.14815 -11.61482,-4.14815 z m -192.82961,0.05926 -8.65186,20.622222 c -0.62222,1.482961 -1.03466,2.330369 -1.12592,2.548147 -0.91882,2.333332 -1.664,3.839112 -2.31112,4.562964 -0.6471,0.725924 -1.63764,1.216888 -2.96296,1.422222 v 1.007408 h 8.94816 v -1.007408 c -0.96444,0 -1.76062,-0.248592 -2.37038,-0.711112 -0.60356,-0.460444 -0.88888,-1.120886 -0.88888,-2.014814 0,-0.835852 0.57778,-2.59348 1.71852,-5.333333 l 0.77036,-1.896296 h 11.25926 l 2.31112,5.511111 c 0.67406,1.597038 1.0074,2.522962 1.0074,2.844444 0,0.628444 -0.26844,1.092146 -0.77038,1.303704 -0.50608,0.211554 -1.47464,0.296294 -2.9037,0.296296 v 1.007408 h 11.67408 v -1.007408 c -1.04324,-0.10162 -1.7926,-0.365924 -2.31112,-0.77037 -0.52058,-0.400298 -0.93748,-0.958224 -1.24444,-1.65926 l -1.36296,-3.081482 -9.8963,-23.644443 z m -232.770375,0.11852 c -1.66548,0 -3.92236,0.05334 -6.75554,0.17778 l -4.20742,0.17778 v 1.007408 h 0.47408 c 1.53274,0 2.5597,0.1514 3.02222,0.414814 0.45838,0.263408 0.75614,0.735704 0.88888,1.422222 0.1348,0.686518 0.1778,2.19437 0.1778,4.562964 v 14.637035 c 0,2.486816 -0.045,4.058372 -0.1778,4.740742 -0.1306,0.680296 -0.45658,1.162074 -0.94814,1.48148 -0.48948,0.321482 -1.3911,0.474074 -2.66666,0.474076 h -0.94816 v 1.007406 h 14.28148 v -1.007406 h -1.42222 c -1.35022,0 -2.31022,-0.18282 -2.78518,-0.533334 -0.4791,-0.348444 -0.78102,-0.878224 -0.88888,-1.6 -0.11,-0.715556 -0.1186,-2.237926 -0.1186,-4.562964 v -6.518517 h 1.18518 c 0.79852,0 1.33896,0.14726 1.71852,0.414816 0.3754,0.26963 1.07022,0.960592 2.07406,2.192592 1.0018,1.225778 1.970399,2.514074 2.903719,3.851851 2.90578,4.18548 5.10814,6.765336 6.51852,7.762962 h 7.94074 v -1.007406 c -1.74016,-0.05808 -3.22608,-0.546076 -4.50372,-1.481482 -1.27346,-0.939556 -3.02992,-2.91437 -5.27406,-5.925926 -2.75438,-3.720889 -4.80416,-5.863997 -6.04444,-6.459259 2.75436,-0.336 4.86282,-1.170962 6.28148,-2.548148 1.42282,-1.377184 2.13332,-3.087408 2.13332,-5.037036 0,-1.66963 -0.56414,-3.06578 -1.65926,-4.266668 -1.0951,-1.205036 -2.4954,-2.078518 -4.26666,-2.607406 -1.77542,-0.526814 -4.102219,-0.770372 -6.933339,-0.770372 z m 70.933335,0 -8.71112,20.562964 c -0.6243,1.480889 -0.96916,2.330371 -1.06666,2.548147 -0.9126,2.333334 -1.721177,3.898372 -2.370357,4.622222 -0.64918,0.725926 -1.58042,1.15763 -2.90372,1.362964 v 1.007406 h 8.948157 V 40.33704 c -0.9686,0 -1.76476,-0.18934 -2.37038,-0.651852 -0.6077,-0.462518 -0.88886,-1.180152 -0.88888,-2.074074 0,-0.835854 0.5757,-2.593484 1.71852,-5.333333 l 0.77036,-1.896296 h 11.25926 l 2.25186,5.511109 c 0.672,1.597038 1.06666,2.58222 1.06666,2.903704 0,0.628444 -0.26432,1.032888 -0.77036,1.244444 -0.504,0.211556 -1.4726,0.296298 -2.90372,0.296298 v 1.007406 h 11.67408 V 40.33704 c -1.03912,-0.1037 -1.79258,-0.306668 -2.3111,-0.711112 -0.51854,-0.400296 -0.93956,-0.958222 -1.24446,-1.65926 l -1.36296,-3.14074 -9.8963,-23.585185 z m 110.6963,0.296298 v 1.007406 h 0.59258 c 1.51822,0 2.45362,0.15348 2.90372,0.414816 0.448,0.263406 0.75406,0.733626 0.88888,1.422222 0.141,0.686518 0.23704,2.196444 0.23704,4.562962 v 14.577777 c 0,2.48889 -0.096,4.117632 -0.23704,4.8 -0.1348,0.680296 -0.45658,1.162078 -0.94814,1.481482 -0.49364,0.32148 -1.38492,0.474074 -2.66668,0.474074 h -0.77036 v 1.007408 h 13.5111 V 40.27778 h -0.77036 c -1.34816,0 -2.304,-0.18282 -2.78518,-0.533334 -0.4812,-0.352594 -0.77274,-0.876146 -0.8889,-1.6 -0.1182,-0.725924 -0.1778,-2.274368 -0.1778,-4.622222 v -7.170369 h 15.52594 v 7.170369 c 0,2.493036 -0.045,4.05837 -0.1778,4.74074 -0.1306,0.682372 -0.46488,1.217188 -0.94816,1.540742 -0.4874,0.32148 -1.3588,0.474074 -2.6074,0.474074 h -1.00742 v 1.007408 h 13.45186 V 40.27778 h -0.65186 c -1.3274,0 -2.24264,-0.18282 -2.72592,-0.533334 -0.4812,-0.350518 -0.77898,-0.876148 -0.88888,-1.6 -0.112,-0.72385 -0.1778,-2.280592 -0.1778,-4.622222 V 18.944447 c 0,-2.468146 0.0856,-4.024 0.23704,-4.681482 0.1556,-0.65748 0.4388,-1.124442 0.88888,-1.362962 0.45422,-0.242666 1.44354,-0.355556 2.9037,-0.355556 h 0.41482 v -1.007406 h -13.45186 v 1.007406 h 0.77044 c 1.4954,0 2.45988,0.15348 2.9037,0.414816 0.44386,0.263406 0.75824,0.733626 0.8889,1.422222 0.1328,0.686518 0.1778,2.196444 0.1778,4.562962 v 5.925926 h -15.52594 v -5.925926 c 0,-2.468146 0.0814,-4.024 0.23704,-4.681482 0.1556,-0.65748 0.4877,-1.124442 0.94814,-1.362962 0.45838,-0.242666 1.37808,-0.355556 2.84446,-0.355556 h 0.59258 v -1.007406 z m 96,0 v 1.007406 c 1.44564,0 2.39228,0.1286 2.84444,0.414816 0.45008,0.282074 0.76446,0.765926 0.88888,1.48148 0.1286,0.715556 0.1778,2.238814 0.1778,4.503704 v 14.577777 c 0,2.486816 -0.0616,4.073778 -0.1778,4.681482 -0.1182,0.60563 -0.40026,1.085332 -0.82962,1.481482 -0.42932,0.394074 -1.32088,0.592592 -2.78518,0.592592 h -0.65186 v 1.007408 h 24.53334 l 0.65184,-9.244449 h -1.0074 c -0.52682,2.227557 -1.28206,3.966225 -2.1926,5.214815 -0.91052,1.25274 -1.84268,2.066666 -2.84444,2.42963 -1.01006,0.362962 -2.29008,0.533332 -3.85184,0.533332 h -2.1926 c -1.98696,0 -3.21984,-0.328 -3.67408,-0.948148 -0.45214,-0.620148 -0.65186,-2.700446 -0.65184,-6.222222 v -7.051851 h 3.2 c 1.26518,0 2.19286,0.12622 2.72592,0.296296 0.53096,0.168 0.90934,0.504594 1.18518,1.066668 0.27586,0.566222 0.4148,1.667554 0.41482,3.318518 h 1.0074 V 20.544443 h -1.0074 c 0,1.458074 -0.1138,2.461036 -0.2963,2.962964 -0.1826,0.503998 -0.55558,0.877038 -1.12592,1.125926 -0.57244,0.248888 -1.5849,0.355554 -3.02222,0.355554 h -3.08148 V 12.544443 h 4.08888 c 2.06164,0 3.51322,0.12948 4.44444,0.355556 0.9292,0.22815 1.75348,0.733038 2.42964,1.6 0.67198,0.869038 1.25392,2.372444 1.71852,4.444444 h 1.0074 l -0.7111,-7.407406 z m -187.14074,0.05926 v 1.007408 c 1.60532,0 2.6169,0.1357 3.08148,0.355556 0.46458,0.21985 0.79376,0.70785 1.0074,1.48148 0.21362,0.77363 0.35556,2.279408 0.35556,4.562964 V 34.82593 c 0,1.798222 -0.1002,2.894518 -0.23704,3.377778 -0.139,0.481184 -0.56118,0.944002 -1.3037,1.362962 -0.74042,0.418964 -1.7917,0.666664 -3.2,0.770372 v 1.007406 h 11.02222 v -1.007406 c -1.57214,0 -2.71024,-0.19762 -3.4963,-0.651852 -0.78606,-0.45215 -1.3114,-0.938078 -1.48148,-1.481482 -0.168,-0.541334 -0.23704,-1.666668 -0.23704,-3.377778 V 14.144443 l 21.15556,27.911111 h 0.8889 V 17.403703 c 0,-1.273482 0.1014,-2.131558 0.29628,-2.666666 0.195,-0.533038 0.64948,-1.042668 1.36296,-1.422224 0.71762,-0.379554 1.71852,-0.607404 2.96298,-0.71111 v -1.007408 h -10.72594 v 1.007408 c 1.1698,0 2.13128,0.16712 2.96296,0.474074 0.8338,0.306962 1.38966,0.719704 1.65926,1.244444 0.26964,0.528888 0.41482,1.470222 0.41482,2.785186 v 17.777777 l -17.6,-23.288889 z M 9.0962976,12.129635 c 3.6234054,0 6.3902234,1.267258 8.2962934,3.733332 1.906074,2.466076 2.844444,5.98015 2.844444,10.607408 0,4.757926 -0.970664,8.324147 -2.903702,10.725925 -1.937186,2.401778 -4.54845,3.614816 -7.8814795,3.614816 -3.8017778,0 -6.6334858,-1.213038 -8.5333337,-3.614816 -1.89984994,-2.401778 -2.8444399,-5.938959 -2.8444439,-10.725925 0,-4.71437 0.94458996,-8.317928 2.8444439,-10.725926 1.8998519,-2.408 4.6082999,-3.614812 8.1777778,-3.614814 z m 456.8888624,0 c 3.62342,0 6.3902,1.267258 8.2963,3.733332 1.91022,2.466076 2.84442,5.98015 2.84444,10.607408 0,4.757926 -0.97068,8.324147 -2.9037,10.725925 -1.9372,2.401778 -4.55048,3.614816 -7.88148,3.614816 -3.80176,0 -6.69274,-1.213038 -8.5926,-3.614816 -1.89984,-2.401778 -2.84444,-5.938959 -2.84444,-10.725925 0,-4.71437 0.9446,-8.317928 2.84444,-10.725926 1.89986,-2.408 4.66758,-3.614812 8.23704,-3.614814 z m -425.896285,0.17778 c 3.46164,0 5.722679,0.637334 6.755559,1.896296 1.03084,1.258964 1.54074,2.944296 1.54074,5.037036 0,1.202964 -0.1712,2.200888 -0.47406,3.022222 -0.3049,0.81926 -0.71762,1.510818 -1.24446,2.014816 -0.5268,0.506074 -1.22162,0.864594 -2.07406,1.125926 -0.850379,0.263406 -1.866959,0.413926 -3.022219,0.474074 -1.15528,0.05808 -2.23586,0.09156 -3.31852,0.11852 v -13.62963 c 0.69272,-0.06014 1.30192,-0.05926 1.83702,-0.05926 z m 231.762975,4.325926 5.2148,12.562962 h -10.37036 z m -161.83704,0.05926 5.2148,12.622222 h -10.42962 z m 257.95555,3.140742 c 3.02606,3.953184 6.65892,9.09096 10.84444,15.466665 -2.35822,2.744 -4.92858,4.148148 -7.7037,4.148148 -2.49928,0 -4.77688,-1.079406 -6.75556,-3.25926 -1.97867,-2.177776 -2.96295,-4.543111 -2.96295,-6.992591 0,-1.58874 0.57154,-3.215702 1.71852,-4.918518 1.14073,-1.702814 2.77273,-3.170962 4.85925,-4.444444 z m 120,15.822221 c -0.89392,0 -1.6744,0.30933 -2.31112,0.948148 -0.6409,0.638814 -0.94816,1.41926 -0.94814,2.31111 0,0.875262 0.31966,1.651558 0.94814,2.311112 0.62636,0.659554 1.40062,0.948146 2.31112,0.948148 0.89392,0 1.6619,-0.311408 2.3111,-0.948148 0.64918,-0.64089 0.94814,-1.398518 0.94814,-2.311112 0,-0.89185 -0.31142,-1.672298 -0.94814,-2.31111 -0.64298,-0.638816 -1.39642,-0.948148 -2.3111,-0.948148 z"
       id="path29" />
    <rect
       style="fill:none;fill-opacity:1;stroke:none;stroke-width:42.6666;stroke-linecap:round;stroke-linejoin:round;stroke-miterlimit:4;stroke-dasharray:none;stroke-opacity:1"
       id="rect2666"
       width="682.66669"
       height="85.333336"
       x="-161.33333"
       y="-20.166666" />
  </g>
</svg>
