<?xml version="1.0" encoding="UTF-8" standalone="no"?>
<svg
   width="265.4325"
   height="85.333328"
   viewBox="0 0 265.4325 85.333328"
   version="1.1"
   id="svg1663"
   sodipodi:docname="kumamoto.svg"
   inkscape:version="1.1.1 (c3084ef, 2021-09-22)"
   xmlns:inkscape="http://www.inkscape.org/namespaces/inkscape"
   xmlns:sodipodi="http://sodipodi.sourceforge.net/DTD/sodipodi-0.dtd"
   xmlns="http://www.w3.org/2000/svg"
   xmlns:svg="http://www.w3.org/2000/svg"
   xmlns:rdf="http://www.w3.org/1999/02/22-rdf-syntax-ns#"
   xmlns:cc="http://creativecommons.org/ns#"
   xmlns:dc="http://purl.org/dc/elements/1.1/">
  <sodipodi:namedview
     id="namedview1665"
     pagecolor="#ffffff"
     bordercolor="#666666"
     borderopacity="1.0"
     inkscape:pageshadow="2"
     inkscape:pageopacity="0.0"
     inkscape:pagecheckerboard="0"
     showgrid="false"
     fit-margin-top="0"
     fit-margin-left="16"
     fit-margin-right="16"
     fit-margin-bottom="0"
     inkscape:zoom="2"
     inkscape:cx="223.25"
     inkscape:cy="17.75"
     inkscape:window-width="1296"
     inkscape:window-height="847"
     inkscape:window-x="262"
     inkscape:window-y="25"
     inkscape:window-maximized="0"
     inkscape:current-layer="svg1663" />
  <defs
     id="defs1651">
    <style
       id="style1649">.cls-1{fill:#29275e}.cls-2{fill:#fbce00}</style>
  </defs>
  <title
     id="title1653">assets</title>
  <path
     class="cls-1"
     d="M 45.86159,0 16,42.679365 45.86159,85.333332 H 74.327186 L 44.440215,42.679365 74.327186,0 Z"
     id="path1655"
     style="stroke-width:1.26909" />
  <path
     class="cls-2"
     d="M 74.327186,0 H 88.540949 L 58.666666,42.679365 88.540949,85.333332 H 74.327186 L 44.440215,42.679365 Z"
     id="path1657"
     style="stroke-width:1.26909" />
  <path
     class="cls-1"
     d="m 107.6629,25.045411 c -0.78683,-0.939125 -2.44934,-2.728535 -3.23617,-3.553441 l 2.86813,-1.357922 a 34.036884,34.036884 0 0 1 5.50784,6.916518 l -3.12195,1.522904 a 13.959945,13.959945 0 0 0 -1.01527,-2.055919 c -5.07634,0.304579 -10.304979,0.583779 -13.668056,0.786831 a 0.88836013,0.88836013 0 0 1 -0.621853,0.545708 l -1.04065,-2.385882 c 0.977197,0 2.271664,0 3.477294,-0.07615 a 29.86159,29.86159 0 0 0 2.170137,-6.814992 l 4.429108,1.269086 c -0.11422,0.2792 -0.43149,0.418799 -0.93912,0.418799 -0.58378,1.269085 -1.44676,3.616893 -2.30974,5.076342 z m -6.20583,23.19889 a 16.498117,16.498117 0 0 1 -4.314892,7.068808 l -3.439223,-1.522904 a 13.490383,13.490383 0 0 0 4.13722,-6.345428 z m 9.06127,-18.89669 v 13.223875 c 0,2.94428 -1.61174,3.286933 -7.33531,3.286933 -0.15229,-0.862979 -0.62185,-1.116796 -0.9772,-1.903629 h 2.38588 c 1.87825,0 2.06861,0 2.06861,-0.621852 v -3.23617 h -7.614513 v 5.913941 H 95.111642 V 29.347611 Z m -3.80725,1.573667 h -7.61452 v 3.045806 h 7.61452 z m -7.61452,7.614516 h 7.61452 v -3.045807 h -7.61452 z m 6.67539,16.345826 a 34.455683,34.455683 0 0 0 -0.44418,-6.408884 l 3.40115,-0.266509 a 31.384494,31.384494 0 0 1 0.67262,6.256594 z m 9.37855,0 a 40.090423,40.090423 0 0 0 -1.87825,-6.345431 l 3.47729,-0.659923 a 36.663891,36.663891 0 0 1 2.03054,6.167758 z m 9.45469,-24.658339 c 1.26908,0 1.56097,-1.776721 1.71326,-4.657546 a 7.9064051,7.9064051 0 0 0 3.07119,1.269086 c -0.39342,4.061075 -1.40869,5.076344 -4.4418,5.076344 h -6.23121 c -4.023,0 -5.07635,-0.901051 -5.07635,-4.251437 v -8.883602 l 4.77177,0.266508 c 0,0.317272 -0.2792,0.507635 -0.90105,0.621853 v 4.187982 a 51.245689,51.245689 0 0 0 7.9064,-3.096569 l 2.0813,1.903629 c -0.15228,0.114218 -0.46956,0 -0.97719,0 a 56.322032,56.322032 0 0 1 -9.01051,2.804679 v 3.591514 c 0,1.091413 0.31727,1.269086 1.95439,1.269086 z m -7.01805,12.500495 c 0,1.091415 0.31727,1.269087 1.99247,1.269087 h 5.25401 c 1.26909,0 1.56098,-1.61174 1.72596,-4.543328 a 11.535991,11.535991 0 0 0 3.12195,1.269086 c -0.39342,4.13722 -1.40869,5.076343 -4.53064,5.076343 h -6.43426 c -4.09915,0 -5.07635,-0.76145 -5.07635,-4.162601 v -9.124728 l 4.77177,0.266508 c 0,0.317272 -0.2792,0.545707 -0.90105,0.621853 v 4.035692 a 46.486616,46.486616 0 0 0 8.31251,-3.172715 l 1.77672,1.814793 c -0.11422,0.114218 -0.26651,0 -0.90105,0 a 55.281381,55.281381 0 0 1 -9.23895,2.969661 z m 8.26175,12.449732 a 30.876859,30.876859 0 0 0 -4.45449,-6.650009 l 3.43922,-1.269086 a 32.425145,32.425145 0 0 1 4.73369,6.49772 z m 43.26314,-24.493356 h -13.66806 a 35.826295,35.826295 0 0 0 14.79754,15.330557 11.764426,11.764426 0 0 0 -2.42395,2.741225 39.062464,39.062464 0 0 1 -14.08685,-14.607179 v 10.837994 h 7.14495 v 1.91632 h -7.14495 v 8.299823 h -3.90879 v -8.299823 h -7.29724 V 44.99544 h 7.29724 V 34.144755 a 38.072576,38.072576 0 0 1 -13.95994,14.721397 14.962523,14.962523 0 0 0 -2.41127,-2.538171 34.950625,34.950625 0 0 0 14.56911,-15.647829 h -13.465 v -1.90363 h 15.22903 V 18.623835 l 4.84791,0.317272 c 0,0.317272 -0.31727,0.545707 -0.93913,0.659925 v 9.150109 h 15.4194 z m 39.86199,1.92901 h -15.01329 c 2.42396,8.667857 7.34801,16.383898 15.53362,19.239342 a 13.185802,13.185802 0 0 0 -2.34781,3.223479 c -7.3607,-2.969661 -12.69087,-9.810034 -15.50824,-17.906802 a 27.78029,27.78029 0 0 1 -15.58437,17.906802 11.193338,11.193338 0 0 0 -2.61432,-3.020425 c 9.92425,-4.023002 14.18838,-11.929407 15.63514,-19.429705 h -14.92445 v -1.941701 h 15.22903 a 85.739443,85.739443 0 0 0 0.10153,-12.043625 l 5.0002,0.31727 c 0,0.393418 -0.34266,0.659925 -0.96451,0.736071 0,3.083879 0,7.512989 -0.39341,10.990284 h 15.85088 z m 39.74776,10.584177 v 1.802101 h -15.62244 v 6.104304 c 0,3.896093 -2.10668,4.213365 -9.68312,4.213365 -0.2792,-1.053342 -0.9772,-0.88836 -1.56098,-1.865557 1.6752,0.07615 3.27424,0.07615 4.53064,0.07615 2.61432,0 2.80468,0 2.80468,-0.824905 v -7.703358 h -15.47016 v -1.802101 h 15.5463 l -0.13959,-4.87329 2.19552,0.114218 a 31.917509,31.917509 0 0 0 6.2439,-4.111839 h -17.13266 v -1.751338 h 19.91196 l 0.62185,-0.152284 1.61174,1.04065 a 1.2690859,1.2690859 0 0 1 -0.74876,0.43149 40.610749,40.610749 0 0 1 -8.79477,6.34543 v 2.855443 z M 218.4541,27.685109 v 6.548483 h -3.90878 v -8.350585 h 6.21852 a 43.148921,43.148921 0 0 0 -3.71842,-5.418996 l 3.19809,-1.395996 a 29.54432,29.54432 0 0 1 4.14991,6.34543 l -1.42137,0.507634 h 7.38608 a 36.283166,36.283166 0 0 0 -3.24886,-6.21852 l 3.24886,-1.269086 a 29.950427,29.950427 0 0 1 3.45191,6.891136 l -1.57367,0.545707 h 5.07635 a 57.375373,57.375373 0 0 0 4.88598,-7.005353 41.790999,41.790999 0 0 1 4.28951,1.599048 c -0.15223,0.31727 -0.46956,0.431488 -0.9772,0.393416 -0.8249,1.269085 -2.53817,3.566131 -3.80725,4.974817 h 6.45965 v 8.337895 h -3.9088 v -6.48503 z M 96.380727,64.793181 99.959549,60.135635 h 2.741221 l -3.959544,4.822526 4.302204,5.964704 h -2.88083 l -3.807256,-5.495142 v 5.495142 H 94.07099 v -10.78723 h 2.309737 z m 12.513183,5.165179 a 2.614317,2.614317 0 0 1 -2.32242,1.154868 2.7285347,2.7285347 0 0 1 -2.46203,-1.649811 5.1651795,5.1651795 0 0 1 -0.15229,-1.205632 v -4.873291 h 2.24628 v 4.505256 c 0,0.799524 0.24113,1.738648 1.33254,1.738648 0.698,0 1.26909,-0.647235 1.34523,-1.738648 v -4.505256 h 2.2209 v 6.167758 c 0,0.431489 0,0.88836 0.0888,1.345231 h -2.20821 z m 6.49772,-5.660124 a 2.6016261,2.6016261 0 0 1 2.29705,-1.104103 2.8173707,2.8173707 0 0 1 2.38588,1.421375 2.8681341,2.8681341 0 0 1 2.53817,-1.421375 2.8173707,2.8173707 0 0 1 2.44934,1.421375 4.6194726,4.6194726 0 0 1 0.21574,1.789412 v 4.517945 h -2.25897 V 66.40492 c 0,-0.812215 -0.24113,-1.713266 -1.34523,-1.713266 -0.698,0 -1.26909,0.621851 -1.34523,1.713266 v 4.517945 h -2.23359 V 66.40492 c 0,-0.812215 -0.24113,-1.713266 -1.34524,-1.713266 -0.69799,0 -1.26908,0.621851 -1.34523,1.713266 v 4.517945 h -2.24628 v -7.500297 h 2.23359 z m 16.01587,3.121953 c 0,0.888358 0,2.271664 -1.26909,2.271664 A 1.0533413,1.0533413 0 0 1 129.047,68.613129 c -0.0254,-1.19294 1.57366,-1.19294 2.3605,-1.19294 z m -2.01785,-1.852867 a 1.0152687,1.0152687 0 0 1 1.00258,-1.078722 0.95181441,0.95181441 0 0 1 1.02796,0.926432 v 0.736071 a 7.1195718,7.1195718 0 0 0 -2.9189,0.406106 2.5381717,2.5381717 0 0 0 -1.59905,2.373192 2.2209002,2.2209002 0 0 0 2.44934,2.271663 2.4366449,2.4366449 0 0 0 2.29704,-1.269085 7.4114616,7.4114616 0 0 0 0.0762,1.002576 h 2.01785 a 7.3353164,7.3353164 0 0 1 -0.10153,-0.824905 v -4.086457 c 0,-2.258972 -1.68788,-2.804679 -3.1981,-2.804679 a 4.3022012,4.3022012 0 0 0 -2.2082,0.469562 1.9924648,1.9924648 0 0 0 -1.01527,1.865555 z m 8.36328,-1.269086 a 2.5381717,2.5381717 0 0 1 2.28435,-1.104103 2.8300616,2.8300616 0 0 1 2.39857,1.421375 2.8427524,2.8427524 0 0 1 4.92406,0 4.5179459,4.5179459 0 0 1 0.22843,1.789412 v 4.517945 h -2.2209 V 66.40492 c 0,-0.812215 -0.24113,-1.713266 -1.34523,-1.713266 -0.698,0 -1.26908,0.621851 -1.34523,1.713266 v 4.517945 h -2.18283 V 66.40492 c 0,-0.812215 -0.24112,-1.713266 -1.34523,-1.713266 -0.698,0 -1.26909,0.621851 -1.34523,1.713266 v 4.517945 h -2.24628 v -7.500297 h 2.19552 z m 13.8838,2.868134 c 0,-1.19294 0.22843,-2.538171 1.59904,-2.538171 1.37062,0 1.58636,1.269085 1.58636,2.538171 0,1.269088 -0.21574,2.538173 -1.58636,2.538173 -1.37061,0 -1.59904,-1.345231 -1.59904,-2.538173 z m 5.50783,0 a 3.9087845,3.9087845 0 1 0 -3.90879,3.972239 3.680349,3.680349 0 0 0 3.90879,-3.972239 z m 2.18283,-3.756493 v -1.472139 l 2.23359,-0.799524 v 2.284354 h 1.68788 v 1.459448 h -1.70057 v 3.477296 c 0,0.977195 0.15228,1.269086 0.91374,1.269086 h 0.72338 v 1.269085 a 8.6551658,8.6551658 0 0 1 -1.76403,0.228436 c -1.73865,0 -2.11938,-0.913742 -2.11938,-2.538172 v -3.705731 h -1.49752 v -1.497522 z m 7.24648,3.756493 c 0,-1.19294 0.21574,-2.538171 1.59904,-2.538171 1.38331,0 1.58636,1.269085 1.58636,2.538171 0,1.269088 -0.21574,2.538173 -1.58636,2.538173 -1.37061,0 -1.59904,-1.345231 -1.59904,-2.538173 z m 5.50783,0 a 3.9087845,3.9087845 0 1 0 -3.87071,3.972239 3.680349,3.680349 0 0 0 3.80726,-3.972239 z m 15.27979,-7.030735 v 6.751537 c 0,2.855443 -2.06861,4.251437 -4.67023,4.251437 -2.60163,0 -4.68293,-1.395994 -4.68293,-4.251437 v -6.751537 h 2.32243 v 5.850486 c 0,1.814793 0.0888,3.477296 2.3605,3.477296 2.27166,0 2.3605,-1.662503 2.3605,-3.477296 v -5.850486 z m 4.20068,4.149911 a 2.5381717,2.5381717 0 0 1 2.29704,-1.129487 2.703153,2.703153 0 0 1 2.48742,1.725957 4.9748168,4.9748168 0 0 1 0.15228,1.192941 v 4.885981 h -2.23359 V 66.40492 c 0,-0.812215 -0.24113,-1.713266 -1.34524,-1.713266 -0.71068,0 -1.26908,0.621851 -1.34523,1.713266 v 4.517945 h -2.24627 v -7.500297 h 2.23359 z m 9.09935,-0.875669 v 7.500297 h -2.23359 v -7.500297 z m 0.0761,-3.274242 v 1.91632 h -2.38588 v -1.91632 z m 0.92643,3.274242 h 2.3732 l 1.67519,5.076343 1.71327,-5.076343 h 2.13206 l -2.71584,7.500297 h -2.41127 z m 10.96491,4.352965 c 0,0.964504 0.13959,1.878246 1.26908,1.878246 a 1.2690859,1.2690859 0 0 0 1.26909,-0.951814 h 2.01785 c -0.20306,1.852865 -1.63713,2.474717 -3.38846,2.474717 -2.53818,0 -3.60421,-1.459448 -3.60421,-3.959547 a 3.591513,3.591513 0 0 1 3.70573,-4.010311 3.1980964,3.1980964 0 0 1 3.18541,1.78941 4.0483839,4.0483839 0 0 1 0.38073,1.33254 11.421773,11.421773 0 0 1 0,1.446759 z m 2.53817,-1.497521 c 0,-0.824907 -0.22844,-1.586358 -1.26909,-1.586358 -1.04065,0 -1.26908,0.761451 -1.26908,1.586358 z m 5.59667,-2.855444 v 1.370613 a 2.3604998,2.3604998 0 0 1 2.53817,-1.446758 v 1.979773 h -0.96451 a 1.6371208,1.6371208 0 0 0 -1.09141,0.558398 2.614317,2.614317 0 0 0 -0.29189,1.332541 v 3.718421 h -2.14476 v -6.040849 c 0,-0.317271 0,-0.939124 -0.0761,-1.497522 z m 7.72873,2.017846 c 0,-0.507634 -0.50763,-0.736069 -1.01527,-0.736069 -0.50763,0 -0.90105,0.177662 -0.90105,0.672616 0,1.180249 4.28951,0.507633 4.28951,3.312314 0,1.63712 -2.00516,2.474716 -3.38846,2.474716 -1.73865,0 -3.27424,-0.685306 -3.29962,-2.411263 h 2.06861 c 0,0.583779 0.57109,0.913742 1.26909,0.913742 0.69799,0 1.07872,-0.266508 1.07872,-0.837596 0,-0.571089 -1.07872,-0.850289 -1.5229,-0.951814 -1.43407,-0.355346 -2.76661,-0.659925 -2.76661,-2.411265 0,-1.751338 1.89094,-2.246281 3.21079,-2.246281 1.58635,0 2.93158,0.558398 3.03311,2.2209 z m 5.91394,-2.017846 v 7.500297 h -2.23359 v -7.500297 z m 0.0635,-3.274242 v 1.91632 h -2.38589 v -1.91632 z m 2.56355,3.274242 v -1.472139 l 2.24628,-0.86298 v 2.284355 h 1.68788 v 1.522903 h -1.68788 v 3.477296 c 0,0.977195 0.15229,1.269086 0.92643,1.269086 h 0.71069 v 1.269085 a 8.5663298,8.5663298 0 0 1 -1.75134,0.228436 c -1.73865,0 -2.11937,-0.913742 -2.11937,-2.538172 v -3.705731 h -1.57367 v -1.497522 z m 10.22884,0 h 2.17013 l -3.80727,10.35574 h -2.15744 l 0.95182,-2.830062 -2.90621,-7.512987 h 2.38588 l 1.63713,5.17787 z"
     id="path1659"
     style="stroke-width:1.26909" />
  <metadata
     id="metadata1667">
    <rdf:RDF>
      <cc:Work
         rdf:about="">
        <dc:title>assets</dc:title>
      </cc:Work>
    </rdf:RDF>
  </metadata>
</svg>
