<?xml version="1.0" encoding="UTF-8" standalone="no"?>
<!-- Generator: Adobe Illustrator 18.0.0, SVG Export Plug-In . SVG Version: 6.00 Build 0)  -->

<svg
   version="1.1"
   id="Layer_1"
   x="0px"
   y="0px"
   viewBox="0 0 156.59958 57.147144"
   width="233.83781"
   height="85.333328"
   enable-background="new 0 0 325.7 137.7"
   xml:space="preserve"
   sodipodi:docname="manchester.svg"
   inkscape:version="1.1.1 (c3084ef, 2021-09-22)"
   xmlns:inkscape="http://www.inkscape.org/namespaces/inkscape"
   xmlns:sodipodi="http://sodipodi.sourceforge.net/DTD/sodipodi-0.dtd"
   xmlns="http://www.w3.org/2000/svg"
   xmlns:svg="http://www.w3.org/2000/svg"><defs
   id="defs2073" /><sodipodi:namedview
   id="namedview2071"
   pagecolor="#ffffff"
   bordercolor="#666666"
   borderopacity="1.0"
   inkscape:pageshadow="2"
   inkscape:pageopacity="0.0"
   inkscape:pagecheckerboard="0"
   showgrid="false"
   fit-margin-top="0"
   fit-margin-left="16"
   fit-margin-right="16"
   fit-margin-bottom="0"
   inkscape:zoom="1.1206102"
   inkscape:cx="117.34678"
   inkscape:cy="43.27999"
   inkscape:window-width="1312"
   inkscape:window-height="847"
   inkscape:window-x="92"
   inkscape:window-y="41"
   inkscape:window-maximized="0"
   inkscape:current-layer="Layer_1" />

<rect
   x="10.756589"
   y="-7.1054274e-15"
   fill="#6b2c90"
   width="135.0864"
   height="41.95771"
   id="rect2014"
   style="stroke-width:0.415012" />

<path
   fill="#ffd300"
   d="m 100.31617,14.27641 c 0,-0.954528 0.83003,-1.535544 2.07506,-1.535544 1.28654,0 2.44857,0.830024 2.98809,2.033558 h 0.29051 l -0.24901,-1.826052 c -0.62252,-0.290509 -1.99206,-0.705521 -3.19559,-0.705521 -1.86755,0 -3.237092,1.203535 -3.237092,2.614576 0,2.946585 5.893172,3.610604 5.893172,6.059174 0,1.328039 -1.32804,1.909055 -2.53158,1.909055 -1.45254,0 -2.780582,-0.871525 -3.154092,-2.531573 h -0.33201 l 0.37351,2.531573 c 0.954532,0.249008 2.241072,0.581017 3.278602,0.581017 2.15806,0 3.73511,-1.411041 3.73511,-3.029587 -0.083,-3.154091 -5.93468,-3.693607 -5.93468,-6.100676 m 6.14218,-1.826053 h 8.67375 l 0.24901,2.324067 h -0.29051 c -0.24901,-1.494043 -0.58102,-1.660047 -1.24504,-1.660047 h -2.32406 v 8.383241 c 0,0.913026 0.29051,1.245036 1.32804,1.245036 h 0.37351 v 0.33201 h -4.85564 v -0.33201 h 0.37351 c 1.03753,0 1.32804,-0.33201 1.32804,-1.245036 v -8.383241 h -2.32407 c -0.66402,0 -0.95453,0.166004 -1.20354,1.660047 h -0.2905 z m -9.005762,0.415012 c -0.24901,-1.701549 -0.78852,-1.826052 -1.49404,-1.826052 h -4.56513 v 4.980143 h 3.5691 c 0.74702,0 1.07903,-0.083 1.20353,-1.286537 h 0.37352 v 3.444599 h -0.37352 c -0.166,-1.452541 -0.53951,-1.369539 -1.41104,-1.369539 h -3.36159 v 4.357626 c 0,0.954527 0.41501,1.120532 1.20353,1.120532 h 3.07109 c 1.41104,0 1.86755,-0.290509 2.36557,-2.033559 h 0.37351 l -0.33201,2.78058 h -10.12629 v -0.37351 c 1.61854,-0.0415 1.74305,-0.249008 1.74305,-1.494043 v -8.922758 c 0,-1.245035 -0.12451,-1.494043 -1.74305,-1.494043 v -0.37351 h 9.71128 l 0.166,2.531573 h -0.37351 z m 9.960292,20.543092 h -0.29051 c -0.20751,0.996029 -0.49801,1.245036 -1.32804,1.245036 h -3.81811 c 2.03356,-1.784551 5.14615,-4.108618 5.14615,-6.557189 0,-1.618546 -1.24504,-2.863582 -2.94658,-2.863582 -1.74305,0 -3.07109,1.245036 -3.2786,3.112589 h 0.24901 c 0.37351,-1.328038 1.41104,-2.199563 2.53157,-2.199563 1.20354,0 2.11656,0.954528 2.11656,2.158062 0,2.905084 -4.73113,6.474187 -5.14615,6.889199 v 0.456513 h 6.43269 v 0 0 0 l 0.1245,-0.996029 v 0 z m -19.339562,2.241065 v -0.373511 c 1.53555,0 1.61855,-0.249007 1.61855,-1.079031 v 0 -7.553218 c -0.53952,0.456514 -1.49404,1.03753 -2.11656,1.328039 l -0.12451,-0.249008 c 0.99603,-0.622517 2.40707,-1.867553 2.82209,-2.407069 h 0.58101 v 8.632249 c 0,1.03753 0.20751,1.245036 1.74305,1.286537 v 0.373511 h -4.52363 z m 19.505562,-2.905084 v -0.373511 l 5.14615,-7.013702 h 0.49802 v 6.59869 h 1.32803 v 0.830024 h -1.32803 v 2.905084 h -1.16204 v -2.905084 h -4.48213 m 4.48213,-5.851668 -3.6521,5.021644 h 3.6521 z m -14.649922,3.071088 c 1.86755,0.747022 2.697582,1.577046 2.697582,2.863583 0,1.701549 -1.535552,2.988086 -3.486102,2.988086 -1.90906,0 -3.4446,-1.203535 -3.4446,-2.656077 0,-1.120532 0.87152,-2.075059 2.61457,-2.697577 -1.66004,-0.66402 -2.49007,-1.494043 -2.49007,-2.573075 0,-1.41104 1.49405,-2.614575 3.2371,-2.614575 1.74305,0 3.19559,1.03753 3.19559,2.324067 0.0415,0.996029 -0.74702,1.784552 -2.32407,2.365568 m -1.28654,0.622518 c -1.20353,0.581017 -1.95055,1.452542 -1.95055,2.490072 0,1.369539 1.07903,2.282566 2.44857,2.282566 1.32804,0 2.44857,-0.871525 2.44857,-2.116561 0,-1.079031 -0.87153,-1.826053 -2.94659,-2.656077 m 0.41502,-4.980143 c -1.24504,0 -2.28257,0.70552 -2.28257,1.701549 0,0.913026 0.49801,1.494043 2.82208,2.407069 0.99603,-0.581017 1.70155,-1.286537 1.70155,-2.199563 0,-1.162034 -0.99603,-1.909055 -2.24106,-1.909055 z"
   id="path2016"
   style="stroke-width:0.415012" />

<path
   fill="#ffffff"
   d="m 124.59437,12.865369 -0.166,-2.531573 h -9.71128 v 0.373511 c 1.61855,0.0415 1.74305,0.249007 1.74305,1.494043 v 8.922757 c 0,1.245036 -0.1245,1.452542 -1.74305,1.494043 v 0.373511 h 10.12629 l 0.33201,-2.78058 h -0.37351 c -0.49801,1.74305 -0.95453,2.033559 -2.36557,2.033559 h -3.07109 c -0.74702,0 -1.20353,-0.166005 -1.20353,-1.120533 v -4.274623 h 3.3616 c 0.83002,0 1.24503,-0.083 1.41104,1.36954 h 0.37351 v -3.4446 h -0.37351 c -0.083,1.203535 -0.45652,1.286537 -1.20354,1.286537 h -3.5691 v -4.980143 h 4.56513 c 0.70552,0 1.24504,0.124503 1.49404,1.826053 h 0.37351 M 56.656918,10.333796 v 0.373511 c 1.61854,0.0415 1.74305,0.249007 1.74305,1.494043 v 8.134235 l -8.54925,-10.001789 h -3.07109 v 0.373511 c 0.70552,0 1.07903,0.166005 1.57705,0.498014 v 10.04329 c 0,0.788523 -0.29051,1.328038 -0.99603,1.328038 -0.53952,0 -0.78852,-0.622518 -1.07903,-1.245036 l -4.77264,-10.997817 h -1.45254 l -4.39913,10.292297 c -0.78852,1.701549 -0.91303,1.992057 -1.36954,1.992057 -0.53951,0 -0.70552,-0.456513 -0.78852,-1.826052 l -0.62252,-9.00576 c 0,-0.788522 0.24901,-1.079031 1.78455,-1.079031 v -0.373511 h -3.4446 l -4.48213,10.333798 -4.52363,-10.333798 h -3.6106 v 0.373511 c 1.53554,0 1.78455,0.249007 1.78455,1.079031 l -0.53951,8.715251 c -0.083,1.867554 -0.29051,2.199564 -1.78456,2.199564 v 0.373511 h 4.27463 v -0.373511 c -0.91303,-0.0415 -1.70155,-0.249007 -1.61855,-1.328038 l 0.53952,-9.213266 h 0.0415 l 4.77263,10.914815 h 0.45652 l 4.64813,-10.914815 h 0.0415 l 0.58102,9.171764 c 0.083,1.079031 -0.87153,1.36954 -1.82605,1.36954 v 0.373511 h 7.88522 v -0.373511 h -0.083 c -1.12053,0 -1.66005,-0.207506 -1.66005,-0.747022 0,-0.290508 0.24901,-0.913026 0.41502,-1.286537 l 1.12053,-2.697578 h 5.43666 l 1.32803,3.195593 c 0.083,0.207506 0.20751,0.498014 0.20751,0.830023 0,0.581017 -0.41501,0.705521 -1.57705,0.705521 h -0.2905 v 0.373511 h 8.34174 v -0.373511 c -1.74305,0 -1.82606,-0.290509 -1.82606,-1.784552 v -8.798253 l 9.50378,11.080819 h 0.53951 V 11.786338 c 0,-0.788522 0.083,-1.079031 1.61855,-1.079031 v -0.373511 z m -18.59254,6.806197 2.32407,-5.561161 2.32406,5.561161 z m 49.59393,5.519659 v 0.37351 h -5.06315 v -0.37351 c 1.53555,-0.0415 1.74305,-0.249008 1.74305,-1.328039 v -4.482129 h -7.51171 v 4.316125 0 c 0,1.245035 0.1245,1.452541 1.74305,1.494043 v 0.37351 h -5.06315 v -0.37351 c 1.53555,0 1.61855,-0.249008 1.61855,-1.079032 v 0 -9.794282 0 c 0,-0.788522 -0.083,-1.079031 -1.61855,-1.079031 v -0.373511 h 5.06315 v 0.373511 c -1.61855,0.0415 -1.74305,0.249007 -1.74305,1.494043 v 0 3.81811 h 7.51171 v -3.984115 c 0,-1.079031 -0.2075,-1.286537 -1.74305,-1.328038 v -0.373511 h 5.06315 v 0.373511 c -1.53554,0 -1.61855,0.249007 -1.61855,1.079031 v 0 9.794282 0 c 0,0.830024 0.083,1.079032 1.61855,1.079032 z M 67.862238,10.043288 c 2.15806,0 3.73511,0.70552 4.68963,1.120532 l 0.16601,2.531573 h -0.37351 c -0.66402,-1.909055 -2.07506,-3.154091 -4.31613,-3.154091 -3.40309,0 -5.10464,2.656077 -5.10464,6.059175 0,3.693606 2.24106,6.183678 5.35365,6.183678 0.91303,0 3.2786,-0.622518 4.64814,-3.11259 h 0.37351 l -0.99603,2.40707 c -1.20354,0.581017 -2.19957,1.245036 -4.60664,1.245036 -4.15012,0 -6.64019,-2.739079 -6.64019,-6.515688 0,-3.901112 2.53158,-6.764695 6.8062,-6.764695 z m 69.348502,10.624306 -1.61855,-1.535544 c -0.95453,-0.954528 -1.57704,-1.411041 -2.32407,-1.992057 1.70155,-0.498015 2.73908,-1.784552 2.73908,-3.320096 0,-2.116561 -1.70155,-3.652105 -5.51966,-3.652105 -1.32803,0 -1.74305,0 -2.57307,0.083 -0.83002,0.0415 -2.11656,0.124504 -2.57307,0.124504 v 0.37351 h 0.45651 c 1.20353,0 1.53554,0.373511 1.53554,1.660048 v 8.590748 c 0,1.369539 -0.41501,1.701549 -1.66004,1.701549 h -0.33201 v 0.373511 h 5.81016 v -0.373511 h -0.45651 c -1.16203,0 -1.66005,-0.290509 -1.66005,-1.535544 v -3.403099 c 0.33201,0.0415 0.58102,0.0415 1.03753,0.0415 0.53952,0 0.87153,0 1.36954,-0.0415 1.57705,0.913027 2.78058,2.282566 3.5276,2.946585 1.86756,1.784552 2.32407,2.531573 5.89317,2.365569 v -0.373511 c -1.61854,-0.124504 -2.44857,-0.788523 -3.6521,-2.033559 z m -6.9722,-3.403098 c -0.45652,0 -0.78853,0 -1.28654,-0.0415 v -6.557189 c 0.37351,-0.0415 0.62252,-0.0415 1.03753,-0.0415 3.15409,0 4.02562,1.41104 4.02562,3.320095 0.0415,2.448571 -1.49405,3.320096 -3.77661,3.320096 z m 6.9722,3.403098 -1.61855,-1.535544 c -0.95453,-0.954528 -1.57704,-1.411041 -2.32407,-1.992057 1.70155,-0.498015 2.73908,-1.784552 2.73908,-3.320096 0,-2.116561 -1.70155,-3.652105 -5.51966,-3.652105 -1.32803,0 -1.74305,0 -2.57307,0.083 -0.83002,0.0415 -2.11656,0.124504 -2.57307,0.124504 v 0.37351 h 0.45651 c 1.20353,0 1.53554,0.373511 1.53554,1.660048 v 8.590748 c 0,1.369539 -0.41501,1.701549 -1.66004,1.701549 h -0.33201 v 0.373511 h 5.81016 v -0.373511 h -0.45651 c -1.16203,0 -1.66005,-0.290509 -1.66005,-1.535544 v -3.403099 c 0.33201,0.0415 0.58102,0.0415 1.03753,0.0415 0.53952,0 0.87153,0 1.36954,-0.0415 1.57705,0.913027 2.78058,2.282566 3.5276,2.946585 1.86756,1.784552 2.32407,2.531573 5.89317,2.365569 v -0.373511 c -1.61854,-0.124504 -2.44857,-0.788523 -3.6521,-2.033559 z m -6.9722,-3.403098 c -0.45652,0 -0.78853,0 -1.28654,-0.0415 v -6.557189 c 0.37351,-0.0415 0.62252,-0.0415 1.03753,-0.0415 3.15409,0 4.02562,1.41104 4.02562,3.320095 0.0415,2.448571 -1.49405,3.320096 -3.77661,3.320096 z"
   id="path2018"
   style="stroke-width:0.415012" />

<polyline
   fill="#737373"
   points="7.5,114.3 7.5,130.8 5.5,130.8 5.5,114.3 0,114.3 0,112.5 13,112.5 13,114.3 7.5,114.3 "
   id="polyline2020"
   transform="matrix(0.41501196,0,0,0.41501196,10.71509,-1.2226563e-6)" />

<path
   fill="#737373"
   d="m 20.716878,54.283563 v -3.610604 c 0,-0.871525 -0.24901,-1.36954 -1.03753,-1.36954 -0.99603,0 -1.70155,0.996029 -1.70155,2.324067 v 2.697578 h -0.83002 v -8.175736 h 0.83002 v 2.739079 c 0,0.373511 -0.0415,0.830024 -0.083,1.120533 h 0.0415 c 0.33201,-0.830024 1.03753,-1.328039 1.99206,-1.328039 1.28653,0 1.66005,0.788523 1.66005,1.784552 v 3.901112 h -0.87153"
   id="path2022"
   style="stroke-width:0.415012" />

<path
   fill="#737373"
   d="m 25.240508,49.261918 c -0.78852,0 -1.32804,0.581017 -1.49404,1.452542 h 2.82208 c 0.0415,-0.871525 -0.45651,-1.452542 -1.32804,-1.452542 m 2.19956,2.07506 h -3.7351 c -0.0415,1.660048 0.62251,2.365568 1.86755,2.365568 0.58102,0 1.20354,-0.166005 1.61855,-0.373511 l 0.083,0.705521 c -0.49801,0.207506 -1.16203,0.332009 -1.82605,0.332009 -1.70155,0 -2.57308,-0.913026 -2.57308,-2.863582 0,-1.660048 0.91303,-2.905084 2.44857,-2.905084 1.53555,0 2.15807,1.079031 2.15807,2.282566 0,0.124503 0,0.290508 -0.0415,0.456513 z"
   id="path2024"
   style="stroke-width:0.415012" />

<path
   fill="#737373"
   d="m 33.831258,54.366565 c -2.36557,0 -2.78058,-1.328038 -2.78058,-2.614575 v -5.063146 h 0.87152 v 4.980144 c 0,1.079031 0.37351,1.992057 1.99206,1.992057 1.41104,0 2.07506,-0.581017 2.07506,-2.199563 v -4.772638 h 0.83002 v 4.689635 c 0,1.992058 -0.99602,2.988086 -2.98808,2.988086"
   id="path2026"
   style="stroke-width:0.415012" />

<path
   fill="#737373"
   d="m 42.048498,54.283563 v -3.610604 c 0,-0.871525 -0.24901,-1.36954 -1.03753,-1.36954 -0.99603,0 -1.70155,0.996029 -1.70155,2.324067 v 2.697578 h -0.83003 v -5.56116 h 0.83003 c 0,0.373511 -0.0415,0.913026 -0.083,1.245036 h 0.0415 c 0.332,-0.788523 1.03753,-1.36954 1.99205,-1.36954 1.28654,0 1.66005,0.788523 1.66005,1.784552 v 3.901112 h -0.87152"
   id="path2028"
   style="stroke-width:0.415012" />

<path
   fill="#737373"
   d="m 44.497068,54.283563 v -5.56116 h 0.83002 v 5.56116 h -0.83002 m 0.41501,-6.59869 c -0.33201,0 -0.58102,-0.249007 -0.58102,-0.581017 0,-0.33201 0.24901,-0.581017 0.58102,-0.581017 0.33201,0 0.58101,0.249007 0.58101,0.581017 0.0415,0.33201 -0.249,0.581017 -0.58101,0.581017 z"
   id="path2030"
   style="stroke-width:0.415012" />

<path
   fill="#737373"
   d="m 49.228198,54.283563 h -0.87152 l -2.11656,-5.56116 h 0.95452 l 1.28654,3.652105 c 0.1245,0.332009 0.20751,0.664019 0.33201,0.996029 v 0 c 0.083,-0.290509 0.20751,-0.622518 0.29051,-0.954528 l 1.32804,-3.693606 h 0.95452 l -2.15806,5.56116"
   id="path2032"
   style="stroke-width:0.415012" />

<path
   fill="#737373"
   d="m 54.000838,49.261918 c -0.78852,0 -1.32804,0.581017 -1.49404,1.452542 h 2.82208 c 0.0415,-0.871525 -0.45652,-1.452542 -1.32804,-1.452542 m 2.19956,2.07506 h -3.7351 c -0.0415,1.660048 0.62251,2.365568 1.86755,2.365568 0.58102,0 1.20353,-0.166005 1.61855,-0.373511 l 0.083,0.705521 c -0.49802,0.207506 -1.16204,0.332009 -1.82605,0.332009 -1.70155,0 -2.57308,-0.913026 -2.57308,-2.863582 0,-1.660048 0.91303,-2.905084 2.44857,-2.905084 1.53555,0 2.15806,1.079031 2.15806,2.282566 0,0.124503 0,0.290508 -0.0415,0.456513 z"
   id="path2034"
   style="stroke-width:0.415012" />

<path
   fill="#737373"
   d="m 60.226018,49.427923 c -1.24504,-0.207506 -1.82605,0.747021 -1.82605,2.614575 v 2.241065 h -0.83003 v -5.56116 h 0.83003 c 0,0.37351 -0.0415,0.913026 -0.12451,1.41104 v 0 c 0.20751,-0.830024 0.78853,-1.660048 1.99206,-1.535544 l -0.0415,0.830024"
   id="path2036"
   style="stroke-width:0.415012" />

<path
   fill="#737373"
   d="m 62.176578,54.366565 c -0.41502,0 -0.83003,-0.0415 -1.16204,-0.124503 l 0.0415,-0.788523 c 0.37351,0.083 0.78853,0.166005 1.24504,0.166005 0.78852,0 1.36954,-0.373511 1.36954,-0.954528 0,-1.328038 -2.69758,-0.498014 -2.69758,-2.490072 0,-0.913026 0.74702,-1.618546 2.15806,-1.618546 0.33201,0 0.74702,0.0415 1.07903,0.124503 l -0.0415,0.747022 c -0.37351,-0.124504 -0.78852,-0.207506 -1.16203,-0.207506 -0.83002,0 -1.20354,0.33201 -1.20354,0.871525 0,1.328038 2.73908,0.581017 2.73908,2.490072 -0.0415,1.03753 -0.91302,1.784551 -2.36556,1.784551"
   id="path2038"
   style="stroke-width:0.415012" />

<path
   fill="#737373"
   d="m 65.787178,54.283563 v -5.56116 h 0.83002 v 5.56116 h -0.83002 m 0.45651,-6.59869 c -0.33201,0 -0.58101,-0.249007 -0.58101,-0.581017 0,-0.33201 0.249,-0.581017 0.58101,-0.581017 0.33201,0 0.58102,0.249007 0.58102,0.581017 0,0.33201 -0.29051,0.581017 -0.58102,0.581017 z"
   id="path2040"
   style="stroke-width:0.415012" />

<path
   fill="#737373"
   d="m 70.103298,54.366565 c -1.12053,0 -1.45254,-0.498014 -1.45254,-1.660048 v -3.320095 h -1.20353 v -0.664019 h 1.20353 v -1.867554 l 0.83003,-0.249007 v 2.075059 h 1.61854 v 0.66402 h -1.61854 v 2.988086 c 0,0.996028 0.166,1.245036 0.83002,1.245036 0.29051,0 0.58102,-0.0415 0.78852,-0.083 v 0.747022 c -0.249,0.083 -0.62252,0.124503 -0.99603,0.124503"
   id="path2042"
   style="stroke-width:0.415012" />

<path
   fill="#737373"
   d="m 74.211918,54.86458 c -0.66402,1.701549 -1.16203,2.282565 -2.36557,2.282565 -0.2075,0 -0.49801,-0.0415 -0.70552,-0.0415 l 0.083,-0.788522 c 0.2075,0.083 0.45651,0.124503 0.70552,0.124503 0.66402,0 0.99603,-0.332009 1.45254,-1.494043 l 0.24901,-0.664019 -2.11657,-5.56116 h 0.95453 l 1.16204,3.195592 c 0.166,0.498014 0.2905,0.913026 0.41501,1.328038 v 0 c 0.083,-0.373511 0.33201,-1.03753 0.58101,-1.701549 l 0.99603,-2.822081 h 0.91303 l -2.32407,6.142177"
   id="path2044"
   style="stroke-width:0.415012" />

<path
   fill="#737373"
   d="m 81.723638,49.303419 c -0.87153,0 -1.70155,0.66402 -1.70155,2.158063 0,1.41104 0.62252,2.199563 1.70155,2.199563 0.87152,0 1.66005,-0.664019 1.66005,-2.199563 0,-1.36954 -0.58102,-2.158063 -1.66005,-2.158063 m -0.1245,5.063146 c -1.49405,0 -2.44858,-0.913026 -2.44858,-2.863582 0,-1.577046 0.99603,-2.905084 2.65608,-2.905084 1.36954,0 2.49007,0.747022 2.49007,2.78058 -0.0415,1.701549 -1.07903,2.988086 -2.69757,2.988086 z"
   id="path2046"
   style="stroke-width:0.415012" />

<path
   fill="#737373"
   d="m 88.778838,46.854849 c -0.29051,-0.083 -0.58101,-0.124504 -0.87152,-0.124504 -0.87153,0 -1.24504,0.498015 -1.24504,1.577046 v 0.415012 h 1.66005 v 0.664019 h -1.66005 v 4.897141 h -0.83002 v -4.897141 h -1.20354 v -0.664019 h 1.20354 v -0.373511 c 0,-1.577046 0.78852,-2.282566 2.11656,-2.282566 0.33201,0 0.62252,0.0415 0.91302,0.083 l -0.083,0.705521"
   id="path2048"
   style="stroke-width:0.415012" />

<path
   fill="#737373"
   d="m 98.905128,54.283563 -0.66402,-4.689635 c -0.1245,-0.913027 -0.2075,-1.494043 -0.249,-1.909055 h -0.0415 c -0.083,0.332009 -0.20751,0.747021 -0.37351,1.286537 l -1.78456,5.312153 h -0.99602 l -1.70155,-4.980144 c -0.20751,-0.539515 -0.37351,-1.162033 -0.49802,-1.618546 v 0 c -0.0415,0.622518 -0.1245,1.203534 -0.2075,1.992057 l -0.53952,4.565132 h -0.87152 l 1.07903,-7.594719 h 1.07903 l 1.74305,5.104647 c 0.2075,0.539515 0.33201,1.03753 0.41501,1.452542 h 0.0415 c 0.1245,-0.498015 0.20751,-0.871525 0.41501,-1.411041 l 1.78455,-5.187649 h 1.12054 l 1.12053,7.594719 h -0.87153"
   id="path2050"
   style="stroke-width:0.415012" />

<path
   fill="#737373"
   d="m 104.17579,51.668988 c -2.11657,0 -2.53158,0.664019 -2.53158,1.203534 0,0.498015 0.37351,0.830024 0.91303,0.830024 0.99603,0 1.61855,-0.996029 1.61855,-1.950556 v -0.083 m 0.0415,2.614575 c 0,-0.415012 0,-0.871525 0.0415,-1.162034 h -0.0415 c -0.24901,0.705521 -0.99603,1.286537 -1.95056,1.286537 -0.87152,0 -1.53554,-0.456513 -1.53554,-1.369539 0,-1.162033 1.20353,-1.992057 3.40309,-1.992057 v -0.456514 c 0,-0.830023 -0.2905,-1.328038 -1.28653,-1.328038 -0.53952,0 -1.20354,0.166005 -1.70155,0.498015 l -0.083,-0.747022 c 0.53951,-0.249007 1.16203,-0.415012 1.95055,-0.415012 1.53555,0 1.99206,0.747022 1.99206,1.826053 v 2.199563 c 0,0.539516 0,1.162034 0.0415,1.660048 z"
   id="path2052"
   style="stroke-width:0.415012" />

<path
   fill="#737373"
   d="m 110.23496,54.283563 v -3.610604 c 0,-0.871525 -0.24901,-1.36954 -1.03753,-1.36954 -0.99603,0 -1.70155,0.996029 -1.70155,2.324067 v 2.697578 h -0.83002 v -5.56116 h 0.83002 c 0,0.373511 -0.0415,0.913026 -0.083,1.245036 h 0.0415 c 0.33201,-0.788523 1.03753,-1.36954 1.99206,-1.36954 1.28653,0 1.66005,0.788523 1.66005,1.784552 v 3.901112 h -0.87153"
   id="path2054"
   style="stroke-width:0.415012" />

<path
   fill="#737373"
   d="m 114.75859,54.366565 c -1.24504,0 -2.40707,-0.539515 -2.40707,-2.656076 0,-1.826053 0.91303,-3.071089 2.73908,-3.071089 0.45651,0 0.91303,0.083 1.32804,0.207506 l -0.083,0.747022 c -0.37351,-0.166005 -0.78853,-0.249007 -1.28654,-0.249007 -1.20354,0 -1.78455,0.871525 -1.78455,2.241064 0,1.162034 0.37351,2.07506 1.70155,2.07506 0.49801,0 1.03753,-0.124504 1.41104,-0.33201 l 0.083,0.747022 c -0.41501,0.124504 -0.99603,0.290508 -1.70155,0.290508"
   id="path2056"
   style="stroke-width:0.415012" />

<path
   fill="#737373"
   d="m 121.19128,54.283563 v -3.610604 c 0,-0.871525 -0.24901,-1.36954 -1.03753,-1.36954 -0.99603,0 -1.70155,0.996029 -1.70155,2.324067 v 2.697578 h -0.83003 v -8.175736 h 0.83003 v 2.739079 c 0,0.373511 -0.0415,0.830024 -0.083,1.120533 h 0.0415 c 0.33201,-0.830024 1.03753,-1.328039 1.99205,-1.328039 1.28654,0 1.66005,0.788523 1.66005,1.784552 v 3.901112 h -0.87152"
   id="path2058"
   style="stroke-width:0.415012" />

<path
   fill="#737373"
   d="m 125.71491,49.261918 c -0.78853,0 -1.32804,0.581017 -1.49405,1.452542 h 2.82208 c 0.0415,-0.871525 -0.45651,-1.452542 -1.32803,-1.452542 m 2.19956,2.07506 h -3.73511 c -0.0415,1.660048 0.62252,2.365568 1.86756,2.365568 0.58101,0 1.20353,-0.166005 1.61854,-0.373511 l 0.083,0.705521 c -0.49801,0.207506 -1.16203,0.332009 -1.82605,0.332009 -1.70155,0 -2.57307,-0.913026 -2.57307,-2.863582 0,-1.660048 0.91302,-2.905084 2.44857,-2.905084 1.53554,0 2.15806,1.079031 2.15806,2.282566 0,0.124503 0,0.290508 -0.0415,0.456513 z"
   id="path2060"
   style="stroke-width:0.415012" />

<path
   fill="#737373"
   d="m 130.15553,54.366565 c -0.41501,0 -0.83002,-0.0415 -1.16203,-0.124503 l 0.0415,-0.788523 c 0.37351,0.083 0.78852,0.166005 1.24504,0.166005 0.78852,0 1.36954,-0.373511 1.36954,-0.954528 0,-1.328038 -2.69758,-0.498014 -2.69758,-2.490072 0,-0.913026 0.74702,-1.618546 2.15806,-1.618546 0.33201,0 0.74702,0.0415 1.07903,0.124503 l -0.0415,0.747022 c -0.37351,-0.124504 -0.78852,-0.207506 -1.16203,-0.207506 -0.83003,0 -1.20354,0.33201 -1.20354,0.871525 0,1.328038 2.73908,0.581017 2.73908,2.490072 -0.0415,1.03753 -0.91302,1.784551 -2.36557,1.784551"
   id="path2062"
   style="stroke-width:0.415012" />

<path
   fill="#737373"
   d="m 135.55069,54.366565 c -1.12053,0 -1.45254,-0.498014 -1.45254,-1.660048 v -3.320095 h -1.20354 v -0.664019 h 1.20354 v -1.867554 l 0.83002,-0.249007 v 2.075059 h 1.61855 v 0.66402 h -1.61855 v 2.988086 c 0,0.996028 0.16601,1.245036 0.83003,1.245036 0.2905,0 0.58101,-0.0415 0.78852,-0.083 v 0.747022 c -0.24901,0.083 -0.66402,0.124503 -0.99603,0.124503"
   id="path2064"
   style="stroke-width:0.415012" />

<path
   fill="#737373"
   d="m 139.70081,49.261918 c -0.78852,0 -1.32804,0.581017 -1.49404,1.452542 h 2.82208 c 0.0415,-0.871525 -0.49802,-1.452542 -1.32804,-1.452542 m 2.19956,2.07506 h -3.7351 c -0.0415,1.660048 0.62251,2.365568 1.86755,2.365568 0.58102,0 1.20353,-0.166005 1.61855,-0.373511 l 0.083,0.705521 c -0.49802,0.207506 -1.16204,0.332009 -1.82605,0.332009 -1.70155,0 -2.57308,-0.913026 -2.57308,-2.863582 0,-1.660048 0.91303,-2.905084 2.44857,-2.905084 1.53555,0 2.15806,1.079031 2.15806,2.282566 -0.0415,0.124503 -0.0415,0.290508 -0.0415,0.456513 z"
   id="path2066"
   style="stroke-width:0.415012" />

<path
   fill="#737373"
   d="m 145.84299,49.427923 c -1.24504,-0.207506 -1.82606,0.747021 -1.82606,2.614575 v 2.241065 h -0.83002 v -5.56116 h 0.83002 c 0,0.37351 -0.0415,0.913026 -0.1245,1.41104 v 0 c 0.20751,-0.830024 0.78852,-1.660048 1.99206,-1.535544 l -0.0415,0.830024"
   id="path2068"
   style="stroke-width:0.415012" />

</svg>
