<?xml version="1.0" encoding="UTF-8" standalone="no"?>
<svg
   width="411.08734"
   height="85.333336"
   viewBox="0 0 411.08734 85.333336"
   version="1.1"
   xml:space="preserve"
   style="clip-rule:evenodd;fill-rule:evenodd;stroke-linejoin:round;stroke-miterlimit:2"
   id="svg1849"
   sodipodi:docname="nagoya.svg"
   inkscape:version="1.1.1 (c3084ef, 2021-09-22)"
   xmlns:inkscape="http://www.inkscape.org/namespaces/inkscape"
   xmlns:sodipodi="http://sodipodi.sourceforge.net/DTD/sodipodi-0.dtd"
   xmlns="http://www.w3.org/2000/svg"
   xmlns:svg="http://www.w3.org/2000/svg"><defs
   id="defs1853" /><sodipodi:namedview
   id="namedview1851"
   pagecolor="#ffffff"
   bordercolor="#666666"
   borderopacity="1.0"
   inkscape:pageshadow="2"
   inkscape:pageopacity="0.0"
   inkscape:pagecheckerboard="0"
   showgrid="false"
   fit-margin-top="0"
   fit-margin-left="16"
   fit-margin-right="16"
   fit-margin-bottom="0"
   inkscape:zoom="12.384615"
   inkscape:cx="205.94099"
   inkscape:cy="43.07764"
   inkscape:window-width="1296"
   inkscape:window-height="847"
   inkscape:window-x="0"
   inkscape:window-y="25"
   inkscape:window-maximized="0"
   inkscape:current-layer="svg1849" />
    <g
   id="アートボード1"
   transform="matrix(4.1164877,0,0,3.3816809,-4258.8489,-2478.5995)">
        <rect
   x="1038.47"
   y="732.94897"
   width="92.089996"
   height="25.233999"
   style="fill:none"
   id="rect1766" />
        <g
   transform="matrix(0,1.24307,-1.02118,0,2183.12,-267.74)"
   id="g1770">
            <path
   d="m 823.924,1096.63 c 0,1.06 -0.497,1.81 -1.605,2.02 1.076,1.46 1.611,2.68 1.611,3.98 0,1.66 -1.043,2.67 -3.276,2.08 l -9.765,-2.63 v -5.23 l 1.479,0.4 v -1.27 l -1.432,-0.4 v -5.14 l 6.801,1.83 v -2.58 c 4.861,3.52 6.187,5.09 6.187,6.94 m -3.872,8.87 v 5.52 l -1.556,-0.4 v 1.23 l 1.556,0.39 v 5.57 l -7.143,-1.91 v 2.69 c -6.215,-4.38 -6.62,-5.95 -6.62,-7.35 0,-1.12 0.508,-1.92 1.673,-2.14 -1.359,-1.92 -1.68,-3.07 -1.68,-4.18 0,-1.75 1.105,-2.81 3.491,-2.2 z m -3.233,-17.37 v 2.9 l -6.823,-1.82 v 12.61 c -0.7,-0.14 -1.136,-0.21 -1.581,-0.21 -2.059,-0.01 -3.072,1.34 -3.072,3.31 0,1.24 0.388,2.43 1.228,3.75 -0.771,0.54 -1.222,1.44 -1.222,2.57 0,1.69 0.447,3.69 8.271,9 0.137,0.1 0.186,0.08 0.186,-0.06 l 0.031,-3.06 c 1.636,0.44 7.155,1.92 7.155,1.92 v -13.36 c 0.409,0.07 0.726,0.09 0.997,0.09 1.926,0 2.875,-1.29 2.875,-3.14 0,-1.18 -0.361,-2.29 -1.162,-3.58 0.734,-0.51 1.155,-1.35 1.155,-2.42 0,-1.98 -0.958,-3.79 -7.882,-8.58 -0.103,-0.07 -0.154,-0.05 -0.156,0.08"
   style="fill:#006f51;fill-rule:nonzero"
   id="path1768" />
        </g>
        <g
   transform="matrix(0,1.24307,-1.02118,0,2195.45,-267.74)"
   id="g1774">
            <path
   d="m 816.634,1110.52 c -0.237,-0.07 -0.268,-0.22 -0.268,-0.43 v -0.77 c 0,-0.19 0.061,-0.27 0.287,-0.2 0.231,0.06 3.654,0.98 3.654,0.98 0.25,0.06 0.438,-0.11 0.438,-0.49 0,-0.37 -0.188,-0.65 -0.438,-0.71 0,0 -3.423,-0.92 -3.642,-0.98 -0.219,-0.06 -0.298,-0.18 -0.298,-0.37 0,-0.13 -10e-4,-0.33 -10e-4,-0.52 0,-0.2 0.08,-0.27 0.309,-0.2 0.238,0.06 3.634,0.97 3.634,0.97 0.248,0.07 0.438,-0.12 0.438,-0.48 0,-0.36 -0.19,-0.65 -0.438,-0.72 l -4.435,-1.19 c -0.346,-0.09 -0.498,-0.06 -0.498,0.5 v 2.63 c 0,0.21 -0.082,0.25 -0.271,0.2 -0.188,-0.05 -1.274,-0.34 -1.274,-0.34 -0.29,-0.08 -0.459,0.09 -0.459,0.52 0,0.43 0.169,0.71 0.459,0.79 0,0 1.086,0.29 1.265,0.33 0.178,0.05 0.28,0.21 0.28,0.37 v 2.72 c 0,0.41 0.285,0.62 0.513,0.68 l 4.418,1.19 c 0.25,0.07 0.438,-0.03 0.438,-0.48 0,-0.46 -0.175,-0.65 -0.442,-0.72 l -3.629,-0.97 c -0.201,-0.06 -0.308,-0.2 -0.308,-0.37 v -0.58 c 0,-0.15 0.09,-0.21 0.287,-0.16 0.199,0.05 3.654,0.98 3.654,0.98 0.25,0.07 0.438,-0.01 0.438,-0.48 0,-0.47 -0.188,-0.65 -0.438,-0.72 l -3.673,-0.98"
   style="fill:#006f51;fill-rule:nonzero"
   id="path1772" />
        </g>
        <g
   transform="matrix(0,1.24307,-1.02118,0,2171,-267.74)"
   id="g1778">
            <path
   d="m 810.503,1093.29 1.701,0.46 c 0.338,0.09 0.578,0.28 0.578,0.67 v 6.02 c 0,0.26 0.145,0.34 0.382,0.41 l 3.288,0.88 c 0.264,0.07 0.414,0.27 0.414,0.65 0,0.37 -0.15,0.48 -0.414,0.41 l -4.022,-1.08 c -0.269,-0.07 -0.479,-0.37 -0.479,-0.66 v -2.41 c 0,-0.2 -0.06,-0.28 -0.206,-0.32 l -0.671,-0.18 c -0.189,-0.05 -0.245,0.06 -0.245,0.21 v 2.61 c 0,0.27 -0.127,0.36 -0.424,0.28 -0.262,-0.07 -0.408,-0.23 -0.408,-0.51 v -7.09 c 0,-0.37 0.158,-0.44 0.506,-0.35 m 3.72,1.01 1.776,0.47 c 0.496,0.13 0.763,0.48 0.763,0.95 v 4.47 c 0,0.52 -0.195,0.66 -0.665,0.53 l -1.855,-0.49 c -0.438,-0.12 -0.663,-0.4 -0.663,-0.91 v -4.53 c 0,-0.6 0.199,-0.61 0.644,-0.49 m -7.334,-1.25 c 0,1.37 0.615,2.57 2.111,4.54 -1.744,0.24 -2.105,0.84 -2.105,1.78 0,0.9 0.004,2.25 5.391,6.17 l 0.02,-2.3 c 0,0 5.917,1.59 7.136,1.91 v -4.3 c -0.455,-0.12 -1.556,-0.4 -1.556,-0.4 v -2.48 c 0,0 1.158,0.29 1.556,0.39 v -4.27 c -0.82,-0.22 -9.824,-2.65 -9.824,-2.65 -2.01,-0.53 -2.729,0.58 -2.729,1.61 m 3.94,1.64 v 2.06 c 0,0.12 0.061,0.23 0.184,0.26 l 0.761,0.21 c 0.131,0.03 0.177,-0.02 0.177,-0.17 v -2.06 c 0,-0.17 -0.078,-0.24 -0.196,-0.27 l -0.713,-0.19 c -0.147,-0.04 -0.213,0.03 -0.213,0.16 m 3.541,0.96 v 3.28 c 0,0.21 0.138,0.37 0.279,0.4 l 0.9,0.23 c 0.199,0.06 0.35,0.01 0.35,-0.27 v -3.3 c 0,-0.14 -0.088,-0.25 -0.316,-0.31 l -0.905,-0.23 c -0.187,-0.05 -0.308,-0.06 -0.308,0.2"
   style="fill:#006f51;fill-rule:nonzero"
   id="path1776" />
        </g>
        <g
   transform="matrix(0,1.24307,-1.02118,0,2275.83,-267.74)"
   id="g1782">
            <path
   d="m 813.448,1158.6 c 0,-0.28 0.062,-0.35 0.323,-0.35 h 2.261 c 0.26,0 0.324,0.1 0.324,0.26 v 3.94 c 0,0.2 -0.103,0.26 -0.273,0.26 h -2.35 c -0.219,0 -0.285,-0.03 -0.285,-0.28 z m -2.635,1.29 c -0.158,0 -0.224,-0.07 -0.224,-0.18 v -3.61 c 0,-0.25 -0.061,-0.34 -0.149,-0.38 -0.117,-0.04 -0.23,-0.02 -0.715,0.52 -0.433,0.48 -0.435,0.52 -0.435,0.61 0,0.09 0.014,0.12 0.457,0.4 0.41,0.26 0.445,0.28 0.445,0.49 v 1.97 c 0,0.12 -0.098,0.19 -0.223,0.19 h -1.228 l -0.139,-0.05 c -0.271,-0.31 -0.402,-0.37 -0.486,-0.35 -0.094,0.02 -0.141,0.04 -0.18,0.29 -0.07,0.45 -0.115,0.84 -0.149,1.17 -0.019,0.19 0.026,0.22 0.183,0.2 0.281,-0.02 0.453,-0.05 1.195,-0.05 h 0.801 c 0.156,0 0.226,0.07 0.226,0.21 v 2.29 c 0,0.6 -0.024,0.83 -0.091,1.35 -0.024,0.21 -0.024,0.24 -0.007,0.25 0.031,0.02 0.058,0.02 0.268,-0.1 0.221,-0.14 0.236,-0.16 0.234,-0.37 -0.002,-0.35 -0.007,-0.68 -0.007,-1.13 v -2.29 c 0,-0.13 0.097,-0.21 0.218,-0.21 h 1.955 c 0.245,0 0.293,0.05 0.293,0.25 v 0.93 c 0,0.31 -0.084,0.42 -0.299,0.83 -0.164,0.32 -0.355,0.76 -0.314,0.83 0.059,0.1 0.291,-0.03 1.123,-0.03 h 3.531 c 0.456,0 0.51,-0.06 0.411,-0.66 -0.083,-0.5 -0.19,-0.54 -0.418,-0.54 h -0.036 c -0.175,0 -0.302,-0.06 -0.302,-0.25 v -3.92 c 0,-0.25 0.074,-0.29 0.232,-0.29 h 0.24 c 0.316,0 0.368,-0.07 0.287,-0.63 -0.08,-0.54 -0.17,-0.6 -0.569,-0.6 h -2.999 c -0.184,0 -0.221,-0.01 -0.303,-0.13 -0.138,-0.21 -0.22,-0.27 -0.318,-0.27 -0.114,0 -0.25,0.09 -0.602,0.49 -0.378,0.43 -0.433,0.51 -0.433,0.62 0,0.12 0.081,0.18 0.451,0.44 0.273,0.19 0.317,0.22 0.317,0.45 v 1.02 c 0,0.21 -0.044,0.24 -0.26,0.24 z m 6.016,-7.93 c 0,0.6 -0.025,0.84 -0.092,1.36 -0.025,0.2 -0.023,0.23 -0.008,0.24 0.031,0.03 0.059,0.03 0.27,-0.1 0.22,-0.13 0.235,-0.16 0.234,-0.37 -0.004,-0.34 -0.009,-0.67 -0.009,-1.13 v -6.29 c 0,-0.26 -0.059,-0.35 -0.147,-0.38 -0.117,-0.05 -0.229,-0.02 -0.674,0.52 -0.397,0.48 -0.399,0.51 -0.399,0.61 0,0.08 0.014,0.11 0.419,0.39 0.378,0.26 0.406,0.29 0.406,0.5 v 1.42 c 0,0.1 -0.056,0.15 -0.149,0.15 h -1.041 c -0.073,0 -0.146,-0.04 -0.146,-0.15 v -2.57 c 0,-0.26 -0.055,-0.35 -0.136,-0.38 -0.106,-0.05 -0.21,-0.02 -0.653,0.52 -0.397,0.48 -0.397,0.51 -0.397,0.61 0,0.08 0.014,0.11 0.416,0.39 0.363,0.26 0.373,0.29 0.373,0.5 v 0.93 c 0,0.1 -0.044,0.15 -0.132,0.15 h -0.217 l -0.13,-0.04 c -0.251,-0.29 -0.355,-0.33 -0.448,-0.33 -0.092,0 -0.131,0.05 -0.166,0.27 -0.066,0.41 -0.106,0.78 -0.139,1.09 -0.018,0.17 0.024,0.2 0.17,0.18 0.232,-0.02 0.842,-0.04 0.925,-0.04 0.082,0 0.137,0.03 0.137,0.16 v 0.88 c 0,0.6 -0.023,0.83 -0.09,1.36 -0.027,0.2 -0.025,0.22 -0.007,0.24 0.029,0.02 0.056,0.02 0.267,-0.11 0.22,-0.13 0.236,-0.16 0.235,-0.36 -0.004,-0.35 -0.008,-0.68 -0.008,-1.13 v -0.88 c 0,-0.1 0.068,-0.16 0.141,-0.16 h 1.043 c 0.096,0 0.152,0.04 0.152,0.16 z m -7.748,0.53 c -0.141,0 -0.264,0.03 -0.264,-0.22 v -4.95 c 0,-0.19 0.053,-0.25 0.264,-0.25 h 0.656 c 0.158,0 0.248,0.08 0.248,0.27 v 4.93 c 0,0.18 -0.09,0.22 -0.304,0.22 z m 2.257,-0.24 c 0,0.23 -0.07,0.24 -0.283,0.24 h -0.397 c -0.173,0 -0.276,-0.04 -0.276,-0.22 v -4.99 c 0,-0.19 0.013,-0.21 0.082,-0.21 0.082,0 0.209,-0.1 0.257,-0.27 0.026,-0.1 0.053,-0.1 0.086,-0.07 0.034,0.03 0.067,0.06 0.209,0.17 0.309,0.26 0.322,0.33 0.322,0.54 z m 0.396,-1.27 c 0,-0.14 0.038,-0.16 0.179,-0.14 0.306,0.08 0.582,0.16 0.943,0.28 0.102,0.04 0.133,0.1 0.133,0.18 0.002,0.21 0.003,0.3 0.006,0.53 0,0.21 -0.026,0.47 -0.008,0.5 0.025,0.05 0.107,0.05 0.764,-0.13 0.593,-0.16 0.634,-0.2 0.639,-0.32 0.003,-0.08 -0.065,-0.15 -0.199,-0.21 -0.141,-0.07 -0.186,-0.08 -0.214,-0.27 -0.218,-1.45 -0.453,-2.69 -0.791,-3.92 l 0.068,-0.16 c 0.106,-0.05 0.215,-0.09 0.36,-0.15 0.264,-0.11 0.451,-0.31 0.451,-0.61 0,-0.33 -0.205,-0.58 -0.687,-0.58 -0.475,0 -1.104,0.5 -1.362,2.14 -0.035,0.23 -0.033,0.27 0.01,0.3 l 0.159,-0.09 c 0.259,-0.31 0.447,-0.52 0.598,-0.66 l 0.099,0.03 c 0.068,1.1 0.085,1.75 0.099,2.71 l -0.121,0.04 c -0.314,-0.29 -0.674,-0.59 -0.967,-0.83 -0.125,-0.1 -0.159,-0.16 -0.159,-0.29 v -3.45 c 0,-0.38 -0.056,-0.45 -0.159,-0.48 -0.111,-0.04 -0.215,-0.04 -0.575,0.5 -0.136,0.2 -0.203,0.31 -0.236,0.37 l -0.086,-0.02 c -0.091,-0.35 -0.196,-0.39 -0.451,-0.39 h -0.898 c -0.248,0 -0.276,-0.01 -0.373,-0.15 -0.11,-0.14 -0.197,-0.17 -0.279,-0.17 -0.161,0 -0.181,0.05 -0.554,0.53 -0.316,0.41 -0.352,0.49 -0.352,0.6 0,0.1 0.033,0.13 0.262,0.33 0.368,0.33 0.431,0.34 0.431,0.5 v 4.53 c 0,0.3 -0.102,0.33 -0.416,1.03 -0.239,0.53 -0.256,0.62 -0.221,0.67 0.029,0.05 0.04,0.07 0.17,0.05 0.237,-0.03 0.597,-0.1 0.978,-0.1 h 2.205 c 2.379,0 4.178,0.33 5.94,1 0.185,0.07 0.283,0.14 0.319,0.09 0.034,-0.06 -0.034,-0.16 -0.212,-0.32 -1.541,-1.35 -3.113,-1.87 -5.316,-1.95 -0.127,0 -0.177,-0.05 -0.177,-0.2 z m 4.243,-16.6 c -0.918,2.24 -1.912,3.53 -4.593,4.22 -0.09,0.01 -0.125,-0.01 -0.125,-0.11 v -3.72 c 0,-0.26 -0.065,-0.35 -0.165,-0.39 -0.13,-0.05 -0.257,-0.02 -0.8,0.58 -0.485,0.54 -0.487,0.57 -0.487,0.68 0,0.1 0.017,0.13 0.51,0.45 0.461,0.29 0.545,0.32 0.545,0.54 v 2.07 l -0.123,0.14 c -0.578,-0.06 -1.188,-0.07 -1.746,-0.07 -0.201,0 -0.184,-0.02 -0.422,-0.25 -0.168,-0.15 -0.225,-0.17 -0.314,-0.17 -0.085,0 -0.136,0.06 -0.248,0.79 -0.107,0.69 -0.094,0.75 -0.096,0.8 -0.006,0.13 0.022,0.19 0.332,0.16 0.269,-0.03 0.775,-0.04 1.299,-0.04 0.415,0 0.81,0.01 1.189,0.04 0.091,0.01 0.129,0.06 0.129,0.15 v 2.03 c 0,0.6 -0.024,0.83 -0.091,1.36 -0.026,0.2 -0.024,0.23 -0.007,0.24 0.032,0.03 0.057,0.03 0.268,-0.1 0.221,-0.14 0.236,-0.16 0.234,-0.37 -0.002,-0.34 -0.007,-0.67 -0.007,-1.13 v -1.99 c 0,-0.1 0.043,-0.13 0.15,-0.12 2.607,0.33 4.35,1.45 5.711,3.65 0.122,0.19 0.191,0.26 0.273,0.22 0.069,-0.03 0.065,-0.13 -0.002,-0.29 -1.39,-3.48 -3.32,-4.38 -5.675,-4.82 -0.069,-0.01 -0.09,-0.1 0.021,-0.11 2.277,-0.37 4.035,-1.19 5.65,-3.23 0.082,-0.11 0.1,-0.29 -0.134,-0.32 -0.248,-0.03 -0.512,-0.14 -1.049,-0.91 -0.108,-0.15 -0.168,-0.12 -0.227,0.02 m -1.652,-6.81 -0.109,-0.1 v -3.8 c 0,-0.26 -0.059,-0.34 -0.149,-0.38 -0.117,-0.04 -0.23,-0.02 -0.715,0.52 -0.433,0.49 -0.435,0.51 -0.435,0.61 0,0.08 0.015,0.12 0.457,0.4 0.41,0.26 0.445,0.28 0.445,0.49 v 2.16 l -0.105,0.1 h -0.284 l -0.111,-0.04 c -0.215,-0.33 -0.397,-0.37 -0.476,-0.37 l -0.067,0.02 h -0.047 c -0.24,-0.6 -0.397,-0.95 -0.644,-1.41 -0.104,-0.2 -0.123,-0.23 -0.104,-0.41 0.029,-0.23 -0.012,-0.35 -0.107,-0.39 -0.072,-0.03 -0.135,0.01 -0.307,0.16 l -0.121,0.02 c -0.232,-0.41 -0.326,-0.53 -0.588,-0.94 -0.119,-0.19 -0.162,-0.28 -0.157,-0.48 0.004,-0.19 -0.015,-0.28 -0.132,-0.33 -0.115,-0.04 -0.254,-0.01 -0.762,0.62 -0.347,0.43 -0.432,0.58 -0.432,0.66 0,0.08 0.013,0.12 0.364,0.35 0.332,0.23 0.35,0.29 0.35,0.5 v 0.97 c 0,0.09 -0.028,0.08 -0.106,-0.02 -0.404,-0.56 -0.687,-0.91 -1.033,-1.29 -0.119,-0.14 -0.107,-0.19 -0.126,-0.31 -0.04,-0.25 -0.071,-0.32 -0.196,-0.34 -0.182,-0.03 -0.289,0.14 -0.479,0.72 -0.158,0.48 -0.166,0.57 -0.211,0.74 -0.045,0.17 -0.025,0.27 0.133,0.33 0.584,0.2 1.277,0.44 1.875,0.72 0.117,0.05 0.143,0.08 0.143,0.18 v 4 c 0,0.1 -0.02,0.15 -0.1,0.16 -0.158,0.04 -0.322,0.09 -0.483,0.16 -0.119,0.05 -0.179,0.08 -0.179,0.13 0,0.08 0.066,0.1 0.16,0.13 1.207,0.32 1.014,0.62 1.454,0.92 0.241,0.16 0.505,0.2 0.78,0.04 0.289,-0.17 0.434,-0.69 0.136,-1.07 -0.153,-0.19 -0.624,-0.37 -1.212,-0.38 -0.129,0 -0.16,-0.03 -0.16,-0.13 v -5.96 c 0,-0.1 0.025,-0.09 0.084,-0.07 0.252,0.07 0.371,0.12 0.619,0.23 l 0.006,0.16 -0.059,0.08 c -0.306,0.41 -0.39,0.57 -0.39,0.65 0,0.07 0.011,0.13 0.329,0.39 0.283,0.24 0.321,0.3 0.321,0.51 v 1.79 c 0,0.94 -0.019,1.23 -0.119,1.86 -0.025,0.16 -0.025,0.19 -0.008,0.21 0.028,0.03 0.065,0.03 0.332,-0.13 0.25,-0.16 0.266,-0.21 0.254,-0.41 -0.043,-0.68 -0.063,-0.82 -0.063,-1.4 v -1.89 c 0,-0.24 0.034,-0.24 0.083,-0.21 0.301,0.2 0.401,0.28 0.742,0.57 l 0.053,0.11 c -0.057,0.41 -0.088,0.73 -0.113,1 -0.018,0.2 0.027,0.23 0.183,0.21 0.248,-0.02 0.656,-0.04 0.973,-0.05 l 0.107,0.1 v 2.29 c 0,0.6 -0.043,0.98 -0.125,1.52 -0.029,0.2 -0.023,0.23 -0.008,0.24 0.032,0.02 0.072,0.03 0.303,-0.1 0.225,-0.13 0.245,-0.17 0.244,-0.38 -0.004,-0.35 -0.017,-0.67 -0.017,-1.12 v -2.45 l 0.115,-0.1 h 1.58 c 0.127,0 0.169,0.07 0.162,0.2 -0.031,0.65 -0.045,0.99 -0.082,1.59 -0.008,0.12 0.006,0.18 0.055,0.18 0.04,0.01 0.079,-0.04 0.109,-0.15 0.213,-0.85 0.452,-1.25 1.156,-1.35 0.19,-0.03 0.244,-0.11 0.217,-0.31 -0.154,-1.2 -0.353,-1.43 -1.176,-1.43 z m 1.758,40.3 c 0.26,0 0.274,0.09 0.274,0.26 v 3.39 c 0,0.2 -0.099,0.26 -0.269,0.26 h -2.154 c -0.218,0 -0.285,-0.05 -0.285,-0.23 v -3.4 c 0,-0.24 0.026,-0.28 0.285,-0.28 z m -5.631,4.75 h -0.071 c -0.263,-0.3 -0.463,-0.5 -0.697,-0.73 -0.099,-0.1 -0.126,-0.15 -0.126,-0.29 v -2.13 c 0,-0.18 -0.03,-0.35 0.197,-0.18 0.625,0.47 1.05,0.86 1.959,1.78 l -0.014,0.05 h -0.072 c -0.353,0 -0.904,0.47 -1.176,1.5 m 2.453,-5.92 c -0.437,0.53 -0.45,0.63 -0.45,0.76 0,0.1 0.054,0.14 0.464,0.44 0.289,0.21 0.332,0.24 0.332,0.43 v 2.86 c 0,0.16 -0.039,0.16 -0.119,0.06 -1.188,-1.55 -1.817,-2.16 -2.739,-3.03 -0.125,-0.12 -0.186,-0.2 -0.279,-0.45 -0.102,-0.28 -0.15,-0.32 -0.241,-0.36 -0.098,-0.04 -0.294,-0.01 -0.771,0.52 -0.533,0.59 -0.566,0.68 -0.566,0.76 0,0.07 0.064,0.15 0.379,0.41 0.22,0.19 0.244,0.26 0.244,0.43 v 1.71 c 0,0.13 -0.033,0.14 -0.107,0.08 -0.086,-0.07 -0.221,-0.17 -0.305,-0.26 -0.115,-0.13 -0.11,-0.16 -0.131,-0.36 -0.016,-0.14 -0.078,-0.22 -0.17,-0.23 -0.104,-0.02 -0.229,0.05 -0.486,0.76 -0.254,0.69 -0.235,0.78 -0.171,0.84 0.084,0.06 0.255,0.09 0.464,0.21 1.275,0.72 2.453,1.69 3.744,3.14 0.091,0.1 0.156,0.11 0.183,0.09 0.04,-0.02 0.047,-0.09 -0.006,-0.2 -0.507,-1.01 -0.927,-1.64 -1.447,-2.28 l 0.02,-0.11 c 0.695,-0.46 0.792,-0.46 1.219,-0.6 0.253,-0.08 0.365,-0.21 0.387,-0.48 l 0.069,-0.02 c 0.881,1.03 1.708,2.29 2.458,3.83 0.092,0.19 0.102,0.21 0.168,0.19 0.066,-0.01 0.08,-0.08 0.027,-0.27 -0.231,-0.86 -0.495,-1.64 -0.783,-2.38 -0.063,-0.16 -0.082,-0.2 0.109,-0.2 h 2.67 c 0.49,0 0.535,-0.06 0.436,-0.66 -0.08,-0.48 -0.2,-0.55 -0.419,-0.55 h -0.035 c -0.175,0 -0.299,-0.04 -0.299,-0.24 v -3.39 c 0,-0.25 0.071,-0.28 0.229,-0.28 h 0.187 c 0.387,0 0.424,-0.08 0.334,-0.67 -0.083,-0.53 -0.21,-0.55 -0.613,-0.55 h -2.802 c -0.143,0 -0.194,-0.02 -0.291,-0.13 -0.192,-0.22 -0.239,-0.25 -0.314,-0.25 -0.106,0 -0.249,0.04 -0.579,0.43 m -3.367,-35.89 c 0.249,-0.08 0.41,-0.25 0.41,-0.53 0,-0.3 -0.252,-0.62 -0.709,-0.62 -0.373,0 -1.033,0.41 -1.275,1.62 -0.036,0.17 -0.03,0.2 0.011,0.23 l 0.151,-0.07 c 0.845,-0.6 0.958,-0.49 1.412,-0.63 m -0.113,-2.11 c 0.255,-0.08 0.419,-0.25 0.419,-0.54 0,-0.3 -0.258,-0.64 -0.724,-0.64 -0.381,0 -1.055,0.43 -1.301,1.66 -0.037,0.18 -0.03,0.21 0.012,0.24 l 0.152,-0.07 c 0.863,-0.62 0.979,-0.5 1.442,-0.65"
   style="fill-rule:nonzero"
   id="path1780" />
        </g>
        <g
   transform="matrix(0,1.24307,-1.02118,0,2272.73,-267.74)"
   id="g1786">
            <path
   d="m 821.362,1148.82 c 0.672,0 1.074,-0.3 1.074,-0.95 0,-0.64 -0.336,-0.99 -1,-0.99 h -1.56 c -0.471,0 -0.565,-0.03 -0.575,0.31 0,0.06 -0.003,0.16 -0.111,0.16 -0.094,0 -0.123,-0.08 -0.123,-0.14 0,-0.14 0.029,-0.32 0.029,-0.49 0,-0.16 -0.029,-0.33 -0.029,-0.45 0,-0.05 0.008,-0.14 0.115,-0.14 0.109,0 0.114,0.12 0.123,0.19 0.012,0.3 0.182,0.27 0.477,0.28 h 1.648 c 0.68,0 1.282,0.29 1.282,1.4 0,1.16 -0.567,1.44 -1.321,1.44 h -1.615 c -0.41,0 -0.471,0 -0.475,0.33 0,0.07 0.003,0.17 -0.111,0.17 -0.101,0 -0.123,-0.06 -0.123,-0.12 0,-0.19 0.029,-0.41 0.029,-0.68 0,-0.25 -0.029,-0.52 -0.029,-0.7 0,-0.05 0.022,-0.12 0.123,-0.12 0.114,0 0.111,0.11 0.111,0.17 0,0.33 0.065,0.33 0.551,0.33 h 1.51"
   style="fill-rule:nonzero"
   id="path1784" />
        </g>
        <g
   transform="matrix(0,1.24307,-1.02118,0,2297.49,-267.74)"
   id="g1790">
            <path
   d="m 820.21,1160.96 c -0.337,0 -0.397,0 -0.402,0.27 l -0.085,0.14 -0.109,-0.09 c 0,-0.13 0.024,-0.68 0.024,-0.81 0,-0.22 -0.018,-1.02 -0.018,-1.24 0,-0.08 0.031,-0.09 0.211,-0.09 0.185,0 0.267,0.01 0.41,0.01 l 0.126,0.07 -0.073,0.09 -0.154,0.08 c -0.235,0.11 -0.313,0.14 -0.313,0.65 0,0.23 0.004,0.31 0.037,0.36 0.033,0.05 0.088,0.05 0.185,0.05 h 0.561 c 0.231,0 0.263,-0.04 0.263,-0.23 0,-0.47 0.024,-0.55 -0.265,-0.59 -0.101,-0.01 -0.122,-0.03 -0.122,-0.13 l 0.111,-0.1 c 0.121,0 0.24,0.02 0.365,0.02 0.142,0 0.275,-0.02 0.416,-0.02 l 0.105,0.1 c 0,0.09 -0.115,0.11 -0.208,0.14 -0.181,0.05 -0.198,0.15 -0.198,0.59 0,0.17 0.004,0.22 0.156,0.22 h 0.752 c 0.379,0 0.393,-0.17 0.393,-0.53 0,-0.39 -0.055,-0.6 -0.406,-0.75 -0.097,-0.04 -0.18,-0.07 -0.18,-0.15 0,-0.05 0.027,-0.07 0.18,-0.05 0.158,0.01 0.284,0.04 0.494,0.05 0.101,0.01 0.107,0.02 0.107,0.08 v 1.54 c 0,0.13 0.025,0.52 0.025,0.61 0,0.09 -0.031,0.12 -0.109,0.12 -0.062,0 -0.094,-0.02 -0.094,-0.14 0,-0.27 -0.062,-0.27 -0.41,-0.27 h -1.775"
   style="fill-rule:nonzero"
   id="path1788" />
        </g>
        <g
   transform="matrix(0,1.24307,-1.02118,0,2313.73,-267.74)"
   id="g1794">
            <path
   d="m 822,1167.86 c 0.341,0 0.401,0 0.401,-0.29 l 0.099,-0.13 0.096,0.1 c 0,0.14 -0.025,0.28 -0.025,0.55 0,0.28 0.025,0.44 0.025,0.6 l -0.096,0.09 -0.099,-0.13 c 0,-0.28 -0.057,-0.28 -0.401,-0.28 h -1.79 c -0.346,0 -0.397,0 -0.402,0.28 0,0.06 0.005,0.13 -0.091,0.13 l -0.103,-0.09 c 0,-0.15 0.024,-0.35 0.024,-0.58 0,-0.24 -0.024,-0.42 -0.024,-0.57 l 0.103,-0.1 c 0.096,0 0.091,0.09 0.091,0.14 0.005,0.28 0.056,0.28 0.402,0.28 H 822"
   style="fill-rule:nonzero"
   id="path1792" />
        </g>
        <g
   transform="matrix(0,1.24307,-1.02118,0,2285.89,-267.74)"
   id="g1798">
            <path
   d="m 822,1154.23 c 0.341,0 0.401,-0.01 0.401,-0.3 l 0.099,-0.12 0.096,0.1 c 0,0.14 -0.025,0.28 -0.025,0.55 0,0.27 0.025,0.44 0.025,0.59 l -0.096,0.1 -0.099,-0.13 c 0,-0.28 -0.057,-0.28 -0.401,-0.28 h -1.79 c -0.346,0 -0.397,0 -0.402,0.28 0,0.05 0.005,0.13 -0.091,0.13 l -0.103,-0.1 c 0,-0.15 0.024,-0.35 0.024,-0.58 0,-0.23 -0.024,-0.41 -0.024,-0.56 l 0.103,-0.1 c 0.096,0 0.091,0.08 0.091,0.14 0.005,0.27 0.056,0.28 0.402,0.28 H 822"
   style="fill-rule:nonzero"
   id="path1796" />
        </g>
        <g
   transform="matrix(0,1.24307,-1.02118,0,2280.34,-267.74)"
   id="g1802">
            <path
   d="m 820.194,1152.95 c -0.295,0 -0.381,-0.03 -0.381,0.24 l -0.094,0.14 c -0.102,0 -0.109,-0.07 -0.109,-0.14 0,-0.1 0.014,-0.25 0.014,-0.39 0,-0.12 -0.014,-0.22 -0.014,-0.28 0,-0.09 -0.008,-0.09 0.201,-0.24 0.617,-0.45 1.325,-0.95 1.94,-1.42 0.05,-0.04 0.038,-0.05 -0.059,-0.05 h -1.552 c -0.313,0 -0.327,-0.04 -0.332,0.25 l -0.089,0.13 -0.109,-0.11 c 0,-0.12 0.025,-0.26 0.025,-0.41 0,-0.14 -0.025,-0.27 -0.025,-0.39 l 0.102,-0.11 c 0.08,0 0.105,0.04 0.105,0.15 0,0.26 0.053,0.24 0.336,0.24 h 2.367 c 0.08,0 0.123,0.01 0.123,0.11 0,0.12 -0.055,0.17 -0.101,0.2 -0.098,0.08 -1.657,1.22 -2.373,1.76 v 0.08 h 1.867 c 0.338,0 0.359,-0.02 0.359,-0.3 l 0.09,-0.1 0.108,0.11 c 0,0.12 -0.024,0.28 -0.024,0.44 0,0.14 0.024,0.27 0.024,0.39 l -0.108,0.1 c -0.068,0 -0.09,-0.05 -0.09,-0.15 0,-0.18 -0.02,-0.25 -0.351,-0.25 h -1.85"
   style="fill-rule:nonzero"
   id="path1800" />
        </g>
        <g
   transform="matrix(0,1.24307,-1.02118,0,2303.75,-267.74)"
   id="g1806">
            <path
   d="m 820.872,1163.81 0.101,-0.13 c 0,-0.6 -0.226,-0.8 -0.613,-0.8 -0.281,0 -0.56,0.22 -0.56,0.6 0,0.32 0.09,0.33 0.23,0.33 z m 1.164,0 c 0.301,0 0.355,-0.01 0.365,-0.29 l 0.096,-0.12 c 0.084,0 0.096,0.05 0.096,0.15 0,0.15 -0.024,0.35 -0.024,0.5 0,0.17 0.024,0.42 0.024,0.59 l -0.096,0.09 -0.096,-0.14 c 0,-0.27 -0.057,-0.27 -0.401,-0.27 h -1.786 c -0.35,0 -0.401,0 -0.406,0.27 l -0.089,0.14 -0.109,-0.1 c 0,-0.14 0.025,-0.29 0.025,-0.51 0,-0.31 -0.025,-0.56 -0.025,-0.88 0,-0.5 0.309,-0.91 0.771,-0.91 0.338,0 0.631,0.23 0.693,0.62 0.171,-0.11 0.311,-0.18 0.43,-0.24 0.235,-0.12 0.329,-0.19 0.569,-0.31 0.394,-0.21 0.441,-0.26 0.5,-0.46 0.035,-0.13 0.082,-0.22 0.146,-0.21 0.045,0.01 0.069,0.1 0.039,0.41 -0.029,0.26 -0.13,0.52 -0.371,0.67 -0.283,0.19 -0.591,0.33 -0.898,0.48 -0.293,0.15 -0.32,0.11 -0.32,0.41 0,0.1 0.031,0.11 0.189,0.11 h 0.678"
   style="fill-rule:nonzero"
   id="path1804" />
        </g>
        <g
   transform="matrix(0,1.24307,-1.02118,0,2309.23,-267.74)"
   id="g1810">
            <path
   d="m 821.663,1164.92 c 0.511,0 0.965,0.32 0.965,1.12 0,0.19 -0.051,0.53 -0.176,0.77 l -0.197,0.08 c -0.139,0 -0.325,0 -0.454,-0.01 l -0.138,-0.1 c 0,-0.09 0.185,-0.1 0.322,-0.13 0.291,-0.07 0.477,-0.3 0.477,-0.64 0,-0.34 -0.217,-0.62 -0.545,-0.62 -0.337,0 -0.482,0.2 -0.711,0.73 -0.205,0.48 -0.41,0.74 -0.807,0.74 -0.582,0 -0.85,-0.48 -0.85,-0.99 0,-0.19 0.028,-0.46 0.096,-0.67 l 0.162,-0.08 c 0.12,-0.01 0.278,-0.01 0.397,-0.02 l 0.102,0.08 -0.124,0.12 c -0.291,0.08 -0.461,0.24 -0.461,0.56 0,0.28 0.147,0.54 0.448,0.54 0.359,0 0.502,-0.43 0.65,-0.78 0.143,-0.33 0.365,-0.7 0.839,-0.7 h 0.005"
   style="fill-rule:nonzero"
   id="path1808" />
        </g>
        <g
   transform="matrix(0,1.24307,-1.02118,0,2318.71,-267.74)"
   id="g1814">
            <path
   d="m 819.985,1170.77 c -0.125,0 -0.142,0.02 -0.142,0.1 0,0.47 0.021,0.61 0.363,0.82 l 0.148,0.15 c 0,0.05 -0.029,0.1 -0.193,0.05 -0.193,-0.06 -0.379,-0.12 -0.563,-0.18 l -0.105,-0.08 0.051,-0.07 c 0.03,-0.02 0.074,-0.05 0.074,-0.23 v -1.71 c 0,-0.19 -0.008,-0.26 -0.044,-0.29 l -0.087,-0.11 0.096,-0.06 c 0.033,0 0.453,0.01 0.636,0.02 l 0.117,0.09 -0.102,0.08 c -0.305,0.1 -0.391,0.14 -0.391,0.47 v 0.28 c 0,0.16 0.013,0.16 0.214,0.16 H 822 c 0.35,0 0.401,0 0.401,-0.29 l 0.098,-0.13 0.097,0.1 c 0,0.15 -0.025,0.31 -0.025,0.56 0,0.2 0.025,0.44 0.025,0.59 l -0.097,0.09 -0.098,-0.13 c 0,-0.28 -0.057,-0.28 -0.401,-0.28 h -2.015"
   style="fill-rule:nonzero"
   id="path1812" />
        </g>
        <g
   transform="matrix(0,1.24307,-1.02118,0,2291.25,-267.74)"
   id="g1818">
            <path
   d="m 819.71,1157.38 0.098,0.11 0.093,0.21 0.193,-0.05 1.319,-0.55 c 0.153,-0.06 0.44,-0.14 0.44,-0.16 0,-0.02 -0.344,-0.13 -0.497,-0.19 l -1.246,-0.5 -0.23,-0.07 c -0.065,0 -0.067,0.1 -0.072,0.23 l -0.087,0.13 -0.107,-0.12 c 0,-0.12 0.024,-0.26 0.024,-0.4 0,-0.12 -0.024,-0.28 -0.024,-0.38 l 0.096,-0.09 c 0.09,0 0.098,0.07 0.107,0.19 0.01,0.14 0.182,0.22 0.449,0.33 0.723,0.29 1.512,0.59 2.241,0.88 l 0.138,0.14 c 0,0.1 -0.051,0.12 -0.138,0.15 -0.772,0.31 -1.606,0.63 -2.375,0.95 -0.158,0.07 -0.305,0.12 -0.315,0.28 -0.009,0.12 -0.017,0.19 -0.1,0.19 -0.097,0 -0.103,-0.08 -0.103,-0.12 0,-0.13 0.024,-0.38 0.024,-0.57 0,-0.15 -0.024,-0.38 -0.024,-0.49 l 0.09,-0.1 h 0.006"
   style="fill-rule:nonzero"
   id="path1816" />
        </g>
        <g
   transform="matrix(0,1.24307,-1.02118,0,2325.4,-267.74)"
   id="g1822">
            <path
   d="m 821.487,1174.08 c -0.184,0 -0.221,0.02 -0.373,0.12 -0.314,0.21 -0.51,0.33 -1.039,0.68 -0.236,0.16 -0.258,0.19 -0.262,0.42 l -0.096,0.13 -0.103,-0.12 c 0,-0.13 0.024,-0.25 0.024,-0.51 0,-0.26 -0.024,-0.49 -0.024,-0.68 l 0.09,-0.09 c 0.102,0 0.104,0.07 0.104,0.15 l 0.097,0.18 c 0.051,0 0.091,-0.02 0.531,-0.3 0.518,-0.34 0.549,-0.34 0.549,-0.38 0,-0.04 -0.078,-0.07 -0.572,-0.39 -0.385,-0.26 -0.395,-0.3 -0.496,-0.3 -0.082,0 -0.109,0.07 -0.109,0.19 l -0.079,0.13 c -0.097,0 -0.115,-0.07 -0.115,-0.14 0,-0.12 0.024,-0.26 0.024,-0.42 0,-0.16 -0.024,-0.29 -0.024,-0.41 0,-0.1 0.024,-0.12 0.103,-0.12 0.063,0 0.083,0.03 0.096,0.16 0.025,0.24 0.301,0.42 0.467,0.53 0.295,0.19 0.562,0.37 0.856,0.56 0.154,0.1 0.185,0.11 0.383,0.11 h 0.509 c 0.313,0 0.373,0 0.373,-0.29 l 0.096,-0.13 0.096,0.1 c 0,0.16 -0.024,0.4 -0.024,0.56 0,0.16 0.024,0.41 0.024,0.57 l -0.096,0.1 -0.096,-0.14 c 0,-0.26 -0.051,-0.27 -0.365,-0.27 h -0.549"
   style="fill-rule:nonzero"
   id="path1820" />
        </g>
        <g
   transform="matrix(0,1.24307,-1.02118,0,2227.91,-267.74)"
   id="g1826">
            <path
   d="m 819.718,1127.51 c -0.354,0 -0.456,-0.03 -0.456,0.3 0,0.07 -0.005,0.17 -0.113,0.17 -0.123,0 -0.129,-0.09 -0.129,-0.18 0,-0.11 0.014,-0.29 0.014,-0.46 0,-0.15 -0.014,-0.26 -0.014,-0.34 0,-0.1 -0.011,-0.11 0.24,-0.29 0.739,-0.54 1.589,-1.13 2.325,-1.7 0.062,-0.05 0.047,-0.06 -0.069,-0.06 h -1.862 c -0.376,0 -0.392,-0.05 -0.398,0.29 0,0.07 -0.015,0.16 -0.107,0.16 -0.101,0 -0.129,-0.06 -0.129,-0.12 0,-0.15 0.028,-0.31 0.028,-0.5 0,-0.17 -0.028,-0.33 -0.028,-0.46 0,-0.1 0.03,-0.14 0.12,-0.14 0.096,0 0.126,0.05 0.126,0.19 0,0.31 0.065,0.28 0.402,0.28 h 2.842 c 0.095,0 0.147,0.02 0.147,0.13 0,0.15 -0.066,0.21 -0.121,0.24 -0.116,0.1 -1.988,1.47 -2.848,2.12 v 0.09 h 2.242 c 0.405,0 0.432,-0.03 0.432,-0.36 l 0.105,-0.12 c 0.108,0 0.13,0.07 0.13,0.13 0,0.14 -0.03,0.34 -0.03,0.53 0,0.17 0.03,0.33 0.03,0.47 0,0.05 -0.022,0.12 -0.13,0.12 -0.082,0 -0.105,-0.06 -0.105,-0.18 0,-0.22 -0.027,-0.31 -0.426,-0.31 h -2.218"
   style="fill-rule:nonzero"
   id="path1824" />
        </g>
        <g
   transform="matrix(0,1.24307,-1.02118,0,2262.51,-267.74)"
   id="g1830">
            <path
   d="m 821.319,1142.89 -0.082,-0.05 c -0.316,0.12 -0.576,0.21 -0.866,0.33 l -0.005,0.09 c 0.35,0.13 0.682,0.24 0.875,0.31 l 0.078,-0.08 z m 0.227,0.68 c 0,0.1 0.003,0.13 0.144,0.18 0.406,0.14 0.453,0.16 0.535,0.16 0.157,0 0.166,-0.17 0.176,-0.27 l 0.104,-0.12 c 0.091,0 0.091,0.08 0.091,0.13 0,0.07 -0.025,0.29 -0.025,0.39 0,0.11 0.025,0.4 0.025,0.47 l -0.091,0.11 c -0.077,0 -0.094,-0.03 -0.11,-0.15 -0.023,-0.2 -0.039,-0.22 -0.416,-0.37 -0.695,-0.27 -1.396,-0.52 -2.095,-0.78 -0.352,-0.14 -0.378,-0.15 -0.378,-0.27 0,-0.08 0.006,-0.1 0.12,-0.15 0.867,-0.35 1.74,-0.71 2.408,-0.98 0.156,-0.06 0.367,-0.15 0.371,-0.34 0,-0.05 0.01,-0.14 0.107,-0.14 l 0.084,0.1 c 0,0.18 -0.025,0.42 -0.025,0.65 0,0.16 0.025,0.4 0.025,0.56 l -0.084,0.12 c -0.091,0 -0.111,-0.06 -0.111,-0.12 0,-0.25 -0.041,-0.3 -0.126,-0.3 -0.063,0 -0.091,0.02 -0.503,0.17 -0.219,0.09 -0.226,0.12 -0.226,0.22 v 0.73"
   style="fill-rule:nonzero"
   id="path1828" />
        </g>
        <g
   transform="matrix(0,1.24307,-1.02118,0,2235.49,-267.74)"
   id="g1834">
            <path
   d="m 821.319,1129.66 -0.082,-0.05 c -0.316,0.12 -0.576,0.21 -0.866,0.33 l -0.005,0.09 c 0.35,0.13 0.682,0.24 0.875,0.31 l 0.078,-0.08 z m 0.227,0.68 c 0,0.1 0.003,0.13 0.144,0.18 0.406,0.14 0.453,0.16 0.535,0.16 0.157,0 0.166,-0.17 0.176,-0.27 l 0.104,-0.12 c 0.091,0 0.091,0.08 0.091,0.12 0,0.08 -0.025,0.3 -0.025,0.4 0,0.11 0.025,0.4 0.025,0.48 l -0.091,0.1 c -0.077,0 -0.094,-0.03 -0.11,-0.15 -0.023,-0.2 -0.039,-0.22 -0.416,-0.37 -0.695,-0.27 -1.396,-0.52 -2.095,-0.78 -0.352,-0.14 -0.378,-0.15 -0.378,-0.27 0,-0.08 0.006,-0.1 0.12,-0.15 0.867,-0.35 1.74,-0.71 2.408,-0.98 0.156,-0.06 0.367,-0.15 0.371,-0.34 0,-0.05 0.01,-0.14 0.107,-0.14 l 0.084,0.1 c 0,0.18 -0.025,0.42 -0.025,0.65 0,0.16 0.025,0.4 0.025,0.56 l -0.084,0.12 c -0.091,0 -0.111,-0.06 -0.111,-0.13 0,-0.24 -0.041,-0.29 -0.126,-0.29 -0.063,0 -0.091,0.02 -0.503,0.17 -0.219,0.08 -0.226,0.12 -0.226,0.22 v 0.73"
   style="fill-rule:nonzero"
   id="path1832" />
        </g>
        <g
   transform="matrix(0,1.24307,-1.02118,0,2242.51,-267.74)"
   id="g1838">
            <path
   d="m 822.116,1132.05 0.207,0.1 c 0.216,0.26 0.313,0.63 0.313,1 0,1.18 -0.695,1.66 -1.495,1.66 -0.954,0 -1.599,-0.64 -1.599,-1.78 0,-0.25 0.052,-0.53 0.158,-0.75 0.066,-0.13 0.18,-0.12 0.31,-0.12 0.118,-0.01 0.141,-0.01 0.231,-0.02 l 0.121,0.1 c 0,0.08 -0.098,0.11 -0.248,0.21 -0.15,0.09 -0.348,0.26 -0.348,0.67 0,0.89 0.841,1.12 1.321,1.12 0.603,0 1.326,-0.32 1.326,-1.16 0,-0.15 -0.026,-0.34 -0.111,-0.45 -0.047,-0.07 -0.088,-0.08 -0.26,-0.08 h -0.473 c -0.254,0 -0.291,0.04 -0.291,0.31 l -0.094,0.13 c -0.099,0 -0.099,-0.09 -0.099,-0.14 0,-0.16 0.023,-0.3 0.023,-0.53 0,-0.21 -0.023,-0.39 -0.023,-0.53 l 0.095,-0.11 c 0.067,-0.01 0.084,0.03 0.104,0.18 0.014,0.16 0.035,0.19 0.316,0.19 h 0.516"
   style="fill-rule:nonzero"
   id="path1836" />
        </g>
        <g
   transform="matrix(0,1.24307,-1.02118,0,2249.85,-267.74)"
   id="g1842">
            <path
   d="m 821.151,1135.78 c -0.83,0 -1.408,0.44 -1.408,1.07 0,0.63 0.488,1.04 1.314,1.04 0.775,0 1.4,-0.4 1.4,-1.08 0,-0.57 -0.48,-1.03 -1.302,-1.03 z m -0.06,2.69 c -0.758,0 -1.539,-0.57 -1.539,-1.63 0,-1.06 0.748,-1.64 1.539,-1.64 0.89,0 1.56,0.67 1.56,1.63 0,0.96 -0.698,1.64 -1.557,1.64 h -0.003"
   style="fill-rule:nonzero"
   id="path1840" />
        </g>
        <g
   transform="matrix(0,1.24307,-1.02118,0,2256.71,-267.74)"
   id="g1846">
            <path
   d="m 821.487,1140.44 c -0.184,0 -0.221,0.03 -0.373,0.13 -0.314,0.2 -0.509,0.32 -1.039,0.68 -0.236,0.16 -0.257,0.19 -0.261,0.42 -0.005,0.07 -0.007,0.12 -0.097,0.12 l -0.103,-0.11 c 0,-0.13 0.024,-0.25 0.024,-0.51 0,-0.26 -0.024,-0.49 -0.024,-0.68 l 0.09,-0.1 c 0.103,0 0.105,0.07 0.105,0.16 l 0.098,0.18 c 0.051,0 0.09,-0.02 0.529,-0.31 0.519,-0.33 0.549,-0.33 0.549,-0.37 0,-0.04 -0.078,-0.07 -0.572,-0.4 -0.385,-0.25 -0.393,-0.3 -0.496,-0.3 -0.082,0 -0.108,0.08 -0.108,0.2 l -0.08,0.13 c -0.095,0 -0.115,-0.07 -0.115,-0.14 0,-0.12 0.024,-0.26 0.024,-0.42 0,-0.16 -0.024,-0.29 -0.024,-0.42 0,-0.09 0.024,-0.11 0.103,-0.11 0.063,0 0.083,0.03 0.097,0.16 0.025,0.24 0.3,0.41 0.466,0.53 0.295,0.19 0.563,0.37 0.857,0.56 0.153,0.1 0.184,0.11 0.383,0.1 h 0.508 c 0.313,0 0.373,0 0.373,-0.29 l 0.096,-0.12 0.097,0.09 c 0,0.16 -0.025,0.41 -0.025,0.57 0,0.16 0.025,0.41 0.025,0.57 l -0.097,0.1 -0.096,-0.14 c 0,-0.27 -0.051,-0.28 -0.365,-0.28 h -0.549"
   style="fill-rule:nonzero"
   id="path1844" />
        </g>
    </g>
</svg>
