<?xml version="1.0" encoding="UTF-8" standalone="no"?>
<!-- Generator: Adobe Illustrator 22.0.1, SVG Export Plug-In . SVG Version: 6.00 Build 0)  -->

<svg
   version="1.1"
   id="Layer_1"
   x="0px"
   y="0px"
   width="417.25064"
   height="85.333336"
   viewBox="0 0 417.25063 85.33334"
   enable-background="new 0 0 300.1 66.45"
   xml:space="preserve"
   sodipodi:docname="ncat-with-text.svg"
   inkscape:version="1.1.1 (c3084ef, 2021-09-22)"
   xmlns:inkscape="http://www.inkscape.org/namespaces/inkscape"
   xmlns:sodipodi="http://sodipodi.sourceforge.net/DTD/sodipodi-0.dtd"
   xmlns="http://www.w3.org/2000/svg"
   xmlns:svg="http://www.w3.org/2000/svg"><defs
   id="defs568" /><sodipodi:namedview
   id="namedview566"
   pagecolor="#ffffff"
   bordercolor="#666666"
   borderopacity="1.0"
   inkscape:pageshadow="2"
   inkscape:pageopacity="0.0"
   inkscape:pagecheckerboard="0"
   showgrid="false"
   fit-margin-top="0"
   fit-margin-left="16"
   fit-margin-right="16"
   fit-margin-bottom="0"
   inkscape:zoom="3.7554148"
   inkscape:cx="208.63208"
   inkscape:cy="42.472006"
   inkscape:window-width="1296"
   inkscape:window-height="847"
   inkscape:window-x="0"
   inkscape:window-y="25"
   inkscape:window-maximized="0"
   inkscape:current-layer="Layer_1" />
<g
   id="g563"
   transform="matrix(1.2841736,0,0,1.2841736,15.934364,-0.03852521)">
	<g
   id="g559">
		<path
   fill="#004684"
   d="m 11.22,66.41 c 0.01,-4.36 0.03,-8.14 0.03,-10.14 0.74,0 3.35,-0.08 3.93,-0.08 0,-0.33 0,-2.18 -0.02,-2.61 -6.44,0 -11.45,0 -15.1,0 -0.02,-0.83 0,-8.31 0,-9.32 0.95,-0.25 2.66,-0.61 3.49,-0.78 0.27,-0.64 3.67,-8.94 4.27,-10.56 -0.73,-0.1 -5.52,-1.05 -6.94,-1.31 1,-4.65 2.06,-9.7 3.06,-14.35 0.14,-0.67 0.83,-3.61 0.95,-4.32 4.52,0 8.83,0.02 10.35,0.02 0.36,-1.16 0.8,-2.3 1.23,-3.48 -0.02,-1.03 -0.04,-8.42 -0.06,-9.45 1.01,0 23.28,0.03 23.65,0.03 0,3.32 0,6.85 0,10.16 0.33,0.99 0.7,2.07 0.93,2.72 0.49,0 3.5,0.07 3.87,0.07 0.95,4.69 1.9,9.51 2.85,14.2 0.28,1.38 0.61,2.98 0.89,4.36 -0.42,0.15 -0.94,0.24 -1.25,0.3 1.75,5.11 3.38,10 3.99,11.63 0.92,0.11 2.66,0.28 3.37,0.36 0,1.2 -0.01,9 -0.01,9.77 -6.55,0.02 -16.96,-0.05 -20.32,-0.05 0,0.96 0.01,1.72 0.01,2.64 0.67,0 2.96,0.03 3.94,0.03 0,6.67 0,10.23 0,10.23 C 26.74,66.45 15.31,66.41 11.22,66.41"
   id="path553" />
		<path
   fill="#fdb927"
   d="m 15.68,60.65 c 3.89,0.12 3.95,-2.9 3.95,-4.25 0,-1.14 0.03,-17.1 0.03,-17.74 4.04,-0.14 7.11,0.76 10.28,2.78 0.03,5.31 0.01,13.36 0.01,14.78 0,3.46 1.49,4.51 3.91,4.44 0,0.55 -0.02,0.88 -0.02,1.28 H 15.68 Z M 4.52,49.06 c 3.7,0.02 7.33,0.02 11.03,0.04 v -1.3 c -1.73,-0.12 -2.53,-0.85 -2.23,-3.02 0.19,-1.44 1.31,-4.27 2.15,-6.92 9.46,-2.43 16.48,1.92 20.23,7.18 -0.09,2.12 -1.67,2.79 -2.74,2.7 v 1.34 c 5.27,0.01 17.27,0 17.27,0 0.02,-0.39 0,-0.88 0.02,-1.27 -1.74,0 -2.77,-1.96 -3.35,-3.33 -1.66,-4.9 -3.31,-9.76 -4.97,-14.66 -0.16,0.04 -0.35,0.06 -0.64,0.1 -1.13,-3.39 -2.65,-7.55 -9.92,-7.37 0.04,3.11 -0.02,5.97 0.02,9.08 0.39,1.13 0.84,2.59 1.23,3.72 -4.24,-2.48 -9.24,-3.84 -15.19,-3.13 0.21,-0.62 0.49,-1.28 0.7,-1.89 0,-3.01 0.03,-7 0.03,-7.75 -0.52,0 -1.24,0.01 -1.72,0.01 -2.26,6.09 -4.56,12.33 -6.82,18.42 -0.99,2.66 -1.99,6.11 -5.08,6.79 0.03,0.62 -0.02,0.93 -0.02,1.26 M 7.28,28.25 c 1.71,-6.27 6.51,-7.53 12.35,-7.12 v 9.41 c 4.73,-0.2 8.7,1.08 10.31,1.83 0,-2.76 -0.02,-7.51 0,-11.26 8.95,-0.69 11.02,3.96 12.35,7.12 0.33,-0.06 0.66,-0.12 0.99,-0.19 -0.01,-0.06 -0.01,-0.12 -0.02,-0.18 -0.75,-3.75 -1.51,-7.49 -2.26,-11.24 -0.65,0.93 -2.59,0.83 -4.48,0.83 -5.97,0 -17.28,-0.03 -23.25,-0.03 -2.25,0 -3.96,0.38 -4.6,-0.83 -0.28,1.39 -1.74,8.18 -2.44,11.45 0.54,0.12 0.76,0.15 1.05,0.21 m 13.7,-22.5 c 1.18,0.17 1.25,1.2 0.97,2.04 -0.46,1.39 -2.6,6.93 -3.03,8.15 0.47,0 3.74,0.02 4.24,0.02 0.39,-1.15 0.84,-2.39 1.22,-3.55 0.07,-0.18 0.39,-1.16 0.51,-1.05 0.49,1.52 0.99,3.05 1.48,4.57 0.6,0 10.07,0.01 10.9,0.01 C 36.88,14.82 35.52,10.48 34.73,8.08 34.15,6.43 34.5,5.93 35.57,5.77 V 4.54 c -0.91,0 -13.53,-0.02 -14.61,-0.02 0.01,0.45 0.02,0.87 0.02,1.23"
   id="path555" />
		<path
   fill="#ffffff"
   d="m 22.45,8.83 c 0.3,-1.04 0.95,-2.6 -0.34,-3.45 h 12.22 c -0.35,0.23 -0.58,0.6 -0.68,0.93 h -10.5 c 0.8,0.39 1.01,1.72 0.53,2.97 -0.12,0.32 -1.88,4.99 -2.55,6.69 -0.23,0 -1.04,0.01 -1.35,0.01 0.34,-0.84 1.67,-4.49 2.67,-7.15 m 3.66,-0.24 c -0.08,0.22 -0.53,1.5 -0.68,1.91 0.58,1.77 1.21,3.68 1.79,5.45 0.27,0 0.94,-0.03 1.3,-0.02 -0.37,-1.17 -2.05,-6.12 -2.41,-7.34 m -8.95,25.66 c 8.18,-1.3 14.68,2.31 19.13,5.78 -1.94,-6.07 -4.1,-12.84 -4.89,-14.93 -0.02,0.66 0,2.51 0,3.85 0.87,2.59 2.27,6.9 2.72,8.27 -6.14,-3.95 -10.13,-4.73 -16.59,-4.24 -0.15,0.49 -0.28,0.89 -0.37,1.27 M 20.5,21.07 c 0,3.1 0.02,7.92 0.02,9.45 0.33,0 0.66,0.02 0.97,0 V 21.07 H 20.5 M 9.94,42.56 c -1.1,3.29 -2.64,4.99 -4.14,5.7 h 2.49 c 1.33,-1.3 2.17,-3.36 3.08,-5.82 1.97,-5.32 6.62,-17.91 6.8,-18.4 V 22.6 c -0.16,0 -0.52,0.01 -0.88,0.01 -1.25,3.66 -7.09,19.17 -7.35,19.95 m 26.59,2.26 c 0.06,1.44 -0.67,2.74 -1.91,3.42 0.66,0 1.9,-0.01 2.22,-0.01 0.49,-0.69 0.74,-1.35 0.72,-2.5 -0.34,-0.42 -1.5,-1.95 -2,-2.45 -0.02,0.04 -0.1,0.1 -0.12,0.14 0.23,0.29 0.76,0.93 1.09,1.4 M 20.5,55.95 c 0,1.97 -0.4,4.26 -2.38,5.13 0.47,0.02 1.78,0.02 2.25,0 1.3,-1.41 1.12,-3.99 1.12,-6.05 0,-4.47 0.01,-17.42 0.01,-16.35 -0.31,-0.02 -0.69,0.01 -1,-0.01 V 55.95 Z M 9.38,23.04 c 0.35,-1.65 0.68,-3.43 0.8,-3.89 0.39,0.18 1.42,0.12 1.98,0.12 h 26.37 c 0.41,0 1.41,0.06 2.12,-0.14 -0.08,-0.37 -0.19,-0.94 -0.24,-1.17 -0.94,0.4 -2.64,0.31 -3.18,0.33 -0.54,0.02 -24.68,-0.01 -25.26,-0.01 -0.58,0 -1.83,0.09 -2.74,-0.27 0,0.02 -1.13,5.15 -1.52,6.94 0.5,-0.73 1.03,-1.41 1.67,-1.91"
   id="path557" />
	</g>
	<path
   fill="#004684"
   d="m 67.22,22.67 h 1.06 v -8.05 h -1.45 v -1.66 h 3.3 l 4.79,6.02 c 0.5,0.63 0.81,1.09 0.96,1.53 h 0.03 v -5.89 h -1.04 v -1.66 h 4.11 v 1.66 h -1.12 v 9.71 H 76.1 l -5.41,-6.79 c -0.28,-0.34 -0.5,-0.71 -0.54,-0.88 h -0.03 v 6.01 h 1.1 v 1.66 h -4.01 v -1.66 z m 16.96,-7.45 c -2.69,0 -4.58,1.67 -4.58,4.66 0,2.99 1.88,4.66 4.58,4.66 2.69,0 4.58,-1.67 4.58,-4.66 0,-2.99 -1.89,-4.66 -4.58,-4.66 m 0,7.57 c -1.12,0 -2.21,-0.76 -2.21,-2.91 0,-2.14 1.09,-2.91 2.21,-2.91 1.14,0 2.21,0.76 2.21,2.91 0,2.14 -1.07,2.91 -2.21,2.91 m 6.39,-0.02 H 89.6 v 1.56 h 3.8 v -1.56 h -0.65 v -2.05 c 0.55,0 0.76,0.03 1.01,0.49 l 1.22,2.24 c 0.36,0.65 0.65,0.88 1.38,0.88 h 1.54 v -1.66 c -0.1,0.05 -0.19,0.1 -0.29,0.1 -0.19,0 -0.45,-0.13 -0.52,-0.23 L 96.13,21.08 C 95.76,20.53 95.4,20.25 94.51,20.17 v -0.03 c 1.75,-0.28 2.29,-1.33 2.29,-2.34 0,-1.43 -0.89,-2.37 -2.69,-2.37 h -4.5 v 1.56 h 0.97 v 5.78 z m 2.73,-5.78 c 0.91,0 1.32,0.21 1.32,1.02 0,0.75 -0.44,1.15 -1.32,1.15 h -0.55 v -2.18 h 0.55 z m 7.69,5.78 h -1.02 v 1.56 h 4.22 v -1.56 h -1.02 v -5.78 h 1.35 l 0.11,1.14 h 1.66 l -0.11,-2.7 H 98 l -0.11,2.7 h 1.66 l 0.11,-1.14 h 1.35 v 5.78 z m 7.07,0 h -0.97 v 1.56 h 4.12 v -1.56 h -0.97 v -2.14 h 3.25 v 2.14 h -0.97 v 1.56 h 4.12 v -1.56 h -0.97 v -5.78 h 0.97 v -1.56 h -4.12 v 1.56 h 0.97 v 2.08 h -3.25 v -2.08 h 0.97 v -1.56 h -4.12 v 1.56 h 0.97 z m 22.29,-0.26 c -0.41,0.13 -1.01,0.16 -1.33,0.16 -3.08,0 -3.83,-2.37 -3.83,-4.09 0,-2.08 0.97,-4.06 3.7,-4.06 0.59,0 1.04,0.06 1.61,0.26 v 1.82 h 2.05 v -3.16 c -1.1,-0.39 -2.31,-0.67 -3.75,-0.67 -4.19,0 -6.17,2.87 -6.17,5.96 0,3.54 2.27,5.79 6.07,5.79 1.36,0 2.47,-0.15 3.7,-0.57 l 0.1,-3.51 h -2.05 z m 3.73,0.26 h -0.76 v 1.56 h 3.8 v -1.56 h -0.76 l 0.44,-1.33 h 2.92 l 0.47,1.33 h -0.76 v 1.56 h 4.12 v -1.56 h -0.8 l -3.02,-7.34 h -2.47 z m 3.23,-2.89 0.97,-2.69 h 0.03 l 0.91,2.69 z m 8.03,2.89 h -0.97 v 1.56 h 3.8 v -1.56 h -0.65 v -2.05 c 0.55,0 0.76,0.03 1.01,0.49 l 1.22,2.24 c 0.36,0.65 0.65,0.88 1.38,0.88 h 1.54 v -1.66 c -0.1,0.05 -0.19,0.1 -0.29,0.1 -0.19,0 -0.45,-0.13 -0.52,-0.23 l -0.96,-1.46 c -0.37,-0.55 -0.73,-0.83 -1.62,-0.91 v -0.03 c 1.75,-0.28 2.29,-1.33 2.29,-2.34 0,-1.43 -0.89,-2.37 -2.69,-2.37 h -4.5 v 1.56 h 0.97 v 5.78 z m 2.73,-5.78 c 0.91,0 1.31,0.21 1.31,1.02 0,0.75 -0.44,1.15 -1.31,1.15 h -0.55 v -2.18 h 0.55 z m 9.62,-1.77 c -2.69,0 -4.58,1.67 -4.58,4.66 0,2.99 1.88,4.66 4.58,4.66 2.69,0 4.58,-1.67 4.58,-4.66 0,-2.99 -1.89,-4.66 -4.58,-4.66 m 0,7.57 c -1.12,0 -2.21,-0.76 -2.21,-2.91 0,-2.14 1.09,-2.91 2.21,-2.91 1.14,0 2.21,0.76 2.21,2.91 0,2.14 -1.08,2.91 -2.21,2.91 m 6.39,-0.02 h -0.97 v 1.56 h 6.93 l 0.21,-2.89 h -1.75 l -0.19,1.33 h -2.05 v -5.78 h 0.98 v -1.56 h -4.12 v 1.56 h 0.97 v 5.78 z m 8.01,0 h -0.97 v 1.56 h 4.12 v -1.56 h -0.97 v -5.78 h 0.97 v -1.56 h -4.12 v 1.56 h 0.97 z m 5.07,0 h -0.88 v 1.56 h 3.8 v -1.56 h -0.97 v -4.09 h 0.03 l 4.19,5.65 h 1.88 v -7.34 h 0.88 v -1.56 h -3.8 v 1.56 h 0.97 v 3.77 h -0.03 l -3.96,-5.32 h -3.09 V 17 h 0.97 v 5.77 z m 9.97,0 h -0.76 v 1.56 h 3.8 v -1.56 h -0.76 l 0.44,-1.33 h 2.92 l 0.47,1.33 h -0.76 v 1.56 h 4.12 v -1.56 h -0.8 l -3.02,-7.34 h -2.47 z m 3.23,-2.89 0.97,-2.69 h 0.03 l 0.91,2.69 z M 75.42,37.11 H 74.5 v 1.66 h 4.51 V 37.11 H 78.1 L 74.35,27.4 h -2.61 l -3.99,9.71 h -0.91 v 1.66 h 4.22 v -1.66 h -1.09 l 0.81,-2.18 h 3.91 z m -1.33,-3.93 h -2.65 l 0.88,-2.37 c 0.19,-0.52 0.37,-1.06 0.5,-1.66 h 0.03 c 0.08,0.6 0.24,1.15 0.42,1.66 z m 11.56,3.89 c -0.36,0.07 -0.71,0.15 -1.23,0.15 -1.4,0 -2.48,-0.97 -2.48,-2.92 0,-1.8 0.99,-2.89 2.78,-2.89 0.37,0 0.75,0.06 1.2,0.19 v 1.04 h 1.75 v -2.47 c -0.99,-0.36 -1.92,-0.52 -2.95,-0.52 -2.83,0 -5.15,1.49 -5.15,4.9 0,2.81 1.83,4.41 4.69,4.41 1.07,0 2.19,-0.19 3.31,-0.52 V 35.7 h 0.84 v -1.56 h -3.7 v 1.56 h 0.94 z m 4.62,0.13 H 89.3 v 1.56 h 3.8 V 37.2 h -0.65 v -2.04 c 0.55,0 0.76,0.03 1.01,0.49 l 1.22,2.24 c 0.36,0.65 0.65,0.88 1.38,0.88 h 1.54 v -1.66 c -0.1,0.05 -0.2,0.1 -0.29,0.1 -0.19,0 -0.45,-0.13 -0.52,-0.23 L 95.83,35.52 C 95.46,34.97 95.1,34.69 94.21,34.61 v -0.03 c 1.75,-0.28 2.29,-1.33 2.29,-2.34 0,-1.43 -0.89,-2.37 -2.69,-2.37 h -4.5 v 1.56 h 0.97 V 37.2 Z M 93,31.42 c 0.91,0 1.32,0.21 1.32,1.02 0,0.75 -0.44,1.15 -1.32,1.15 H 92.45 V 31.41 H 93 Z m 6.36,5.78 h -0.97 v 1.56 h 4.12 V 37.2 h -0.98 v -5.78 h 0.98 v -1.56 h -4.12 v 1.56 h 0.97 z m 10.17,-0.09 c -0.31,0.07 -0.63,0.11 -1.04,0.11 -1.54,0 -2.79,-0.55 -2.79,-2.95 0,-1.92 0.93,-2.86 2.63,-2.86 0.42,0 0.83,0.1 1.2,0.18 v 1.06 h 1.75 v -2.47 c -0.86,-0.32 -1.82,-0.52 -2.83,-0.52 -2.83,0 -5.13,1.38 -5.13,4.95 0,2.97 1.88,4.37 4.87,4.37 0.99,0 2.21,-0.26 3.09,-0.52 v -2.57 h -1.66 z m 3.64,-0.8 c 0,1.72 1.62,2.66 3.88,2.66 3.1,0 3.85,-1.74 3.85,-3.93 v -3.62 h 0.91 v -1.56 h -3.9 v 1.56 h 0.91 v 4.11 c 0,0.81 -0.31,1.69 -1.66,1.69 -1.28,0 -1.82,-0.63 -1.82,-1.51 v -4.29 h 0.97 v -1.56 h -4.12 v 1.56 h 0.97 v 4.89 z m 10.59,0.89 h -0.97 v 1.56 h 6.93 l 0.21,-2.89 h -1.75 l -0.19,1.33 h -2.05 v -5.78 h 0.97 v -1.56 h -4.12 v 1.56 h 0.97 z m 8.91,0 h -1.02 v 1.56 h 4.22 V 37.2 h -1.02 v -5.78 h 1.35 l 0.11,1.14 h 1.66 l -0.11,-2.7 h -8.18 l -0.11,2.7 h 1.66 l 0.11,-1.14 h 1.35 v 5.78 z m 6.98,-0.89 c 0,1.72 1.62,2.66 3.88,2.66 3.1,0 3.85,-1.74 3.85,-3.93 v -3.62 h 0.91 v -1.56 h -3.9 v 1.56 h 0.91 v 4.11 c 0,0.81 -0.31,1.69 -1.66,1.69 -1.28,0 -1.82,-0.63 -1.82,-1.51 v -4.29 h 0.98 v -1.56 h -4.12 v 1.56 h 0.97 z m 10.58,0.89 h -0.97 v 1.56 h 3.8 V 37.2 h -0.65 v -2.04 c 0.55,0 0.76,0.03 1.01,0.49 l 1.22,2.24 c 0.36,0.65 0.65,0.88 1.38,0.88 h 1.54 v -1.66 c -0.1,0.05 -0.2,0.1 -0.29,0.1 -0.19,0 -0.45,-0.13 -0.52,-0.23 l -0.96,-1.46 c -0.37,-0.55 -0.73,-0.83 -1.62,-0.91 v -0.03 c 1.75,-0.28 2.29,-1.33 2.29,-2.34 0,-1.43 -0.89,-2.37 -2.69,-2.37 h -4.5 v 1.56 h 0.97 v 5.77 z m 2.73,-5.78 c 0.91,0 1.32,0.21 1.32,1.02 0,0.75 -0.44,1.15 -1.32,1.15 h -0.55 v -2.18 h 0.55 z m 5.91,5.78 h -0.76 v 1.56 h 3.8 V 37.2 h -0.76 l 0.44,-1.33 h 2.92 l 0.47,1.33 h -0.76 v 1.56 h 4.12 V 37.2 h -0.8 l -3.02,-7.34 h -2.47 z m 3.23,-2.89 0.97,-2.7 h 0.03 l 0.91,2.7 z m 8.03,2.89 h -0.97 v 1.56 h 6.93 l 0.21,-2.89 h -1.75 l -0.19,1.33 h -2.05 v -5.78 h 0.97 v -1.56 h -4.12 v 1.56 h 0.97 z m 12.23,0 h -0.76 v 1.56 h 3.8 V 37.2 h -0.76 l 0.44,-1.33 H 188 l 0.47,1.33 h -0.76 v 1.56 h 4.12 V 37.2 h -0.8 l -3.02,-7.34 h -2.47 z m 3.23,-2.89 0.98,-2.7 h 0.03 l 0.91,2.7 z m 7.89,2.89 h -0.88 v 1.56 h 3.8 V 37.2 h -0.97 v -4.09 h 0.03 l 4.19,5.65 h 1.88 v -7.34 h 0.88 v -1.56 h -3.8 v 1.56 h 0.98 v 3.77 h -0.03 l -3.96,-5.32 h -3.09 v 1.56 h 0.97 z m 10.88,0 h -0.97 v 1.56 h 4.58 c 2.87,0 4.48,-2.06 4.48,-4.45 0,-3.18 -1.87,-4.45 -4.56,-4.45 h -4.5 v 1.56 h 0.97 z m 2.17,-5.78 h 1.04 c 1.54,0 2.5,0.83 2.5,2.89 0,1.75 -0.96,2.89 -2.5,2.89 h -1.04 z m 20.13,-0.81 h 1.95 l -0.1,-3.21 h -10.36 l -0.1,3.21 H 220 l 0.1,-1.56 h 2.04 v 8.05 h -1.02 v 1.66 h 4.42 V 37.1 h -1.02 v -8.05 h 2.04 z m 3.82,6.59 h -0.88 v 1.56 h 6.92 l 0.24,-2.89 h -1.75 l -0.16,1.33 h -2.19 V 35.06 H 235 V 33.5 h -2.34 v -2.08 h 2.19 l 0.16,1.14 h 1.66 l -0.16,-2.7 h -7 v 1.56 h 0.97 z m 13.39,-0.09 c -0.31,0.07 -0.63,0.11 -1.04,0.11 -1.54,0 -2.79,-0.55 -2.79,-2.95 0,-1.92 0.93,-2.86 2.63,-2.86 0.42,0 0.83,0.1 1.2,0.18 v 1.06 h 1.75 v -2.47 c -0.86,-0.32 -1.82,-0.52 -2.83,-0.52 -2.83,0 -5.13,1.38 -5.13,4.95 0,2.97 1.88,4.37 4.87,4.37 0.99,0 2.21,-0.26 3.09,-0.52 v -2.57 h -1.66 z m 3.9,0.09 h -0.97 v 1.56 h 4.12 V 37.2 h -0.97 v -2.14 h 3.25 v 2.14 h -0.97 v 1.56 h 4.12 V 37.2 h -0.97 v -5.78 h 0.97 v -1.56 h -4.12 v 1.56 h 0.97 v 2.08 h -3.25 v -2.08 h 0.97 v -1.56 h -4.12 v 1.56 h 0.97 z m 10.52,0 h -0.88 v 1.56 h 3.8 V 37.2 h -0.97 v -4.09 h 0.03 l 4.19,5.65 h 1.88 v -7.34 h 0.88 v -1.56 h -3.8 v 1.56 h 0.97 v 3.77 h -0.03 l -3.96,-5.32 h -3.08 v 1.56 h 0.97 z m 10.87,0 h -0.97 v 1.56 h 4.12 V 37.2 h -0.97 v -5.78 h 0.97 v -1.56 h -4.12 v 1.56 h 0.97 z m 10.18,-0.09 c -0.31,0.07 -0.63,0.11 -1.04,0.11 -1.54,0 -2.79,-0.55 -2.79,-2.95 0,-1.92 0.93,-2.86 2.63,-2.86 0.42,0 0.83,0.1 1.2,0.18 v 1.06 h 1.75 v -2.47 c -0.86,-0.32 -1.82,-0.52 -2.83,-0.52 -2.83,0 -5.13,1.38 -5.13,4.95 0,2.97 1.88,4.37 4.87,4.37 0.99,0 2.21,-0.26 3.09,-0.52 v -2.57 h -1.66 z m 3.28,0.09 h -0.76 v 1.56 h 3.8 V 37.2 h -0.76 l 0.44,-1.33 h 2.92 l 0.47,1.33 h -0.76 v 1.56 h 4.12 V 37.2 h -0.79 l -3.02,-7.34 h -2.47 z m 3.23,-2.89 0.97,-2.7 h 0.03 l 0.91,2.7 z m 8.03,2.89 h -0.97 v 1.56 h 6.93 l 0.21,-2.89 h -1.75 l -0.19,1.33 h -2.05 v -5.78 h 0.97 v -1.56 h -4.12 v 1.56 h 0.97 z M 73.47,44.95 h 2.14 v -2.71 c -0.97,-0.37 -2.35,-0.6 -3.73,-0.6 -3.21,0 -4.48,1.59 -4.48,3.39 0,1.75 0.8,2.66 3.13,3.26 l 1.25,0.32 c 1.53,0.39 1.85,0.81 1.85,1.4 0,0.86 -0.62,1.53 -2.01,1.53 -0.67,0 -1.32,-0.05 -1.92,-0.29 v -1.49 h -2.37 v 3 c 1.53,0.5 2.83,0.63 4.07,0.63 3.23,0 4.69,-1.57 4.69,-3.73 0,-2.35 -1.85,-2.91 -3.52,-3.33 l -1.36,-0.34 c -0.75,-0.18 -1.35,-0.42 -1.35,-1.25 0,-0.63 0.5,-1.44 2.08,-1.44 0.55,0 1.1,0.13 1.53,0.28 z m 6.33,6.69 H 78.78 V 53.2 H 83 v -1.56 h -1.02 v -5.78 h 1.35 L 83.44,47 H 85.1 L 84.99,44.3 H 76.81 L 76.7,47 h 1.66 l 0.11,-1.14 h 1.35 v 5.78 z m 5.54,0 h -0.76 v 1.56 h 3.8 v -1.56 h -0.76 l 0.44,-1.33 h 2.92 l 0.47,1.33 h -0.76 v 1.56 h 4.12 V 51.64 H 94 L 90.98,44.3 h -2.47 z m 3.23,-2.89 0.97,-2.7 h 0.03 l 0.91,2.7 z m 8.85,2.89 H 96.4 v 1.56 h 4.22 V 51.64 H 99.6 v -5.78 h 1.35 l 0.11,1.14 h 1.66 l -0.11,-2.7 H 94.43 L 94.32,47 h 1.66 l 0.11,-1.14 h 1.35 v 5.78 z m 7.06,0 h -0.88 v 1.56 h 6.92 l 0.24,-2.89 h -1.75 l -0.16,1.33 h -2.19 V 49.5 H 109 v -1.56 h -2.34 v -2.08 h 2.19 l 0.16,1.14 h 1.66 l -0.16,-2.7 h -7 v 1.56 h 0.97 z m 19.08,-8.15 h 1.25 v 5.34 c 0,2.18 -1.04,2.71 -2.55,2.71 -1.82,0 -2.3,-1.06 -2.3,-2.71 v -5.34 h 1.02 v -1.66 h -4.42 v 1.66 h 1.02 v 5.75 c 0,2.5 0.81,4.16 4.55,4.16 3.33,0 4.82,-1.17 4.82,-4.71 v -5.2 h 1.02 v -1.66 h -4.42 v 1.66 z m 5.82,8.15 h -0.88 v 1.56 h 3.8 v -1.56 h -0.97 v -4.09 h 0.03 l 4.19,5.65 h 1.88 v -7.34 h 0.88 V 44.3 h -3.8 v 1.56 h 0.97 v 3.77 h -0.03 l -3.96,-5.32 h -3.08 v 1.56 h 0.97 z m 10.87,0 h -0.97 v 1.56 h 4.12 v -1.56 h -0.97 v -5.78 h 0.97 V 44.3 h -4.12 v 1.56 h 0.97 z m 7.9,1.55 h 2.27 l 3.23,-7.34 h 0.78 V 44.3 h -3.9 v 1.56 h 0.85 l -1.95,5.29 h -0.03 l -1.85,-5.29 h 0.78 V 44.3 h -4.12 v 1.56 h 0.78 z m 8.08,-1.55 h -0.88 v 1.56 h 6.92 l 0.24,-2.89 h -1.75 l -0.16,1.33 h -2.19 V 49.5 h 2.34 v -1.56 h -2.34 v -2.08 h 2.19 l 0.16,1.14 h 1.66 l -0.16,-2.7 h -7 v 1.56 h 0.97 z m 8.29,0 h -0.97 v 1.56 h 3.8 V 51.64 H 166.7 V 49.6 c 0.55,0 0.76,0.03 1.01,0.49 l 1.22,2.24 c 0.36,0.65 0.65,0.88 1.38,0.88 h 1.54 v -1.66 c -0.1,0.05 -0.19,0.1 -0.29,0.1 -0.19,0 -0.45,-0.13 -0.52,-0.23 l -0.96,-1.46 c -0.37,-0.55 -0.73,-0.83 -1.62,-0.91 v -0.03 c 1.75,-0.28 2.29,-1.33 2.29,-2.34 0,-1.43 -0.89,-2.37 -2.69,-2.37 h -4.5 v 1.56 h 0.97 v 5.77 z m 2.73,-5.78 c 0.91,0 1.31,0.21 1.31,1.02 0,0.75 -0.44,1.15 -1.31,1.15 h -0.55 v -2.18 h 0.55 z m 11.88,0.87 v -2.18 c -1.01,-0.31 -1.82,-0.47 -2.74,-0.47 -2.61,0 -3.82,1.33 -3.82,2.95 0,3.36 4.77,2.01 4.77,3.7 0,0.52 -0.54,1.1 -1.41,1.1 -0.47,0 -1.02,-0.08 -1.41,-0.29 l -0.1,-1.07 h -1.85 l 0.1,2.47 c 0.96,0.31 2.04,0.45 3,0.45 2.03,0 3.94,-0.83 3.94,-2.99 0,-3.46 -4.77,-2.22 -4.77,-3.78 0,-0.5 0.28,-0.99 1.25,-0.99 0.39,0 0.94,0.05 1.28,0.24 v 0.84 h 1.76 z m 2.38,4.91 h -0.97 v 1.56 h 4.12 v -1.56 h -0.97 v -5.78 h 0.97 V 44.3 h -4.12 v 1.56 h 0.97 z m 7.06,0 h -1.02 v 1.56 h 4.22 v -1.56 h -1.02 v -5.78 h 1.35 l 0.11,1.14 h 1.66 l -0.11,-2.7 h -8.18 l -0.11,2.7 h 1.66 l 0.11,-1.14 h 1.35 v 5.78 z m 5.88,-5.78 h 0.67 l 3.05,3.86 v 1.92 h -1.02 v 1.56 h 4.22 v -1.56 h -1.02 v -1.92 l 2.97,-3.86 h 0.66 V 44.3 h -3.9 v 1.56 h 0.86 l -1.51,2.26 -1.56,-2.26 h 0.8 V 44.3 h -4.22 z"
   id="path561" />
</g>
</svg>
