<?xml version="1.0" encoding="UTF-8" standalone="no"?>
<!-- Generator: Adobe Illustrator 24.3.0, SVG Export Plug-In . SVG Version: 6.00 Build 0)  -->

<svg
   version="1.1"
   id="レイヤー_1"
   x="0px"
   y="0px"
   width="368.21332"
   height="85.333328"
   viewBox="0 0 368.2133 85.333325"
   xml:space="preserve"
   sodipodi:docname="osaka.svg"
   inkscape:version="1.1.1 (c3084ef, 2021-09-22)"
   xmlns:inkscape="http://www.inkscape.org/namespaces/inkscape"
   xmlns:sodipodi="http://sodipodi.sourceforge.net/DTD/sodipodi-0.dtd"
   xmlns="http://www.w3.org/2000/svg"
   xmlns:svg="http://www.w3.org/2000/svg"><defs
   id="defs1735" /><sodipodi:namedview
   id="namedview1733"
   pagecolor="#2d287f"
   bordercolor="#666666"
   borderopacity="1.0"
   inkscape:pageshadow="2"
   inkscape:pageopacity="0.0"
   inkscape:pagecheckerboard="0"
   showgrid="false"
   fit-margin-top="0"
   fit-margin-left="16"
   fit-margin-right="16"
   fit-margin-bottom="0"
   inkscape:zoom="7.151015"
   inkscape:cx="184.09974"
   inkscape:cy="42.721208"
   inkscape:window-width="1296"
   inkscape:window-height="847"
   inkscape:window-x="-21"
   inkscape:window-y="25"
   inkscape:window-maximized="0"
   inkscape:current-layer="レイヤー_1" />
<style
   type="text/css"
   id="style1680">
	.st0{fill:#2d287f;}
</style>
<g
   id="g1730"
   transform="matrix(2.1333333,0,0,2.1333333,16,0.21333333)">
	<g
   id="g1684">
		<path
   class="st0"
   d="M 40.4,16.9 C 39.3,8.7 33.4,2.1 25.7,0 l -5.4,5.4 c 6.8,0 12.6,4.8 13.9,11.3 -5.7,0.6 -10.6,3.6 -13.9,8 C 17,20.4 12.1,17.4 6.4,16.7 7.7,10.3 13.5,5.4 20.3,5.4 L 14.9,0 C 7.2,2.1 1.2,8.7 0.2,16.9 0.1,17.8 0,18.7 0,19.6 0,20.8 0.1,22 0.3,23.1 1.5,22.8 2.7,22.6 4,22.6 c 0.8,0 1.6,0.1 2.4,0.2 4.8,0.8 8.7,4 10.6,8.3 0.3,0.8 0.6,1.6 0.8,2.5 0.2,1 0.4,2.1 0.4,3.2 0,1 -0.1,2 -0.3,2.9 0,0 0,0.1 0,0.1 h 4.7 c 0,0 0,-0.1 0,-0.1 -0.2,-0.9 -0.3,-1.9 -0.3,-2.9 0,-1.1 0.1,-2.2 0.4,-3.2 0.2,-0.9 0.5,-1.7 0.8,-2.5 1.9,-4.3 5.8,-7.5 10.6,-8.3 0.8,-0.1 1.6,-0.2 2.4,-0.2 1.3,0 2.5,0.2 3.7,0.5 0.2,-1.2 0.3,-2.3 0.3,-3.5 0.1,-0.9 0,-1.8 -0.1,-2.7 z"
   id="path1682" />
	</g>
	<g
   id="g1728">
		<g
   id="g1694">
			<path
   class="st0"
   d="M 67.2,17 C 65.5,14.8 64.6,12 64.3,9.7 H 74 V 7.2 h -9.9 c 0,-0.2 0,-0.3 0,-0.5 V 0 h -3 v 6.7 c 0,0.1 0,0.3 0,0.5 h -9.9 v 2.4 h 9.7 c -0.4,2.4 -1.2,5.1 -2.9,7.3 -1.9,2.5 -4.2,4 -6.1,4.9 -0.4,0.2 -0.7,0.3 -1.1,0.5 v 2.8 c 2.2,-0.7 6.2,-2.4 9.3,-6.6 0.9,-1.3 1.6,-2.6 2.2,-3.9 v 0 c 0.1,-0.1 0.2,-0.2 0.4,-0.2 0.2,0 0.3,0.1 0.4,0.2 v 0 c 0.5,1.3 1.2,2.7 2.2,3.9 3.1,4.1 7.1,5.9 9.3,6.6 V 22.3 C 72.4,21.6 69.5,20 67.2,17 Z"
   id="path1686" />
			<path
   class="st0"
   d="m 122,17 c -1.7,-2.2 -2.6,-5 -2.9,-7.3 h 9.7 V 7.2 h -10 c 0,-0.2 0,-0.3 0,-0.5 V 0 h -3 v 6.7 c 0,0.1 0,0.3 0,0.5 h -9.9 v 2.4 h 9.7 c -0.4,2.4 -1.2,5.1 -2.9,7.3 -1.9,2.5 -4.2,4 -6.1,4.9 -0.4,0.2 -0.7,0.3 -1.1,0.5 v 2.8 c 2.2,-0.7 6.2,-2.4 9.3,-6.6 0.9,-1.3 1.6,-2.6 2.2,-3.9 v 0 c 0.1,-0.1 0.2,-0.2 0.4,-0.2 0.2,0 0.3,0.1 0.4,0.2 v 0 c 0.5,1.3 1.2,2.7 2.2,3.9 3.1,4.1 7.1,5.9 9.3,6.6 V 22.3 C 127.2,21.6 124.3,20 122,17 Z"
   id="path1688" />
			<path
   class="st0"
   d="m 83.7,3.3 c 0,0 0,-0.1 0,-0.2 0,-0.2 -0.2,-0.4 -0.4,-0.4 H 82.5 80.7 V 25.1 H 78.2 V 0.8 h 8.1 v 2.3 l -1.9,5.1 c 0.1,0.1 0.2,0.3 0.3,0.4 0.7,1 1.5,2.4 1.5,4.1 0,2.7 -0.9,4.4 -1.9,5.4 -0.4,0.3 -0.7,0.6 -1,0.8 l -0.7,-2.1 c 0.1,-0.1 0.1,-0.1 0.2,-0.2 0.6,-0.6 1.3,-1.6 1.3,-3.8 0,-1 -0.5,-2.1 -1.1,-2.9 C 82.4,9.1 81.8,8.5 81.8,8.5 v 0 0 l 1.7,-4.7 z m 18.6,19 v 2.4 C 100.1,23.9 98.4,22.8 96.9,21.4 96.5,21 96,20.6 95.6,20.1 c -0.5,0.6 -1.1,1.2 -1.7,1.8 -1.2,1.1 -2.6,2.2 -4.3,3.1 v -2.6 c 1,-0.6 1.9,-1.4 2.8,-2.2 0.6,-0.5 1.2,-1.2 1.7,-1.8 -0.7,-0.9 -1.3,-1.8 -1.9,-2.7 -0.8,-1.2 -1.3,-2.5 -1.8,-3.9 0,1.1 -0.1,2.4 -0.2,3.6 -0.3,2.3 -1,4.3 -3,6.3 -0.9,0.9 -1.8,1.4 -2.5,1.8 L 84,21.4 c 0.5,-0.3 1.1,-0.7 1.6,-1.2 1.6,-1.7 2.1,-3 2.4,-5 0.2,-1.5 0.2,-3.3 0.2,-4.5 0,-0.5 0,-0.9 0,-1.1 V 0.8 h 13.2 V 3.2 H 91 v 4.1 h 10.3 c -0.7,3.1 -1.4,5.8 -2.7,8.3 -0.4,0.9 -1,1.8 -1.6,2.7 0.4,0.5 0.9,0.9 1.4,1.4 1.2,1.1 2.4,2 3.9,2.6 z m -4,-12.2 c 0,0 0,-0.1 0,-0.1 0,-0.2 -0.2,-0.4 -0.4,-0.4 h -1.1 -4.7 c 0.6,1.9 1.2,3.6 2.2,5.1 0.4,0.7 0.9,1.3 1.3,1.9 0.4,-0.6 0.7,-1.2 1,-1.8 0.6,-1.2 1.1,-2.5 1.5,-3.9 z"
   id="path1690" />
			<path
   class="st0"
   d="m 138.7,0 h -2.2 v 3.5 h 2.2 z m 5.9,0 h -2.2 v 3.5 h 2.2 z m -9.2,6.9 h 17.2 c 0.4,0 0.8,0.4 0.8,0.8 v 3.2 h 2.7 V 4.7 h -5.5 c 0.3,-0.3 0.6,-0.6 1,-1.2 1.1,-1.4 1.7,-3 2,-3.6 H 151 c -0.2,0.5 -0.7,1.7 -1.6,2.8 -0.7,0.9 -1.5,1.5 -2.1,1.9 h -14.6 v 6.1 h 2.7 z m 21.2,10.5 V 15.2 H 146 V 14 c 0,0 1.5,-0.6 2.7,-1.4 1.3,-0.8 2.3,-1.8 2.3,-1.8 V 9 h -13.3 v 2 h 9.9 c 0,0 -0.8,0.6 -1.9,1.2 -1.2,0.6 -2.3,0.8 -2.3,0.8 v 2.3 h -11 v 2.2 h 11 V 20 c 0,0 0,1.4 -0.7,2 -0.9,0.7 -1.7,0.8 -2.2,0.9 -0.5,0.1 -1,0.1 -1,0.1 v 2.2 c 0,0 2.7,-0.1 4.2,-0.8 1.4,-0.7 1.9,-1.7 2.1,-2.4 0.2,-1 0.2,-1.9 0.2,-1.9 v -2.6 h 10.6 z"
   id="path1692" />
		</g>
		<g
   id="g1726">
			<path
   class="st0"
   d="m 57.1,35 c 0,3.1 -1.5,4.8 -3.7,4.8 -2.2,0 -3.6,-1.7 -3.6,-4.8 0,-3.1 1.5,-4.8 3.7,-4.8 2.1,0 3.6,1.7 3.6,4.8 z m -5.7,0 c 0,2.4 0.8,3.6 2.1,3.6 1.3,0 2.1,-1.2 2.1,-3.6 0,-2.4 -0.8,-3.6 -2.1,-3.6 -1.3,0.1 -2.1,1.3 -2.1,3.6 z"
   id="path1696" />
			<path
   class="st0"
   d="m 62.7,33 c -0.2,-1 -0.7,-1.5 -1.5,-1.5 -0.9,0 -1.4,0.5 -1.4,1.2 0,0.8 0.3,1.2 1.6,1.6 l 0.5,0.1 c 1.9,0.6 2.5,1.4 2.5,2.7 0,1.6 -1,2.8 -3.1,2.8 -1.7,0 -2.8,-0.8 -3.2,-2.4 L 59.5,37 c 0.2,1.1 0.9,1.7 1.8,1.7 1.1,0 1.6,-0.5 1.6,-1.3 0,-0.8 -0.3,-1.2 -1.7,-1.6 l -0.4,-0.1 c -1.8,-0.6 -2.4,-1.4 -2.4,-2.8 0,-1.4 1,-2.5 2.8,-2.5 1.5,0 2.6,0.8 3,2.3 z"
   id="path1698" />
			<path
   class="st0"
   d="M 72,39.7 H 70.4 L 69.7,37 h -2.6 l -0.7,2.7 H 65 l 2.6,-9.3 h 1.8 z m -3.1,-5.8 c -0.2,-0.7 -0.3,-1.4 -0.5,-2.3 h -0.1 c -0.2,0.9 -0.3,1.6 -0.5,2.3 l -0.5,1.9 h 2.1 z"
   id="path1700" />
			<path
   class="st0"
   d="m 76.5,34.1 3.2,5.6 H 78 l -2.5,-4.5 -1,1.2 v 3.2 H 73 v -9.3 h 1.5 v 4.2 l 3.2,-4.2 h 1.7 z"
   id="path1702" />
			<path
   class="st0"
   d="M 87.1,39.7 H 85.6 L 84.9,37 h -2.6 l -0.7,2.7 h -1.4 l 2.6,-9.3 h 1.8 z m -3,-5.8 c -0.2,-0.7 -0.3,-1.4 -0.5,-2.3 h -0.1 c -0.2,0.9 -0.3,1.6 -0.5,2.3 l -0.5,1.9 h 2.1 z"
   id="path1704" />
			<path
   class="st0"
   d="m 97.8,36.5 c 0,2.2 -1.3,3.4 -3.2,3.4 -2,0 -3.3,-1.1 -3.3,-3.4 v -6.1 h 1.5 v 6.1 c 0,1.5 0.7,2.2 1.8,2.2 1.1,0 1.8,-0.6 1.8,-2.2 v -6.1 h 1.4 z"
   id="path1706" />
			<path
   class="st0"
   d="m 106.2,39.7 h -1.8 l -2.1,-4.8 c -0.5,-1.2 -0.8,-2 -1.2,-3.1 H 101 c 0.1,1.1 0.1,2.2 0.1,3.4 v 4.5 h -1.4 v -9.3 h 2.2 l 1.8,4.1 c 0.5,1.2 0.8,2.1 1.1,3.2 h 0.2 c -0.1,-1.1 -0.1,-2.2 -0.1,-3.4 v -3.9 h 1.4 v 9.3 z"
   id="path1708" />
			<path
   class="st0"
   d="m 109.7,39.7 h -1.5 v -9.3 h 1.5 z"
   id="path1710" />
			<path
   class="st0"
   d="m 115.3,39.7 h -1.8 l -2.6,-9.3 h 1.6 l 1.1,4.4 c 0.3,1.2 0.5,2.3 0.8,3.4 h 0.2 c 0.2,-1.1 0.5,-2.2 0.8,-3.4 l 1.1,-4.4 h 1.5 z"
   id="path1712" />
			<path
   class="st0"
   d="m 124.7,31.7 h -4.1 v 2.5 h 3.1 v 1.3 h -3.1 v 3 h 4.2 v 1.3 H 119 v -9.3 h 5.6 v 1.2 z"
   id="path1714" />
			<path
   class="st0"
   d="m 129.1,30.4 c 2.1,0 3,0.9 3,2.5 0,1.1 -0.6,2 -1.7,2.4 l 2,4.4 h -1.6 l -1.7,-4.2 c -0.1,0 -0.2,0 -0.4,0 h -1.2 v 4.2 H 126 v -9.3 z m -1.6,3.9 h 1.5 c 1.2,0 1.7,-0.5 1.7,-1.4 0,-0.8 -0.4,-1.3 -1.6,-1.3 h -1.5 v 2.7 z"
   id="path1716" />
			<path
   class="st0"
   d="m 137.7,33 c -0.2,-1 -0.7,-1.5 -1.5,-1.5 -0.9,0 -1.4,0.5 -1.4,1.2 0,0.8 0.3,1.2 1.6,1.6 l 0.5,0.1 c 1.9,0.6 2.5,1.4 2.5,2.7 0,1.6 -1,2.8 -3.1,2.8 -1.7,0 -2.8,-0.8 -3.2,-2.4 l 1.4,-0.5 c 0.2,1.1 0.9,1.7 1.8,1.7 1.1,0 1.6,-0.5 1.6,-1.3 0,-0.8 -0.3,-1.2 -1.7,-1.6 l -0.4,-0.1 c -1.8,-0.6 -2.4,-1.4 -2.4,-2.8 0,-1.4 1,-2.5 2.8,-2.5 1.5,0 2.5,0.8 3,2.3 z"
   id="path1718" />
			<path
   class="st0"
   d="m 142.2,39.7 h -1.5 v -9.3 h 1.5 z"
   id="path1720" />
			<path
   class="st0"
   d="m 150,31.7 h -2.5 v 8 H 146 v -8 h -2.5 v -1.3 h 6.5 z"
   id="path1722" />
			<path
   class="st0"
   d="m 154.8,35.8 v 3.8 h -1.5 v -3.8 l -2.7,-5.4 h 1.6 l 1.7,3.5 c 0.1,0.2 0.2,0.3 0.3,0.6 0.1,-0.2 0.2,-0.3 0.3,-0.6 l 1.6,-3.4 h 1.5 z"
   id="path1724" />
		</g>
	</g>
</g>
</svg>
