<?xml version="1.0" encoding="UTF-8" standalone="no"?>
<svg
   width="313.91281"
   height="85.333336"
   viewBox="0 0 313.91281 85.333336"
   version="1.1"
   id="svg170"
   sodipodi:docname="parity-with-text.svg"
   inkscape:version="1.1.1 (c3084ef, 2021-09-22)"
   xmlns:inkscape="http://www.inkscape.org/namespaces/inkscape"
   xmlns:sodipodi="http://sodipodi.sourceforge.net/DTD/sodipodi-0.dtd"
   xmlns="http://www.w3.org/2000/svg"
   xmlns:svg="http://www.w3.org/2000/svg"
   xmlns:rdf="http://www.w3.org/1999/02/22-rdf-syntax-ns#"
   xmlns:cc="http://creativecommons.org/ns#"
   xmlns:dc="http://purl.org/dc/elements/1.1/">
  <defs
     id="defs174" />
  <sodipodi:namedview
     id="namedview172"
     pagecolor="#ffffff"
     bordercolor="#666666"
     borderopacity="1.0"
     inkscape:pageshadow="2"
     inkscape:pageopacity="0.0"
     inkscape:pagecheckerboard="0"
     showgrid="false"
     fit-margin-left="15"
     fit-margin-right="16"
     fit-margin-top="0"
     fit-margin-bottom="0"
     inkscape:zoom="2.6148492"
     inkscape:cx="-71.705856"
     inkscape:cy="41.111358"
     inkscape:window-width="1296"
     inkscape:window-height="847"
     inkscape:window-x="0"
     inkscape:window-y="25"
     inkscape:window-maximized="0"
     inkscape:current-layer="svg170" />
  <title
     id="title166">Parity Logo (Purple)</title>
  <g
     id="Parity-Ideation"
     stroke="none"
     stroke-width="1"
     fill="none"
     fill-rule="evenodd"
     transform="matrix(0.65641026,0,0,0.65641026,15,0)">
    <path
       d="m 55,126 c 1.104569,0 2,0.89543 2,2 0,1.10457 -0.895431,2 -2,2 -1.104569,0 -2,-0.89543 -2,-2 0,-1.10457 0.895431,-2 2,-2 z M 394.3283,52.254792 405.08772,82.786513 415.84715,52.254792 H 431 L 412.26067,98.591168 C 407.32927,111.34265 402.3082,117 391.19013,117 c -3.98696,0 -8.14149,-1.42651 -10.5198,-2.98168 l -0.23962,-0.16129 2.15189,-11.4943 c 2.24154,1.16739 5.29005,2.42458 8.33855,2.42458 3.66402,0 5.2909,-1.78522 6.69755,-4.942111 l 0.11675,-0.26624 0.80696,-1.885782 -20.80155,-45.438385 z M 37,108 c 1.104569,0 2,0.89543 2,2 0,1.10457 -0.895431,2 -2,2 -1.104569,0 -2,-0.89543 -2,-2 0,-1.10457 0.895431,-2 2,-2 z m 18,0 c 1.104569,0 2,0.89543 2,2 0,1.10457 -0.895431,2 -2,2 -1.104569,0 -2,-0.89543 -2,-2 0,-1.10457 0.895431,-2 2,-2 z m 18,0 c 1.104569,0 2,0.89543 2,2 0,1.10457 -0.895431,2 -2,2 -1.104569,0 -2,-0.89543 -2,-2 0,-1.10457 0.895431,-2 2,-2 z M 37,87 c 3.313708,0 6,2.686291 6,6 0,3.313709 -2.686292,6 -6,6 -3.313708,0 -6,-2.686291 -6,-6 0,-3.313709 2.686292,-6 6,-6 z M 225.10012,52.041362 c 18.37521,0 28.83264,5.91178 28.98203,22.599461 v 0 22.225296 h -12.8477 v -5.462783 c -7.76838,3.816465 -16.35842,6.21111 -26.74116,6.21111 -12.32483,0 -20.01851,-3.96613 -20.01851,-13.918873 0,-11.449395 12.54892,-15.041362 26.51706,-15.041362 7.54429,0 14.49102,1.197322 20.24261,3.142971 0,-8.381257 -10.75622,-9.054751 -16.7319,-9.054751 -5.75159,0 -12.77301,0.523829 -21.81122,3.217804 v 0 l -4.55645,-9.354081 c 8.96351,-2.918473 17.77764,-4.564792 26.96524,-4.564792 z M 353.80126,39.993306 v 12.796383 h 20.84017 v 10.701069 h -20.84017 v 12.72155 c 0,8.418673 1.60035,10.642859 9.10822,10.699932 l 0.30347,0.0011 1.05916,-5.62e-4 c 3.27978,-0.0054 5.51357,-0.06296 9.85844,-0.674692 l 0.51088,-0.07307 v 10.326905 c -4.25767,0.748327 -9.1129,1.12249 -15.01389,1.12249 -11.22328,0 -18.50517,-4.167968 -18.67109,-13.660412 l -0.003,-0.333293 V 63.490758 H 329.37568 V 52.789689 h 11.57787 V 43.660106 Z M 174.08278,37.059391 c 11.87666,0 20.01852,7.558098 20.01852,19.231991 0,11.673893 -8.14186,19.157158 -20.01852,19.157158 v 0 H 146.44527 V 96.866119 H 133 V 37.059391 Z m 121.00745,14.981971 c 5.22872,0 8.88882,0.748327 11.87666,1.496653 v 0 10.701069 c -4.18297,-1.047657 -7.54429,-1.496653 -11.27909,-1.496653 -7.17081,0 -15.38737,1.646319 -23.15574,7.707763 v 0 26.415925 h -12.77301 v -44.07643 h 12.77301 v 7.483265 c 6.57324,-5.911779 14.34162,-8.231592 22.55817,-8.231592 z m 29.87839,0.748327 v 44.07643 H 312.19561 V 52.789689 Z M 91,91 c 1.104569,0 2,0.895431 2,2 0,1.104569 -0.895431,2 -2,2 -1.104569,0 -2,-0.895431 -2,-2 0,-1.104569 0.895431,-2 2,-2 z m -72,0 c 1.104569,0 2,0.895431 2,2 0,1.104569 -0.895431,2 -2,2 -1.10457,0 -2,-0.895431 -2,-2 0,-1.104569 0.89543,-2 2,-2 z m 36,0 c 1.104569,0 2,0.895431 2,2 0,1.104569 -0.895431,2 -2,2 -1.104569,0 -2,-0.895431 -2,-2 0,-1.104569 0.895431,-2 2,-2 z m 18,0 c 1.104569,0 2,0.895431 2,2 0,1.104569 -0.895431,2 -2,2 -1.104569,0 -2,-0.895431 -2,-2 0,-1.104569 0.895431,-2 2,-2 z M 222.56046,77.035467 c -9.56109,0 -15.31268,1.646319 -15.31268,6.136278 0,4.639624 4.25767,5.013787 10.90561,5.013787 6.94673,0 16.50781,-2.170147 23.08106,-5.013787 v 0 -3.442302 c -4.48176,-1.421821 -10.53213,-2.693976 -18.67399,-2.693976 z M 37,69 c 3.313708,0 6,2.686291 6,6 0,3.313709 -2.686292,6 -6,6 -3.313708,0 -6,-2.686291 -6,-6 0,-3.313709 2.686292,-6 6,-6 z m 18,0 c 3.313708,0 6,2.686291 6,6 0,3.313709 -2.686292,6 -6,6 -3.313708,0 -6,-2.686291 -6,-6 0,-3.313709 2.686292,-6 6,-6 z m 18,0 c 3.313709,0 6,2.686291 6,6 0,3.313709 -2.686291,6 -6,6 -3.313709,0 -6,-2.686291 -6,-6 0,-3.313709 2.686291,-6 6,-6 z m 18,4 c 1.104569,0 2,0.895431 2,2 0,1.104569 -0.895431,2 -2,2 -1.104569,0 -2,-0.895431 -2,-2 0,-1.104569 0.895431,-2 2,-2 z m 18,0 c 1.10457,0 2,0.895431 2,2 0,1.104569 -0.89543,2 -2,2 -1.10457,0 -2,-0.895431 -2,-2 0,-1.104569 0.89543,-2 2,-2 z m -90,0 c 1.104569,0 2,0.895431 2,2 0,1.104569 -0.895431,2 -2,2 -1.10457,0 -2,-0.895431 -2,-2 0,-1.104569 0.89543,-2 2,-2 z M 2,73 c 1.1045695,0 2,0.895431 2,2 0,1.104569 -0.8954305,2 -2,2 C 0.8954305,77 0,76.104569 0,75 0,73.895431 0.8954305,73 2,73 Z M 170.78834,48.359482 146.44527,48.359121 V 64.14881 l 24.34307,-3.58e-4 c 4.03339,-0.0097 9.86768,-0.280264 9.86768,-7.85707 0,-7.648966 -5.83429,-7.922143 -9.86768,-7.9319 z M 37,51 c 3.313708,0 6,2.686292 6,6 0,3.313708 -2.686292,6 -6,6 -3.313708,0 -6,-2.686292 -6,-6 0,-3.313708 2.686292,-6 6,-6 z m 36,0 c 3.313709,0 6,2.686292 6,6 0,3.313708 -2.686291,6 -6,6 -3.313709,0 -6,-2.686292 -6,-6 0,-3.313708 2.686291,-6 6,-6 z m 18,4 c 1.104569,0 2,0.895431 2,2 0,1.104569 -0.895431,2 -2,2 -1.104569,0 -2,-0.895431 -2,-2 0,-1.104569 0.895431,-2 2,-2 z m 18,0 c 1.10457,0 2,0.895431 2,2 0,1.104569 -0.89543,2 -2,2 -1.10457,0 -2,-0.895431 -2,-2 0,-1.104569 0.89543,-2 2,-2 z m -54,0 c 1.104569,0 2,0.895431 2,2 0,1.104569 -0.895431,2 -2,2 -1.104569,0 -2,-0.895431 -2,-2 0,-1.104569 0.895431,-2 2,-2 z m -36,0 c 1.104569,0 2,0.895431 2,2 0,1.104569 -0.895431,2 -2,2 -1.10457,0 -2,-0.895431 -2,-2 0,-1.104569 0.89543,-2 2,-2 z M 2,55 c 1.1045695,0 2,0.895431 2,2 0,1.104569 -0.8954305,2 -2,2 C 0.8954305,59 0,58.104569 0,57 0,55.895431 0.8954305,55 2,55 Z M 324.96862,37 V 48.150065 H 312.19561 V 37 Z M 55,33 c 3.313708,0 6,2.686292 6,6 0,3.313708 -2.686292,6 -6,6 -3.313708,0 -6,-2.686292 -6,-6 0,-3.313708 2.686292,-6 6,-6 z m 18,0 c 3.313709,0 6,2.686292 6,6 0,3.313708 -2.686291,6 -6,6 -3.313709,0 -6,-2.686292 -6,-6 0,-3.313708 2.686291,-6 6,-6 z m -36,0 c 3.313708,0 6,2.686292 6,6 0,3.313708 -2.686292,6 -6,6 -3.313708,0 -6,-2.686292 -6,-6 0,-3.313708 2.686292,-6 6,-6 z m 54,4 c 1.104569,0 2,0.895431 2,2 0,1.104569 -0.895431,2 -2,2 -1.104569,0 -2,-0.895431 -2,-2 0,-1.104569 0.895431,-2 2,-2 z m -72,0 c 1.104569,0 2,0.895431 2,2 0,1.104569 -0.895431,2 -2,2 -1.10457,0 -2,-0.895431 -2,-2 0,-1.104569 0.89543,-2 2,-2 z M 37,18 c 1.104569,0 2,0.89543 2,2 0,1.104569 -0.895431,2 -2,2 -1.104569,0 -2,-0.895431 -2,-2 0,-1.10457 0.895431,-2 2,-2 z m 18,0 c 1.104569,0 2,0.89543 2,2 0,1.104569 -0.895431,2 -2,2 -1.104569,0 -2,-0.895431 -2,-2 0,-1.10457 0.895431,-2 2,-2 z m 18,0 c 1.104569,0 2,0.89543 2,2 0,1.104569 -0.895431,2 -2,2 -1.104569,0 -2,-0.895431 -2,-2 0,-1.10457 0.895431,-2 2,-2 z M 55,0 c 1.104569,0 2,0.8954305 2,2 0,1.1045695 -0.895431,2 -2,2 -1.104569,0 -2,-0.8954305 -2,-2 0,-1.1045695 0.895431,-2 2,-2 z"
       id="Parity-Logo-(Purple)"
       fill="#7500ff"
       fill-rule="nonzero" />
  </g>
  <metadata
     id="metadata176">
    <rdf:RDF>
      <cc:Work
         rdf:about="">
        <dc:title>Parity Logo (Purple)</dc:title>
      </cc:Work>
    </rdf:RDF>
  </metadata>
</svg>
