<?xml version="1.0" encoding="UTF-8" standalone="no"?>
<svg
   width="329.64325"
   height="85.34639"
   version="1.1"
   id="svg263"
   sodipodi:docname="princeton-with-text.svg"
   inkscape:version="1.1.1 (c3084ef, 2021-09-22)"
   xmlns:inkscape="http://www.inkscape.org/namespaces/inkscape"
   xmlns:sodipodi="http://sodipodi.sourceforge.net/DTD/sodipodi-0.dtd"
   xmlns="http://www.w3.org/2000/svg"
   xmlns:svg="http://www.w3.org/2000/svg">
  <defs
     id="defs267" />
  <sodipodi:namedview
     id="namedview265"
     pagecolor="#ffffff"
     bordercolor="#666666"
     borderopacity="1.0"
     inkscape:pageshadow="2"
     inkscape:pageopacity="0.0"
     inkscape:pagecheckerboard="0"
     showgrid="false"
     fit-margin-top="0"
     fit-margin-left="16"
     fit-margin-right="16"
     fit-margin-bottom="0"
     inkscape:zoom="3.7566667"
     inkscape:cx="165.17303"
     inkscape:cy="42.724046"
     inkscape:window-width="1296"
     inkscape:window-height="847"
     inkscape:window-x="0"
     inkscape:window-y="25"
     inkscape:window-maximized="0"
     inkscape:current-layer="svg263" />
  <linearGradient
     id="SG"
     gradientUnits="userSpaceOnUse"
     x1="33.275002"
     y1="85.082603"
     x2="33.275002"
     y2="1.4952"
     gradientTransform="matrix(0.99420033,0,0,0.99420033,16.009413,-0.08752658)">
    <stop
       offset="0.5734"
       style="stop-color:#E87722"
       id="stop248" />
    <stop
       offset="0.5739"
       style="stop-color:#000000"
       id="stop250" />
    <stop
       offset="1"
       style="stop-color:#000000"
       id="stop252" />
  </linearGradient>
  <path
     fill="url(#SG)"
     stroke="#ffffff"
     stroke-width="1.374"
     d="M 49.076516,84.499037 C 33.457628,73.19498 22.302701,55.836242 18.3259,36.996145 16.705353,29.281151 16.297731,21.496562 17.053323,13.652322 c 2.803645,0.884838 5.55758,1.401822 8.689311,1.401822 9.713337,0 18.591546,-5.1996677 23.353766,-13.6503701 4.672741,8.3612244 13.531066,13.6503701 23.333881,13.6503701 3.201325,0 5.895608,-0.526926 8.699253,-1.421706 0.745651,7.874066 0.308202,15.608945 -1.302402,23.353765 -4.016569,18.800329 -15.111845,36.248545 -30.750616,47.512834 z"
     id="path255"
     style="fill:url(#SG)" />
  <path
     d="m 70.879329,58.928205 c -2.048053,3.638773 -4.36454,7.088648 -6.929576,10.329741 L 49.066574,54.782389 34.233105,69.218178 C 31.648184,65.947259 29.321755,62.487442 27.293586,58.868553 L 49.066574,37.96052 Z M 313.16595,15.988692 c 0,-0.119304 -0.0199,-0.328086 -0.0895,-0.417564 h -0.686 c -1.4913,0 -2.43579,0.05965 -5.13008,0.05965 -0.9246,0 -2.2966,-0.05965 -2.62468,-0.05965 h -0.77548 c -0.0895,0.05965 -0.1193,0.387738 -0.1193,0.507043 0,0.14913 0.0298,0.387738 0.14913,0.507042 0.47721,0.14913 2.2966,0.34797 3.07207,0.864954 0.53687,0.626346 0.77548,1.879039 0.86496,3.042253 0.0298,0.44739 0.0596,0.89478 0.0596,2.107705 v 6.223694 c 0,0.715824 -0.0298,0.954432 -0.0596,1.282518 -0.50704,-0.566694 -1.22287,-1.64043 -2.41591,-2.982601 l -9.95194,-11.025681 c -0.0895,-0.119305 -0.26844,-0.268435 -0.44739,-0.387739 -0.23861,0 -0.65618,-0.02983 -0.89478,-0.02983 -1.90887,0 -5.35874,-0.08948 -5.86579,-0.08948 -0.0597,0.119304 -0.1193,0.29826 -0.1193,0.417564 0,0.05965 0.0596,0.477217 0.0895,0.566695 0.44739,0.119304 1.43165,0.268434 2.23695,1.133388 0.47722,0.536868 1.31234,1.282518 1.57084,1.879039 0.0895,0.208782 0.1193,0.536868 0.1193,0.954432 0,1.550953 -0.0895,3.728251 -0.0895,5.80613 v 6.05468 c 0,0.984258 -0.0895,1.749793 -0.17895,2.266777 -0.61641,0.656172 -1.58078,1.133388 -3.12179,1.521126 -0.0597,0.14913 -0.11931,0.387738 -0.11931,0.536868 0,0.08948 0.0199,0.387739 0.0795,0.417565 h 0.56669 c 0.59652,0 1.96852,-0.08948 2.85336,-0.08948 1.31234,0 2.20712,0.08948 3.42999,0.08948 h 1.77962 c 0.1193,-0.02983 0.14913,-0.387739 0.14913,-0.507043 0,-0.119304 -0.0398,-0.357912 -0.0895,-0.477216 -1.03397,-0.268434 -2.56504,-0.507042 -3.57912,-1.849212 -0.20878,-0.447391 -0.38774,-2.654515 -0.38774,-3.698426 0,-0.954432 -0.0298,-2.256834 -0.0298,-4.016569 0,-2.356255 0.0298,-4.404307 0.0597,-5.448218 0.17895,0.208782 0.38773,0.477216 0.53686,0.64623 l 13.75974,15.469758 c 0.14913,0.14913 0.68599,0.178956 0.83513,0.178956 0.14913,0 0.2386,0 0.35791,-0.05965 0.0596,-0.14913 0.26843,-0.626347 0.26843,-1.342171 0,-0.864954 -0.0298,-1.759734 -0.0298,-2.207125 V 21.417026 c 0,-3.728251 1.75973,-4.762219 3.80778,-4.851697 0.13919,-0.159072 0.15907,-0.417564 0.15907,-0.576637 z m -34.14083,9.47473 c 0,4.493785 -1.2527,8.460644 -2.95278,9.862467 -0.86495,0.715824 -1.93869,1.073736 -3.16156,1.073736 -1.66031,0 -3.12179,-0.656172 -3.95691,-1.998342 -1.13339,-1.729909 -1.75974,-4.941176 -1.75974,-7.744821 0,-4.145815 1.0638,-7.386908 2.9826,-8.967687 1.01409,-0.835128 2.058,-1.163214 3.10191,-1.163214 1.6106,0 3.16155,0.775476 4.05633,2.057994 1.12345,1.550953 1.69015,3.787904 1.69015,6.879867 z m 5.38856,0.566694 c 0,-4.1657 -1.84921,-7.357083 -5.29909,-9.265947 -1.84921,-1.014085 -3.68848,-1.521127 -5.657,-1.521127 -4.34465,0 -8.28169,2.594863 -10.04142,5.547638 -1.13339,1.849213 -1.71997,3.867439 -1.71997,6.014912 0,3.429991 1.67026,6.790388 4.25518,8.729079 1.96852,1.431648 4.19553,2.137531 6.80033,2.137531 1.58078,0 3.06214,-0.29826 4.52361,-0.864955 1.64043,-0.626346 3.04226,-1.610604 4.14582,-2.833471 1.92875,-2.097762 2.99254,-4.811929 2.99254,-7.94366 z m -26.18724,-3.748135 v -6.084506 c 0,-0.447391 -0.17895,-0.566695 -0.62634,-0.566695 -0.89478,0 -5.59735,0.119304 -10.36951,0.119304 -3.69843,0 -6.77051,-0.05965 -8.43082,-0.05965 h -2.20712 c -0.3778,0 -0.50705,0.08948 -0.50705,0.507043 v 5.686825 c 0.11931,0.08948 0.32809,0.119304 0.47722,0.119304 0.1193,0 0.53687,0 0.65617,-0.05965 1.34217,-2.704224 2.59486,-4.165699 4.17564,-4.971001 0.89478,-0.08948 2.64458,-0.119304 3.12179,-0.119304 0.0298,0.328086 0.0597,1.371996 0.0895,2.624689 0.0298,2.147472 0.0298,3.062137 0.0298,8.132558 0,4.384424 -0.0298,6.342998 -0.0895,6.820215 -0.11931,0.835128 0.0298,1.461474 -3.53936,1.610604 -0.0895,0.208782 -0.0895,0.44739 -0.0895,0.685998 0,0.119304 0,0.357913 0.0298,0.477217 h 1.16322 c 1.10356,0 3.69842,-0.119304 4.77216,-0.119304 0.86495,0 3.63877,0.08948 5.44822,0.08948 h 0.83512 c 0.0895,-0.149131 0.0895,-0.477217 0.0895,-0.626347 0,-0.178956 -0.0298,-0.387738 -0.1193,-0.536868 -0.32809,0 -2.23695,0.05965 -3.07208,-0.566694 -0.0895,-0.328086 -0.26843,-1.19304 -0.26843,-2.236951 -0.0298,-3.211267 -0.0597,-4.434133 -0.0597,-6.581606 0,-2.773819 0.0298,-4.652858 0.0298,-9.802815 0.41756,0 1.372,-0.02983 2.26678,0 1.84921,0.507042 2.74399,1.19304 3.54929,2.266777 0.50704,0.685998 1.04391,1.849212 1.58078,3.251035 0.17896,0.05965 0.32809,0.05965 0.50704,0.05965 0.11931,0 0.50704,-0.05965 0.55675,-0.119304 z m -25.67025,9.683511 c 0,-0.417564 0,-0.59652 -0.0298,-0.864954 -0.14913,-0.08948 -0.20879,-0.08948 -0.44739,-0.08948 -0.20879,0 -0.44739,0 -0.65618,0.05965 -1.00414,2.296602 -2.46561,4.086163 -3.27092,4.553437 -0.44739,0.268434 -1.13338,0.328086 -2.23695,0.328086 h -2.43579 c -0.95443,0 -1.70008,-0.08948 -1.96851,-0.14913 -0.44739,-0.08948 -0.92461,-0.805302 -1.13339,-1.282518 -0.20878,-0.507043 -0.32809,-0.507043 -0.32809,-1.879039 V 26.11959 h 1.10356 c 0.29826,0 1.01409,0.05965 1.81939,0.417564 0.74565,0.328086 1.04391,0.775476 1.34217,1.252692 0.26844,0.417565 0.44739,2.057995 0.50704,2.475559 0.14913,0.08948 0.53687,0.119304 0.77548,0.119304 0.23861,0 0.38774,-0.02983 0.59652,-0.14913 0,-0.805302 -0.17896,-2.982601 -0.17896,-4.175641 0,-1.491301 0.20879,-3.539353 0.29826,-4.61309 -0.1193,-0.05965 -0.29826,-0.119304 -0.59652,-0.119304 -0.20878,0 -0.59652,0 -0.77547,0.08948 -0.0895,0.417564 -0.41757,1.670257 -0.47722,1.759735 -0.44739,0.74565 -1.22287,1.312344 -2.01823,1.550952 -0.53686,0.14913 -1.31234,0.238608 -1.7299,0.238608 h -0.62635 v -2.763876 c 0,-2.863297 0.0597,-3.787904 0.0895,-4.324772 0.0298,-0.34797 0.0895,-0.74565 0.1193,-1.004142 0.26844,-0.02983 0.41757,-0.05965 1.78956,-0.05965 1.71997,0 2.53521,0.02983 2.79371,0.02983 0.83512,0.05965 1.46147,0.238608 1.90886,0.59652 1.13339,0.864954 1.99834,2.236951 2.85335,3.698425 0.17896,0.05965 0.47722,0.05965 0.62635,0.05965 0.17896,0 0.20878,-0.05965 0.44739,-0.178956 0,-1.819386 -0.1193,-4.175641 -0.17895,-4.911349 -0.0298,-0.298261 -0.0895,-0.387739 -0.686,-0.387739 -0.23861,0 -1.372,-0.05965 -2.56504,-0.05965 -1.70008,0 -2.38608,0.02983 -4.98094,0.02983 -1.40183,0 -4.28501,0.02983 -5.50787,0.02983 -1.77962,0 -3.31069,-0.05965 -4.07622,-0.05965 h -1.01409 c -0.0895,0.119304 -0.14913,0.357913 -0.14913,0.477217 0,0.14913 0.0597,0.477216 0.14913,0.59652 0.35791,0.119304 1.75974,0.08948 2.1773,0.328086 0.41756,0.357912 0.8053,0.507042 1.07374,1.93869 0.0597,0.626347 0.0895,2.356255 0.0895,3.728252 v 6.134216 c 0,1.252692 -0.0298,3.072079 -0.0597,3.807787 -0.0597,1.163214 -0.47721,2.565037 -0.64623,2.833471 -0.26843,0.208782 -1.4913,0.387738 -2.68434,0.44739 -0.0895,0.178956 -0.14913,0.477216 -0.14913,0.656172 0,0.178956 0.0597,0.387738 0.14913,0.536869 h 0.98426 c 0.95443,0 4.4739,-0.08948 5.2792,-0.08948 0.74565,0 2.1773,0.05965 3.89727,0.05965 0.95443,0 3.75808,0.178956 9.77299,0.178956 0.23861,0 0.50704,0.02983 0.8053,-0.05965 0.0895,-0.14913 0.0895,-0.208783 0.1193,-0.477217 0.0398,-0.626346 0.0398,-2.38608 0.0398,-4.792045 z m -25.20298,1.033968 c -0.0895,-0.268434 -0.32808,-0.715824 -1.01408,-0.715824 -0.0597,0 -0.14913,0.02983 -0.20878,0.02983 -1.78956,2.535211 -3.75808,3.479701 -5.98509,3.479701 -3.1019,0 -5.29909,-2.087821 -6.01491,-3.937033 -0.38774,-0.984259 -0.92461,-3.131731 -0.92461,-5.428334 0,-2.177299 0.32809,-3.937033 0.89478,-5.20961 1.31235,-3.449875 3.22121,-4.523611 5.5377,-4.523611 1.93869,0 3.53935,1.103562 4.76222,2.674399 0.50704,0.685998 1.04391,2.028168 1.52112,3.608947 0.11931,0.01988 0.38774,0.08948 0.65618,0.08948 0.17895,0 0.59652,-0.14913 0.71582,-0.268434 -0.0298,-0.328086 -0.32808,-2.624689 -0.32808,-3.330571 0,-0.894781 0.2386,-2.356255 0.2386,-2.922949 -0.17895,-0.178956 -0.77547,-0.29826 -1.16321,-0.328086 -0.44739,0.328086 -0.59652,0.705882 -1.01409,1.222866 -1.67025,-1.19304 -3.2212,-2.117647 -6.61143,-2.117647 -3.13173,0 -5.60729,1.073737 -7.47638,2.952775 -2.058,2.018227 -3.19139,4.821872 -3.19139,8.400993 0,3.807787 1.61061,6.939518 4.20547,8.908035 1.64043,1.19304 4.05634,1.998343 6.93952,1.998343 3.63877,0 6.28334,-1.371997 7.62552,-3.181441 0.53686,-0.715825 0.59652,-0.894781 0.83512,-1.401823 z M 184.15852,15.988692 c 0,-0.119304 -0.0298,-0.328086 -0.0895,-0.417564 h -0.686 c -1.4913,0 -2.43579,0.05965 -5.12013,0.05965 -0.9246,0 -2.2966,-0.05965 -2.62469,-0.05965 h -0.77547 c -0.0895,0.05965 -0.11931,0.387738 -0.11931,0.507043 0,0.14913 0.0298,0.387738 0.14913,0.507042 0.47722,0.14913 2.28666,0.34797 3.07208,0.864954 0.53687,0.626346 0.77548,1.879039 0.86496,3.042253 0.0298,0.44739 0.0597,0.89478 0.0597,2.107705 v 6.223694 c 0,0.715824 -0.0298,0.954432 -0.0597,1.282518 -0.50705,-0.566694 -1.22287,-1.64043 -2.41591,-2.982601 l -9.942,-11.025681 c -0.0895,-0.119305 -0.26844,-0.268435 -0.44739,-0.387739 -0.23861,0 -0.65618,-0.02983 -0.89478,-0.02983 -1.90887,0 -5.36869,-0.08948 -5.86579,-0.08948 -0.0597,0.119304 -0.1193,0.29826 -0.1193,0.417564 0,0.05965 0.0597,0.477217 0.0895,0.566695 0.44739,0.119304 1.43165,0.268434 2.23695,1.133388 0.47721,0.536868 1.31234,1.282518 1.58078,1.879039 0.0895,0.208782 0.1193,0.536868 0.1193,0.954432 0,1.550953 -0.0895,3.728251 -0.0895,5.80613 v 6.05468 c 0,0.984258 -0.0895,1.749793 -0.17895,2.266777 -0.62635,0.656172 -1.58078,1.133388 -3.13173,1.521126 -0.0597,0.14913 -0.11931,0.387738 -0.11931,0.536868 0,0.08948 0.0298,0.387739 0.0895,0.417565 h 0.56669 c 0.59652,0 1.96852,-0.08948 2.85336,-0.08948 1.31234,0 2.20712,0.08948 3.42005,0.08948 h 1.77962 c 0.1193,-0.02983 0.14913,-0.387739 0.14913,-0.507043 0,-0.119304 -0.0298,-0.357912 -0.0895,-0.477216 -1.03397,-0.268434 -2.5551,-0.507042 -3.56918,-1.849212 -0.20878,-0.447391 -0.38774,-2.654515 -0.38774,-3.698426 0,-0.954432 -0.0298,-2.256834 -0.0298,-4.016569 0,-2.356255 0.0298,-4.404307 0.0597,-5.448218 0.17895,0.208782 0.38774,0.477216 0.53687,0.64623 l 13.74979,15.469758 c 0.14913,0.14913 0.68599,0.178956 0.83512,0.178956 0.14913,0 0.23861,0 0.35792,-0.05965 0.0597,-0.14913 0.26843,-0.626347 0.26843,-1.342171 0,-0.864954 -0.0298,-1.759734 -0.0298,-2.207125 V 21.417026 c 0,-3.728251 1.75974,-4.762219 3.81773,-4.851697 0.0994,-0.159072 0.12925,-0.417564 0.12925,-0.576637 z m -29.44821,20.649541 c 0,-0.14913 -0.0298,-0.477216 -0.0895,-0.59652 -0.44739,-0.02983 -1.67026,-0.14913 -2.20713,-0.268434 -0.47721,-0.566694 -0.8053,-1.222866 -1.01408,-2.296603 -0.0298,-1.431648 -0.0597,-4.384423 -0.0597,-7.1483 v -7.327257 c 0,-0.805302 0.32808,-1.431648 0.53686,-1.610604 0.5667,-0.536868 1.70009,-0.656172 2.65452,-0.775476 0.0597,-0.119304 0.0895,-0.44739 0.0895,-0.566694 0,-0.178957 -0.0895,-0.417565 -0.14913,-0.477217 h -0.86496 c -1.25269,0 -4.1657,0.14913 -5.17978,0.14913 -0.62635,0 -3.53935,-0.08948 -4.8517,-0.119304 h -0.65617 c -0.0895,0.119304 -0.14913,0.238608 -0.14913,0.507043 0,0.119304 0.0199,0.417564 0.0597,0.566694 1.46148,0.119304 2.10771,0.268434 2.32643,0.417564 0.35791,0.268434 0.86495,0.924606 0.98426,2.535211 0.0298,0.566694 0.0497,1.78956 0.0895,4.533553 0.0298,1.491301 0.0597,3.569179 0.0597,5.299088 0,0.864954 -0.0597,2.803645 -0.0895,3.837613 -0.0497,0.715824 -0.20878,1.401823 -0.41756,1.789561 -0.35792,0.29826 -0.71583,0.835128 -2.89313,0.984258 -0.0597,0.119304 -0.0895,0.507042 -0.0895,0.626346 0,0.238608 0.0597,0.347971 0.0597,0.507043 h 0.50704 c 1.19304,0 4.17564,-0.14913 5.71665,-0.14913 0.44739,0 3.53936,0.08948 4.52361,0.08948 h 0.98426 c 0.0795,-0.149131 0.11931,-0.387739 0.11931,-0.507043 z M 130.80973,21.08894 c 0,1.849213 -1.25269,3.956918 -2.70423,4.31483 -0.59652,0.14913 -1.34217,0.238608 -2.44573,0.238608 -0.29826,0 -0.74565,0 -1.10356,-0.05965 l -0.0298,-2.535211 v -5.478044 c 0,-0.357912 0.0895,-0.566694 0.17896,-0.656172 0.0895,-0.08948 0.62635,-0.178956 1.25269,-0.178956 2.32643,0 3.34052,0.208782 4.1657,1.610604 0.47722,0.805303 0.686,1.729909 0.686,2.743993 z m 8.64954,15.579119 c 0,-0.14913 -0.0597,-0.507042 -0.14913,-0.626346 -0.29826,0 -1.52112,-0.05965 -1.96851,-0.387738 -0.14913,-0.178956 -0.38774,-0.536868 -0.50705,-0.74565 -0.38773,-1.362055 -0.83512,-2.286661 -1.28251,-3.420049 -0.62635,-1.491301 -1.49131,-2.893123 -2.20713,-3.549296 -0.26843,-0.238608 -1.19304,-0.626346 -2.23695,-0.984258 -0.47722,-0.178956 -0.86495,-0.328086 -1.22287,-0.477216 0.44739,-0.08948 0.65618,-0.119304 1.22287,-0.178956 2.20712,-0.268434 2.71417,-0.656172 3.28086,-1.103562 1.19304,-0.894781 1.84921,-2.266777 1.84921,-3.877382 0,-2.415907 -1.55095,-4.732393 -3.71831,-5.418392 -0.71582,-0.208782 -1.99834,-0.328086 -3.57912,-0.328086 -2.23695,0 -5.36868,0.208782 -6.85004,0.208782 -0.44739,0 -3.04225,-0.05965 -4.08616,-0.05965 -0.44739,0 -1.58078,-0.05965 -1.75974,-0.05965 -0.0895,0.208782 -0.14913,0.447391 -0.14913,0.566695 0,0.119304 0.0298,0.417564 0.0597,0.536868 0.50704,0.05965 1.43165,0.178956 1.90886,0.268434 0.71583,0.536868 0.95443,0.954432 1.25269,1.610604 0.14913,0.954433 0.17896,3.390224 0.17896,7.595691 0,3.042253 0.0298,6.55178 -0.1193,7.685168 -0.0895,0.745651 -0.35792,1.630489 -1.22287,1.988401 -0.38774,0.05965 -1.10356,0.178956 -1.70008,0.208782 -0.0895,0.14913 -0.14913,0.44739 -0.14913,0.59652 0,0.08948 0.0597,0.328087 0.1193,0.477217 0.41757,0 4.98094,-0.08948 5.92544,-0.08948 1.90886,0 3.51946,0.08948 5.2096,0.08948 0.0597,-0.119304 0.11931,-0.328087 0.11931,-0.447391 0,-0.208782 -0.0596,-0.507042 -0.11931,-0.626346 -0.59652,-0.05965 -1.34217,-0.238608 -1.67025,-0.29826 -0.74565,-0.34797 -1.28252,-1.063794 -1.28252,-2.117647 l -0.0298,-6.879866 c 0.23861,-0.02983 0.53687,-0.02983 0.77548,-0.02983 0.38774,0 0.83513,0.05965 1.58078,0.477216 1.10356,0.626346 1.64043,1.083679 2.35625,2.177299 0.95444,1.4913 1.58078,4.225351 1.87904,6.40265 0.0895,0.626346 0.32809,1.163214 0.89478,1.222867 0.23861,0.02983 1.81939,0.08948 2.95278,0.08948 h 4.25517 c 0.12925,-0.109362 0.1889,-0.347971 0.1889,-0.497101 z M 107.10799,21.23807 c 0,1.521127 -0.53687,2.863297 -1.52113,3.728251 -0.62634,0.507043 -1.6106,0.805303 -3.1019,0.805303 -0.62635,0 -1.10356,-0.02983 -1.28252,-0.05965 -0.23861,-0.02983 -0.38774,-0.05965 -0.38774,-0.208782 l 0.0298,-8.729079 c 0.35791,-0.02983 0.86496,-0.14913 1.72991,-0.14913 2.02817,0 3.28086,0.507042 3.86744,1.759734 0.41756,0.795361 0.66611,1.809445 0.66611,2.853355 z m 5.32891,0.119304 c 0,-2.23695 -1.28252,-4.324771 -3.18144,-5.179783 -0.98426,-0.417565 -2.71416,-0.685999 -5.32891,-0.685999 -2.2966,0 -5.875726,0.178956 -7.446563,0.178956 -1.103562,0 -2.773819,-0.119304 -3.698425,-0.119304 -0.08948,0.14913 -0.14913,0.357912 -0.14913,0.477217 0,0.119304 0,0.44739 0.08948,0.59652 0.566694,0.178956 1.491301,0.328086 2.087821,0.477216 0.507042,0.44739 0.626346,0.835128 0.805302,1.700082 0.08948,1.033969 0.14913,2.356255 0.14913,4.61309 0,6.283346 -0.02983,9.594033 -0.119304,10.299915 -0.119304,0.894781 -0.715824,1.819387 -1.700082,2.117647 -0.447391,0.08948 -1.103563,0.238608 -1.719967,0.29826 -0.02983,0.14913 -0.05965,0.357912 -0.05965,0.626346 0,0.238608 0.02983,0.268434 0.08948,0.417565 0.954432,0 3.758077,-0.119304 4.831814,-0.119304 2.654514,0 5.368684,0.119304 6.462304,0.119304 h 0.74565 c 0.0895,-0.119304 0.0895,-0.328087 0.0895,-0.477217 0,-0.178956 0,-0.417564 -0.0596,-0.536868 -0.89478,-0.119304 -2.23695,-0.29826 -2.7937,-0.954432 -0.29826,-0.34797 -0.59652,-0.864954 -0.59652,-1.749793 l -0.0895,-6.55178 c 1.78956,0.119304 3.69842,0.178956 4.74233,0.178956 1.372,0 2.53521,-0.238608 3.44988,-0.536868 2.08782,-0.805302 3.40016,-2.903065 3.40016,-5.189726 z M 313.64317,49.22481 c 0,-0.178957 -0.1193,-0.238609 -0.17896,-0.357913 -1.22286,0 -2.82352,0.08948 -3.45981,0.08948 -1.52113,0 -3.3604,-0.119304 -4.1657,-0.119304 -0.0895,0.178956 -0.11931,0.208782 -0.11931,0.357913 0,0.14913 0.0298,0.268434 0.0597,0.357912 0.86495,0.178956 2.11764,0.387738 2.35625,0.805302 0.20878,0.377796 0.26843,0.685998 0.26843,1.153272 0,0.357912 -0.0298,0.715825 -0.17895,1.103563 -0.26844,0.735708 -0.83513,1.908864 -1.64043,3.539353 -1.372,2.763877 -2.23695,4.493785 -2.71417,5.179784 -0.77547,-1.312345 -2.49544,-4.76222 -2.91301,-5.657 l -1.67025,-3.638774 c -0.0596,-0.119304 -0.11931,-0.536868 -0.11931,-0.805302 0,-0.387738 0.0597,-0.656172 0.11931,-0.775476 0.26843,-0.536868 1.19304,-0.586578 2.44573,-0.74565 0.0596,-0.14913 0.0895,-0.328086 0.0895,-0.44739 0,-0.208783 -0.0895,-0.14913 -0.17896,-0.298261 h -0.53687 c -1.99834,0 -1.40182,0.08948 -4.83181,0.08948 -1.45153,0 -3.21127,-0.08948 -3.44987,-0.08948 -0.11931,0.208783 -0.17896,0.238609 -0.17896,0.447391 0,0.119304 0.0298,0.208782 0.1193,0.357912 1.9884,0.477216 2.58492,0.835128 2.79371,1.222866 l 5.20961,10.210438 c 0.50704,0.954432 0.8053,1.700082 0.95443,2.23695 0.20878,0.835129 0.23861,2.057995 0.23861,3.569179 0,1.282519 -0.44739,1.968517 -0.95444,2.296603 -0.20878,0.119304 -1.70008,0.328086 -2.38608,0.377796 -0.1193,0.208782 -0.14913,0.268434 -0.14913,0.417565 0,0.14913 0.0597,0.238608 0.0895,0.357912 1.52113,0 3.10191,-0.02983 3.99669,-0.02983 0.62634,0 1.58078,0.02983 3.34051,0.05965 1.01408,0.02983 1.78956,0.05965 2.32643,0.05965 0.0597,-0.119304 0.14913,-0.238608 0.14913,-0.387738 0,-0.139189 -0.0298,-0.238609 -0.11931,-0.377797 -0.95443,-0.119304 -2.28666,-0.29826 -2.59486,-0.59652 -0.47721,-0.507042 -0.71582,-0.735708 -0.77547,-1.908864 l -0.23861,-4.473902 c -0.0298,-0.328086 0.0895,-0.626346 0.1193,-0.705882 0.0895,-0.328086 0.20878,-0.59652 0.31815,-0.835128 l 4.5932,-9.086991 c 0.41757,-0.775477 1.31235,-1.640431 1.90887,-1.998343 0.41756,-0.268434 1.34217,-0.44739 1.93869,-0.59652 0.0696,-0.119304 0.1193,-0.238608 0.1193,-0.357912 z m -24.06959,6.134216 V 49.57278 c 0,-0.44739 -0.17896,-0.566695 -0.62635,-0.566695 -0.89478,0 -5.01077,0.119305 -9.77298,0.119305 -3.69843,0 -6.16405,-0.05965 -7.8343,-0.05965 h -2.20713 c -0.38774,0 -0.50704,0.08948 -0.50704,0.507042 v 5.388565 c 0.1193,0.08948 0.20878,0.119305 0.35791,0.119305 0.11931,0 0.23861,0 0.35791,-0.05965 1.16322,-2.594862 1.75974,-3.956917 3.75808,-4.971001 0.89478,-0.08948 4.01657,-0.119304 4.49379,-0.119304 0.0298,0.328086 0.0597,1.362054 0.0895,2.624689 0.0298,2.147472 0.0298,3.300745 0.0298,8.371166 0,4.374482 -0.0298,6.641259 -0.0895,7.108533 -0.1193,0.835128 0.0298,1.461474 -3.53935,1.610604 -0.0895,0.208782 -0.0895,0.268434 -0.0895,0.507043 0,0.119304 0,0.228666 0.0298,0.357912 h 1.16321 c 1.10356,0 2.56504,-0.119304 3.63878,-0.119304 0.86495,0 2.50538,0.08948 4.32477,0.08948 h 0.83512 c 0.0895,-0.14913 0.0895,-0.29826 0.0895,-0.447391 0,-0.178956 -0.0298,-0.268434 -0.1193,-0.427506 -0.32809,0 -2.23695,0.06959 -3.07208,-0.566694 -0.0895,-0.328086 -0.26843,-1.19304 -0.26843,-2.227009 -0.0199,-3.221209 -0.0597,-4.742335 -0.0597,-6.889808 0,-2.763877 0.0298,-4.881524 0.0298,-10.041423 0.41756,0 2.62469,-0.01988 3.51947,0 1.83927,0.507042 2.55509,1.19304 3.3604,2.266777 0.71582,0.954432 0.89478,1.819386 1.34217,3.251035 0.17895,0.05965 0.26843,0.05965 0.44739,0.05965 0.10936,0.01988 0.25849,-0.03977 0.31814,-0.09942 z M 264.81799,70.07319 c 0,-0.14913 -0.0298,-0.29826 -0.0895,-0.417564 -0.44739,-0.02983 -1.67025,-0.14913 -2.20712,-0.268434 -0.47722,-0.566694 -0.8053,-1.222866 -1.01408,-2.296602 -0.0298,-1.431649 -0.0597,-4.672742 -0.0597,-7.446561 v -7.565864 c 0,-0.805303 0.32809,-1.431649 0.53687,-1.610605 0.5667,-0.536868 1.70008,-0.656172 2.65452,-0.775476 0.0597,-0.119304 0.0895,-0.268434 0.0895,-0.377796 0,-0.178956 -0.0895,-0.298261 -0.14913,-0.357913 h -0.86495 c -1.25269,0 -3.04225,0.149131 -4.05634,0.149131 -0.62634,0 -2.40596,-0.08948 -3.71831,-0.119305 h -0.65617 c -0.0895,0.119305 -0.14913,0.119305 -0.14913,0.377797 0,0.119304 0.0298,0.238608 0.0597,0.387738 1.46148,0.119304 2.11765,0.268434 2.32643,0.417564 0.35791,0.268434 0.86496,0.924606 0.98426,2.535211 0.0298,0.566694 0.0497,2.08782 0.0895,4.821871 0.0298,1.491301 0.0597,3.519469 0.0597,5.239436 0,0.874896 -0.0597,3.101905 -0.0895,4.145815 -0.0497,0.715825 -0.20878,1.401823 -0.41756,1.789561 -0.35791,0.29826 -0.71583,0.835128 -2.89312,0.984258 -0.0597,0.119304 -0.0895,0.328086 -0.0895,0.447391 0,0.238608 0.0497,0.238608 0.0497,0.387738 h 0.50704 c 1.19304,0 3.04225,-0.14913 4.58326,-0.14913 0.44739,0 2.40597,0.08948 3.40017,0.08948 h 0.97431 c 0.10937,-0.14913 0.13919,-0.268434 0.13919,-0.387739 z m -14.7241,-5.478043 c 0,-2.386081 -1.0638,-4.01657 -3.3604,-5.239436 -0.62635,-0.357912 -1.72991,-0.74565 -3.31069,-1.19304 -1.81939,-0.507043 -3.34051,-1.093621 -4.32477,-1.640431 -0.65617,-0.357912 -1.75973,-1.34217 -1.75973,-3.241093 0,-1.908865 1.93869,-3.489643 4.20546,-3.489643 1.78956,0 3.22121,0.89478 4.08617,2.077878 0.74565,1.043911 1.01408,1.521127 1.84921,3.400166 0.0895,0.02983 0.20878,0.05965 0.29826,0.05965 0.26843,0 0.50704,-0.14913 0.65617,-0.298261 -0.0895,-0.74565 -0.23861,-1.78956 -0.23861,-2.674398 0,-0.775477 0.17896,-1.789561 0.26844,-2.326429 -0.23861,-0.357912 -0.50705,-0.417564 -0.89478,-0.417564 -0.41757,0.268434 -0.80531,0.685998 -1.16322,1.073736 -1.96851,-1.580778 -3.57912,-1.849213 -5.06048,-1.849213 -3.65865,0 -6.28334,2.445733 -6.28334,5.686826 0,1.103563 0.37779,2.177299 1.09362,3.280861 0.65617,0.924607 1.6106,1.640431 2.89312,2.177299 0.86495,0.34797 4.73239,1.521127 5.26926,1.729909 2.38608,0.924606 3.28086,1.719966 3.28086,3.837613 0,1.04391 -0.44739,1.968517 -1.31234,3.012427 -0.77548,0.954432 -1.99834,1.401822 -3.31069,1.401822 -1.40182,0 -3.81773,-0.59652 -5.01077,-2.207124 -0.71582,-0.924607 -1.72991,-2.863297 -2.02817,-4.026512 -0.20878,-0.05965 -0.20878,-0.05965 -0.41756,-0.05965 -0.17896,0 -0.38774,0.05965 -0.5667,0.178956 0,0.387739 0.11931,2.356255 0.11931,2.952775 0,1.461475 -0.26844,2.177299 -0.32809,2.654515 0.0895,0.29826 0.59652,0.59652 0.95443,0.59652 0.61641,-0.536868 1.27258,-0.954432 1.49131,-0.954432 0.17895,0 0.44739,0.08948 0.70588,0.268434 1.93869,1.252693 3.54929,1.491301 4.98094,1.491301 4.21541,-0.0099 7.2179,-2.117647 7.2179,-6.263462 z M 223.73763,54.315115 c 0,1.908865 -1.52112,4.046396 -3.27091,4.444076 -0.71583,0.14913 -1.75974,0.238608 -3.10191,0.238608 -0.35791,0 -1.372,0 -1.81939,-0.06959 l -0.0298,-2.624689 v -5.627174 c 0,-0.387738 0.0895,-0.59652 0.20878,-0.685998 0.1193,-0.08948 1.34217,-0.178956 2.08782,-0.178956 2.80365,0 4.08616,0.268434 5.10025,1.729908 0.55675,0.815245 0.82518,1.729909 0.82518,2.773819 z m 6.25352,15.787902 c 0,-0.149131 -0.0497,-0.328087 -0.14913,-0.447391 -0.29826,0 -1.52112,-0.05965 -1.96851,-0.387738 -0.14913,-0.178956 -0.38774,-0.536868 -0.50704,-0.74565 -0.38774,-1.371996 -0.80531,-2.594863 -1.2527,-3.728251 -0.62634,-1.491301 -1.4913,-2.893123 -2.20712,-3.539353 -0.26844,-0.238609 -1.10356,-0.626347 -2.14747,-0.984259 -0.47722,-0.178956 -0.86496,-0.328086 -1.22287,-0.477216 0.44739,-0.08948 0.65617,-0.119304 1.22287,-0.178956 1.93869,-0.238608 2.59486,-0.656172 3.16155,-1.103562 1.19304,-0.894781 1.95858,-2.236951 1.95858,-3.837614 0,-2.415906 -1.55095,-4.712509 -3.71831,-5.388565 -0.71583,-0.208782 -1.99834,-0.328087 -3.57912,-0.328087 -2.23695,0 -3.89727,0.198841 -5.38857,0.198841 -0.44739,0 -1.90886,-0.05965 -2.94283,-0.05965 -0.44739,0 -1.58078,-0.05965 -1.75974,-0.05965 -0.0895,0.208783 -0.14913,0.268435 -0.14913,0.387739 0,0.119304 0.0298,0.288318 0.0597,0.417564 0.50704,0.05965 1.4217,0.178956 1.90886,0.268434 0.71582,0.536868 0.95443,0.954432 1.25269,1.610604 0.14913,0.954433 0.17896,3.638774 0.17896,7.834299 0,3.032311 0.0298,6.85004 -0.1193,7.983429 -0.0895,0.735708 -0.34798,1.630488 -1.22287,1.9884 -0.38774,0.05965 -1.10356,0.178956 -1.70008,0.208782 -0.0895,0.14913 -0.14913,0.268434 -0.14913,0.417565 0,0.08948 0.0597,0.208782 0.1193,0.357912 0.41756,0 3.83761,-0.08948 4.79205,-0.08948 1.90886,0 2.38608,0.08948 4.08616,0.08948 0.0597,-0.119304 0.1193,-0.208782 0.1193,-0.328086 0,-0.208783 -0.0597,-0.328087 -0.1193,-0.447391 -0.59652,-0.05965 -1.34217,-0.238608 -1.67026,-0.29826 -0.74565,-0.357912 -1.28252,-1.073736 -1.28252,-2.117646 l -0.0298,-7.446561 c 0.23861,-0.02983 1.10356,-0.02983 1.34217,-0.02983 0.8053,0 1.6106,0.06959 2.38608,0.417564 1.13339,0.507042 2.20712,1.312345 2.92295,2.415907 0.95443,1.491301 1.58078,4.314829 1.87904,6.492128 0.0895,0.626346 0.32808,1.163215 0.89478,1.222867 0.23861,0.02983 0.59652,0.08948 1.72991,0.08948 h 3.09196 c 0.12924,-0.109362 0.17895,-0.218724 0.17895,-0.377796 z m -24.99419,-4.523612 c 0,-0.417564 0,-0.59652 -0.0298,-0.864954 -0.14913,-0.08948 -0.20878,-0.08948 -0.44739,-0.08948 -0.20878,0 -0.17895,0 -0.38774,0.06959 -0.65617,2.177298 -1.77961,3.787903 -3.07207,4.553437 -0.44739,0.268434 -1.2527,0.328086 -2.53522,0.328086 h -3.34051 c -1.04391,-0.02983 -1.70008,-0.08948 -1.96852,-0.14913 -0.44739,-0.08948 -0.9246,-0.805302 -1.13338,-1.282518 -0.20879,-0.507042 -0.32809,-0.685998 -0.32809,-2.057995 v -6.790382 h 0.95443 c 0.95443,0 1.72991,0.05965 2.53521,0.417564 0.74565,0.328086 1.31235,0.805302 1.61061,1.272576 0.26843,0.417565 0.35791,2.057995 0.41756,2.475559 0.14913,0.08948 0.23861,0.119304 0.47722,0.119304 0.23861,0 0.26843,-0.01988 0.47721,-0.14913 0,-0.805302 -0.17895,-2.982601 -0.17895,-4.165699 0,-1.491301 0.20878,-3.310687 0.29826,-4.384424 -0.11931,-0.05965 -0.17896,-0.119304 -0.47722,-0.119304 -0.20878,0 -0.29826,0 -0.47721,0.08948 -0.0895,0.417565 -0.32809,1.670257 -0.3778,1.759735 -0.44739,0.735708 -1.4913,1.34217 -2.2966,1.580779 -0.53687,0.14913 -1.31235,0.238608 -2.44574,0.238608 h -0.47721 v -2.922949 c 0,-2.853355 0.0597,-4.01657 0.0895,-4.553438 0.0298,-0.357912 0.0895,-0.735708 0.1193,-1.004142 0.26843,-0.02983 1.13339,-0.05965 2.50539,-0.05965 1.71996,0 3.00248,0.01988 3.28086,0.01988 0.83512,0.05965 1.45153,0.238608 1.90886,0.59652 1.46148,1.133388 1.84921,1.879039 2.65452,3.698425 0.17895,0.05965 0.20878,0.05965 0.35791,0.05965 0.17895,0 0.20878,-0.05965 0.44739,-0.178956 0,-1.819386 -0.11931,-3.877381 -0.17896,-4.623031 -0.0298,-0.29826 -0.0895,-0.377796 -0.686,-0.377796 -0.2386,0 -1.37199,-0.05965 -2.55509,-0.05965 -1.70008,0 -2.38608,0.02983 -4.98094,0.02983 -1.40183,0 -3.86744,0.02983 -5.09031,0.02983 -1.78956,0 -2.1773,-0.05965 -2.95278,-0.05965 h -1.02402 c -0.0895,0.119305 -0.14913,0.238609 -0.14913,0.347971 0,0.159072 0.0597,0.29826 0.14913,0.417564 0.35791,0.119304 1.76967,0.08948 2.18724,0.328086 0.41756,0.357912 0.8053,0.44739 1.07374,1.879038 0.0597,0.626347 0.0895,2.654515 0.0895,4.026512 v 6.134216 c 0,1.252692 -0.0298,3.310687 -0.0597,4.046395 -0.0597,1.163215 -0.47721,2.624689 -0.65617,2.893123 -0.26844,0.208782 -1.4913,0.387738 -2.69428,0.44739 -0.0895,0.178956 -0.14913,0.29826 -0.14913,0.477216 0,0.178957 0.0597,0.268435 0.14913,0.417565 h 0.98425 c 0.95444,0 3.34052,-0.08948 4.14582,-0.08948 0.74565,0 1.75973,0.05965 3.48964,0.05965 0.95444,0 3.74814,0.178956 9.77299,0.178956 0.23861,0 0.50704,0.02983 0.8053,-0.05965 0.0895,-0.14913 0.0895,-0.208782 0.11931,-0.477217 0.0497,-0.59652 0.0497,-2.057994 0.0497,-4.473901 z M 182.93565,49.314288 c 0,-0.119304 -0.0298,-0.298261 -0.14913,-0.328087 h -1.01408 c -0.71583,0 -1.84921,0.05965 -2.35626,0.05965 -2.4159,0 -3.28086,-0.14913 -3.63877,-0.14913 h -0.53687 c -0.0696,0.14913 -0.15907,0.238609 -0.15907,0.387739 0,0.119304 0.0696,0.208782 0.0696,0.328086 0.73571,0.08948 1.39189,0.238608 2.058,0.44739 0.35791,0.357912 0.74565,1.073736 0.74565,1.879038 0,0.288319 -0.29826,1.700083 -0.72577,2.714167 l -4.79204,11.791216 -5.88567,-14.932889 c 0.0895,-0.705882 0.47722,-1.39188 0.97432,-1.660314 0.50704,-0.05965 1.12344,-0.238608 1.92875,-0.238608 0.0596,-0.119304 0.1193,-0.288318 0.1193,-0.417564 0,-0.119304 -0.0298,-0.298261 -0.14913,-0.328087 h -0.74565 c -0.91466,0 -2.30654,0.119304 -3.88732,0.119304 -0.686,0 -2.02817,-0.05965 -3.34052,-0.05965 h -1.16321 c -0.0596,0.119304 -0.1193,0.178957 -0.1193,0.357913 0,0.178956 0.0298,0.238608 0.0895,0.357912 0.83513,0.208782 1.64043,0.536868 2.50539,1.004142 0.56669,0.835128 1.78956,3.847555 2.44573,5.418392 l 2.46562,5.965202 c 2.04805,4.951117 3.27092,8.251863 3.42005,8.818557 0.14913,0.08948 0,0.178956 0.26843,0.178956 0.26844,0 0.23861,-0.04971 0.29826,-0.19884 l 7.68517,-18.472242 c 0.26843,-0.656173 0.686,-1.282519 1.07374,-1.700083 0.47721,-0.536868 1.45153,-0.74565 2.37614,-0.954432 0.0497,-0.119304 0.13918,-0.238608 0.13918,-0.387738 z M 156.84784,70.07319 c 0,-0.14913 -0.0199,-0.29826 -0.0895,-0.417564 -0.44739,-0.02983 -1.67026,-0.14913 -2.20713,-0.268434 -0.47721,-0.566694 -0.8053,-1.222866 -1.01408,-2.296602 -0.0298,-1.431649 -0.0597,-4.672742 -0.0597,-7.446561 v -7.565864 c 0,-0.805303 0.32808,-1.431649 0.53687,-1.610605 0.56669,-0.536868 1.70008,-0.656172 2.65451,-0.775476 0.0597,-0.119304 0.0895,-0.268434 0.0895,-0.377796 0,-0.178956 -0.0895,-0.298261 -0.14913,-0.357913 h -0.86496 c -1.25269,0 -3.04225,0.149131 -4.05633,0.149131 -0.62635,0 -2.41591,-0.08948 -3.71831,-0.119305 h -0.65617 c -0.0895,0.119305 -0.14913,0.119305 -0.14913,0.377797 0,0.119304 0.0298,0.238608 0.0597,0.387738 1.46147,0.119304 2.11764,0.268434 2.32643,0.417564 0.35791,0.268434 0.86495,0.924606 0.98425,2.535211 0.0298,0.566694 0.0597,2.08782 0.0895,4.821871 0.0298,1.491301 0.0597,3.519469 0.0597,5.239436 0,0.874896 -0.0597,3.101905 -0.0895,4.145815 -0.0597,0.715825 -0.20879,1.401823 -0.41757,1.789561 -0.35791,0.29826 -0.71582,0.835128 -2.89312,0.984258 -0.0597,0.119304 -0.0895,0.328086 -0.0895,0.447391 0,0.238608 0.0597,0.238608 0.0597,0.387738 h 0.50705 c 1.19304,0 3.04225,-0.14913 4.58326,-0.14913 0.44739,0 2.41591,0.08948 3.40016,0.08948 h 0.98426 c 0.0994,-0.14913 0.11931,-0.268434 0.11931,-0.387739 z M 143.38636,49.254636 c 0,-0.119304 -0.0298,-0.208783 -0.0895,-0.288319 h -0.686 c -1.4913,0 -2.14747,0.05965 -4.82187,0.05965 -0.92461,0 -2.29661,-0.05965 -2.62469,-0.05965 h -0.77548 c -0.0895,0.05965 -0.1193,0.268435 -0.1193,0.387739 0,0.14913 0.0298,0.208782 0.14913,0.328086 0.47721,0.14913 2.2966,0.357912 3.07208,0.864954 0.53686,0.626346 0.77547,1.879039 0.86495,3.042253 0.0298,0.44739 0.0597,0.89478 0.0597,2.117647 v 8.848383 c 0,0.715824 -0.0298,0.954432 -0.0597,1.282518 -0.50704,-0.566694 -1.372,-1.670256 -2.53521,-3.042253 L 124.43691,49.513128 c -0.0895,-0.119304 -0.26844,-0.268434 -0.44739,-0.387738 -0.23861,0 -0.53687,-0.02983 -0.77548,-0.02983 -1.90887,0 -3.57912,-0.08948 -4.08616,-0.08948 -0.0597,0.119305 -0.0895,0.178957 -0.0895,0.298261 0,0.05965 0.0298,0.29826 0.0596,0.387738 0.44739,0.119304 1.75973,0.268434 2.2966,0.835128 0.47722,0.536868 1.19304,1.163214 1.45154,1.759735 0.0895,0.208782 0.1193,0.536868 0.1193,0.954432 0,1.550952 -0.0895,4.374481 -0.0895,6.462302 v 6.342998 c 0,0.984258 -0.0895,1.749793 -0.17895,2.266777 -0.62635,0.656172 -1.58078,1.133388 -3.13174,1.521126 -0.0596,0.14913 -0.1193,0.208782 -0.1193,0.357913 0,0.08948 0.0298,0.268434 0.0895,0.288318 h 0.56669 c 0.59652,0 1.96852,-0.08948 2.8633,-0.08948 1.3024,0 1.89892,0.08948 3.12179,0.08948 h 1.7995 c 0.1193,-0.02983 0.13919,-0.268434 0.13919,-0.387738 0,-0.119305 -0.0199,-0.178957 -0.0895,-0.298261 -1.04391,-0.268434 -2.55509,-0.507042 -3.56918,-1.849212 -0.20878,-0.44739 -0.38774,-2.714167 -0.38774,-3.748135 0,-0.954433 -0.0298,-2.505385 -0.0298,-4.255178 0,-2.356255 0.0298,-5.60729 0.0596,-6.641258 0.17896,0.208782 0.44739,0.536868 0.65617,0.775476 l 14.11765,16.533552 c 0.14913,0.14913 0.20878,0.178956 0.35791,0.178956 0.14913,0 0.0497,0 0.17895,-0.05965 0.0597,-0.14913 0.14913,-0.626346 0.14913,-1.342171 0,-0.864954 -0.0298,-1.759734 -0.0298,-2.207124 V 54.494071 c 0,-3.728251 1.75973,-4.772161 3.81773,-4.851697 0.0994,-0.14913 0.12924,-0.238608 0.12924,-0.387738 z m -27.58906,0.14913 c 0,-0.119304 -0.0597,-0.29826 -0.14913,-0.387739 h -0.86495 c -0.92461,0 -2.1773,0.05965 -3.25104,0.05965 -1.19304,0 -2.52527,-0.05965 -3.40016,-0.05965 h -1.0638 c -0.0895,0.178957 -0.1193,0.238609 -0.1193,0.387739 0,0.119304 0.0298,0.238608 0.0895,0.387738 0.1193,0 2.2966,0.02983 2.68434,0.566694 0.32808,0.44739 1.04391,1.550952 1.16321,2.207125 0.0597,0.29826 0.23861,1.521126 0.23861,3.280861 0,2.535211 0,4.225351 -0.0298,5.120131 -0.0597,1.670257 -0.23861,2.982601 -0.53687,3.96686 -0.83513,2.594863 -2.76387,3.877381 -5.83595,3.877381 -1.31235,0 -2.44574,-0.268434 -3.48965,-0.74565 -1.938688,-0.954432 -2.863294,-2.773819 -2.89312,-3.748135 l -0.14913,-8.927919 -0.02983,-3.638774 c 0,-0.685998 0.864954,-1.312344 1.163214,-1.670256 0.238608,-0.119304 1.550956,-0.238608 2.296606,-0.29826 0.0895,-0.178956 0.14913,-0.268434 0.14913,-0.417564 0,-0.14913 -0.0895,-0.29826 -0.20878,-0.387739 l -1.13339,0.02983 c -1.103566,0.02983 -2.56504,0.05965 -3.479704,0.05965 -1.431649,0 -2.535211,-0.02983 -3.429992,-0.02983 h -1.252692 c -0.119304,0.08948 -0.14913,0.268435 -0.14913,0.417565 0,0.14913 0.02983,0.268434 0.119304,0.357912 0.954432,0.119304 1.580779,0.208782 1.998343,0.29826 0.507042,0.29826 0.864954,0.805302 1.04391,1.312344 0.02983,0.387738 0.08948,1.342171 0.08948,3.221209 V 61.7915 c 0,1.849212 0.08948,3.151615 0.29826,3.996685 0.387738,1.550953 1.222867,2.773819 2.594863,3.658657 1.461474,0.954433 3.280858,1.431649 5.448218,1.431649 1.99834,0 3.69843,-0.417564 5.12013,-1.222867 1.4913,-0.805302 2.41591,-2.107704 2.95278,-3.956917 0.29826,-1.09362 0.47721,-2.296603 0.47721,-3.539353 v -5.716652 c 0,-1.073736 0.0596,-2.415907 0.0596,-2.952775 0.0298,-1.610605 0.44739,-2.565037 0.89478,-3.280861 0.47722,-0.14913 0.89478,-0.238608 2.46562,-0.417564 0.0597,-0.14913 0.1193,-0.238608 0.1193,-0.387738 z"
     id="path257"
     style="stroke-width:0.9942" />
  <path
     fill="#ffffff"
     d="m 46.610899,17.281153 c 1.869096,0 2.485501,1.073736 2.485501,1.073736 0,0 0.606462,-1.073736 2.4855,-1.073736 1.849213,0 6.859983,1.819387 9.007455,0.119304 v 1.531068 l 1.759735,0.457333 v 1.799502 h 1.560895 v 2.555095 H 62.34909 v 4.135873 h 1.560895 v 2.565037 H 62.34909 v 3.181441 c -3.131731,0.685999 -7.6454,0.556753 -11.473072,-0.03977 v 0.805303 c -1.113504,0.457332 -2.465617,0.526926 -3.569179,0 v -0.805303 c -3.827671,0.596521 -8.152443,0.745651 -11.473072,0.03977 v -3.181441 h -1.570836 v -2.565037 h 1.570836 V 23.743455 H 34.262931 V 21.18836 h 1.570836 v -1.799502 l 1.879039,-0.367854 v -1.610605 c 2.604805,1.779619 6.889808,-0.129246 8.898093,-0.129246 z"
     id="path259"
     style="stroke-width:0.9942" />
  <path
     d="m 60.837906,18.752569 0.0099,-1.958574 -0.477217,0.4971 c -0.0099,0.0099 -0.586578,0.586578 -2.962717,0.586578 l -3.211267,-0.427506 -2.644573,-0.367854 c -1.451532,0 -2.177298,0.59652 -2.4855,0.954432 -0.318144,-0.357912 -1.043911,-0.954432 -2.485501,-0.954432 l -2.644573,0.377796 -3.211267,0.427506 c -2.336371,0 -2.823529,-0.556752 -2.823529,-0.566694 l -0.477216,-0.59652 -0.0099,0.755592 v 1.34217 l -1.908865,0.397681 v 14.704222 l 0.228666,0.02983 c 0.02983,0.0099 2.684341,0.417565 5.11019,0.417565 2.396023,0 5.239436,-0.318144 6.134216,-0.417565 v 0.666115 l 0.14913,0.07954 c 0.03977,0.01988 0.825186,0.39768 1.879039,0.39768 1.063794,0 1.898922,-0.377796 1.93869,-0.39768 l 0.159072,-0.06959 v -0.676057 c 0.894781,0.109363 3.738194,0.417565 6.144158,0.417565 2.415907,0 5.070422,-0.417565 5.100248,-0.417565 l 0.228666,-0.02983 V 19.24967 Z M 49.34495,18.563671 c 0.01988,-0.03977 0.536868,-0.934548 2.217066,-0.934548 l 2.525269,0.357912 3.330571,0.437448 c 1.610605,0 2.435791,-0.24855 2.893123,-0.467274 V 31.85613 c -0.02983,-0.06959 -0.685998,0.427506 -2.893123,0.427506 L 54.206589,31.85613 51.562016,31.488276 c -1.14333,0 -1.819386,0.367854 -2.217066,0.69594 z M 37.971298,17.987035 c 0.437448,0.218724 1.222866,0.44739 2.773819,0.44739 l 3.320629,-0.437448 2.525269,-0.367854 c 1.660314,0 2.187241,0.884838 2.217067,0.934548 v 13.620545 c -0.407623,-0.338028 -1.083679,-0.705882 -2.236951,-0.705882 l -2.644573,0.367854 -3.181441,0.427506 c -2.336371,0 -2.823529,-0.556752 -2.823529,-0.566694 -0.0099,0.0099 0.03977,-12.795359 0.04971,-13.719965 z m 24.06959,15.469757 c -0.666114,0.09942 -2.803645,0.377796 -4.782104,0.377796 -2.843413,0 -6.35294,-0.44739 -6.382766,-0.44739 l -0.308202,-0.03977 v 0.934549 c -0.268434,0.09942 -0.855012,0.278376 -1.550952,0.278376 -0.676057,0 -1.222867,-0.178956 -1.481359,-0.278376 v -0.944491 l -0.308202,0.03977 c -0.03977,0.0099 -3.539353,0.44739 -6.372824,0.44739 -1.988401,0 -4.125931,-0.278376 -4.792046,-0.377796 V 19.677176 c 0.24855,-0.04971 0.994201,-0.208782 1.362055,-0.288318 v 12.487156 c 0.129246,0.288318 0.705882,0.954432 3.310687,0.954432 l 3.300745,-0.427506 2.525269,-0.367854 c 1.69014,0 2.217067,0.89478 2.236951,0.934548 l 0.07954,-0.03977 h 0.387738 l 0.06959,0.03977 c 0.01988,-0.03977 0.536868,-0.934548 2.217066,-0.934548 l 2.525269,0.357912 3.330571,0.437448 c 2.644573,0 3.310688,-0.69594 3.37034,-0.775476 l 0.05965,-12.725764 c 0.34797,0.09942 0.984258,0.268434 1.202982,0.338028 v 13.789558 z m -22.488812,-12.8053 c -0.09942,-0.178956 -0.228666,-0.188898 -0.367854,-0.208782 -0.01988,-0.01988 -0.01988,-0.03977 -0.01988,-0.05965 0,-0.01988 0,-0.02983 0.0099,-0.05965 h 0.14913 c 0.169014,0 0.308202,0.0099 0.427507,0.0099 0.14913,0 0.387738,-0.01988 0.54681,-0.01988 h 0.09942 c 0.01988,0.0099 0.01988,0.03977 0.01988,0.05965 0,0.0099 0,0.04971 -0.0099,0.05965 -0.109362,0.0099 -0.34797,0.0099 -0.34797,0.159072 0,0.02983 0.0099,0.08948 0.01988,0.129246 l 0.576636,1.362055 0.477216,-1.133389 c 0.05965,-0.129246 0.06959,-0.238608 0.06959,-0.29826 0,-0.129246 -0.08948,-0.188898 -0.328086,-0.208782 -0.0099,-0.01988 -0.01988,-0.03977 -0.01988,-0.04971 0,-0.01988 0.0099,-0.04971 0.01988,-0.06959 h 0.06959 c 0.109362,0 0.208782,0.01988 0.457332,0.01988 0.03977,0 0.208782,-0.0099 0.288318,-0.0099 h 0.169014 c 0.0099,0.01988 0.01988,0.02983 0.01988,0.04971 0,0.01988 -0.0099,0.04971 -0.01988,0.06959 -0.208782,0.01988 -0.34797,0.129246 -0.417564,0.268434 l -0.874884,1.948633 c 0,0 -0.03977,0.02983 -0.06959,0.02983 -0.02983,0 -0.05965,-0.02983 -0.07954,-0.08948 -0.01988,-0.06959 -0.129246,-0.338028 -0.357912,-0.874897 l -0.288318,-0.636288 c -0.119305,-0.24855 -0.198841,-0.39768 -0.218725,-0.44739 z m 2.654515,1.958575 c 0.24855,0 0.467274,-0.01988 0.566695,-0.01988 0.08948,0 0.258492,0.0099 0.328086,0.0099 0.09942,0 0.477216,0.01988 1.173156,0.01988 0.08948,0 0.119304,-0.0099 0.119304,-0.05965 v -0.606463 c -0.02983,-0.0099 -0.04971,-0.01988 -0.06959,-0.01988 -0.01988,0 -0.03977,0 -0.06959,0.0099 -0.06959,0.208783 -0.288318,0.447391 -0.367854,0.497101 -0.03977,0.01988 -0.159072,0.03977 -0.24855,0.03977 h -0.328086 c -0.119304,0 -0.178956,-0.0099 -0.218724,-0.01988 -0.06959,-0.0099 -0.119304,-0.08948 -0.139188,-0.129246 -0.01988,-0.04971 -0.02983,-0.129246 -0.02983,-0.268434 v -0.606463 c 0.04971,-0.0099 0.109362,-0.0099 0.159072,-0.0099 0.08948,0 0.159072,0.0099 0.258492,0.04971 0.169014,0.06959 0.19884,0.19884 0.218724,0.39768 0.01988,0.0099 0.04971,0.0099 0.06959,0.0099 0.02983,0 0.03977,0 0.05965,-0.0099 0,-0.09942 -0.0099,-0.34797 -0.0099,-0.457332 0,-0.228666 0.01988,-0.39768 0.01988,-0.4971 -0.01988,-0.0099 -0.03977,-0.01988 -0.05965,-0.01988 -0.02983,0 -0.05965,0.0099 -0.07954,0.01988 -0.0099,0.03977 -0.02983,0.159072 -0.04971,0.188898 -0.04971,0.07954 -0.14913,0.139188 -0.238608,0.169014 -0.05965,0.01988 -0.159072,0.02983 -0.258492,0.02983 h -0.07954 v -0.29826 c 0,-0.308202 0.0099,-0.407622 0.0099,-0.467274 0.0099,-0.08948 0.0099,-0.08948 0.02983,-0.08948 0.01988,0 0.09942,-0.0099 0.258492,-0.0099 0.19884,0 0.278376,0.0099 0.308202,0.0099 0.09942,0.0099 0.159072,0.02983 0.208782,0.05965 0.119304,0.08948 0.188898,0.139188 0.34797,0.39768 0.0099,0.0099 0.02983,0.0099 0.04971,0.0099 0.02983,0 0.02983,-0.0099 0.06959,-0.01988 l -0.02983,-0.516984 c 0,-0.04971 -0.01988,-0.05965 -0.06959,-0.05965 -0.02983,0 -0.188898,-0.0099 -0.238608,-0.0099 -0.08948,0 -0.477216,-0.0099 -0.874896,-0.0099 -0.437449,0 -0.666115,-0.0099 -0.755593,-0.0099 h -0.129246 c -0.01988,0.0099 -0.01988,0.03977 -0.01988,0.05965 0,0.01988 0.0099,0.03977 0.0099,0.05965 0.258492,0.02983 0.387738,0.02983 0.387738,0.288318 v 0.367854 c 0,0.258492 0.0099,0.467274 0.0099,0.64623 0,0.119304 -0.0099,0.238608 -0.0099,0.347971 -0.0099,0.208782 -0.03977,0.29826 -0.07954,0.34797 -0.02983,0.02983 -0.159072,0.05965 -0.34797,0.06959 0,0.01988 0,0.04971 0,0.06959 0,0.01988 0,0.02983 0.0099,0.04971 z m 4.792046,-2.296603 c -0.109362,0 -0.516984,0.01988 -1.073736,0.01988 -0.417565,-0.0099 -0.755593,-0.0099 -0.835129,-0.0099 -0.109362,0 -0.19884,-0.0099 -0.24855,-0.0099 -0.05965,0 -0.06959,0.01988 -0.06959,0.06959 v 0.586578 c 0.0099,0.01988 0.02983,0.01988 0.05965,0.01988 0.0099,0 0.03977,0 0.05965,-0.0099 0.14913,-0.278376 0.278376,-0.437448 0.467274,-0.507042 0.05965,-0.02983 0.288318,-0.02983 0.357913,-0.02983 0.01988,0.06959 0.01988,0.178956 0.01988,0.288318 v 0.84507 c 0,0.308202 0,0.616405 -0.0099,0.685999 -0.0099,0.119304 -0.04971,0.188898 -0.417565,0.208782 -0.0099,0.01988 -0.0099,0.03977 -0.0099,0.05965 0,0.03977 0,0.03977 0.01988,0.05965 0.169014,0 0.516985,-0.01988 0.586579,-0.01988 0.09942,0 0.417564,0.0099 0.586578,0.0099 h 0.09942 c 0.0099,-0.01988 0.01988,-0.03977 0.01988,-0.05965 0,-0.01988 -0.0099,-0.03977 -0.01988,-0.06959 -0.278376,-0.03977 -0.39768,-0.03977 -0.39768,-0.308202 -0.0099,-0.347971 -0.0099,-0.536869 -0.0099,-0.695941 l 0.0099,-1.024026 c 0.03977,0 0.169014,0 0.228666,0.0099 0.238608,0.02983 0.328086,0.109362 0.427506,0.228666 0.05965,0.06959 0.119304,0.19884 0.169014,0.338028 0.01988,0 0.04971,0.0099 0.05965,0.0099 0.01988,0 0.04971,-0.0099 0.05965,-0.02983 v -0.59652 c 0,-0.02983 0.0099,-0.06959 0,-0.08948 -0.04971,0.01988 -0.08948,0.01988 -0.139188,0.01988 z m -5.85584,5.90555 h 0.09942 c 0.0099,-0.01988 0.0099,-0.03977 0.0099,-0.05965 0,-0.01988 0,-0.03977 -0.01988,-0.06959 -0.278376,-0.03977 -0.39768,-0.03977 -0.407622,-0.308202 -0.0099,-0.34797 -0.0099,-0.536868 -0.0099,-0.69594 l 0.0099,-1.024027 c 0.03977,0 0.169014,0 0.228666,0.0099 0.238608,0.02983 0.338028,0.109362 0.427506,0.228666 0.05965,0.06959 0.119304,0.19884 0.169014,0.338028 0.02983,0 0.04971,0.0099 0.06959,0.0099 0.01988,0 0.03977,-0.0099 0.05965,-0.02983 v -0.586578 c 0,-0.02983 0,-0.07954 -0.0099,-0.08948 -0.01988,-0.01988 -0.04971,-0.01988 -0.119304,-0.01988 -0.09942,0 -0.516984,0.01988 -1.063794,0.01988 -0.417564,0 -0.755592,-0.0099 -0.84507,-0.0099 -0.109363,0 -0.188899,-0.0099 -0.248551,-0.0099 -0.05965,0 -0.06959,0.01988 -0.06959,0.06959 v 0.59652 c 0.01988,0.0099 0.02983,0.01988 0.04971,0.01988 0.01988,0 0.03977,0 0.05965,-0.0099 0.149131,-0.278376 0.268435,-0.437448 0.457333,-0.507042 0.06959,-0.02983 0.288318,-0.02983 0.367854,-0.02983 0.01988,0.06959 0.01988,0.178956 0.01988,0.288318 v 0.845071 c 0,0.308202 0,0.616404 -0.0099,0.685998 -0.01988,0.119304 -0.04971,0.188898 -0.427506,0.208782 0,0.01988 -0.0099,0.03977 -0.0099,0.05965 0,0.03977 0.0099,0.03977 0.0099,0.05965 0.169014,0 0.526926,-0.01988 0.59652,-0.01988 0.119304,0.01988 0.44739,0.02983 0.606462,0.02983 z m 3.221209,0.0099 c 0.08948,0 0.119304,-0.0099 0.119304,-0.06959 v -0.606462 c -0.01988,-0.0099 -0.04971,-0.01988 -0.06959,-0.01988 -0.01988,0 -0.03977,0 -0.06959,0.0099 -0.06959,0.208782 -0.288318,0.44739 -0.377796,0.4971 -0.03977,0.01988 -0.159072,0.03977 -0.238608,0.03977 h -0.338028 c -0.119304,0 -0.178956,-0.0099 -0.208782,-0.01988 -0.05965,-0.0099 -0.119304,-0.08948 -0.139188,-0.129246 -0.01988,-0.04971 -0.02983,-0.129246 -0.02983,-0.268434 V 25.05573 c 0.04971,-0.0099 0.109362,-0.0099 0.14913,-0.0099 0.08948,0 0.159072,0.0099 0.24855,0.04971 0.169014,0.06959 0.19884,0.19884 0.218724,0.39768 0.01988,0.0099 0.04971,0.0099 0.06959,0.0099 0.02983,0 0.03977,0 0.05965,-0.01988 0,-0.09942 -0.01988,-0.34797 -0.01988,-0.457333 0,-0.228666 0.01988,-0.39768 0.02983,-0.4971 -0.01988,-0.0099 -0.03977,-0.01988 -0.05965,-0.01988 -0.02983,0 -0.05965,0.0099 -0.07954,0.01988 -0.0099,0.03977 -0.02983,0.159072 -0.04971,0.188898 -0.05965,0.06959 -0.14913,0.139188 -0.238608,0.169014 -0.05965,0.0099 -0.159072,0.01988 -0.258492,0.01988 h -0.05965 v -0.29826 c 0,-0.308202 0.0099,-0.407622 0.0099,-0.467274 0.0099,-0.08948 0.0099,-0.08948 0.03977,-0.08948 0.01988,0 0.09942,-0.0099 0.258492,-0.0099 0.19884,0 0.288318,0.0099 0.318144,0.0099 0.09942,0.0099 0.159072,0.02983 0.19884,0.05965 0.119304,0.08948 0.19884,0.139188 0.34797,0.39768 0.01988,0.0099 0.03977,0.0099 0.04971,0.0099 0.02983,0 0.03977,-0.0099 0.06959,-0.01988 l -0.02983,-0.516984 c 0,-0.04971 -0.01988,-0.05965 -0.07954,-0.05965 -0.02983,0 -0.188898,-0.0099 -0.238608,-0.0099 -0.08948,0 -0.477216,-0.0099 -0.884838,-0.0099 -0.437449,0 -0.666115,-0.0099 -0.755593,-0.0099 h -0.119304 c -0.01988,0.0099 -0.02983,0.03977 -0.02983,0.05965 0,0.01988 0.0099,0.03977 0.01988,0.05965 0.258492,0.02983 0.377796,0.02983 0.387738,0.288318 0,0.06959 0.0099,0.178956 0.0099,0.367854 0,0.258492 0.0099,0.467275 0.0099,0.646231 0,0.119304 -0.0099,0.238608 -0.0099,0.34797 -0.0099,0.208782 -0.02983,0.29826 -0.07954,0.34797 -0.01988,0.01988 -0.159072,0.05965 -0.34797,0.06959 -0.0099,0.01988 -0.0099,0.04971 -0.0099,0.05965 0,0.01988 0,0.02983 0.0099,0.05965 l 0.139188,0.0099 c 0.238608,0 0.467275,-0.01988 0.556753,-0.01988 0.08948,0 0.258492,0.0099 0.338028,0.0099 0.07954,0.0099 0.467274,0.02983 1.163214,0.02983 z m 2.048053,-1.252693 c -0.06959,-0.03977 -0.19884,-0.07954 -0.367854,-0.139188 -0.129246,-0.03977 -0.24855,-0.08948 -0.34797,-0.119304 -0.129247,-0.05965 -0.278377,-0.14913 -0.278377,-0.338028 0,-0.19884 0.188898,-0.338028 0.417565,-0.338028 0.19884,0 0.34797,0.04971 0.457332,0.19884 0.06959,0.09942 0.129246,0.288318 0.19884,0.39768 0.0099,0.0099 0.02983,0.0099 0.03977,0.0099 0.03977,0 0.06959,-0.01988 0.08948,-0.02983 0,-0.03977 -0.03977,-0.288318 -0.03977,-0.338028 0,-0.119304 0.02983,-0.258492 0.03977,-0.318144 -0.0099,-0.02983 -0.04971,-0.06959 -0.119304,-0.06959 -0.04971,0.03977 -0.09942,0.08948 -0.129246,0.129246 -0.178956,-0.14913 -0.39768,-0.159072 -0.556752,-0.159072 -0.417565,0 -0.705883,0.278376 -0.705883,0.64623 0,0.129246 0.03977,0.29826 0.129246,0.417564 0.07954,0.08948 0.159072,0.149131 0.318144,0.228667 0.129247,0.06959 0.487159,0.159072 0.586579,0.208782 0.129246,0.06959 0.178956,0.09942 0.238608,0.169014 0.04971,0.04971 0.06959,0.119304 0.06959,0.208782 0,0.109362 -0.01988,0.178956 -0.129246,0.278376 -0.06959,0.07954 -0.19884,0.109362 -0.377796,0.109362 -0.14913,0 -0.367855,-0.06959 -0.507043,-0.238608 -0.06959,-0.09942 -0.169014,-0.34797 -0.208782,-0.44739 h -0.03977 c -0.03977,0 -0.07954,0.01988 -0.09942,0.04971 0.0099,0.05965 0.01988,0.318144 0.01988,0.377796 0,0.08948 -0.03977,0.238608 -0.03977,0.278376 0.01988,0.03977 0.07954,0.06959 0.129246,0.06959 0.06959,-0.05965 0.14913,-0.08948 0.169014,-0.08948 0.01988,0 0.06959,0.0099 0.08948,0.01988 0.129246,0.06959 0.338029,0.139188 0.536869,0.139188 0.427506,0 0.815244,-0.268434 0.815244,-0.69594 -0.0099,-0.278376 -0.129246,-0.477216 -0.39768,-0.616405 z m -3.777962,4.195526 c -0.06959,0.208782 -0.288318,0.44739 -0.367854,0.4971 -0.03977,0.01988 -0.159072,0.03977 -0.24855,0.03977 h -0.328086 c -0.119304,0 -0.178956,-0.0099 -0.218724,-0.01988 -0.06959,-0.0099 -0.119304,-0.08948 -0.139188,-0.129246 -0.01988,-0.04971 -0.02983,-0.129246 -0.02983,-0.268434 v -0.606462 c 0.04971,-0.0099 0.109362,-0.0099 0.14913,-0.0099 0.08948,0 0.169014,0.0099 0.258492,0.04971 0.169014,0.06959 0.19884,0.19884 0.218724,0.39768 0.01988,0.0099 0.04971,0.0099 0.06959,0.0099 0.02983,0 0.03977,0 0.05965,-0.0099 0,-0.09942 -0.0099,-0.34797 -0.0099,-0.457332 0,-0.228666 0.01988,-0.39768 0.01988,-0.4971 -0.01988,-0.0099 -0.03977,-0.01988 -0.05965,-0.01988 -0.02983,0 -0.05965,0.0099 -0.07954,0.01988 -0.0099,0.03977 -0.02983,0.159072 -0.04971,0.188898 -0.04971,0.07954 -0.14913,0.139188 -0.238608,0.169014 -0.05965,0.01988 -0.159072,0.01988 -0.258492,0.01988 h -0.07954 v -0.29826 c 0,-0.308203 0.0099,-0.407623 0.0099,-0.467275 0.0099,-0.08948 0.0099,-0.08948 0.02983,-0.08948 0.01988,0 0.09942,-0.0099 0.258492,-0.0099 0.19884,0 0.278376,0.0099 0.308202,0.0099 0.09942,0.0099 0.159072,0.02983 0.208782,0.05965 0.119304,0.08948 0.188898,0.139188 0.34797,0.397681 0.01988,0.0099 0.02983,0.0099 0.04971,0.0099 0.02983,0 0.02983,-0.0099 0.06959,-0.01988 l -0.02983,-0.516985 c 0,-0.04971 -0.01988,-0.05965 -0.07954,-0.05965 -0.02983,0 -0.188898,-0.0099 -0.238608,-0.0099 -0.08948,0 -0.477216,-0.0099 -0.874896,-0.0099 -0.437448,0 -0.666114,-0.0099 -0.755592,-0.0099 h -0.129246 c -0.01988,0.0099 -0.01988,0.03977 -0.01988,0.05965 0,0.01988 0.0099,0.03977 0.0099,0.05965 0.258492,0.02983 0.387738,0.02983 0.387738,0.288318 v 0.367855 c 0,0.258492 0.0099,0.467274 0.0099,0.64623 0,0.119304 -0.0099,0.238608 -0.0099,0.34797 -0.0099,0.208782 -0.03977,0.29826 -0.07954,0.34797 -0.02983,0.01988 -0.159072,0.05965 -0.34797,0.06959 -0.0099,0.01988 -0.0099,0.04971 -0.0099,0.06959 0,0.01988 0,0.02983 0.0099,0.04971 l 0.139188,0.0099 c 0.24855,0 0.467274,-0.01988 0.566694,-0.01988 0.08948,0 0.258492,0.0099 0.328086,0.0099 0.09942,0 0.477216,0.01988 1.173156,0.01988 0.08948,0 0.119305,-0.0099 0.119305,-0.05965 v -0.62634 c -0.02983,-0.0099 -0.04971,-0.01988 -0.06959,-0.01988 0,0.0099 -0.0099,0.0099 -0.04971,0.01988 z m 3.290804,-1.630489 c -0.139188,0 -0.228666,0.0099 -0.507043,0.0099 -0.109362,0 -0.288318,-0.01988 -0.407622,-0.01988 h -0.06959 c -0.0099,0.01988 -0.0099,0.03977 -0.0099,0.04971 0,0.01988 0,0.04971 0.0099,0.06959 0.119304,0.02983 0.338028,0.05965 0.377796,0.119304 0.03977,0.06959 0.05965,0.14913 0.06959,0.24855 0.0099,0.04971 0.0099,0.139189 0.0099,0.268435 v 0.954432 c -0.05965,-0.08948 -0.178956,-0.218724 -0.268434,-0.318144 L 43.926516,27.61081 c -0.0099,-0.01988 -0.04971,-0.03977 -0.06959,-0.04971 h -0.109362 c -0.188898,0 -0.44739,-0.0099 -0.487158,-0.0099 h -0.05965 c -0.0099,0.01988 -0.01988,0.03977 -0.01988,0.05965 0,0 0.0099,0.02983 0.01988,0.04971 0.07954,0.02983 0.208782,0.06959 0.258492,0.109362 0.04971,0.05965 0.109362,0.109362 0.109362,0.119304 0.05965,0.05965 0.07954,0.149131 0.07954,0.248551 0.0099,0.129246 0.0099,0.19884 0.0099,0.328086 v 0.825186 c 0,0.109362 -0.0099,0.218724 -0.03977,0.278376 -0.06959,0.09942 -0.24855,0.14913 -0.367854,0.159072 -0.0099,0.02983 -0.0099,0.04971 -0.0099,0.05965 0,0.0099 0,0.03977 0.0099,0.05965 h 0.07954 c 0.09942,0 0.238608,-0.0099 0.34797,-0.0099 0.14913,0 0.268434,0.0099 0.417564,0.0099 h 0.178956 c 0.01988,-0.01988 0.01988,-0.04971 0.01988,-0.05965 0,-0.01988 -0.0099,-0.03977 -0.01988,-0.04971 -0.09942,-0.0099 -0.228666,-0.02983 -0.308202,-0.09942 -0.06959,-0.04971 -0.109362,-0.09942 -0.119304,-0.24855 -0.0099,-0.08948 -0.01988,-0.208782 -0.01988,-0.258492 l -0.0099,-0.64623 -0.01988,-0.357912 1.630488,1.749792 c 0.02983,0.01988 0.04971,0.03977 0.05965,0.03977 0.01988,0 0.05965,-0.0099 0.09942,-0.03977 0,-0.129246 -0.01988,-0.467274 -0.01988,-0.516984 l 0.0099,-1.183098 c 0,-0.367855 0.198841,-0.497101 0.437449,-0.507043 0.0099,-0.01988 0.0099,-0.03977 0.0099,-0.04971 0,-0.0099 0,-0.03977 -0.0099,-0.05965 h -0.08948 v -0.01988 z m 7.714994,-7.168184 c 0,0.0099 -0.0099,0.03977 -0.01988,0.04971 -0.228666,0.0099 -0.437448,0.139188 -0.437448,0.507042 v 1.183099 c 0,0.04971 0.01988,0.387738 0.01988,0.516984 -0.02983,0.01988 -0.07954,0.03977 -0.08948,0.03977 -0.01988,0 -0.02983,-0.01988 -0.06959,-0.03977 l -1.630489,-1.749793 0.01988,0.357912 0.0099,0.64623 c 0,0.04971 0.0099,0.169015 0.01988,0.258493 0.01988,0.14913 0.05965,0.188898 0.119304,0.24855 0.08948,0.06959 0.218725,0.08948 0.308203,0.09942 0.0099,0.01988 0.01988,0.03977 0.01988,0.04971 0,0.0099 -0.0099,0.03977 -0.01988,0.05965 h -0.178956 c -0.149131,0 -0.258493,-0.0099 -0.417565,-0.0099 -0.09942,0 -0.238608,0.0099 -0.338028,0.0099 h -0.07954 c -0.0099,-0.01988 -0.0099,-0.03977 -0.0099,-0.05965 0,-0.0099 0,-0.02983 0.01988,-0.05965 0.109362,-0.0099 0.29826,-0.06959 0.367854,-0.159072 0.02983,-0.05965 0.03977,-0.159072 0.03977,-0.278376 v -0.825187 c 0,-0.129246 0,-0.19884 -0.0099,-0.328086 -0.0099,-0.109362 -0.02983,-0.188898 -0.07954,-0.24855 -0.0099,-0.01988 -0.05965,-0.06959 -0.119304,-0.119304 -0.04971,-0.03977 -0.178956,-0.07954 -0.258492,-0.109362 -0.0099,-0.01988 -0.0099,-0.04971 -0.0099,-0.04971 0,-0.01988 0.0099,-0.03977 0.0099,-0.05965 h 0.05965 c 0.03977,0 0.29826,0.0099 0.487158,0.0099 h 0.109362 c 0.01988,0.0099 0.05965,0.02983 0.06959,0.04971 l 1.202983,1.312344 c 0.08948,0.09942 0.208782,0.238608 0.268434,0.318144 V 21.03915 c 0,-0.129246 -0.0099,-0.218724 -0.01988,-0.268434 -0.0099,-0.09942 -0.02983,-0.178956 -0.06959,-0.24855 -0.03977,-0.05965 -0.258492,-0.08948 -0.377796,-0.119304 -0.0099,-0.01988 -0.01988,-0.04971 -0.01988,-0.06959 0,-0.0099 0,-0.02983 0.0099,-0.04971 h 0.06959 c 0.109362,0 0.288318,0.01988 0.407622,0.01988 0.268434,0 0.367854,-0.0099 0.507042,-0.0099 h 0.08948 c 0.0099,0.03977 0.01988,0.05965 0.01988,0.07954 z m 2.734051,1.073736 c 0,-0.417564 -0.208782,-0.79536 -0.566694,-1.024026 C 55.588528,20.30348 55.39963,20.25377 55.20079,20.25377 c -0.278376,0 -0.556753,0.09942 -0.815245,0.34797 -0.238608,0.228666 -0.34797,0.54681 -0.34797,0.864954 0,0.338028 0.109362,0.646231 0.34797,0.884839 0.218724,0.208782 0.536869,0.328086 0.805303,0.328086 0.288318,0 0.59652,-0.129246 0.825186,-0.34797 0.228666,-0.238608 0.357912,-0.566695 0.357912,-0.884839 z m -0.526926,0.01988 c 0,0.318144 -0.04971,0.566695 -0.14913,0.735709 -0.109362,0.19884 -0.258492,0.318144 -0.507042,0.318144 -0.19884,0 -0.338028,-0.08948 -0.457332,-0.258492 -0.129247,-0.178956 -0.198841,-0.457333 -0.198841,-0.805303 0,-0.357912 0.06959,-0.636288 0.208783,-0.815244 0.109362,-0.159072 0.238608,-0.238608 0.427506,-0.238608 0.208782,0 0.34797,0.08948 0.457332,0.238608 0.14913,0.178956 0.218724,0.44739 0.218724,0.825186 z m 3.449875,-1.153272 h -0.169014 c -0.07954,0 -0.24855,0.0099 -0.288318,0.0099 -0.24855,0 -0.34797,-0.01988 -0.457332,-0.01988 h -0.06959 c -0.0099,0.01988 -0.0099,0.04971 -0.0099,0.06959 0,0.01988 0.0099,0.03977 0.0099,0.04971 0.238608,0.02983 0.328086,0.08948 0.328086,0.208782 0,0.05965 -0.0099,0.169014 -0.05965,0.29826 l -0.487158,1.133389 -0.566695,-1.362055 c -0.01988,-0.03977 -0.01988,-0.09942 -0.01988,-0.129246 0,-0.14913 0.238609,-0.14913 0.347971,-0.159072 0.0099,-0.01988 0.0099,-0.05965 0.0099,-0.05965 0,-0.01988 -0.0099,-0.04971 -0.02983,-0.05965 h -0.08948 c -0.169015,0 -0.407623,0.01988 -0.556753,0.01988 -0.119304,0 -0.258492,-0.0099 -0.417564,-0.0099 h -0.14913 c -0.0099,0.02983 -0.0099,0.03977 -0.0099,0.05965 0,0.01988 0,0.03977 0.01988,0.05965 0.139188,0.01988 0.258492,0.03977 0.367854,0.208782 0.02983,0.04971 0.109362,0.19884 0.208782,0.437448 l 0.278376,0.636288 c 0.238609,0.536869 0.338029,0.805303 0.367855,0.874897 0.0099,0.05965 0.04971,0.08948 0.07954,0.08948 0.02983,0 0.06959,-0.02983 0.06959,-0.02983 l 0.874896,-1.948633 c 0.05965,-0.14913 0.19884,-0.258492 0.407622,-0.268434 0.01988,-0.01988 0.01988,-0.04971 0.01988,-0.06959 0.0099,0 0,-0.0099 -0.0099,-0.03977 z m -6.372824,3.628831 c -0.01988,-0.01988 -0.05965,-0.01988 -0.109362,-0.01988 -0.09942,0 -0.516984,0.01988 -1.063794,0.01988 -0.417565,0 -0.755593,-0.0099 -0.845071,-0.0099 -0.109362,0 -0.188898,-0.0099 -0.24855,-0.0099 -0.05965,0 -0.06959,0.01988 -0.06959,0.06959 v 0.59652 c 0.01988,0.0099 0.02983,0.01988 0.05965,0.01988 0.01988,0 0.03977,0 0.05965,-0.0099 0.14913,-0.278376 0.268434,-0.437448 0.457332,-0.507042 0.06959,-0.02983 0.288318,-0.02983 0.367854,-0.02983 0.01988,0.06959 0.01988,0.178956 0.01988,0.288318 v 0.845071 c 0,0.308202 0,0.616404 -0.0099,0.685998 -0.01988,0.119304 -0.05965,0.188898 -0.417564,0.208782 -0.0099,0.01988 -0.0099,0.03977 -0.0099,0.05965 0,0.03977 0.0099,0.03977 0.0099,0.05965 0.169014,0 0.526926,-0.01988 0.596521,-0.01988 0.09942,0 0.417564,0.0099 0.586578,0.0099 h 0.09942 c 0.0099,-0.01988 0.0099,-0.03977 0.0099,-0.05965 0,-0.01988 0,-0.03977 -0.01988,-0.06959 -0.278376,-0.03977 -0.39768,-0.03977 -0.407622,-0.308202 -0.0099,-0.34797 -0.0099,-0.536868 -0.0099,-0.69594 l 0.0099,-1.024027 c 0.03977,0 0.169014,0 0.228666,0.0099 0.238608,0.02983 0.338028,0.109362 0.427506,0.228666 0.05965,0.06959 0.119304,0.19884 0.169014,0.338028 0.02983,0 0.04971,0.0099 0.06959,0.0099 0.01988,0 0.03977,-0.0099 0.05965,-0.02983 v -0.586522 c -0.01988,-0.0099 -0.0099,-0.05965 -0.01988,-0.06959 z m 2.734051,2.236951 c 0,0.01988 -0.0099,0.02983 -0.01988,0.05965 h -0.188898 c -0.119304,0 -0.24855,-0.01988 -0.387738,-0.01988 -0.218724,0 -0.497101,0.01988 -0.606463,0.01988 -0.0099,-0.0099 -0.0099,-0.02983 -0.0099,-0.05965 0,-0.0099 0.0099,-0.03977 0.0099,-0.04971 0.228666,-0.0099 0.318145,-0.04971 0.318145,-0.139188 0,-0.03977 0,-0.109362 -0.06959,-0.29826 -0.06959,-0.169014 -0.109363,-0.24855 -0.119305,-0.288318 -0.0099,-0.0099 -0.01988,-0.01988 -0.06959,-0.01988 h -0.725778 c -0.04971,0.05965 -0.109362,0.218724 -0.169014,0.44739 -0.01988,0.05965 -0.01988,0.109362 -0.01988,0.129246 0,0.06959 0.06959,0.159072 0.328086,0.159072 0.01988,0.02983 0.01988,0.04971 0.01988,0.05965 0,0.01988 0,0.02983 -0.0099,0.05965 h -0.05965 c -0.169014,0 -0.218724,-0.0099 -0.39768,-0.0099 -0.119304,0 -0.39768,0.0099 -0.4971,0.0099 -0.0099,-0.01988 -0.0099,-0.02983 -0.0099,-0.04971 0,-0.0099 0,-0.02983 0.0099,-0.05965 0.139188,-0.02983 0.268434,-0.06959 0.328086,-0.169014 0.03977,-0.04971 0.159072,-0.268434 0.288318,-0.59652 0.129246,-0.308202 0.288318,-0.695941 0.34797,-0.864955 0.09942,-0.19884 0.129246,-0.268434 0.159072,-0.338028 0.04971,-0.09942 0.09942,-0.19884 0.119304,-0.238608 0.01988,-0.01988 0.06959,-0.03977 0.08948,-0.03977 0.03977,0 0.08948,0.01988 0.09942,0.04971 0.01988,0.03977 0.04971,0.08948 0.04971,0.109362 0.129246,0.318144 0.238609,0.606462 0.407623,0.994201 0.08948,0.19884 0.129246,0.328086 0.218724,0.536868 0.05965,0.129246 0.09942,0.228666 0.159072,0.34797 0.08948,0.178956 0.228666,0.178956 0.367854,0.208782 0.01988,0.0099 0.03977,0.02983 0.03977,0.04971 z m -1.153273,-0.964328 c -0.04971,-0.139188 -0.228666,-0.556753 -0.328086,-0.815245 h -0.0099 c -0.04971,0.08948 -0.129246,0.288318 -0.159072,0.377796 -0.119304,0.298261 -0.169014,0.397681 -0.188898,0.447391 h 0.685998 v -0.0099 z m 4.692626,0.89478 c -0.06959,0 -0.208782,-0.01988 -0.238608,-0.02983 -0.04971,-0.02983 -0.159072,-0.06959 -0.159072,-0.4971 v -1.113505 c 0,-0.188898 0.01988,-0.228666 0.03977,-0.268434 0.07954,-0.129246 0.24855,-0.129246 0.338028,-0.14913 0.0099,-0.01988 0.01988,-0.03977 0.01988,-0.05965 0,-0.01988 -0.0099,-0.03977 -0.01988,-0.05965 l -0.874896,0.01988 c -0.02983,0.05965 -0.08948,0.178956 -0.139188,0.268434 -0.218724,0.407622 -0.377796,0.785418 -0.477217,1.033969 l -0.119304,0.308202 -0.685998,-1.560895 c -0.0099,-0.02983 -0.01988,-0.03977 -0.04971,-0.05965 h -0.556752 c -0.159072,0 -0.318144,-0.0099 -0.417564,-0.0099 -0.0099,0.02983 -0.01988,0.04971 -0.01988,0.06959 0,0.0099 0.0099,0.03977 0.01988,0.05965 0.119304,0.01988 0.268434,0.02983 0.308202,0.05965 0.08948,0.05965 0.109362,0.139188 0.119304,0.328086 v 0.636289 0.54681 c 0,0.228666 -0.03977,0.328086 -0.08948,0.377796 -0.04971,0.04971 -0.268434,0.09942 -0.338028,0.119304 -0.0099,0.01988 -0.0099,0.03977 -0.0099,0.04971 0,0.01988 0.0099,0.03977 0.0099,0.05965 h 0.159072 c 0.109362,0 0.258492,-0.0099 0.328086,-0.0099 0.24855,0 0.417564,0.01988 0.44739,0.01988 0.04971,0 0.09942,-0.0099 0.119304,-0.0099 0.0099,-0.01988 0.01988,-0.03977 0.01988,-0.05965 0,0 -0.0099,-0.03977 -0.01988,-0.04971 -0.258492,0 -0.427506,-0.159072 -0.427506,-0.487158 l -0.01988,-1.073737 v -0.437448 h 0.01988 l 0.765534,1.690141 c 0.01988,0.05965 0.06959,0.14913 0.129246,0.288318 0.01988,0.04971 0.03977,0.06959 0.06959,0.06959 0.01988,0 0.05965,0 0.06959,-0.03977 0.02983,-0.09942 0.08948,-0.268434 0.198841,-0.526926 0.04971,-0.129246 0.119304,-0.258492 0.169014,-0.367854 l 0.487166,-1.083785 h 0.0099 v 0.318144 1.352113 c 0,0.139188 -0.03977,0.238608 -0.129246,0.278376 -0.05965,0.01988 -0.178956,0.01988 -0.228666,0.01988 -0.0099,0.01988 -0.01988,0.02983 -0.01988,0.05965 0,0.0099 0.0099,0.03977 0.01988,0.05965 h 0.258492 l 0.934548,0.0099 c 0.0099,-0.01988 0.01988,-0.02983 0.01988,-0.05965 -0.01988,-0.04971 -0.02983,-0.05965 -0.03977,-0.08948 z M 52.755057,27.5413 c -0.09942,0 -0.516984,0.01988 -1.063794,0.01988 -0.417565,0 -0.755593,-0.0099 -0.845071,-0.0099 -0.109362,0 -0.188898,-0.0099 -0.24855,-0.0099 -0.05965,0 -0.06959,0.01988 -0.06959,0.06959 v 0.596521 c 0.01988,0.0099 0.02983,0.01988 0.05965,0.01988 0.01988,0 0.03977,0 0.05965,-0.0099 0.14913,-0.278377 0.268434,-0.437449 0.457332,-0.507043 0.05965,-0.02983 0.288318,-0.02983 0.367854,-0.02983 0.01988,0.06959 0.01988,0.178956 0.01988,0.278376 v 0.845071 c 0,0.308202 0,0.616404 -0.0099,0.685998 -0.01988,0.119304 -0.04971,0.188898 -0.427506,0.208782 -0.0099,0.01988 -0.0099,0.03977 -0.0099,0.05965 0,0.03977 0.0099,0.03977 0.01988,0.05965 0.169014,0 0.526926,-0.01988 0.59652,-0.01988 0.09942,0 0.417565,0.0099 0.586579,0.0099 h 0.09942 c 0.0099,-0.01988 0.0099,-0.03977 0.0099,-0.05965 0,-0.01988 0,-0.03977 -0.01988,-0.06959 -0.278376,-0.03977 -0.39768,-0.03977 -0.407622,-0.308202 -0.0099,-0.34797 -0.0099,-0.536868 -0.0099,-0.69594 l 0.0099,-1.024027 c 0.03977,0 0.169014,0 0.228666,0.0099 0.238608,0.02983 0.338028,0.109362 0.427506,0.228666 0.05965,0.06959 0.119304,0.198841 0.169014,0.338029 0.02983,0 0.04971,0.0099 0.06959,0.0099 0.01988,0 0.03977,-0.0099 0.05965,-0.02983 V 27.61088 c 0,-0.02983 0.0099,-0.06959 -0.0099,-0.08948 -0.01988,0.01988 -0.05965,0.01988 -0.119304,0.01988 z m 2.763877,0.0099 c -0.07954,0 -0.24855,0.0099 -0.288318,0.0099 -0.24855,0 -0.34797,-0.01988 -0.457332,-0.01988 h -0.06959 c -0.0099,0.01988 -0.0099,0.04971 -0.0099,0.06959 0,0.01988 0.0099,0.03977 0.0099,0.04971 0.238608,0.02983 0.328086,0.08948 0.328086,0.208782 0,0.05965 -0.0099,0.169015 -0.05965,0.298261 l -0.487159,1.133388 -0.566694,-1.362055 c -0.01988,-0.03977 -0.01988,-0.09942 -0.01988,-0.129246 0,-0.14913 0.238608,-0.14913 0.34797,-0.159072 0.0099,-0.01988 0.0099,-0.04971 0.0099,-0.05965 0,-0.01988 0,-0.04971 -0.01988,-0.05965 h -0.08948 c -0.159072,0 -0.407622,0.01988 -0.54681,0.01988 -0.119304,0 -0.258492,-0.0099 -0.417564,-0.0099 h -0.14913 c -0.01988,0.02983 -0.01988,0.03977 -0.01988,0.05965 0,0.0099 0,0.03977 0.01988,0.05965 0.139188,0.01988 0.258492,0.03977 0.367854,0.208782 0.02983,0.04971 0.109362,0.198841 0.208782,0.437449 l 0.278376,0.636288 c 0.238608,0.536868 0.338028,0.805302 0.367854,0.874896 0.0099,0.05965 0.04971,0.08948 0.07954,0.08948 0.02983,0 0.06959,-0.02983 0.06959,-0.02983 l 0.874897,-1.948633 c 0.05965,-0.14913 0.19884,-0.258492 0.407622,-0.268434 0.01988,-0.01988 0.01988,-0.04971 0.01988,-0.06959 0,-0.01988 -0.0099,-0.02983 -0.01988,-0.04971 h -0.169014 v 0.0099 z m 3.728251,2.177299 c -0.06959,0 -0.208782,-0.01988 -0.228666,-0.02983 -0.04971,-0.02983 -0.159072,-0.06959 -0.159072,-0.4971 v -1.113504 c 0,-0.188899 0.01988,-0.228667 0.04971,-0.268435 0.07954,-0.129246 0.24855,-0.129246 0.338028,-0.14913 0.0099,-0.01988 0.01988,-0.03977 0.01988,-0.05965 0,-0.01988 -0.01988,-0.03977 -0.02983,-0.05965 l -0.864954,0.01988 c -0.02983,0.05965 -0.09942,0.178956 -0.139188,0.268434 -0.218716,0.407669 -0.377788,0.785465 -0.477208,1.034015 l -0.129247,0.308202 -0.685998,-1.560895 c -0.0099,-0.02983 -0.01988,-0.03977 -0.03977,-0.05965 h -0.566694 c -0.159072,0 -0.318144,-0.0099 -0.407622,-0.0099 -0.01988,0.02983 -0.01988,0.04971 -0.01988,0.06959 0,0.0099 0.0099,0.03977 0.01988,0.05965 0.119304,0.01988 0.258492,0.02983 0.29826,0.05965 0.09942,0.05965 0.109362,0.139188 0.119304,0.328087 l 0.0099,0.636288 -0.0099,0.54681 c 0,0.228666 -0.03977,0.328086 -0.08948,0.377796 -0.04971,0.04971 -0.278376,0.09942 -0.338028,0.119304 -0.0099,0.01988 -0.01988,0.03977 -0.01988,0.04971 0,0.01988 0.0099,0.03977 0.01988,0.05965 h 0.159072 c 0.109362,0 0.24855,-0.0099 0.328086,-0.0099 0.24855,0 0.407622,0.01988 0.44739,0.01988 0.05965,0 0.09942,-0.0099 0.119304,-0.0099 0.0099,-0.01988 0.0099,-0.03977 0.0099,-0.05965 0,-0.0099 -0.0099,-0.03977 -0.01988,-0.05965 -0.268434,0 -0.427506,-0.159072 -0.437448,-0.487158 l -0.01988,-1.073736 V 27.7502 h 0.01988 l 0.775476,1.690141 c 0.01988,0.05965 0.06959,0.14913 0.119304,0.288318 0.01988,0.04971 0.03977,0.06959 0.06959,0.06959 0.02983,0 0.06959,0 0.07954,-0.03977 0.02983,-0.09942 0.09942,-0.268434 0.198841,-0.526926 0.05965,-0.129246 0.119304,-0.258492 0.178956,-0.377796 l 0.487158,-1.083679 h 0.0099 c 0,0.06959 -0.0099,0.318145 -0.0099,0.318145 v 1.34217 c 0,0.139188 -0.03977,0.238608 -0.129246,0.278376 -0.05965,0.01988 -0.178956,0.01988 -0.238608,0.01988 -0.01988,0.01988 -0.01988,0.02983 -0.01988,0.05965 0,0.0099 0,0.03977 0.0099,0.05965 h 0.258492 l 0.924606,0.0099 c 0.0099,-0.01988 0.01988,-0.02983 0.01988,-0.05965 0.0099,-0.02983 0.0099,-0.04971 -0.0099,-0.06959 z"
     id="path261"
     style="stroke-width:0.9942" />
</svg>
