<?xml version="1.0" encoding="UTF-8" standalone="no"?>
<svg
   version="1.0"
   width="191.1431pt"
   height="47.999989pt"
   viewBox="0 0 191.1431 47.999989"
   preserveAspectRatio="xMidYMid meet"
   id="svg52"
   sodipodi:docname="ritsumeikan-with-text.svg"
   inkscape:version="1.1.1 (c3084ef, 2021-09-22)"
   xmlns:inkscape="http://www.inkscape.org/namespaces/inkscape"
   xmlns:sodipodi="http://sodipodi.sourceforge.net/DTD/sodipodi-0.dtd"
   xmlns="http://www.w3.org/2000/svg"
   xmlns:svg="http://www.w3.org/2000/svg"
   xmlns:rdf="http://www.w3.org/1999/02/22-rdf-syntax-ns#"
   xmlns:cc="http://creativecommons.org/ns#"
   xmlns:dc="http://purl.org/dc/elements/1.1/">
  <metadata
     id="metadata58">
    <rdf:RDF>
      <cc:Work
         rdf:about="">
        <dc:format>image/svg+xml</dc:format>
        <dc:type
           rdf:resource="http://purl.org/dc/dcmitype/StillImage" />
      </cc:Work>
    </rdf:RDF>
  </metadata>
  <defs
     id="defs56" />
  <sodipodi:namedview
     pagecolor="#ffffff"
     bordercolor="#666666"
     borderopacity="1"
     objecttolerance="10"
     gridtolerance="10"
     guidetolerance="10"
     inkscape:pageopacity="0"
     inkscape:pageshadow="2"
     inkscape:window-width="1296"
     inkscape:window-height="847"
     id="namedview54"
     showgrid="false"
     inkscape:zoom="4.0377551"
     inkscape:cx="51.14228"
     inkscape:cy="48.170331"
     inkscape:window-x="59"
     inkscape:window-y="25"
     inkscape:window-maximized="0"
     inkscape:current-layer="svg52"
     inkscape:pagecheckerboard="0"
     inkscape:document-units="pt"
     showguides="true"
     inkscape:guide-bbox="true"
     fit-margin-top="0"
     fit-margin-left="16"
     fit-margin-right="16"
     fit-margin-bottom="0">
    <sodipodi:guide
       position="14.219242,53.227179"
       orientation="1,0"
       id="guide40" />
  </sodipodi:namedview>
  <g
     transform="matrix(0.06509205,0,0,-0.06509205,16,49.469958)"
     fill="#000000"
     stroke="none"
     id="g50">
    <path
       d="M 0,465 V 170 h 35 34 l 3,147 3,146 100,-144 C 276,175 276,175 318,172 c 23,-2 42,-1 42,3 0,3 -43,67 -95,142 l -96,138 61,11 c 67,12 104,39 126,91 19,45 17,77 -7,124 -32,63 -76,79 -226,79 H 0 Z m 253,214 c 24,-11 47,-47 47,-73 0,-7 -9,-25 -21,-40 -19,-25 -25,-26 -115,-26 H 70 v 75 75 h 80 c 43,0 90,-5 103,-11 z"
       id="path10" />
    <path
       d="m 1095,520 c -3,-10 -36,-47 -73,-81 -48,-45 -58,-57 -33,-43 19,10 58,41 87,68 l 54,48 20,-23 c 11,-13 19,-27 20,-31 0,-4 20,-21 44,-37 36,-25 46,-28 55,-17 9,10 2,17 -30,31 -22,10 -58,38 -79,62 -42,48 -56,53 -65,23 z"
       id="path12" />
    <path
       d="m 1415,520 c -3,-11 -22,-43 -42,-72 -23,-33 -28,-46 -15,-34 l 22,19 v -91 c 0,-75 -3,-92 -15,-92 -15,0 -20,-12 -9,-22 3,-4 28,3 55,14 48,20 50,20 63,3 19,-26 28,-3 10,23 -8,12 -25,27 -37,34 -20,10 -21,10 -8,-6 13,-15 13,-19 0,-27 -27,-17 -39,-10 -39,26 0,32 3,35 29,35 16,0 31,-6 34,-12 8,-25 16,-2 19,59 2,49 6,63 20,67 10,2 18,11 18,20 0,13 11,16 51,16 39,0 50,-3 46,-14 -5,-11 0,-12 23,-3 41,16 21,38 -26,30 -33,-5 -35,-4 -32,17 1,13 -3,25 -9,27 -8,3 -13,-5 -13,-21 0,-19 -5,-26 -20,-26 -11,0 -20,6 -20,13 -1,6 -7,-2 -15,-20 -18,-42 -69,-72 -63,-37 2,10 -3,19 -9,21 -8,3 -13,-4 -13,-16 0,-12 -6,-21 -15,-21 -21,0 -19,10 8,44 l 23,29 22,-23 c 12,-13 25,-20 29,-16 5,4 -2,16 -14,26 -13,10 -23,23 -23,28 0,20 -29,21 -35,2 z m 45,-120 c 0,-16 -7,-20 -30,-20 -23,0 -30,4 -30,20 0,16 7,20 30,20 23,0 30,-4 30,-20 z m 0,-45 c 0,-10 -10,-15 -30,-15 -20,0 -30,5 -30,15 0,10 10,15 30,15 20,0 30,-5 30,-15 z"
       id="path14" />
    <path
       d="m 1878,490 4,-50 -79,-2 -78,-2 73,-3 c 67,-4 72,-6 72,-26 -1,-41 -37,-103 -86,-146 l -49,-44 40,21 c 51,25 79,55 103,111 l 20,43 12,-36 c 6,-20 31,-57 54,-83 39,-43 46,-46 67,-37 l 24,11 -30,16 c -17,8 -43,28 -59,44 -31,30 -68,102 -60,115 3,4 37,8 76,8 62,0 69,2 58,15 -9,11 -16,13 -24,5 -5,-5 -34,-10 -64,-10 h -54 l 3,47 c 3,36 0,49 -11,51 -12,2 -14,-8 -12,-48 z"
       id="path16" />
    <path
       d="m 2271,505 c 12,-19 25,-32 30,-29 10,6 5,19 -19,47 -26,29 -32,19 -11,-18 z"
       id="path18" />
    <path
       d="m 2350,501 -20,-41 h -79 c -54,0 -81,4 -84,13 -3,6 -6,3 -6,-8 -1,-11 -8,-31 -17,-43 -18,-26 -13,-38 11,-29 8,4 15,18 15,32 v 25 h 117 c 91,0 114,-3 105,-12 -23,-23 -12,-28 22,-10 45,23 31,42 -26,35 -38,-6 -40,-5 -29,15 6,12 18,25 27,30 14,8 14,10 0,21 -12,11 -18,6 -36,-28 z"
       id="path20" />
    <path
       d="m 720,500 v -30 h -70 c -38,0 -70,-3 -70,-7 0,-5 71,-7 157,-5 140,3 156,5 139,18 -13,9 -23,11 -30,4 -5,-5 -30,-10 -54,-10 -43,0 -44,1 -40,30 4,24 1,30 -14,30 -13,0 -18,-8 -18,-30 z"
       id="path22" />
    <path
       d="m 2194,518 c 3,-7 9,-21 12,-30 4,-10 10,-18 13,-18 15,0 20,13 11,30 -11,21 -45,37 -36,18 z"
       id="path24" />
    <path
       d="m 775,347 -30,-92 -90,-6 c -75,-4 -62,-6 75,-7 157,-2 163,-1 146,16 -13,12 -20,14 -23,5 -3,-8 -24,-13 -54,-13 h -48 l 35,73 c 19,39 39,79 44,88 5,9 6,20 3,23 -18,17 -31,-3 -58,-87 z"
       id="path26" />
    <path
       d="m 1520,328 c 0,-66 4,-108 10,-108 6,0 10,5 10,10 0,6 18,10 40,10 22,0 40,-4 40,-10 0,-5 5,-10 10,-10 6,0 10,18 10,40 0,23 5,40 11,40 8,0 8,5 -1,15 -9,11 -16,12 -26,4 -7,-6 -28,-9 -46,-7 -25,2 -34,8 -36,26 -3,19 1,22 32,22 19,0 38,-5 41,-10 11,-18 25,1 19,26 -4,14 -1,31 6,39 14,17 15,17 -62,19 l -58,1 z m 90,67 c 0,-22 -4,-25 -35,-25 -31,0 -35,3 -35,25 0,22 4,25 35,25 31,0 35,-3 35,-25 z m 10,-120 c 0,-22 -4,-25 -40,-25 -36,0 -40,3 -40,25 0,23 4,25 40,25 36,0 40,-2 40,-25 z"
       id="path28" />
    <path
       d="m 1105,420 -60,-7 73,-1 c 42,-1 72,2 72,8 0,6 -6,9 -12,8 -7,-1 -40,-4 -73,-8 z"
       id="path30" />
    <path
       d="m 655,379 c 8,-23 15,-57 15,-75 0,-24 5,-34 15,-34 21,0 19,45 -4,96 -26,56 -44,66 -26,13 z"
       id="path32" />
    <path
       d="m 2260,410 -75,-6 68,-2 c 68,-2 83,-12 47,-34 -11,-7 -20,-18 -20,-25 0,-8 -25,-13 -77,-16 l -78,-3 78,-2 78,-2 -3,-32 c -2,-27 -7,-33 -26,-32 l -22,1 20,-20 c 29,-26 50,-7 50,44 v 39 h 77 c 73,0 76,1 60,17 -13,13 -19,15 -29,5 -13,-13 -108,-17 -108,-4 0,13 45,52 59,52 17,0 8,25 -10,26 -8,0 -48,-2 -89,-6 z"
       id="path34" />
    <path
       d="m 1000,318 c 0,-39 4,-68 10,-68 6,0 10,7 10,15 0,18 41,20 58,3 16,-16 26,13 18,54 -3,18 -1,37 5,44 14,17 17,15 -48,17 l -53,2 z m 70,11 c 0,-36 -2,-40 -22,-37 -19,2 -24,10 -26,41 -3,34 -1,37 22,37 24,0 26,-4 26,-41 z"
       id="path36" />
    <path
       d="m 1130,303 c 0,-49 4,-83 10,-83 12,0 13,7 14,85 1,58 2,60 29,63 26,3 27,1 27,-37 0,-36 -3,-41 -22,-41 h -22 l 22,-16 c 30,-21 42,-10 42,40 0,23 5,47 12,54 7,7 8,12 3,12 -6,1 -34,2 -62,3 l -53,2 z"
       id="path38" />
  </g>
  <path
     style="fill:#ffffff;stroke-width:0.120906"
     d=""
     id="path168"
     inkscape:connector-curvature="0" />
  <flowRoot
     xml:space="preserve"
     id="flowRoot234"
     style="font-style:normal;font-variant:normal;font-weight:normal;font-stretch:normal;font-size:5px;line-height:151%;font-family:'Times New Roman';-inkscape-font-specification:'Times New Roman, ';text-align:center;letter-spacing:0.8px;word-spacing:0px;writing-mode:tb-rl;text-anchor:middle;fill:#000000;fill-opacity:1;stroke:none;stroke-width:1px;stroke-linecap:butt;stroke-linejoin:miter;stroke-opacity:1"
     transform="matrix(0.6509205,0,0,0.6509205,16,0)"><flowRegion
       id="flowRegion236"><rect
         id="rect238"
         width="43.836239"
         height="15.355067"
         x="1.7336366"
         y="82.015671" /></flowRegion><flowPara
       id="flowPara240" /></flowRoot>
  <text
     xml:space="preserve"
     style="font-style:normal;font-variant:normal;font-weight:normal;font-stretch:normal;font-size:2.44095px;line-height:151%;font-family:'Times New Roman';-inkscape-font-specification:'Times New Roman, ';text-align:center;letter-spacing:0.390552px;word-spacing:0px;writing-mode:tb-rl;text-anchor:middle;fill:#000000;fill-opacity:1;stroke:none;stroke-width:0.48819px;stroke-linecap:butt;stroke-linejoin:miter;stroke-opacity:1"
     x="23.617102"
     y="44.754608"
     id="text244" />
  <text
     xml:space="preserve"
     style="font-style:normal;font-variant:normal;font-weight:bold;font-stretch:normal;font-size:3.11398px;line-height:151%;font-family:'Times New Roman';-inkscape-font-specification:'Times New Roman, Bold';font-variant-ligatures:normal;font-variant-caps:normal;font-variant-numeric:normal;font-feature-settings:normal;text-align:center;letter-spacing:0.498237px;word-spacing:0px;writing-mode:lr-tb;text-anchor:middle;fill:#aa0000;fill-opacity:1;stroke:none;stroke-width:0.622797px;stroke-linecap:butt;stroke-linejoin:miter;stroke-opacity:1"
     x="29.160593"
     y="39.97366"
     id="text248"
     transform="scale(0.94474667,1.0584848)"><tspan
       sodipodi:role="line"
       id="tspan252"
       x="29.160593"
       y="39.97366"
       style="fill:#aa0000;stroke-width:0.622797px">Ritsumeikan</tspan><tspan
       sodipodi:role="line"
       id="tspan254"
       x="29.409712"
       y="44.67577"
       style="fill:#aa0000;stroke-width:0.622797px">University</tspan></text>
  <path
     style="fill:#aa0000;stroke-width:0.120906"
     d="M 16.023023,19.185376 V 0.021713 l 4.685123,0.0016 c 8.943207,0.0031 11.979915,0.314339 14.418086,1.477569 1.833196,0.874602 3.222346,2.593228 4.20008,5.196246 0.97079,2.584535 0.793185,4.533823 -0.675162,7.410137 -0.42673,0.835912 -0.780555,1.315125 -1.526357,2.067271 -1.69743,1.711869 -3.301721,2.382901 -7.529814,3.14952 -1.412976,0.256195 -2.569143,0.512499 -2.569261,0.569565 -1.18e-4,0.05707 0.725218,1.145222 1.611855,2.418127 8.146951,11.696194 10.778619,15.603392 10.649875,15.811703 -0.08871,0.143539 -2.773172,0.132321 -3.549108,-0.01483 -1.920986,-0.364308 -2.47377,-1.035103 -11.060771,-13.422047 -1.913098,-2.759688 -3.548017,-5.090455 -3.633152,-5.179482 -0.225852,-0.236177 -0.279374,1.030447 -0.44749,10.590043 l -0.145118,8.251903 h -2.214393 -2.214393 z m 14.56922,-4.895055 c 1.804894,-0.139136 2.248272,-0.266164 2.860919,-0.819656 0.626234,-0.565763 1.465609,-1.744566 1.867842,-2.623157 0.343899,-0.751172 0.339661,-1.150883 -0.024,-2.264035 C 34.917839,7.422877 33.627817,5.806902 32.714314,5.34821 31.596129,4.786743 29.861261,4.607306 24.818967,4.5316 L 20.496563,4.4667 v 4.971436 4.971438 l 4.322404,-0.0037 c 2.377322,-0.0021 4.975297,-0.05403 5.77328,-0.115548 z"
     id="path40"
     inkscape:connector-curvature="0" />
</svg>
