<?xml version="1.0" encoding="UTF-8" standalone="no"?>
<!-- Generator: Adobe Illustrator 15.1.0, SVG Export Plug-In . SVG Version: 6.00 Build 0)  -->

<svg
   version="1.1"
   id="Layer_1"
   x="0px"
   y="0px"
   width="425.13651"
   height="85.333336"
   viewBox="0 0 425.1365 85.333334"
   enable-background="new 0 0 137.134 29.766"
   xml:space="preserve"
   sodipodi:docname="spglobal.svg"
   inkscape:version="1.1.1 (c3084ef, 2021-09-22)"
   xmlns:inkscape="http://www.inkscape.org/namespaces/inkscape"
   xmlns:sodipodi="http://sodipodi.sourceforge.net/DTD/sodipodi-0.dtd"
   xmlns:xlink="http://www.w3.org/1999/xlink"
   xmlns="http://www.w3.org/2000/svg"
   xmlns:svg="http://www.w3.org/2000/svg"><defs
   id="defs134" /><sodipodi:namedview
   id="namedview132"
   pagecolor="#ffffff"
   bordercolor="#666666"
   borderopacity="1.0"
   inkscape:pageshadow="2"
   inkscape:pageopacity="0.0"
   inkscape:pagecheckerboard="0"
   showgrid="false"
   fit-margin-top="0"
   fit-margin-left="16"
   fit-margin-right="16"
   fit-margin-bottom="0"
   inkscape:zoom="8.2182389"
   inkscape:cx="212.51512"
   inkscape:cy="42.64904"
   inkscape:window-width="1296"
   inkscape:window-height="847"
   inkscape:window-x="0"
   inkscape:window-y="25"
   inkscape:window-maximized="0"
   inkscape:current-layer="Layer_1" />
<g
   id="g129"
   transform="matrix(2.8668055,0,0,2.8668055,16,0)">
	<defs
   id="defs104"><rect
     id="SVGID_1_"
     width="137.134"
     height="29.766001"
     x="0"
     y="0" /></defs>
	<clipPath
   id="SVGID_2_">
		<use
   xlink:href="#SVGID_1_"
   overflow="visible"
   id="use106"
   x="0"
   y="0"
   width="100%"
   height="100%" />
	</clipPath>
	<path
   clip-path="url(#SVGID_2_)"
   fill="#d6002a"
   d="m 15.623,23.451 c 0,0.916 -0.151,1.702 -0.453,2.361 -0.302,0.659 -0.691,1.227 -1.167,1.703 -0.75,0.75 -1.661,1.286 -2.732,1.605 C 10.2,29.44 9.061,29.6 7.853,29.6 6.809,29.6 5.78,29.449 4.764,29.147 3.748,28.845 2.837,28.328 2.032,27.596 1.446,27.065 0.961,26.41 0.577,25.633 0.192,24.856 0,24 0,23.067 h 3.625 c 0,0.477 0.095,0.92 0.288,1.331 0.192,0.412 0.434,0.765 0.728,1.057 0.42,0.423 0.928,0.7 1.523,0.839 0.595,0.137 1.176,0.205 1.744,0.205 0.677,0 1.318,-0.077 1.922,-0.233 0.604,-0.155 1.089,-0.425 1.455,-0.811 0.22,-0.236 0.402,-0.488 0.549,-0.755 0.147,-0.265 0.219,-0.635 0.219,-1.111 0,-0.713 -0.232,-1.249 -0.699,-1.606 -0.467,-0.356 -1.002,-0.59 -1.607,-0.7 C 9.088,21.155 8.365,21.063 7.578,21.009 6.791,20.955 6.077,20.87 5.437,20.76 4.759,20.65 4.123,20.458 3.529,20.184 2.934,19.909 2.412,19.548 1.963,19.099 1.515,18.651 1.158,18.111 0.893,17.479 0.627,16.848 0.494,16.13 0.494,15.324 c 0,-0.769 0.156,-1.473 0.467,-2.114 0.311,-0.641 0.723,-1.217 1.236,-1.73 0.64,-0.641 1.464,-1.144 2.471,-1.51 1.007,-0.366 2.087,-0.549 3.24,-0.549 1.043,0 2.045,0.16 3.006,0.48 0.961,0.321 1.772,0.792 2.43,1.414 0.586,0.549 1.057,1.172 1.414,1.867 0.357,0.696 0.544,1.455 0.563,2.279 H 11.697 C 11.678,15.114 11.591,14.77 11.436,14.432 11.28,14.093 11.083,13.796 10.846,13.539 10.534,13.21 10.095,12.954 9.528,12.77 8.96,12.588 8.411,12.496 7.88,12.496 c -0.549,0 -1.112,0.073 -1.688,0.219 -0.577,0.147 -1.067,0.431 -1.469,0.852 -0.202,0.219 -0.362,0.457 -0.481,0.714 -0.119,0.256 -0.178,0.567 -0.178,0.933 0,0.641 0.183,1.13 0.549,1.469 0.366,0.339 0.842,0.554 1.428,0.645 0.622,0.093 1.322,0.175 2.1,0.247 0.778,0.074 1.487,0.156 2.128,0.247 0.732,0.11 1.423,0.308 2.073,0.591 0.65,0.284 1.217,0.659 1.703,1.125 0.484,0.468 0.869,1.03 1.153,1.689 0.282,0.659 0.425,1.4 0.425,2.224"
   id="path109" />
	<path
   clip-path="url(#SVGID_2_)"
   fill="#d6002a"
   d="m 30.951,29.272 -1.372,-1.538 c -0.788,0.696 -1.653,1.208 -2.595,1.538 -0.943,0.329 -1.918,0.494 -2.925,0.494 -0.86,0 -1.684,-0.137 -2.471,-0.412 -0.787,-0.273 -1.473,-0.663 -2.059,-1.167 -0.585,-0.503 -1.052,-1.121 -1.4,-1.853 -0.348,-0.732 -0.522,-1.557 -0.522,-2.472 0,-1.208 0.316,-2.241 0.948,-3.103 0.631,-0.86 1.469,-1.61 2.512,-2.251 -0.312,-0.33 -0.595,-0.654 -0.851,-0.976 -0.257,-0.319 -0.476,-0.645 -0.659,-0.975 -0.184,-0.329 -0.325,-0.677 -0.426,-1.043 -0.1,-0.366 -0.151,-0.778 -0.151,-1.235 0,-0.769 0.142,-1.456 0.426,-2.06 0.283,-0.604 0.663,-1.121 1.139,-1.551 0.476,-0.43 1.039,-0.755 1.689,-0.975 0.649,-0.219 1.34,-0.329 2.073,-0.329 0.714,0 1.395,0.105 2.045,0.316 0.65,0.21 1.222,0.521 1.717,0.933 0.494,0.412 0.887,0.916 1.18,1.51 0.293,0.595 0.44,1.277 0.44,2.046 0,0.641 -0.092,1.212 -0.276,1.716 -0.182,0.503 -0.439,0.961 -0.768,1.373 -0.329,0.411 -0.719,0.791 -1.167,1.139 -0.449,0.349 -0.938,0.677 -1.469,0.988 l 3.377,3.68 c 0.165,-0.311 0.279,-0.673 0.343,-1.085 0.064,-0.412 0.114,-0.846 0.151,-1.304 0.037,-0.439 0.056,-0.869 0.056,-1.291 V 18.29 h 5.024 v 2.718 h -2.251 c -0.038,0.769 -0.138,1.528 -0.302,2.278 -0.165,0.752 -0.458,1.446 -0.879,2.088 l 3.596,3.898 z m -7.88,-8.622 c -0.329,0.202 -0.631,0.395 -0.906,0.577 -0.274,0.183 -0.518,0.395 -0.728,0.632 -0.21,0.238 -0.375,0.507 -0.494,0.81 -0.119,0.303 -0.178,0.654 -0.178,1.058 0,0.494 0.096,0.933 0.288,1.318 0.193,0.384 0.449,0.704 0.769,0.961 0.32,0.256 0.69,0.447 1.112,0.576 0.421,0.128 0.86,0.191 1.318,0.191 0.585,0 1.171,-0.082 1.757,-0.247 0.586,-0.165 1.089,-0.484 1.51,-0.961 z m 3.405,-6.342 c 0,-0.677 -0.206,-1.199 -0.618,-1.565 -0.411,-0.366 -0.929,-0.549 -1.551,-0.549 -0.567,0 -1.071,0.169 -1.51,0.508 -0.439,0.339 -0.659,0.847 -0.659,1.524 0,0.311 0.059,0.604 0.178,0.878 0.119,0.275 0.265,0.536 0.44,0.783 0.173,0.247 0.37,0.479 0.59,0.7 0.219,0.219 0.43,0.43 0.632,0.631 0.292,-0.164 0.589,-0.334 0.892,-0.508 0.301,-0.173 0.571,-0.37 0.809,-0.591 0.238,-0.22 0.43,-0.476 0.577,-0.769 0.147,-0.291 0.22,-0.639 0.22,-1.042"
   id="path111" />
	<path
   clip-path="url(#SVGID_2_)"
   fill="#d6002a"
   d="m 52.211,16.01 c 0,0.934 -0.146,1.784 -0.439,2.554 -0.293,0.769 -0.728,1.428 -1.305,1.977 -0.576,0.549 -1.294,0.976 -2.155,1.277 -0.86,0.302 -1.849,0.453 -2.965,0.453 h -4.118 v 6.974 H 37.714 V 9.778 h 7.633 c 1.116,0 2.105,0.151 2.965,0.453 0.861,0.302 1.579,0.723 2.155,1.263 0.577,0.54 1.012,1.194 1.305,1.963 0.293,0.769 0.439,1.62 0.439,2.553 m -3.568,0.028 c 0,-0.934 -0.275,-1.693 -0.824,-2.279 C 47.27,13.174 46.4,12.881 45.211,12.881 H 41.23 v 6.287 h 3.981 c 1.189,0 2.059,-0.288 2.608,-0.865 0.548,-0.576 0.824,-1.331 0.824,-2.265"
   id="path113" />
	<path
   clip-path="url(#SVGID_2_)"
   fill="#d6002a"
   d="m 73.078,29.245 -0.412,-2.143 c -0.146,0.275 -0.366,0.563 -0.658,0.865 -0.294,0.302 -0.654,0.573 -1.085,0.811 -0.431,0.238 -0.911,0.435 -1.441,0.591 -0.53,0.154 -1.099,0.232 -1.702,0.232 -1.135,0 -2.193,-0.155 -3.171,-0.467 -0.98,-0.311 -1.854,-0.878 -2.622,-1.702 -0.513,-0.53 -0.93,-1.089 -1.249,-1.675 -0.321,-0.586 -0.577,-1.208 -0.769,-1.867 -0.193,-0.659 -0.325,-1.35 -0.399,-2.072 -0.073,-0.724 -0.109,-1.487 -0.109,-2.294 0,-0.785 0.031,-1.54 0.096,-2.265 0.064,-0.723 0.188,-1.404 0.37,-2.045 0.183,-0.641 0.44,-1.254 0.769,-1.84 0.33,-0.585 0.759,-1.144 1.291,-1.675 0.75,-0.75 1.642,-1.318 2.676,-1.702 1.034,-0.385 2.074,-0.577 3.117,-0.577 1.208,0 2.306,0.202 3.295,0.604 0.988,0.403 1.812,0.943 2.471,1.62 0.477,0.495 0.878,1.057 1.208,1.689 0.329,0.631 0.522,1.378 0.576,2.238 h -3.624 c -0.037,-0.385 -0.137,-0.714 -0.302,-0.989 -0.165,-0.274 -0.347,-0.539 -0.549,-0.796 -0.678,-0.787 -1.712,-1.181 -3.104,-1.181 -0.567,0 -1.144,0.115 -1.729,0.344 -0.586,0.229 -1.071,0.553 -1.455,0.974 -0.33,0.348 -0.595,0.751 -0.797,1.208 -0.201,0.458 -0.357,0.939 -0.466,1.442 -0.11,0.504 -0.179,1.011 -0.206,1.523 -0.028,0.513 -0.041,0.988 -0.041,1.427 0,0.44 0.017,0.921 0.054,1.442 0.037,0.522 0.11,1.039 0.22,1.551 0.11,0.514 0.265,1.002 0.467,1.47 0.201,0.467 0.466,0.874 0.796,1.222 0.384,0.421 0.865,0.731 1.442,0.933 0.576,0.202 1.148,0.303 1.715,0.303 0.642,0 1.204,-0.101 1.689,-0.303 0.484,-0.201 0.892,-0.475 1.222,-0.822 0.531,-0.55 0.874,-1.131 1.03,-1.744 0.155,-0.613 0.232,-1.295 0.232,-2.045 h -4.64 v -2.938 h 8.072 v 10.653 z"
   id="path115" />
	<path
   clip-path="url(#SVGID_2_)"
   fill="#d6002a"
   d="m 83.948,29.217 c -0.349,0.072 -0.601,0.124 -0.755,0.15 -0.155,0.028 -0.407,0.041 -0.755,0.041 -1.172,0 -2.114,-0.302 -2.828,-0.906 -0.714,-0.604 -1.071,-1.583 -1.071,-2.938 V 9.393 h 3.46 v 15.596 c 0,0.421 0.082,0.755 0.247,1.002 0.165,0.247 0.54,0.371 1.126,0.371 0.146,0 0.256,-0.005 0.329,-0.014 0.073,-0.009 0.155,-0.015 0.247,-0.015 z"
   id="path117" />
	<path
   clip-path="url(#SVGID_2_)"
   fill="#d6002a"
   d="m 98.517,22.106 c 0,1.208 -0.147,2.22 -0.439,3.034 -0.293,0.814 -0.705,1.561 -1.236,2.237 -0.493,0.604 -1.176,1.125 -2.045,1.565 -0.87,0.438 -1.854,0.659 -2.952,0.659 -1.098,0 -2.082,-0.221 -2.95,-0.659 -0.87,-0.44 -1.553,-0.961 -2.046,-1.565 -0.531,-0.677 -0.943,-1.423 -1.236,-2.237 -0.292,-0.814 -0.439,-1.826 -0.439,-3.034 0,-1.208 0.147,-2.22 0.439,-3.034 0.293,-0.814 0.705,-1.561 1.236,-2.238 0.493,-0.604 1.176,-1.125 2.046,-1.565 0.868,-0.439 1.852,-0.659 2.95,-0.659 1.098,0 2.082,0.22 2.952,0.659 0.869,0.44 1.552,0.961 2.045,1.565 0.531,0.678 0.943,1.424 1.236,2.238 0.291,0.814 0.439,1.826 0.439,3.034 m -3.488,0 c 0,-0.677 -0.064,-1.332 -0.192,-1.963 -0.129,-0.633 -0.402,-1.177 -0.823,-1.635 -0.238,-0.256 -0.54,-0.471 -0.906,-0.645 -0.366,-0.174 -0.787,-0.261 -1.264,-0.261 -0.476,0 -0.896,0.087 -1.263,0.261 -0.367,0.174 -0.669,0.389 -0.906,0.645 -0.421,0.458 -0.695,1.002 -0.823,1.635 -0.128,0.631 -0.192,1.286 -0.192,1.963 0,0.677 0.064,1.332 0.192,1.963 0.128,0.632 0.402,1.177 0.823,1.634 0.237,0.256 0.54,0.471 0.906,0.646 0.366,0.174 0.787,0.261 1.263,0.261 0.477,0 0.897,-0.087 1.264,-0.261 0.366,-0.175 0.668,-0.39 0.906,-0.646 0.421,-0.457 0.694,-1.002 0.823,-1.634 0.128,-0.631 0.192,-1.286 0.192,-1.963"
   id="path119" />
	<path
   clip-path="url(#SVGID_2_)"
   fill="#d6002a"
   d="m 114.354,22.133 c 0,1.354 -0.211,2.558 -0.633,3.61 -0.421,1.053 -1.061,1.927 -1.922,2.623 -0.438,0.365 -0.946,0.658 -1.522,0.878 -0.577,0.22 -1.223,0.329 -1.937,0.329 -0.787,0 -1.547,-0.15 -2.278,-0.452 -0.732,-0.303 -1.31,-0.783 -1.73,-1.442 l -0.22,1.565 h -2.964 V 9.42 h 3.431 v 6.59 c 0.33,-0.402 0.82,-0.736 1.469,-1.002 0.65,-0.265 1.405,-0.398 2.266,-0.398 0.731,0 1.387,0.101 1.964,0.302 0.576,0.201 1.084,0.485 1.522,0.851 1.702,1.41 2.554,3.533 2.554,6.37 m -3.488,-0.054 c 0,-0.622 -0.061,-1.236 -0.179,-1.841 -0.119,-0.604 -0.361,-1.143 -0.728,-1.618 -0.257,-0.313 -0.573,-0.577 -0.947,-0.798 -0.376,-0.219 -0.828,-0.328 -1.359,-0.328 -0.677,0 -1.227,0.142 -1.647,0.425 -0.421,0.284 -0.751,0.649 -0.987,1.099 -0.238,0.448 -0.399,0.943 -0.481,1.482 -0.082,0.54 -0.123,1.066 -0.123,1.579 0,0.695 0.082,1.404 0.247,2.128 0.164,0.723 0.494,1.313 0.988,1.771 0.237,0.22 0.521,0.395 0.852,0.522 0.329,0.128 0.713,0.191 1.152,0.191 0.531,0 0.983,-0.109 1.359,-0.33 0.374,-0.219 0.69,-0.484 0.947,-0.796 0.366,-0.476 0.608,-1.02 0.728,-1.634 0.118,-0.613 0.178,-1.229 0.178,-1.852"
   id="path121" />
	<path
   clip-path="url(#SVGID_2_)"
   fill="#d6002a"
   d="m 129.591,29.08 c -0.293,0.129 -0.545,0.225 -0.755,0.288 -0.21,0.064 -0.525,0.097 -0.946,0.097 -0.751,0 -1.327,-0.202 -1.73,-0.604 -0.403,-0.401 -0.631,-0.869 -0.686,-1.399 -0.33,0.586 -0.879,1.089 -1.648,1.51 -0.769,0.421 -1.665,0.631 -2.689,0.631 -0.861,0 -1.612,-0.123 -2.253,-0.37 -0.641,-0.247 -1.176,-0.577 -1.606,-0.989 -0.429,-0.412 -0.755,-0.887 -0.974,-1.427 -0.22,-0.54 -0.329,-1.103 -0.329,-1.688 0,-0.678 0.123,-1.281 0.37,-1.813 0.246,-0.531 0.591,-0.989 1.029,-1.373 0.439,-0.384 0.952,-0.682 1.538,-0.892 0.585,-0.211 1.216,-0.345 1.895,-0.399 l 4.2,-0.302 v -0.88 c 0,-0.677 -0.16,-1.223 -0.48,-1.634 -0.32,-0.412 -0.965,-0.618 -1.937,-0.618 -0.805,0 -1.431,0.175 -1.88,0.521 -0.448,0.349 -0.69,0.852 -0.728,1.511 h -3.322 c 0.055,-0.806 0.242,-1.502 0.563,-2.087 0.319,-0.586 0.746,-1.066 1.275,-1.441 0.531,-0.375 1.145,-0.654 1.84,-0.837 0.696,-0.183 1.446,-0.275 2.251,-0.275 1.228,0 2.321,0.215 3.282,0.645 0.96,0.431 1.652,1.186 2.072,2.265 0.183,0.458 0.298,0.934 0.344,1.428 0.045,0.494 0.069,0.98 0.069,1.455 v 5.3 c 0,0.329 0.059,0.563 0.178,0.7 0.119,0.137 0.325,0.206 0.618,0.206 0.146,0 0.247,-0.009 0.302,-0.028 0.056,0 0.101,-0.009 0.137,-0.026 z m -4.585,-6.178 -3.624,0.274 c -0.53,0.037 -1.007,0.211 -1.428,0.521 -0.422,0.313 -0.632,0.761 -0.632,1.347 0,0.549 0.206,0.983 0.618,1.304 0.412,0.321 0.883,0.479 1.414,0.479 1.08,0 1.959,-0.278 2.636,-0.837 0.677,-0.558 1.016,-1.368 1.016,-2.43 z"
   id="path123" />
	<path
   clip-path="url(#SVGID_2_)"
   fill="#d6002a"
   d="m 137.134,29.217 c -0.348,0.072 -0.6,0.124 -0.755,0.15 -0.156,0.028 -0.408,0.041 -0.755,0.041 -1.172,0 -2.114,-0.302 -2.828,-0.906 -0.714,-0.604 -1.071,-1.583 -1.071,-2.938 V 9.393 h 3.459 v 15.596 c 0,0.421 0.083,0.755 0.248,1.002 0.165,0.247 0.539,0.371 1.125,0.371 0.147,0 0.256,-0.005 0.33,-0.014 0.073,-0.009 0.155,-0.015 0.247,-0.015 z"
   id="path125" />
	<rect
   clip-path="url(#SVGID_2_)"
   width="137.134"
   height="3.1600001"
   id="rect127"
   x="0"
   y="0" />
</g>
</svg>
