<?xml version="1.0" encoding="UTF-8" standalone="no"?>
<!-- Created with Inkscape (http://www.inkscape.org/) -->

<svg
   version="1.1"
   id="svg9"
   xml:space="preserve"
   width="133.39618"
   height="26.66667"
   viewBox="0 0 133.39618 26.66667"
   sodipodi:docname="twitter-handle.svg"
   inkscape:version="1.1.1 (c3084ef, 2021-09-22)"
   xmlns:inkscape="http://www.inkscape.org/namespaces/inkscape"
   xmlns:sodipodi="http://sodipodi.sourceforge.net/DTD/sodipodi-0.dtd"
   xmlns="http://www.w3.org/2000/svg"
   xmlns:svg="http://www.w3.org/2000/svg"><defs
     id="defs13"><rect
       x="282.58969"
       y="81.058617"
       width="245.40681"
       height="112.29221"
       id="rect14521" /><rect
       x="66.807999"
       y="76.292007"
       width="670.89978"
       height="141.5995"
       id="rect6879" /><rect
       x="46.106735"
       y="47.594051"
       width="700.5249"
       height="203.76202"
       id="rect3463" /><clipPath
       clipPathUnits="userSpaceOnUse"
       id="clipPath35"><path
         d="M 0,215.805 H 637.5 V 0 H 0 Z"
         id="path33" /></clipPath></defs><sodipodi:namedview
     id="namedview11"
     pagecolor="#ffffff"
     bordercolor="#666666"
     borderopacity="1.0"
     inkscape:pageshadow="2"
     inkscape:pageopacity="0.0"
     inkscape:pagecheckerboard="0"
     showgrid="false"
     inkscape:zoom="2.8284271"
     inkscape:cx="40.481863"
     inkscape:cy="50.734912"
     inkscape:window-width="1312"
     inkscape:window-height="847"
     inkscape:window-x="0"
     inkscape:window-y="208"
     inkscape:window-maximized="0"
     inkscape:current-layer="g15"
     width="100px"
     fit-margin-top="0"
     fit-margin-left="0"
     fit-margin-right="0"
     fit-margin-bottom="0" /><g
     id="g15"
     inkscape:groupmode="layer"
     inkscape:label="PartnershipPairingLockup_Templates_Helvetica"
     transform="matrix(1.3333333,0,0,-1.3333333,-0.01954396,287.3519)"><g
       id="g29"
       transform="matrix(0.18556661,0,0,0.18556661,-9.2369505,186.03927)"><g
         id="g31"
         clip-path="url(#clipPath35)"><g
           id="g37"
           transform="translate(99.5884,69.3188)"><path
             d="m 0,0 c 33.18,0 51.325,27.489 51.325,51.325 0,0.781 -0.016,1.558 -0.052,2.332 3.523,2.546 6.584,5.723 8.999,9.34 -3.232,-1.436 -6.71,-2.403 -10.359,-2.84 3.724,2.233 6.584,5.767 7.932,9.98 -3.486,-2.068 -7.345,-3.57 -11.454,-4.38 -3.292,3.506 -7.979,5.7 -13.167,5.7 -9.963,0 -18.042,-8.079 -18.042,-18.038 0,-1.416 0.159,-2.792 0.468,-4.113 -14.992,0.754 -28.286,7.933 -37.182,18.847 -1.551,-2.665 -2.444,-5.763 -2.444,-9.067 0,-6.257 3.186,-11.783 8.028,-15.015 -2.958,0.091 -5.739,0.904 -8.17,2.257 -0.004,-0.076 -0.004,-0.151 -0.004,-0.231 0,-8.737 6.219,-16.031 14.472,-17.684 -1.515,-0.413 -3.109,-0.635 -4.755,-0.635 -1.162,0 -2.293,0.116 -3.391,0.326 2.296,-7.167 8.956,-12.383 16.852,-12.53 -6.175,-4.839 -13.953,-7.722 -22.404,-7.722 -1.456,0 -2.892,0.084 -4.304,0.25 C -19.668,2.986 -10.189,0 0,0"
             style="fill:#1d9bf0;fill-opacity:1;fill-rule:nonzero;stroke:none"
             id="path39" /></g></g></g><text
       transform="scale(1,-1)"
       style="font-variant:normal;font-weight:bold;font-stretch:normal;font-size:18.4379px;font-family:'HelveticaNeueLT Pro 55 Roman';-inkscape-font-specification:HelveticaNeueLTPro-Bd;writing-mode:lr-tb;fill:#000000;fill-opacity:1;fill-rule:nonzero;stroke:none;stroke-width:0.185567"
       id="text43"
       x="23.77536"
       y="-198.91493"><tspan
         x="23.77536"
         y="-198.91493"
         sodipodi:role="line"
         id="tspan41"
         style="stroke-width:0.185567">@llc_rai</tspan></text><text
       xml:space="preserve"
       transform="matrix(0.13917496,0,0,-0.13917496,260.15282,125.51855)"
       id="text3461"
       style="font-style:normal;font-weight:normal;font-size:40px;line-height:1.25;font-family:sans-serif;white-space:pre;shape-inside:url(#rect3463);fill:#000000;fill-opacity:1;stroke:none" /><text
       xml:space="preserve"
       transform="matrix(0.13917496,0,0,-0.13917496,260.15282,125.51855)"
       id="text6877"
       style="font-style:normal;font-weight:normal;font-size:40px;line-height:1.25;font-family:sans-serif;white-space:pre;shape-inside:url(#rect6879);fill:#000000;fill-opacity:1;stroke:none" /><text
       xml:space="preserve"
       transform="matrix(0.75000002,0,0,-0.75000002,0,215.80501)"
       id="text14519"
       style="font-style:normal;font-weight:normal;font-size:40px;line-height:1.25;font-family:sans-serif;white-space:pre;shape-inside:url(#rect14521);fill:#000000;fill-opacity:1;stroke:none" /></g></svg>
