<?xml version="1.0" encoding="UTF-8" standalone="no"?>
<svg
   height="85.333336"
   width="297.02097"
   viewBox="0 0 297.02097 85.332866"
   version="1.1"
   id="svg232"
   sodipodi:docname="ucla.svg"
   inkscape:version="1.1.1 (c3084ef, 2021-09-22)"
   xmlns:inkscape="http://www.inkscape.org/namespaces/inkscape"
   xmlns:sodipodi="http://sodipodi.sourceforge.net/DTD/sodipodi-0.dtd"
   xmlns="http://www.w3.org/2000/svg"
   xmlns:svg="http://www.w3.org/2000/svg">
  <defs
     id="defs236" />
  <sodipodi:namedview
     id="namedview234"
     pagecolor="#ffffff"
     bordercolor="#666666"
     borderopacity="1.0"
     inkscape:pageshadow="2"
     inkscape:pageopacity="0.0"
     inkscape:pagecheckerboard="0"
     showgrid="false"
     fit-margin-top="0"
     fit-margin-left="16"
     fit-margin-right="16"
     fit-margin-bottom="0"
     inkscape:zoom="4.508"
     inkscape:cx="148.73558"
     inkscape:cy="42.480035"
     inkscape:window-width="1296"
     inkscape:window-height="847"
     inkscape:window-x="0"
     inkscape:window-y="25"
     inkscape:window-maximized="0"
     inkscape:current-layer="svg232" />
  <path
     fill="#2774ae"
     d="M 16.207232,60.347179 C 15.88055,57.564446 16.037864,53.510034 16.037864,51.477484 L 20.285058,3.6217413 H 35.894652 L 31.646923,51.900665 c -0.907519,10.478956 3.182404,17.896479 13.636889,17.896479 10.612002,0 16.250777,-7.502052 17.146295,-16.794713 L 66.931317,3.6206727 H 82.613578 L 78.281747,52.336669 c -1.789968,18.815508 -14.205403,32.827488 -34.304345,32.827488 -15.682261,0 -25.810811,-10.115726 -27.769625,-24.816978 M 88.977744,44.144491 C 91.023117,21.190149 106.54829,2.1085501 133.25141,2.1085501 c 7.10292,0 13.87947,1.6093686 20.59479,6.0016842 l -1.80322,18.9854217 c -6.12276,-8.191858 -13.4798,-9.450393 -20.25603,-9.450393 -16.6622,0 -25.80974,11.568006 -27.11669,26.17308 -1.23427,14.338983 6.12276,25.90592 22.30141,25.90592 7.03024,0 14.45974,-2.032763 22.3014,-9.873894 l -1.71826,19.493024 c -7.59898,4.1383 -14.70232,5.989716 -21.80556,5.989716 -26.559923,0 -38.719953,-19.674693 -36.773964,-41.18958 M 166.41947,3.6197109 h 15.59677 l -5.72341,64.9913521 h 22.38583 c 1.63352,0 6.9455,-0.07259 8.40975,-0.07259 -0.0726,0.762313 -1.46414,14.932078 -1.46414,14.932078 H 159.30416 L 166.41915,3.6197887 M 251.85996,0.00191511 H 250.7225 L 207.92355,83.481768 h 16.6622 l 5.95339,-12.668702 h 30.22642 l 3.7631,12.668702 h 16.49229 L 251.88667,-2.2518774e-4 M 247.8936,33.421426 c 0.49611,-1.101125 0.89544,-2.529039 1.13746,-3.291298 h 0.25411 c 0.0726,1.016435 0.24199,2.202142 0.56871,3.376041 0.81072,3.630056 6.9455,23.812458 6.9455,23.812458 h -19.78369 c 0,0 10.62397,-23.305924 10.87767,-23.899018 z"
     id="path230"
     style="stroke-width:1.06864" />
</svg>
