<?xml version="1.0" encoding="UTF-8" standalone="no"?>
<svg
   xml:space="preserve"
   height="85.333336"
   viewBox="0 0 489.8992 85.332137"
   width="489.8992"
   version="1.1"
   id="svg1765"
   sodipodi:docname="ucsd.svg"
   inkscape:version="1.1.1 (c3084ef, 2021-09-22)"
   xmlns:inkscape="http://www.inkscape.org/namespaces/inkscape"
   xmlns:sodipodi="http://sodipodi.sourceforge.net/DTD/sodipodi-0.dtd"
   xmlns="http://www.w3.org/2000/svg"
   xmlns:svg="http://www.w3.org/2000/svg"><defs
     id="defs1769" /><sodipodi:namedview
     id="namedview1767"
     pagecolor="#ffffff"
     bordercolor="#666666"
     borderopacity="1.0"
     inkscape:pageshadow="2"
     inkscape:pageopacity="0.0"
     inkscape:pagecheckerboard="0"
     showgrid="false"
     fit-margin-top="0"
     fit-margin-left="16"
     fit-margin-right="16"
     fit-margin-bottom="0"
     inkscape:zoom="6.1923077"
     inkscape:cx="245.06211"
     inkscape:cy="42.552795"
     inkscape:window-width="1296"
     inkscape:window-height="847"
     inkscape:window-x="0"
     inkscape:window-y="25"
     inkscape:window-maximized="0"
     inkscape:current-layer="svg1765" /><g
     transform="matrix(3.1798556,0,0,-3.1798556,-429.95312,1177.2548)"
     id="g1763"><g
       id="g1761"><path
         d="m 36.047,1.1465 c -8.314,0 -10.641,5.2805 -10.641,12.466 0,8.275 3.73,14.179 11.496,14.179 2.875,0 5.05,-0.35 6.953,-1.051 v -1.67 c -1.008,0.389 -2.407,0.973 -5.007,0.973 -8.508,0 -9.598,-7.729 -9.598,-12.74 0,-4.0015 0.508,-10.645 6.758,-10.645 4.821,2e-4 6.37,3.4958 6.879,5.6721 h 0.968 L 43.508,2.231 C 41.795,1.7672 39.156,1.147 36.047,1.147 Z m 23.346,0 c -4.889,0 -8.737,1.9025 -8.737,6.5625 0,2.489 0.817,3.883 2.524,5.203 3.612,2.759 10.062,4.042 10.062,8.234 0,2.683 -2.215,4.895 -5.633,4.895 -4.157,0 -5.982,-2.407 -6.291,-4.467 h -0.974 l 0.273,5.479 c 0.973,0.156 4.039,0.738 6.68,0.738 5.317,0 9.594,-2.332 9.594,-7.264 0,-3.691 -2.057,-5.281 -5.125,-7.068 -3.379,-1.98 -8.004,-3.108 -8.004,-6.5645 0,-2.565 2.292,-4.2343 4.896,-4.2343 4.154,0 5.71,2.4105 6.061,4.4668 h 0.97 L 65.42,1.8047 C 63.669,1.4572 62,1.1465 59.393,1.1465 Z M 0.854,1.5352 v 0.7734 c 2.14,0 3.3809,0.2725 3.3809,3.1875 v 12.936 c 0,5.476 1.2457,9.359 9.2836,9.359 8.08,0 8.857,-4.039 8.857,-9.359 V 5.4961 c 0,-2.9149 1.243,-3.1874 3.379,-3.1874 V 1.5353 h -8.971 v 0.7734 c 2.096,0 3.375,0.2725 3.375,3.1875 v 12.936 c 0,4.621 -0.889,7.841 -6.488,7.841 -5.0451,0 -5.9786,-3.88 -5.9786,-7.841 V 5.4962 c 0,-2.9149 1.2827,-3.1874 3.3786,-3.1874 V 1.5354 H 0.8545 Z m 104.11,0 v 0.7753 c 2.1,0 3.38,0.2706 3.38,3.1856 v 17.943 c 0,2.912 -1.28,3.184 -3.38,3.184 v 0.781 h 9.09 c 6.1,0 13.29,-1.361 13.29,-12.896 0,-11.575 -6.84,-12.973 -13.29,-12.973 l -9.09,2e-4 z m 9.09,1.5136 c 7.38,0 9.44,4.3103 9.44,11.459 0,7.806 -2.76,11.379 -9.44,11.379 -1.94,0 -2.25,-0.427 -2.25,-3.262 V 6.3128 c 0,-3.0305 0.31,-3.2642 2.25,-3.2642 z m 18.57,0.9961 c -1.1,0 -1.97,0.8625 -1.97,1.9688 0,1.1062 0.87,1.9687 1.97,1.9687 1.11,0 1.97,-0.8625 1.97,-1.9687 0,-1.1063 -0.86,-1.9688 -1.97,-1.9688 z m 32.65,4.2832 c -2.11,0 -2.93,2.3869 -3.48,3.6969 -1.11,-0.586 -1.98,-0.861 -3.57,-0.861 -3.28,0 -6.52,0.966 -6.52,5.422 0,2.937 1.2,3.974 2,4.629 -0.38,0.417 -1.49,1.729 -1.49,3.008 0,1.453 0.9,2.108 1.49,2.451 -1.11,0.555 -2.69,1.486 -2.69,3.629 0,3.108 3.52,4.388 6.9,4.388 4.6,0 8.47,-2.209 8.47,-6.148 0,-3.834 -3.84,-3.904 -5.49,-3.904 h -4.08 c -1.11,0 -2.83,0 -2.83,-1.385 0,-0.759 0.41,-1.278 0.62,-1.553 0.75,0.344 1.76,0.52 3.14,0.52 4.15,0 6.32,-1.972 6.32,-5.461 0,-2.42 -1.14,-3.7 -1.55,-4.149 0.17,-0.551 0.48,-1.554 1.24,-1.554 0.45,0 0.66,0.486 1.56,0.486 1.03,0 1.62,-0.622 1.62,-1.5586 0,-1.035 -0.69,-1.6563 -1.66,-1.6563 z m -90.52,2.8359 c -2.386,0 -5.734,1.139 -5.734,3.385 0,0.932 0.722,1.556 1.656,1.556 0.59,0 1.625,-0.382 1.625,-1.798 0,-1.107 0.277,-2.004 2.42,-2.004 2.9,0 2.937,2.554 2.937,4.974 v 1.311 c -2.625,0.245 -9.123,0.244 -9.123,5.254 0,2.245 1.76,3.904 4.143,3.904 2.354,0 3.841,-0.964 4.906,-2.519 h 0.074 c 0,1.486 0.588,2.519 2.594,2.519 1.24,0 2.104,-0.207 2.518,-0.31 v -0.723 c -0.309,0.069 -0.623,0.137 -0.932,0.137 -1.075,0 -1.486,-0.415 -1.486,-1.623 v -8.573 c 0,-3.212 -0.864,-5.49 -5.598,-5.49 z m 14.098,0 -5.321,0.828 v 0.588 c 0.999,0.069 2.625,0.172 2.625,2.246 v 9.434 c 0,2.246 -1.177,2.554 -2.625,2.554 v 0.59 h 7.946 v -0.59 c -1.455,0 -2.625,-0.308 -2.625,-2.554 v -4.254 c 0,-3.284 2.488,-7.186 4.523,-7.186 2.285,0 2.317,1.348 2.317,4.321 v 7.119 c 0,2.246 -1.177,2.554 -2.626,2.554 v 0.59 h 7.948 v -0.59 c -1.451,0 -2.625,-0.308 -2.625,-2.554 v -7.879 c 0,-3.215 -0.345,-5.217 -4.01,-5.217 -3.423,0 -4.975,3.28 -5.457,4.559 h -0.07 z m 45.222,0 -5.32,0.828 v 0.588 c 1.04,0.069 2.63,0.172 2.63,2.246 v 9.434 c 0,2.246 -1.18,2.554 -2.63,2.554 v 0.59 h 7.95 v -0.59 c -1.45,0 -2.63,-0.308 -2.63,-2.554 z m 9.68,0 c -4.98,0 -7.02,2.794 -7.02,7.84 0,5.804 3.01,8.742 8.36,8.742 2.11,0 3.29,-0.31 4.12,-0.623 V 26.02 c -0.7,0.345 -1.63,0.449 -2.42,0.449 -5.78,0 -7.19,-5.908 -7.19,-8.811 h 10.06 v -0.762 c 0,-4.007 -2.81,-5.732 -5.91,-5.732 z m 29.88,0 c -4.42,0 -7.22,3.106 -7.22,8.291 0,5.183 2.8,8.291 7.22,8.291 4.43,0 7.22,-3.108 7.22,-8.291 0,-5.185 -2.79,-8.291 -7.22,-8.291 z m -30.33,1.139 c 2.66,0 3.28,2.383 3.28,4.215 h -6.98 c 0,-1.279 1.07,-4.215 3.7,-4.215 z m 14.51,0 c 2.49,0 3.39,2.073 3.39,4.662 0,1.835 -0.38,4.113 -3.29,4.113 -2.49,0 -3.35,-2.14 -3.35,-4.766 0,-2.004 0.52,-4.009 3.25,-4.009 z m 15.82,0 c 3.46,0 4.15,4.283 4.15,7.152 0,2.869 -0.69,7.15 -4.15,7.15 -3.45,0 -4.14,-4.281 -4.14,-7.15 0,-2.869 0.69,-7.152 4.14,-7.152 z M 77.658,19.73 v 2.04 c 0,2.348 -1.451,4.527 -3.697,4.527 -1.175,0 -2.352,-1.209 -2.352,-3.004 0,-3.215 4.424,-3.526 6.049,-3.563 z m 77.256,7.362 h 6.04 c 1.74,0 3.18,0.587 3.18,2.349 0,2.488 -2.9,4.112 -6.04,4.112 -3.01,0 -4.84,-1.762 -4.84,-3.801 0,-1.555 0.97,-2.143 1.66,-2.66 z"
         transform="matrix(0.8,0,0,-0.8,139.56,371.14)"
         fill="#182b49"
         id="path1757" /><path
         d="m 0.85547,33.359 v 0.877 h 149.22 c -0.32,-0.268 -0.6,-0.563 -0.84,-0.877 z m 166.07,0 c -0.31,0.317 -0.65,0.607 -1.03,0.877 h 14.68 v -0.877 z"
         transform="matrix(0.8,0,0,-0.8,139.56,371.14)"
         fill="#c69214"
         id="path1759" /></g></g></svg>
