<?xml version="1.0" encoding="UTF-8" standalone="no"?>
<svg
   width="358.71478"
   height="85.333336"
   version="1.1"
   id="svg496"
   sodipodi:docname="uiuc-with-text.svg"
   inkscape:version="1.1.1 (c3084ef, 2021-09-22)"
   xmlns:inkscape="http://www.inkscape.org/namespaces/inkscape"
   xmlns:sodipodi="http://sodipodi.sourceforge.net/DTD/sodipodi-0.dtd"
   xmlns="http://www.w3.org/2000/svg"
   xmlns:svg="http://www.w3.org/2000/svg">
  <defs
     id="defs500" />
  <sodipodi:namedview
     id="namedview498"
     pagecolor="#ffffff"
     bordercolor="#666666"
     borderopacity="1.0"
     inkscape:pageshadow="2"
     inkscape:pageopacity="0.0"
     inkscape:pagecheckerboard="0"
     showgrid="false"
     fit-margin-left="16"
     fit-margin-right="16"
     fit-margin-top="0"
     fit-margin-bottom="0"
     inkscape:zoom="4.6958333"
     inkscape:cx="150.23957"
     inkscape:cy="41.419698"
     inkscape:window-width="1296"
     inkscape:window-height="847"
     inkscape:window-x="0"
     inkscape:window-y="25"
     inkscape:window-maximized="0"
     inkscape:current-layer="svg496" />
  <g
     style="fill:#000000;fill-opacity:1;fill-rule:nonzero;stroke:none;stroke-width:1;stroke-opacity:1"
     transform="matrix(2.184084,0,0,2.1947642,-91.832732,-30.275784)"
     id="g494">
    <g
       transform="matrix(1.3333,0,0,-1.3333,-78.129,83.986)"
       id="g492">
      <g
         transform="matrix(0.61058,0,0,0.61058,59.375,14.581)"
         id="g490">
        <g
           style="fill:#13294b"
           transform="matrix(0.61058,0,0,0.61058,59.375,14.581)"
           id="g484">
          <path
             d="M 0,78.22 V 57.161 H 12.034 V 21.06 H 0 V 0 H 54.152 V 21.06 H 42.118 V 57.161 H 54.152 V 78.22 Z m 276.9,-2.8682 c -3.908,0 -6.7456,-2.9483 -6.7456,-6.5479 v -0.03516 c 0,-3.5997 2.802,-6.5112 6.709,-6.5112 3.907,0 6.7456,2.9476 6.7456,6.5464 v 0.03662 c 0,3.5985 -2.802,6.5112 -6.709,6.5112 z m -74.37,-0.03662 c -2.587,0 -4.4312,-1.519 -4.4312,-3.8159 v -0.03662 c 0,-2.5137 1.6443,-3.2197 4.1953,-3.8701 2.115,-0.543 2.5503,-0.9045 2.5503,-1.6084 v -0.03809 c 0,-0.7414 -0.68666,-1.1924 -1.8267,-1.1924 -1.446,0 -2.6403,0.59602 -3.7793,1.5366 l -1.645,-1.9702 c 1.519,-1.3566 3.4531,-2.0273 5.3701,-2.0273 2.732,0 4.6494,1.4121 4.6494,3.9258 v 0.03516 c 0,2.207 -1.4491,3.1291 -4.0151,3.7983 -2.19,0.5613 -2.7319,0.83206 -2.7319,1.6641 v 0.03662 c 0,0.6152 0.56098,1.103 1.626,1.103 1.069,0 2.172,-0.47065 3.293,-1.248 l 1.4487,2.0991 c -1.285,1.03 -2.8606,1.6084 -4.7036,1.6084 z M 95.53,75.135 v -7.2349 c 0,-3.7266 2.0802,-5.625 5.4814,-5.625 3.399,0 5.5518,1.8805 5.5518,5.7144 v 7.1455 h -2.7847 v -7.2524 c 0,-2.007 -1.0315,-3.0396 -2.7305,-3.0396 -1.7019,0 -2.7305,1.0679 -2.7305,3.1304 v 7.1616 z m 19.017,0 V 62.474 h 2.7495 v 8.0479 l 6.1304,-8.0479 h 2.3701 v 12.661 h -2.7495 v -7.7959 l -5.9312,7.7959 z m 19.437,0 V 62.474 h 2.7861 v 12.661 z m 9.6533,0 5.1167,-12.751 h 2.4595 l 5.1196,12.751 h -3.0044 l -3.3076,-8.9165 -3.3106,8.9165 z m 19.537,0 V 62.474 h 9.6401 v 2.477 h -6.873 v 2.6587 h 5.9692 v 2.4771 h -5.9692 v 2.5693 h 6.7822 v 2.4785 z m 17.279,0 V 62.474 h 2.7847 v 4.0503 h 2.187 l 2.7144,-4.0503 h 3.2549 l -3.0938,4.5205 c 1.61,0.5981 2.7129,1.8814 2.7129,3.9243 v 0.03662 c 0,2.6042 -1.7889,4.1792 -4.7739,4.1792 z m 34.679,0 V 62.474 h 2.7847 v 12.661 z m 9.7471,0 v -2.5693 h 3.8525 v -10.091 h 2.7847 v 10.091 h 3.8511 v 2.5693 z m 16.739,0 4.8648,-7.6685 v -4.9922 h 2.7847 v 5.0464 l 4.8647,7.6143 h -3.1655 l -3.0747,-5.083 -3.0205,5.083 z m 49.46,0 V 62.474 h 2.7847 v 4.8999 h 6.0396 v 2.5327 h -6.0396 v 2.6953 h 6.854 v 2.5327 z m -14.21,-2.3525 c 2.244,0 3.8335,-1.8078 3.8335,-3.9785 v -0.03516 c 0,-2.1711 -1.5549,-3.9434 -3.7969,-3.9434 -2.243,0 -3.8335,1.8086 -3.8335,3.9785 v 0.03662 c 0,2.1688 1.5549,3.9419 3.7969,3.9419 z m -93.63,-0.1626 h 2.7656 c 1.357,0 2.19,-0.61502 2.19,-1.8076 v -0.03662 c 0,-1.0664 -0.77828,-1.79 -2.1343,-1.79 h -2.8213 z m 54.681,-19.011 c -10.008,0 -17.281,-7.5515 -17.281,-16.771 v -0.09375 c 0,-9.2199 7.182,-16.68 17.19,-16.68 10.008,0 17.281,7.552 17.281,16.774 v 0.09082 c 0,9.2207 -7.181,16.68 -17.19,16.68 z m 50.004,-0.09228 c -6.625,0 -11.351,-3.8924 -11.351,-9.7764 v -0.09229 c 0,-6.4406 4.215,-8.2475 10.749,-9.9155 5.421,-1.3906 6.5332,-2.3157 6.5332,-4.1235 v -0.09229 c 0,-1.9008 -1.7612,-3.0586 -4.6802,-3.0586 -3.706,0 -6.7636,1.5293 -9.6826,3.9375 l -4.2173,-5.0493 c 3.891,-3.4758 8.8502,-5.1885 13.762,-5.1885 6.996,0 11.908,3.6138 11.908,10.053 v 0.09229 c 0,5.6535 -3.7071,8.0161 -10.286,9.731 -5.607,1.4363 -6.9976,2.131 -6.9976,4.2627 v 0.09228 c 0,1.575 1.4359,2.8271 4.1689,2.8271 2.735,0 5.5611,-1.2057 8.4331,-3.1978 l 3.709,5.3745 c -3.29,2.6406 -7.3213,4.1235 -12.048,4.1235 z m -191.3,-0.4629 v -32.435 h 7.1353 v 32.435 z m 15.612,0 v -32.435 h 23.304 v 6.4878 h -16.169 v 25.947 z m 28.532,0 v -32.435 h 23.306 v 6.4878 h -16.172 v 25.947 z m 28.689,0 v -32.435 h 7.1338 v 32.435 z m 15.611,0 v -32.435 h 7.043 v 20.619 l 15.706,-20.619 h 6.0703 v 32.435 h -7.043 v -19.969 l -15.196,19.969 z m 76.947,0 v -32.435 h 7.1367 v 32.435 z m -24.188,-6.022 c 5.746,0 9.8218,-4.6353 9.8218,-10.194 v -0.09375 c 0,-5.5593 -3.985,-10.1 -9.731,-10.1 -5.745,0 -9.8218,4.6333 -9.8218,10.194 v 0.09082 c 0,5.5605 3.985,10.103 9.731,10.103 z m -45.791,-35.706 c -2.509,0 -4.2612,-1.903 -4.2612,-4.2261 V 7.076183 c 0,-2.3469 1.7859,-4.2026 4.1909,-4.2026 1.575,0 2.5106,0.55978 3.3516,1.459 l -1.1455,1.1558 c -0.641,-0.58398 -1.213,-0.95654 -2.146,-0.95654 -1.402,0 -2.3701,1.1663 -2.3701,2.5679 V 7.12318 c 0,1.4 0.99212,2.5459 2.3701,2.5459 0.816,0 1.4589,-0.35205 2.0889,-0.92432 l 1.144,1.3198 c -0.759,0.7469 -1.6817,1.2612 -3.2226,1.2612 z m 90.977,0 c -2.475,0 -4.2847,-1.903 -4.2847,-4.2261 V 7.076183 c 0,-2.4172 1.7514,-4.2026 4.2964,-4.2026 1.494,0 2.6493,0.58281 3.4893,1.2949 v 3.5493 h -3.5493 v -1.5527 h 1.8106 v -1.166 c -0.455,-0.32734 -1.0394,-0.49072 -1.6934,-0.49072 -1.448,0 -2.4741,1.0972 -2.4741,2.5913 V 7.1231 c 0,1.3887 1.0382,2.5459 2.3452,2.5459 0.946,0 1.5062,-0.30518 2.1372,-0.83057 l 1.1323,1.3667 c -0.852,0.7234 -1.7385,1.1206 -3.2095,1.1206 z m -143.22,-0.08203 -3.5024,-8.2295 h 1.834 l 0.74707,1.8325 h 3.4556 l 0.74707,-1.8325 h 1.8794 l -3.501,8.2295 z m 28.154,0 -3.501,-8.2295 h 1.8325 l 0.74707,1.8325 h 3.4556 l 0.74707,-1.8325 h 1.8794 l -3.5024,8.2295 z m 50.191,0 -3.5024,-8.2295 h 1.834 l 0.74707,1.8325 h 3.4556 l 0.74707,-1.8325 h 1.8794 l -3.5024,8.2295 z m 40.901,0 -3.5024,-8.2295 h 1.834 l 0.74707,1.8325 h 3.4556 l 0.74707,-1.8325 h 1.8779 l -3.501,8.2295 z m -162.44,-0.05713 v -4.6699 c 0,-2.4055 1.3431,-3.6313 3.5376,-3.6313 2.194,0 3.583,1.2153 3.583,3.6899 v 4.6113 h -1.7974 v -4.6816 c 0,-1.2961 -0.66568,-1.9614 -1.7637,-1.9614 -1.0972,0 -1.7622,0.68877 -1.7622,2.02 v 4.623 z m 13.808,0 v -8.1724 h 1.7988 v 2.6133 h 1.4121 l 1.752,-2.6133 h 2.1006 l -1.9966,2.918 c 1.039,0.38555 1.752,1.2144 1.752,2.5327 v 0.023437 c 0,0.77032 -0.2452,1.4126 -0.7002,1.8677 -0.537,0.5371 -1.3428,0.83057 -2.3818,0.83057 z m 13.295,0 v -8.1724 h 3.8877 c 1.844,0 3.0601,0.74707 3.0601,2.2412 v 0.023437 c 0,1.0976 -0.58477,1.6447 -1.5308,2.0068 0.58299,0.32734 1.0737,0.8418 1.0737,1.7637 v 0.023437 c 0,0.56054 -0.18657,1.0161 -0.55957,1.3887 -0.467,0.468 -1.2022,0.7251 -2.1372,0.7251 z m 27.362,0 v -8.1724 h 1.7739 v 5.1943 l 3.958,-5.1943 h 1.5293 v 8.1724 h -1.7739 v -5.0332 l -3.8291,5.0332 z m 50.542,0 v -8.1724 h 1.7974 v 3.2798 h 3.3164 v -3.2798 h 1.7974 v 8.1724 h -1.7974 v -3.2344 h -3.3164 v 3.2344 z m 27.804,0 v -8.1724 h 1.7622 v 5.2998 l 2.2778,-3.4556 h 0.0454 l 2.2998,3.4907 v -5.335 h 1.7856 v 8.1724 h -1.9365 l -2.1489,-3.457 -2.1475,3.457 z m 14.988,0 v -8.1724 h 1.7974 v 2.4507 h 1.3652 c 1.833,0 3.3047,0.98115 3.3047,2.8726 v 0.023437 c 0,1.6692 -1.1799,2.8257 -3.1289,2.8257 z m 25.995,0 v -8.1724 h 1.7974 v 8.1724 z m 22.702,0 v -8.1724 h 1.7739 v 5.1943 l 3.958,-5.1943 h 1.5293 v 8.1724 h -1.7754 v -5.0332 l -3.8291,5.0332 z m -167.64,-1.5762 h 1.7739 c 0.759,0 1.1792,-0.30518 1.1792,-0.84229 V 8.744633 c 0,-0.60625 -0.50092,-0.86279 -1.2949,-0.86279 h -1.6582 z m -13.248,-0.046875 h 1.7856 c 0.875,0 1.4136,-0.39677 1.4136,-1.1675 V 8.372547 c 0,-0.68946 -0.50342,-1.1572 -1.3784,-1.1572 h -1.8208 z m 133.99,0 h 1.3887 c 0.9,0 1.459,-0.43193 1.459,-1.2378 V 8.302248 c 0,-0.7 -0.52383,-1.2378 -1.4238,-1.2378 h -1.4238 z m -105.6,-0.479 1.0869,-2.6499 h -2.1724 z m 28.154,0 1.0854,-2.6499 h -2.1709 z m 50.191,0 1.0869,-2.6499 h -2.1709 z m 40.901,0 1.0854,-2.6499 h -2.1709 z m -81.253,-1.5996 v -1.7051 h 3.5962 v 1.7051 z m -53.133,-1.0972 h 2.0786 c 0.921,0 1.3315,-0.33887 1.3315,-0.8877 V 5.476548 c 0,-0.60742 -0.48041,-0.88623 -1.2744,-0.88623 h -2.1357 z"
             id="path482" />
        </g>
        <g
           style="fill:#ff552e"
           transform="matrix(0.61058,0,0,0.61058,59.375,14.581)"
           id="g488">
          <path
             d="m 42.119,60.17 h 9.0243 V 75.212 H 3.0073 V 60.17 h 9.0262 c 1.6598,0 3.0078,-1.3457 3.0078,-3.0086 v -36.103 c 0,-1.6594 -1.348,-3.0078 -3.0078,-3.0078 H 3.0073 V 3.0096 h 48.136 v 15.041 H 42.119 c -1.6617,0 -3.0093,1.3484 -3.0093,3.0078 v 36.103 c 0,1.6629 1.3476,3.0086 3.0093,3.0086"
             id="path486" />
        </g>
      </g>
    </g>
  </g>
</svg>
