<?xml version="1.0" encoding="UTF-8" standalone="no"?>
<svg
   viewBox="0 0 385.78073 85.333334"
   height="85.333336"
   width="385.78073"
   xml:space="preserve"
   id="svg2"
   version="1.1"
   sodipodi:docname="umea-with-text.svg"
   inkscape:version="1.1.1 (c3084ef, 2021-09-22)"
   xmlns:inkscape="http://www.inkscape.org/namespaces/inkscape"
   xmlns:sodipodi="http://sodipodi.sourceforge.net/DTD/sodipodi-0.dtd"
   xmlns="http://www.w3.org/2000/svg"
   xmlns:svg="http://www.w3.org/2000/svg"
   xmlns:rdf="http://www.w3.org/1999/02/22-rdf-syntax-ns#"
   xmlns:cc="http://creativecommons.org/ns#"
   xmlns:dc="http://purl.org/dc/elements/1.1/"><sodipodi:namedview
     id="namedview621"
     pagecolor="#ffffff"
     bordercolor="#666666"
     borderopacity="1.0"
     inkscape:pageshadow="2"
     inkscape:pageopacity="0.0"
     inkscape:pagecheckerboard="0"
     showgrid="false"
     inkscape:zoom="1"
     inkscape:cx="378"
     inkscape:cy="-33.5"
     inkscape:window-width="1675"
     inkscape:window-height="847"
     inkscape:window-x="-68"
     inkscape:window-y="25"
     inkscape:window-maximized="0"
     inkscape:current-layer="svg2"
     fit-margin-top="0"
     fit-margin-left="16"
     fit-margin-right="16"
     fit-margin-bottom="0" /><metadata
     id="metadata8"><rdf:RDF><cc:Work
         rdf:about=""><dc:format>image/svg+xml</dc:format><dc:type
           rdf:resource="http://purl.org/dc/dcmitype/StillImage" /></cc:Work></rdf:RDF></metadata><defs
     id="defs6" /><g
     id="g801"
     transform="matrix(0.83109005,0,0,0.83109005,-142.40909,-0.00111429)"><path
       id="path14"
       style="fill:#171717;fill-opacity:1;fill-rule:nonzero;stroke:none;stroke-width:0.133333"
       d="m 241.94266,0.00134076 c 28.35333,0 51.33867,22.98533324 51.33867,51.33893224 0,28.352532 -22.98534,51.337467 -51.33867,51.337467 -28.35333,0 -51.33866,-22.984935 -51.33866,-51.337467 0,-28.353599 22.98533,-51.33893224 51.33866,-51.33893224" /><path
       id="path16"
       style="fill:#ffffff;fill-opacity:1;fill-rule:nonzero;stroke:none;stroke-width:0.133333"
       d="m 226.11999,49.032406 c 0.88267,-0.222933 1.35734,-0.344266 1.35734,-0.523466 0,-0.1796 -0.82934,-0.951067 -0.88667,-0.9984 -0.0587,-0.04693 0.0827,-0.2036 0.168,-0.1584 0.41733,0.221466 1.188,0.5548 1.57467,0.301066 0.38533,-0.252533 0.22933,-1.088 0.20666,-1.2208 -0.012,-0.05787 0.19334,-0.136 0.23067,-0.0464 0.0373,0.08853 0.52267,1.393734 0.91867,1.768267 0.396,0.375467 1.32133,0.312 1.55333,-0.1208 0.23333,-0.432267 -0.36,-1.4104 -0.592,-1.6428 -0.052,-0.05253 0.0693,-0.206133 0.12267,-0.179067 0.052,0.026 0.492,0.340534 0.73466,0.7172 0.244,0.373334 0.696,1.3 1.08667,1.521334 0.39067,0.2224 1.45733,0.545333 1.62533,0.264533 0.16934,-0.2792 -0.448,-1.135867 -0.48533,-1.177067 -0.036,-0.0432 0.11067,-0.221866 0.16533,-0.180266 0.948,0.722933 1.87867,2.2672 1.87867,3.144799 0,0.8152 -1.512,1.960934 -4.17733,3.176667 -0.10134,0.04573 -0.204,0.0916 -0.308,0.139067 -0.436,0.227066 -0.21334,0.401466 1.38933,1.4724 0.0613,0.04053 0.11333,0.05667 0.19067,0.05667 0.0787,0 2.148,0 2.148,0 0,0 0,5.2448 0,5.343734 0,0.05787 -0.032,0.111466 -0.104,0.086 -0.75734,-0.255734 -1.26267,-1.016134 -1.26267,-1.016134 0,0 -0.23867,1.005734 -0.93467,1.2036 -0.696,0.2 -1.528,-0.930133 -2.58666,-2.700533 0,0 -1.22267,0.349467 -3.05734,1.135467 -0.084,0.038 -0.164,0.0068 -0.2,-0.04693 -0.0387,-0.05413 -0.61466,-0.875466 -0.648,-0.9228 -0.12533,-0.1772 -0.10266,-0.434933 0.0733,-0.600533 2.15866,-2.041733 3.02533,-3.091733 3.34933,-3.533333 0.096,-0.130267 -0.004,-0.154267 -0.23067,-0.160934 -1.056,-0.0376 -1.68,0.165067 -2.45466,1.0536 -0.048,0.0568 -0.296,-0.01827 -0.24267,-0.149466 0.27467,-0.688 0.31867,-0.727067 0.27733,-0.876534 -0.044,-0.148 -0.19866,-0.371866 -0.71866,-0.379733 -0.10667,-0.0011 -0.12267,-0.269733 -0.02,-0.283867 0.59733,-0.07493 0.972,-0.230266 1.06133,-0.430666 0.0653,-0.138134 0.0387,-0.608934 0.0427,-0.691734 0.005,-0.1156 0.22666,-0.151066 0.26133,-0.05213 0.0347,0.098 0.24933,0.663067 0.476,0.751067 0.228,0.08707 1.26933,0.395866 1.51867,0.342266 0.25066,-0.05267 0.30266,-0.265733 0.28,-0.406266 -0.0747,-0.426534 -0.22134,-0.786534 -0.42667,-0.9188 -0.20667,-0.130667 -1.20533,-0.763467 -1.25867,-0.809867 -0.052,-0.04693 0.02,-0.215067 0.0907,-0.202133 0.0667,0.0172 1.052,0.327066 1.15733,0.344266 0.10667,0.01467 0.232,-0.06973 0.26934,-0.1708 0.0373,-0.09947 0.19866,-0.7328 0.22533,-0.816666 0.0253,-0.08547 0.23333,-0.06973 0.24267,0.0208 0.0107,0.0896 -0.028,0.9068 0.001,1.007866 0.032,0.1 0.24267,0.945867 0.512,1.2192 0.26933,0.274534 0.41733,0.3016 0.85467,0.1224 0.43866,-0.1796 2.54133,-1.382266 3.11066,-2.036933 0.14267,-0.163467 0.30134,-0.6416 -0.63333,-0.989066 -0.81467,-0.302534 -4.78933,-1.558267 -7.256,1.295333 -0.044,0.0516 -0.23867,-0.03907 -0.2,-0.110934 0.49067,-0.914133 0.54267,-1.066666 0.46933,-1.269333 -0.0747,-0.2004 -0.19733,-0.3864 -0.93066,-0.442666 -0.0667,-0.0057 -0.0933,-0.2016 -0.009,-0.221334 z m 10.91734,0 c 0.88133,-0.222933 1.35733,-0.344266 1.35733,-0.523466 0,-0.1796 -0.82933,-0.951067 -0.888,-0.9984 -0.0587,-0.04693 0.0827,-0.2036 0.16933,-0.1584 0.416,0.221466 1.18667,0.5548 1.57334,0.301066 0.38533,-0.252533 0.22933,-1.088 0.20666,-1.2208 -0.0107,-0.05787 0.19467,-0.136 0.23067,-0.0464 0.0373,0.08853 0.524,1.393734 0.92,1.768267 0.396,0.375467 1.31867,0.312 1.552,-0.1208 0.23333,-0.432267 -0.35867,-1.4104 -0.59067,-1.6428 -0.0533,-0.05253 0.068,-0.206133 0.12134,-0.179067 0.052,0.026 0.492,0.340534 0.736,0.7172 0.244,0.373334 0.696,1.3 1.08666,1.521334 0.38934,0.2224 1.456,0.545333 1.624,0.264533 0.16934,-0.2792 -0.448,-1.135867 -0.484,-1.177067 -0.0373,-0.0432 0.108,-0.221866 0.164,-0.180266 0.95067,0.722933 1.87867,2.2672 1.87867,3.144799 0,0.8152 -1.512,1.960934 -4.17867,3.176667 -0.1,0.04573 -0.20133,0.0916 -0.30666,0.139067 -0.436,0.227066 -0.212,0.401466 1.38933,1.4724 0.0627,0.04053 0.11333,0.05667 0.19067,0.05667 0.0773,0 2.14933,0 2.14933,0 0,0 0,5.2448 0,5.343734 0,0.05787 -0.032,0.111466 -0.104,0.086 -0.75733,-0.255734 -1.264,-1.016134 -1.264,-1.016134 0,0 -0.23733,1.005734 -0.93467,1.2036 -0.69466,0.2 -1.528,-0.930133 -2.584,-2.700533 0,0 -1.224,0.349467 -3.05733,1.135467 -0.0867,0.038 -0.16533,0.0068 -0.20267,-0.04693 -0.0373,-0.05413 -0.61466,-0.875466 -0.648,-0.9228 -0.12533,-0.1772 -0.10133,-0.434933 0.0733,-0.600533 2.15866,-2.041733 3.02533,-3.091733 3.34933,-3.533333 0.096,-0.130267 -0.003,-0.154267 -0.22933,-0.160934 -1.056,-0.0376 -1.68,0.165067 -2.45467,1.0536 -0.048,0.0568 -0.296,-0.01827 -0.24133,-0.149466 0.27066,-0.688 0.316,-0.727067 0.27466,-0.876534 -0.0427,-0.148 -0.19866,-0.371866 -0.71866,-0.379733 -0.108,-0.0011 -0.12267,-0.269733 -0.02,-0.283867 0.59866,-0.07493 0.97333,-0.230266 1.064,-0.430666 0.064,-0.138134 0.036,-0.608934 0.0413,-0.691734 0.004,-0.1156 0.22667,-0.151066 0.26,-0.05213 0.0347,0.098 0.25067,0.663067 0.47733,0.751067 0.22667,0.08707 1.268,0.395866 1.51734,0.342266 0.25066,-0.05267 0.304,-0.265733 0.28133,-0.406266 -0.076,-0.426534 -0.22133,-0.786534 -0.428,-0.9188 -0.20533,-0.130667 -1.20533,-0.763467 -1.25867,-0.809867 -0.0533,-0.04693 0.02,-0.215067 0.0907,-0.202133 0.068,0.0172 1.05333,0.327066 1.15867,0.344266 0.10666,0.01467 0.232,-0.06973 0.26933,-0.1708 0.036,-0.09947 0.19733,-0.7328 0.22533,-0.816666 0.0253,-0.08547 0.232,-0.06973 0.24267,0.0208 0.0107,0.0896 -0.0293,0.9068 0.001,1.007866 0.032,0.1 0.24267,0.945867 0.51067,1.2192 0.27067,0.274534 0.41867,0.3016 0.85467,0.1224 0.43866,-0.1796 2.54133,-1.382266 3.112,-2.036933 0.14133,-0.163467 0.3,-0.6416 -0.63467,-0.989066 -0.81333,-0.302534 -4.78933,-1.558267 -7.256,1.295333 -0.044,0.0516 -0.23867,-0.03907 -0.2,-0.110934 0.49067,-0.914133 0.544,-1.066666 0.46933,-1.269333 -0.0747,-0.2004 -0.196,-0.3864 -0.92933,-0.442666 -0.068,-0.0057 -0.0933,-0.2016 -0.009,-0.221334 z m 10.916,0 c 0.88266,-0.222933 1.35733,-0.344266 1.35733,-0.523466 0,-0.1796 -0.83067,-0.951067 -0.888,-0.9984 -0.0573,-0.04693 0.084,-0.2036 0.16933,-0.1584 0.41734,0.221466 1.18934,0.5548 1.57467,0.301066 0.38533,-0.252533 0.22933,-1.088 0.204,-1.2208 -0.009,-0.05787 0.196,-0.136 0.23467,-0.0464 0.0347,0.08853 0.52133,1.393734 0.91733,1.768267 0.39733,0.375467 1.32133,0.312 1.552,-0.1208 0.23467,-0.432267 -0.35867,-1.4104 -0.58933,-1.6428 -0.0533,-0.05253 0.0693,-0.206133 0.12,-0.179067 0.052,0.026 0.49333,0.340534 0.736,0.7172 0.24266,0.373334 0.69466,1.3 1.08666,1.521334 0.38934,0.2224 1.45867,0.545333 1.62667,0.264533 0.16933,-0.2792 -0.44933,-1.135867 -0.48667,-1.177067 -0.036,-0.0432 0.11067,-0.221866 0.16534,-0.180266 0.948,0.722933 1.87866,2.2672 1.87866,3.144799 0,0.8152 -1.51066,1.960934 -4.17733,3.176667 -0.10133,0.04573 -0.204,0.0916 -0.308,0.139067 -0.43733,0.227066 -0.21333,0.401466 1.38933,1.4724 0.0613,0.04053 0.112,0.05667 0.19067,0.05667 0.0773,0 2.148,0 2.148,0 0,0 0,5.2448 0,5.343734 0,0.05787 -0.032,0.111466 -0.104,0.086 -0.75733,-0.255734 -1.26267,-1.016134 -1.26267,-1.016134 0,0 -0.23866,1.005734 -0.93466,1.2036 -0.696,0.2 -1.528,-0.930133 -2.58667,-2.700533 0,0 -1.224,0.349467 -3.05733,1.135467 -0.084,0.038 -0.164,0.0068 -0.2,-0.04693 -0.0373,-0.05413 -0.616,-0.875466 -0.648,-0.9228 -0.12534,-0.1772 -0.10267,-0.434933 0.072,-0.600533 2.15866,-2.041733 3.028,-3.091733 3.348,-3.533333 0.0973,-0.130267 -0.001,-0.154267 -0.22934,-0.160934 -1.056,-0.0376 -1.67866,0.165067 -2.45466,1.0536 -0.048,0.0568 -0.29334,-0.01827 -0.24,-0.149466 0.27333,-0.688 0.31733,-0.727067 0.276,-0.876534 -0.0427,-0.148 -0.19867,-0.371866 -0.71867,-0.379733 -0.10933,-0.0011 -0.124,-0.269733 -0.0213,-0.283867 0.59866,-0.07493 0.97333,-0.230266 1.064,-0.430666 0.0653,-0.138134 0.036,-0.608934 0.04,-0.691734 0.005,-0.1156 0.228,-0.151066 0.26266,-0.05213 0.0347,0.098 0.25067,0.663067 0.47734,0.751067 0.22666,0.08707 1.26666,0.395866 1.51733,0.342266 0.24933,-0.05267 0.30267,-0.265733 0.27867,-0.406266 -0.0747,-0.426534 -0.22,-0.786534 -0.42534,-0.9188 -0.20533,-0.130667 -1.20533,-0.763467 -1.25866,-0.809867 -0.0533,-0.04693 0.02,-0.215067 0.0893,-0.202133 0.0693,0.0172 1.052,0.327066 1.15867,0.344266 0.10533,0.01467 0.232,-0.06973 0.26933,-0.1708 0.0373,-0.09947 0.19867,-0.7328 0.224,-0.816666 0.028,-0.08547 0.23333,-0.06973 0.244,0.0208 0.0107,0.0896 -0.0293,0.9068 0.001,1.007866 0.032,0.1 0.24267,0.945867 0.51067,1.2192 0.27067,0.274534 0.41733,0.3016 0.856,0.1224 0.43867,-0.1796 2.54,-1.382266 3.10933,-2.036933 0.14267,-0.163467 0.30267,-0.6416 -0.632,-0.989066 -0.81333,-0.302534 -4.79066,-1.558267 -7.25733,1.295333 -0.044,0.0516 -0.23733,-0.03907 -0.2,-0.110934 0.49067,-0.914133 0.54533,-1.066666 0.472,-1.269333 -0.076,-0.2004 -0.19867,-0.3864 -0.932,-0.442666 -0.0667,-0.0057 -0.0933,-0.2016 -0.009,-0.221334 z m -24.99067,19.611466 h 37.39733 V 40.047473 h -37.39733 v 28.596399" /><path
       id="path18"
       style="fill:#ffffff;fill-opacity:1;fill-rule:nonzero;stroke:none;stroke-width:0.133333"
       d="m 229.94399,55.541206 c -0.24933,0.0552 -0.41333,0.2704 -0.36533,0.481333 0.0453,0.212 0.284,0.336934 0.53467,0.285334 0.24666,-0.05573 0.41066,-0.2708 0.364,-0.4828 -0.0467,-0.212 -0.28534,-0.338 -0.53334,-0.283867" /><path
       id="path20"
       style="fill:#ffffff;fill-opacity:1;fill-rule:nonzero;stroke:none;stroke-width:0.133333"
       d="m 240.85999,55.541206 c -0.248,0.0552 -0.412,0.2704 -0.36533,0.481333 0.048,0.212 0.28533,0.336934 0.53333,0.285334 0.248,-0.05573 0.41467,-0.2708 0.36667,-0.4828 -0.0467,-0.212 -0.28533,-0.338 -0.53467,-0.283867" /><path
       id="path22"
       style="fill:#ffffff;fill-opacity:1;fill-rule:nonzero;stroke:none;stroke-width:0.133333"
       d="m 251.77733,55.541206 c -0.24934,0.0552 -0.412,0.2704 -0.36667,0.481333 0.048,0.212 0.284,0.336934 0.53467,0.285334 0.248,-0.05573 0.41066,-0.2708 0.364,-0.4828 -0.0453,-0.212 -0.28534,-0.338 -0.532,-0.283867" /><path
       id="path24"
       style="fill:#ffffff;fill-opacity:1;fill-rule:nonzero;stroke:none;stroke-width:0.133333"
       d="m 260.35999,36.937073 -18.676,-8.163733 -18.72133,8.1888 v 1.415066 h 37.39733 v -1.440133" /><path
       id="path26"
       style="fill:#ffffff;fill-opacity:1;fill-rule:nonzero;stroke:none;stroke-width:0.133333"
       d="m 272.86399,32.74694 c 0.908,0 1.644,-0.735867 1.644,-1.6432 0,-0.907733 -0.736,-1.643733 -1.644,-1.643733 -0.908,0 -1.64266,0.736 -1.64266,1.643733 0,0.907333 0.73466,1.6432 1.64266,1.6432" /><path
       id="path28"
       style="fill:#ffffff;fill-opacity:1;fill-rule:nonzero;stroke:none;stroke-width:0.133333"
       d="m 210.65466,32.739207 c 0.908,0 1.64267,-0.736 1.64267,-1.6432 0,-0.906667 -0.73467,-1.642667 -1.64267,-1.642667 -0.908,0 -1.64267,0.736 -1.64267,1.642667 0,0.9072 0.73467,1.6432 1.64267,1.6432" /><path
       id="path30"
       style="fill:#ffffff;fill-opacity:1;fill-rule:nonzero;stroke:none;stroke-width:0.133333"
       d="m 204.55466,49.016273 1.824,0.3156 c 0.844,0.145333 2.41067,0.415067 2.84,0.697867 0.16267,0.09533 0.26133,0.391733 0.25333,0.755199 l -0.009,0.3652 c 0.016,0.0396 0.284,0.151067 0.284,0.151067 l 0.18,-0.0824 c 0.0133,-0.03427 0.132,-1.601466 0.132,-1.601466 l 0.22267,-1.686534 c -0.005,-0.0348 -0.196,-0.175466 -0.196,-0.175466 l -0.24534,0.026 c -0.0267,0.03853 -0.096,0.404666 -0.096,0.404666 -0.0653,0.3552 -0.192,0.5844 -0.35333,0.648 -0.232,0.08533 -0.948,0.1124 -3.04,-0.249466 l -1.69867,-0.294267 c -1.768,-0.305733 -3.788,-1.174533 -3.37333,-3.5704 0.15067,-0.878667 0.49867,-1.4984 1.06133,-1.8948 0.73067,-0.515067 1.82267,-0.637467 3.33867,-0.374933 l 3.19333,0.552533 c 1.53467,0.266667 1.69867,0.322933 1.584,1.1532 l -0.052,0.359867 c 0.0267,0.09013 0.0947,0.1328 0.19067,0.146933 0.0947,0.014 0.216,-0.0016 0.26933,-0.06933 0.0107,-0.026 0.37867,-1.8588 0.37867,-1.8588 l 0.46,-1.832934 c -0.02,-0.1088 -0.11333,-0.160933 -0.19467,-0.1828 -0.104,-0.02907 -0.196,-0.01613 -0.24666,0.03653 -0.0133,0.02347 -0.12667,0.3896 -0.12667,0.3896 -0.248,0.791066 -0.46267,0.803066 -2.03333,0.531733 l -3.48934,-0.604133 c -1.76933,-0.307334 -2.92133,-0.133334 -3.736,0.562 -0.66,0.5452 -1.10133,1.439466 -1.31066,2.6572 -0.2,1.148533 0.0307,2.3204 0.60133,3.0568 0.63333,0.836933 1.74133,1.383333 3.388,1.667733" /><path
       id="path32"
       style="fill:#ffffff;fill-opacity:1;fill-rule:nonzero;stroke:none;stroke-width:0.133333"
       d="m 211.56933,64.111072 c 0.0893,0.01867 0.28533,0.211467 0.53733,0.6932 l 0.0987,0.192667 c 0.10133,0.0688 0.212,0.07093 0.30666,0.02867 0.0787,-0.03493 0.13067,-0.0948 0.148,-0.166134 -0.003,-0.03547 -0.55466,-1.503066 -0.55466,-1.503066 l -0.54134,-1.7048 c -0.0587,-0.08067 -0.14666,-0.109333 -0.24666,-0.0952 -0.108,0.01613 -0.19734,0.07813 -0.23067,0.157733 -0.003,0.0344 0.052,0.285467 0.052,0.285467 0.11467,0.534933 0.124,0.8088 0.0333,0.919733 -0.22,0.256267 -1.23733,0.637067 -2.86133,1.071333 l -3.10133,0.832934 c -0.26667,0.07027 -0.516,0.136933 -0.58534,0.1072 0.0507,0.0032 1.99867,-3.035867 1.99867,-3.035867 l 1.20267,-1.831866 0.17866,-0.266134 c 0.524,-0.784266 1.75334,-2.6244 2.356,-3.0484 0,-0.0011 10e-4,-0.0036 10e-4,-0.0057 0.009,-0.09733 -0.168,-0.705733 -0.168,-0.705733 0,-0.0057 -0.31067,-1.6364 -0.31067,-1.6364 -0.056,-0.0808 -0.12667,-0.107867 -0.212,-0.1016 -0.10933,0.0079 -0.22133,0.06773 -0.26933,0.1464 -0.009,0.03587 0.0147,0.289066 0.0147,0.289066 0.0253,0.284267 0.0187,0.6828 -0.152,0.949467 -0.252,0.364 -0.53066,0.457733 -0.95733,0.5708 l -4.22533,1.1188 -0.23334,0.0624 c -0.77866,0.212533 -2.228,0.6084 -2.73466,0.552133 -0.14934,-0.02453 -0.28934,-0.212 -0.38267,-0.516133 0,-0.0021 -0.12667,-0.378667 -0.12667,-0.378667 -0.0253,-0.0312 -0.26933,-0.04533 -0.26933,-0.04533 l -0.20267,0.166133 c -0.003,0.038 0.35734,1.521334 0.35734,1.521334 l 0.31066,1.696933 c 0.02,0.03387 0.22,0.09213 0.22,0.09213 l 0.25867,-0.131733 c 0.001,-0.0031 0.001,-0.0063 0.001,-0.0093 0.008,-0.07707 -0.0373,-0.4932 -0.0373,-0.4932 -0.0213,-0.161467 -0.0253,-0.3032 -0.0133,-0.4224 0.0147,-0.155734 0.056,-0.271867 0.12266,-0.339067 0.42534,-0.371867 2.66534,-0.980267 2.91867,-1.048533 l 3.15867,-0.8468 c 0.31733,-0.08547 0.644,-0.159467 0.85866,-0.166667 -0.0853,0.1224 -1.45866,2.133333 -1.45866,2.133333 l -2.924,4.388 c -1.14267,1.713467 -1.50267,2.212 -1.688,2.435467 0.032,0.216666 0.14,0.320266 0.27466,0.328 0.25734,-0.09467 1.088,-0.333734 2.49334,-0.710934 l 3.66933,-0.9848 c 0.70933,-0.191733 2.36933,-0.641733 2.91467,-0.5448" /><path
       id="path34"
       style="fill:#ffffff;fill-opacity:1;fill-rule:nonzero;stroke:none;stroke-width:0.133333"
       d="m 216.63333,71.357339 c 0.0693,-0.05467 0.148,-0.1484 0.13733,-0.233733 -0.0107,-0.0272 -1.09867,-1.5344 -1.09867,-1.5344 l -1.028,-1.583867 c -0.096,-0.06307 -0.20933,-0.02653 -0.28933,0.02133 -0.044,0.02653 -0.14667,0.0984 -0.14667,0.196934 0.008,0.0276 0.196,0.354666 0.196,0.354666 0.41067,0.723867 0.25867,0.866667 -1.05066,1.762934 l -4.408,3.016133 c -1.29734,0.8896 -1.45867,0.9652 -2.01334,0.332933 l -0.24933,-0.284933 c -0.13067,-0.03747 -0.23467,0.02187 -0.3,0.08533 -0.068,0.06413 -0.10133,0.136534 -0.092,0.196934 0.0107,0.02707 1.11333,1.5604 1.11333,1.5604 l 1.012,1.5584 c 0.0973,0.06147 0.20934,0.0244 0.28934,-0.02293 0.044,-0.02613 0.14666,-0.09853 0.14533,-0.1964 -0.007,-0.02493 -0.18133,-0.359866 -0.18133,-0.359866 -0.38934,-0.746934 -0.26,-0.869334 1.03733,-1.756267 l 4.408,-3.017733 c 1.30933,-0.8968 1.496,-0.987467 2.02267,-0.3416 l 0.23733,0.292666 c 0.11333,0.0536 0.21733,-0.014 0.25867,-0.04693" /><path
       id="path36"
       style="fill:#ffffff;fill-opacity:1;fill-rule:nonzero;stroke:none;stroke-width:0.133333"
       d="m 227.10799,79.914672 c 0.04,-0.0776 0.0467,-0.150533 0.02,-0.205733 -0.0227,-0.02493 -1.228,-0.784934 -1.228,-0.784934 l -1.23733,-0.890533 c -0.11067,-0.01773 -0.20267,0.02813 -0.27067,0.107733 -0.048,0.05787 -0.076,0.119867 -0.08,0.1808 -0.001,0.02027 0,0.04107 0.005,0.06147 0.0187,0.03067 0.21866,0.2036 0.21866,0.2036 0.29067,0.25 0.384,0.4136 0.37867,0.490667 0,0.01453 -0.005,0.02493 -0.0107,0.03533 l -0.45333,0.390667 -3.13733,1.798933 c 0,0 -2.592,1.468267 -3.13734,1.776667 0.0653,-0.249067 1.37334,-5.289067 1.37334,-5.289067 0.32133,-1.1912 0.61066,-2.003733 0.67733,-2.141733 0.04,-0.0364 0.15733,-0.04947 0.63067,0.257867 l 0.19066,0.120266 c 0.11067,0.0073 0.18667,-0.03907 0.24134,-0.120266 0.0573,-0.08653 0.076,-0.1896 0.0467,-0.265734 -0.0187,-0.02547 -1.44266,-1.1676 -1.44266,-1.1676 l -1.172,-1.047466 c -0.112,-0.02547 -0.19867,0.0093 -0.26267,0.07653 -0.068,0.07347 -0.1,0.167733 -0.084,0.255733 0.016,0.0292 0.20533,0.226667 0.20533,0.226667 0.428,0.4536 0.42134,0.823867 0.18534,1.7104 l -1.84934,6.872933 c -0.164,0.664533 -0.40133,1.3932 -0.65066,2 0.003,0.052 0.17066,0.240533 0.17066,0.240533 0,0.0011 0.18934,0.07453 0.18934,0.07453 0.74133,-0.504134 2.38266,-1.481334 3.63866,-2.191734 l 1.76,-0.981733 c 1.54667,-0.862533 2.84,-1.5052 3.53467,-1.819733 0.36,-0.1548 0.62933,-0.155734 0.90133,-0.0043 l 0.384,0.221467 c 0.132,-0.01 0.22134,-0.1084 0.264,-0.192267" /><path
       id="path38"
       style="fill:#ffffff;fill-opacity:1;fill-rule:nonzero;stroke:none;stroke-width:0.133333"
       d="m 236.36799,82.743339 c -0.17733,-0.0099 -1.024,-0.271867 -1.92133,-0.548934 -0.0133,-0.0041 -2.708,-0.838533 -2.708,-0.838533 l -1.676,-0.566133 c -0.112,0.0104 -0.17867,0.1104 -0.212,0.1968 -0.0173,0.04693 -0.0533,0.167733 0.008,0.2432 0.0213,0.01627 0.24267,0.116666 0.24267,0.116666 0.768,0.341734 0.744,0.516667 0.284,2.0052 l -1.59867,5.161067 c -0.46667,1.507733 -0.59467,1.645733 -1.376,1.476533 l -0.48533,-0.103733 c -0.128,0.05213 -0.172,0.164133 -0.18534,0.254267 -0.0133,0.0916 0.005,0.169733 0.0493,0.211466 0.0253,0.01347 1.98533,0.573867 1.98533,0.573867 l 1.292,0.398 3.82533,1.2348 c 0.37467,-0.352534 1.07334,-1.348934 1.33067,-1.8208 -0.003,-0.117734 -0.056,-0.1968 -0.13867,-0.249467 -0.0827,-0.0536 -0.18,-0.0708 -0.25733,-0.0464 -0.57733,0.595333 -1.13467,1.01 -1.44133,1.074533 -0.364,0.0604 -0.82,-0.02507 -1.87334,-0.351066 -1.27466,-0.395867 -1.492,-0.640667 -1.59733,-0.838534 -0.144,-0.292133 -0.0373,-0.783333 0.19333,-1.529733 l 0.62534,-2.021866 c 0.10266,-0.327067 0.108,-0.329067 0.52266,-0.202 l 0.82934,0.258266 c 0.52133,0.160934 0.88133,0.286 1.06533,0.405734 0.252,0.1532 0.27067,0.3932 0.25067,0.6308 l -0.044,0.597333 c 0.044,0.118267 0.15733,0.1708 0.244,0.189067 0.0973,0.0208 0.18133,0.0052 0.232,-0.0416 0.0147,-0.0256 0.156,-0.560934 0.156,-0.560934 l 0.228,-0.8568 0.304,-0.866133 0.20133,-0.564667 c -0.0147,-0.0968 -0.0747,-0.156266 -0.16533,-0.1932 -0.0813,-0.03547 -0.20667,-0.05627 -0.28934,-0.0021 -0.02,0.022 -0.316,0.573467 -0.316,0.573467 -0.18266,0.3344 -0.29733,0.360933 -0.45066,0.3652 -0.17467,0.0031 -0.61067,-0.098 -1.22667,-0.288134 l -0.83067,-0.257733 c -0.41733,-0.1292 -0.41733,-0.1292 -0.31066,-0.476133 l 0.888,-2.866667 c 0.0827,-0.2692 0.12933,-0.417067 0.19866,-0.454133 0.0533,-0.02813 0.14667,-0.0057 0.33467,0.05213 l 1.03333,0.318667 c 0.63067,0.1964 1.07734,0.351066 1.35067,0.512 0.632,0.383866 0.63467,0.878133 0.63867,1.563066 v 0.0864 c 0.0307,0.08547 0.10133,0.1344 0.196,0.159467 0.08,0.0192 0.19733,0.02387 0.26666,-0.0328 0.0213,-0.0328 0.0627,-0.228667 0.0627,-0.228667 0.13867,-0.652133 0.32933,-1.545333 0.32,-1.795333 l -0.003,-0.0516 -0.052,-0.0041" /><path
       id="path40"
       style="fill:#ffffff;fill-opacity:1;fill-rule:nonzero;stroke:none;stroke-width:0.133333"
       d="m 244.92666,87.831339 c -0.75467,0.07453 -0.95867,0.06253 -0.99467,0.03853 -0.0307,-0.0364 -0.0507,-0.226533 -0.072,-0.4484 l -0.344,-3.501067 c -0.0147,-0.172933 -0.0147,-0.264533 0.0347,-0.321333 0.0813,-0.09427 0.34267,-0.125067 0.828,-0.1484 1.736,-0.08907 2.48533,0.923867 2.56,1.978667 0.0587,0.836933 -0.0947,1.4504 -0.54533,1.8776 -0.40534,0.377066 -0.99734,0.4776 -1.46667,0.5244 z m 6.48,4.046933 c -0.392,0.0172 -0.8,-0.08187 -1.088,-0.2776 -1.14267,-0.7328 -2.12267,-1.886533 -3.48667,-3.5636 -0.10266,-0.128133 -0.10533,-0.2088 -0.072,-0.261467 0.408,-0.203066 1.76934,-1.057333 1.60667,-2.715066 -0.12,-1.224 -0.87333,-1.771867 -1.48133,-2.016134 -0.67067,-0.283866 -1.44534,-0.2396 -2.29334,-0.1948 l -0.248,0.01347 c -1.356,0.06933 -2.40133,0.160933 -3.29333,0.290133 -0.0853,0.04427 -0.12267,0.1204 -0.124,0.216134 -0.003,0.09427 0.0333,0.214133 0.12,0.2704 0.028,0.0093 0.508,0.0452 0.508,0.0452 0.54667,0.0396 0.62533,0.211466 0.764,1.687066 l 0.52,5.4068 c 0.156,1.599467 0.12533,1.6828 -0.66267,1.8224 l -0.37066,0.06507 c -0.0973,0.1052 -0.0933,0.224933 -0.0707,0.309866 0.0227,0.08693 0.0693,0.149467 0.12533,0.174534 0.0307,0.0036 1.88534,-0.137067 1.88534,-0.137067 l 1.77733,-0.04787 c 0.10533,-0.0536 0.11867,-0.166666 0.12267,-0.212533 0.004,-0.09373 -0.0173,-0.213467 -0.0947,-0.2708 -0.0293,-0.0104 -0.34667,-0.04013 -0.34667,-0.04013 -0.83333,-0.07027 -0.87066,-0.217734 -1.02666,-1.795867 l -0.184,-1.880666 c -0.028,-0.2708 -0.028,-0.2708 0.616,-0.334934 0.58,-0.0572 0.844,0.07813 1.09866,0.366134 l 1.76934,2.050533 c 1.196,1.309466 1.964,1.683333 3.32,1.509866 l 0.66266,-0.164 c 0.0653,-0.06093 0.0813,-0.1328 0.0627,-0.198933 -0.0173,-0.05893 -0.0613,-0.1032 -0.116,-0.116133" /><path
       id="path42"
       style="fill:#ffffff;fill-opacity:1;fill-rule:nonzero;stroke:none;stroke-width:0.133333"
       d="m 257.91733,83.594405 -1.41334,-0.0448 c -0.98666,-0.04747 -1.65333,-0.359866 -1.98266,-0.925066 -0.10667,-0.183334 -0.24534,-0.491067 -0.256,-0.842667 -0.012,-0.451067 0.188,-0.977067 0.944,-1.416667 1.176,-0.6828 1.976,-0.128133 2.54533,0.4328 0.0827,0.036 0.15733,0.02027 0.23467,-0.03013 0.0787,-0.0532 0.16133,-0.145333 0.16533,-0.2344 -0.34,-0.604133 -0.888,-1.262533 -1.17467,-1.496933 -0.0667,-0.0047 -0.552,0.1756 -0.552,0.1756 -0.4,0.09267 -0.90666,0.2984 -1.31733,0.538 -1.612,0.935866 -2.16267,2.483333 -1.37067,3.848933 0.64,1.102533 1.84667,1.394267 2.74534,1.445333 l 1.69866,0.08853 c 1.26,0.05933 1.74,0.5964 2.072,1.169733 0.23067,0.395867 0.29867,0.838533 0.192,1.2448 -0.11866,0.4428 -0.43733,0.826133 -0.92666,1.109867 -1.34267,0.7808 -2.52534,0.08867 -3.28267,-0.628534 -0.068,-0.036 -0.13733,-0.0292 -0.20667,0.01093 -0.0827,0.0448 -0.17066,0.138 -0.18266,0.2448 0.37333,0.6052 1.09066,1.459866 1.436,1.668666 0.44933,0.0079 1.31066,-0.08387 2.36,-0.695866 0.90133,-0.5224 1.49066,-1.223867 1.70266,-2.028534 0.0627,-0.238533 0.0933,-0.478666 0.0853,-0.7204 -0.0133,-0.451066 -0.14534,-0.9036 -0.39734,-1.3344 -0.592,-1.0208 -1.612,-1.537466 -3.11866,-1.5796" /><path
       id="path44"
       style="fill:#ffffff;fill-opacity:1;fill-rule:nonzero;stroke:none;stroke-width:0.133333"
       d="m 270.78533,80.982405 c -0.0267,0.01093 -0.33467,0.227067 -0.33467,0.227067 -0.69067,0.488 -0.80933,0.391733 -1.87867,-0.794267 l -3.57066,-3.972399 c -1.06134,-1.180134 -1.17467,-1.354134 -0.60534,-1.960934 l 0.26,-0.272933 c 0.0373,-0.120267 -0.048,-0.216133 -0.084,-0.252 -0.0653,-0.0652 -0.16666,-0.126133 -0.248,-0.1032 -0.0267,0.0136 -1.37733,1.2912 -1.37733,1.2912 l -1.43333,1.228667 c -0.0493,0.101466 0,0.207733 0.0573,0.280666 0.0347,0.04013 0.11867,0.1344 0.21733,0.119734 0.0253,-0.01093 0.32534,-0.239067 0.32534,-0.239067 0.664,-0.502533 0.824,-0.371333 1.88533,0.8084 l 3.572,3.970266 c 1.052,1.1704 1.14933,1.319867 0.59333,1.953734 l -0.24933,0.283866 c -0.0187,0.135867 0.0547,0.230134 0.12533,0.286934 0.0747,0.05827 0.148,0.0812 0.208,0.06613 0.0253,-0.014 1.39867,-1.3104 1.39867,-1.3104 l 1.412,-1.2104 c 0.048,-0.103733 -0.003,-0.209467 -0.06,-0.281867 -0.0333,-0.04 -0.11733,-0.1328 -0.21333,-0.1192" /><path
       id="path46"
       style="fill:#ffffff;fill-opacity:1;fill-rule:nonzero;stroke:none;stroke-width:0.133333"
       d="m 278.80133,70.416806 c -0.0427,-0.02867 -0.15334,-0.09013 -0.24,-0.04693 -0.0213,0.0204 -0.29867,0.4136 -0.29867,0.4136 -0.48267,0.670267 -0.648,0.6072 -1.99867,-0.167733 l -5.79733,-3.316133 c -0.21467,-0.1224 -0.31867,-0.1828 -0.33467,-0.2396 -0.0147,-0.05413 0.0413,-0.1536 0.13067,-0.312534 l 0.52933,-0.923466 c 0.40667,-0.709867 0.78667,-1.1348 1.164,-1.3004 0.176,-0.07867 0.57467,4e-4 1.09067,0.218666 0.12667,-0.01293 0.204,-0.107733 0.24133,-0.1968 0.04,-0.0912 0.04,-0.1808 -0.003,-0.2428 -0.43467,-0.203066 -1.424,-0.888533 -1.876,-1.338533 -0.14934,-0.01973 -0.25867,0.156267 -0.27334,0.246934 0.21734,0.395333 0.20134,0.492666 -0.208,1.203066 l -3.01866,5.272933 c -0.38134,0.669334 -0.58267,0.9844 -0.968,0.85 -0.128,0.0256 -0.22267,0.233867 -0.21734,0.307334 0.488,0.4292 1.204,1.095866 1.67067,1.6396 0.128,0.026 0.228,-0.01987 0.3,-0.09747 0.0667,-0.06867 0.096,-0.154667 0.0867,-0.235333 -0.24134,-0.336534 -0.45734,-0.629734 -0.564,-1.105734 -0.104,-0.4568 0.23733,-1.138533 0.584,-1.745866 l 0.41066,-0.7156 c 0.092,-0.164667 0.15334,-0.265734 0.212,-0.281334 0.0587,-0.0156 0.168,0.0464 0.34934,0.150534 l 5.82,3.331733 c 1.36933,0.783333 1.476,0.938667 1.14133,1.6636 l -0.228,0.4912 c -10e-4,0.111467 0.06,0.1916 0.16133,0.2432 0.0707,0.0364 0.17867,0.06253 0.24934,0.01613 0.02,-0.02133 1.01466,-1.852133 1.01466,-1.852133 l 1.01467,-1.680667 c 0.012,-0.1136 -0.068,-0.198 -0.14533,-0.249466" /><path
       id="path48"
       style="fill:#ffffff;fill-opacity:1;fill-rule:nonzero;stroke:none;stroke-width:0.133333"
       d="m 281.79866,53.940673 c -0.11867,0.0172 -0.18933,0.08027 -0.23333,0.169333 -0.044,0.088 -0.048,0.185467 -0.0147,0.258267 0.65333,0.509466 1.128,1.016666 1.22533,1.314666 0.1,0.354134 0.0653,0.8172 -0.14266,1.898934 -0.252,1.312 -0.472,1.556266 -0.65867,1.6812 -0.27467,0.174533 -0.77333,0.123466 -1.54133,-0.02387 l -2.07734,-0.4 -0.28266,-0.102133 c -0.0373,-0.0568 -0.016,-0.186934 0.024,-0.391067 l 0.16533,-0.855733 c 0.0973,-0.516267 0.184,-0.9016 0.28533,-1.104267 0.124,-0.268133 0.36,-0.309867 0.59734,-0.317733 l 0.60133,-0.02187 c 0.11067,-0.05413 0.15333,-0.1744 0.16133,-0.2624 0.0107,-0.09907 -0.0133,-0.180267 -0.0653,-0.226133 -0.028,-0.0124 -0.57467,-0.09213 -0.57467,-0.09213 l -0.88,-0.1328 -0.89866,-0.207866 -0.57867,-0.135867 c -0.0947,0.02387 -0.14667,0.09107 -0.176,0.1864 -0.024,0.08493 -0.0293,0.210933 0.0333,0.286533 0.0213,0.01613 0.604,0.25 0.604,0.25 0.352,0.1452 0.392,0.254667 0.412,0.4072 0.0213,0.174534 -0.0347,0.6308 -0.15333,1.251067 l -0.16267,0.854667 c -0.084,0.4292 -0.084,0.4292 -0.44,0.360933 l -2.94533,-0.567733 c -0.532,-0.102 -0.532,-0.102 -0.45867,-0.487467 l 0.204,-1.059867 c 0.12534,-0.647333 0.22934,-1.108266 0.35867,-1.4 0.31067,-0.6672 0.79867,-0.724933 1.47467,-0.805733 l 0.0933,-0.0093 c 0.0827,-0.04013 0.124,-0.1156 0.13867,-0.212 0.0107,-0.0828 0.001,-0.199467 -0.0613,-0.262534 -0.0373,-0.0172 -0.24266,-0.03693 -0.24266,-0.03693 -0.66,-0.06667 -1.564,-0.157333 -1.81067,-0.119867 l -0.0533,0.0084 0.003,0.05253 c 0.009,0.174533 -0.15333,1.0256 -0.32666,1.9272 -0.0107,0.05613 -0.544,2.827066 -0.544,2.827066 l -0.37734,1.727067 c 0.024,0.110933 0.12934,0.165067 0.21734,0.188 0.0507,0.01307 0.17466,0.03547 0.244,-0.03387 0.0147,-0.02187 0.088,-0.253066 0.088,-0.253066 0.25466,-0.802667 0.432,-0.7964 1.964,-0.502667 l 5.304,1.0188 c 1.54933,0.2984 1.70133,0.410933 1.61866,1.204667 l -0.0493,0.495866 c 0.0667,0.121334 0.184,0.153067 0.27333,0.1552 0.0933,0.0015 0.168,-0.02507 0.20534,-0.074 0.0107,-0.02547 0.352,-2.0364 0.352,-2.0364 l 0.25466,-1.3256 0.80267,-3.938533 c -0.38933,-0.331733 -1.45467,-0.9192 -1.956,-1.124533" /><path
       id="path50"
       style="fill:#ffffff;fill-opacity:1;fill-rule:nonzero;stroke:none;stroke-width:0.133333"
       d="m 273.36666,43.71414 -0.22667,-1.044267 c -0.172,-0.799467 -0.17466,-1.367733 -0.004,-1.737467 0.08,-0.175066 0.42934,-0.372933 0.95734,-0.5412 0.0907,-0.0948 0.0813,-0.2176 0.0547,-0.300933 -0.032,-0.09853 -0.0933,-0.166267 -0.16666,-0.187067 -0.46,0.126534 -1.65734,0.250534 -2.29734,0.204134 -0.12666,0.08027 -0.088,0.286 -0.036,0.3636 0.42267,0.157333 0.47467,0.243733 0.64934,1.047333 l 1.288,5.951067 c 0.16133,0.755733 0.22133,1.121866 -0.152,1.269866 -0.0813,0.1052 -0.0107,0.323867 0.0413,0.375467 0.648,0.0063 1.62667,0.04747 2.344,0.155733 0.11333,-0.064 0.156,-0.1604 0.16,-0.263066 0.004,-0.09733 -0.028,-0.183734 -0.0907,-0.239467 -0.40666,-0.1 -0.76533,-0.179733 -1.16266,-0.471467 -0.38267,-0.278533 -0.588,-1.016666 -0.73734,-1.702533 l -0.17466,-0.808933 c -0.0387,-0.183734 -0.0613,-0.3004 -0.0293,-0.347867 0.032,-0.05053 0.156,-0.0744 0.35867,-0.113467 l 6.57467,-1.253733 c 1.55066,-0.294267 1.73333,-0.246267 1.94933,0.5224 l 0.14533,0.521867 c 0.0707,0.08707 0.17067,0.107333 0.28134,0.08027 0.0827,-0.01987 0.176,-0.06987 0.19733,-0.1516 10e-4,-0.0276 -0.432,-2.066133 -0.432,-2.066133 l -0.324,-1.936933 c -0.0627,-0.09427 -0.18,-0.105734 -0.272,-0.0948 -0.0507,0.0067 -0.17467,0.03227 -0.212,0.121866 -0.005,0.02867 0.04,0.5088 0.04,0.5088 0.0707,0.821334 -0.0947,0.880267 -1.62533,1.171867 l -6.57467,1.251067 c -0.444,0.08547 -0.44267,0.086 -0.524,-0.2844" /><path
       id="path52"
       style="fill:#ffffff;fill-opacity:1;fill-rule:nonzero;stroke:none;stroke-width:0.133333"
       d="m 214.20133,21.00934 c 0.028,-0.0093 0.332,-0.218666 0.332,-0.218666 0.66666,-0.448 0.76,-0.4 1.664,0.862666 0.001,0.0013 2.11466,2.857333 2.11466,2.857333 1.06134,1.449334 2.01067,2.124 3.07867,2.189334 0.83867,0.06533 1.716,-0.244 2.76,-0.976 0.97467,-0.68 1.56533,-1.528 1.704,-2.449333 0.16667,-1.038667 -0.20533,-2.218667 -1.136,-3.605334 l -0.94533,-1.406666 c -0.22267,-0.332 -1.33867,-2.018667 -1.43734,-2.610667 -0.04,-0.173333 0.12134,-0.42 0.40934,-0.628 l 0.29066,-0.210667 c 0.0227,-0.04 -0.068,-0.294666 -0.068,-0.294666 l -0.196,-0.096 c -0.032,0.0093 -1.34133,0.852 -1.34133,0.852 l -1.47333,0.836 c -0.0253,0.02933 -0.0107,0.238666 -0.0107,0.238666 l 0.2,0.185334 c 0.0427,-0.0027 0.37733,-0.169334 0.37733,-0.169334 0.33067,-0.164 0.59334,-0.205333 0.76134,-0.12 0.408,0.213334 1.19066,1.388 1.708,2.165334 l 1.13333,1.692 c 0.64933,0.964 0.99467,1.812 1.03733,2.554666 0.052,0.909334 -0.352,1.658667 -1.212,2.26 -1.68133,1.174667 -3.14,0.729333 -4.73066,-1.444 l -1.92667,-2.614666 -0.0533,-0.07333 c -0.86267,-1.202666 -0.952,-1.328 -0.38,-1.882666 l 0.25866,-0.249334 c 0.036,-0.092 0.005,-0.184 -0.068,-0.265333 -0.028,-0.03067 -0.124,-0.129333 -0.22133,-0.110667 -0.028,0.01467 -1.412,1.197334 -1.412,1.197334 l -1.45067,1.116 c -0.0533,0.101333 -0.012,0.217333 0.044,0.3 0.056,0.08 0.12534,0.124 0.18934,0.118666" /><path
       id="path54"
       style="fill:#ffffff;fill-opacity:1;fill-rule:nonzero;stroke:none;stroke-width:0.133333"
       d="m 229.06933,11.938674 c 0.876,-0.06133 1.01466,0.05733 1.14133,0.978666 l 0.392,3.284 0.268,3.044 0.0347,0.464 c 0.084,1.029334 -0.108,1.157334 -0.67334,1.374667 -0.001,0 -0.31866,0.126667 -0.31866,0.126667 -0.0667,0.07067 -0.08,0.154666 -0.0613,0.242666 0.0213,0.1 0.08,0.186667 0.148,0.221334 0.0427,0.0027 1.53867,-0.428 1.53867,-0.428 l 1.644,-0.377334 c 0.0813,-0.05333 0.112,-0.137333 0.104,-0.237333 -0.005,-0.08533 -0.0453,-0.193333 -0.136,-0.241333 -0.036,-0.004 -0.60667,0.096 -0.60667,0.096 -0.22133,0.04 -0.35733,0.028 -0.45333,-0.04 -0.17867,-0.124 -0.26933,-0.482667 -0.37467,-1.1 l -0.448,-3.317334 -0.036,-0.322666 c 0,0 -0.244,-2.177334 -0.27866,-2.482667 0.14666,0.22 0.70666,1.056 0.70666,1.056 l 0.504,0.773333 1.81334,2.630667 0.25866,0.370667 c 0.48667,0.694666 1.22,1.744 1.54,2.362666 0.0653,0.076 0.17067,0.07333 0.204,0.068 0.0893,-0.016 0.15334,-0.056 0.18134,-0.117333 0.14533,-0.690667 0.548,-2.118667 1.03066,-3.649333 l 0.88,-2.812 0.30134,-0.997334 c 0,0 0.21466,-0.694666 0.28666,-0.925333 0.06,0.326667 1.104,6.016 1.104,6.016 0.0533,0.322667 0.092,0.557333 0.096,0.729333 0.009,0.346667 -0.12533,0.452 -0.56266,0.529334 l -0.42267,0.07733 c -0.0347,0.02133 -0.076,0.250667 -0.076,0.250667 l 0.14933,0.228 c 0.036,0.008 1.81867,-0.166667 1.81867,-0.166667 l 1.75467,-0.08 c 0.084,-0.04933 0.11333,-0.114667 0.116,-0.2 10e-4,-0.09333 -0.0307,-0.216 -0.11334,-0.281333 -0.036,-0.01333 -0.51733,-0.024 -0.51733,-0.024 -0.62667,-0.02133 -0.696,-0.330667 -0.848,-1.008 l -0.0253,-0.109334 -1.3,-6.449333 c -0.184,-1.012 -0.13734,-1.264 0.75466,-1.433333 l 0.30534,-0.052 c 0.0893,-0.077333 0.08,-0.1933335 0.0707,-0.2400002 -0.005,-0.044 -0.0347,-0.1893333 -0.13066,-0.2413333 -0.036,-0.008 -1.34534,0.1333333 -1.34534,0.1333333 l -1.17733,0.037333 0.005,0.064 c 0.008,0.065333 0.0133,0.132 0.0147,0.2026666 0.0147,0.6666666 -0.26133,1.5520006 -0.65733,2.8280006 l -0.992,3.322666 c 0,0 -0.67867,2.125334 -0.684,2.14 -0.008,-0.106666 -1.09867,-1.585333 -1.09867,-1.585333 l -0.19467,-0.272 10e-4,0.0013 -2.26534,-3.229333 c -0.524,-0.705333 -1.128,-1.590667 -1.16933,-2.209333 l -0.005,-0.07067 -1.25467,0.341333 c -0.0307,0.0067 -1.20133,0.236 -1.20133,0.236 -0.0853,0.06 -0.12134,0.142667 -0.12,0.238667 0,0.102667 0.036,0.196 0.0973,0.244 0.0427,0.012 0.28133,-0.01467 0.28267,-0.01333" /><path
       id="path56"
       style="fill:#ffffff;fill-opacity:1;fill-rule:nonzero;stroke:none;stroke-width:0.133333"
       d="m 247.86933,20.27334 1.30933,0.330667 3.88667,1.029333 c 0.35466,-0.370666 1.00133,-1.401333 1.23333,-1.888 -0.009,-0.118666 -0.0667,-0.193333 -0.15467,-0.242666 -0.084,-0.04933 -0.18266,-0.06 -0.25733,-0.02933 -0.54667,0.622667 -1.08,1.066667 -1.38267,1.146667 -0.36,0.07867 -0.82,0.01867 -1.888,-0.252 -1.29333,-0.326667 -1.52533,-0.56 -1.64,-0.753333 -0.15866,-0.285334 -0.0787,-0.781334 0.112,-1.538667 l 0.51867,-2.052 0.12,-0.273333 c 0.0587,-0.036 0.18533,-0.0067 0.38933,0.044 l 0.84267,0.213333 c 0.532,0.134667 0.89733,0.24 1.08667,0.350667 0.26133,0.14 0.28933,0.378666 0.284,0.614666 l -0.0147,0.601334 c 0.048,0.114666 0.16667,0.162666 0.25333,0.176 0.0973,0.01467 0.18,-0.0053 0.22934,-0.05333 0.0133,-0.02667 0.12533,-0.569333 0.12533,-0.569333 l 0.184,-0.868 0.26,-0.884 0.16933,-0.570667 c -0.0187,-0.09733 -0.084,-0.154666 -0.17866,-0.185333 -0.0827,-0.03067 -0.208,-0.044 -0.28667,0.01333 -0.0173,0.02267 -0.28533,0.590667 -0.28533,0.590667 -0.16267,0.341333 -0.276,0.374667 -0.42934,0.386667 -0.17733,0.01333 -0.61733,-0.06667 -1.24,-0.222667 l -0.844,-0.213333 c -0.42533,-0.108 -0.42533,-0.108 -0.33466,-0.46 l 0.736,-2.906667 c 0.068,-0.274667 0.10533,-0.424 0.17333,-0.465333 0.052,-0.03067 0.148,-0.01333 0.33867,0.03467 l 1.04666,0.264 c 0.64134,0.162667 1.096,0.292 1.37734,0.44 0.64933,0.348 0.68,0.838667 0.72,1.518667 l 0.007,0.09467 c 0.0333,0.08133 0.10667,0.129333 0.20267,0.149333 0.0813,0.01467 0.19733,0.012 0.26267,-0.04667 0.02,-0.03467 0.052,-0.238666 0.052,-0.238666 0.104,-0.656 0.248,-1.553334 0.224,-1.804 l -0.005,-0.05333 h -0.0533 c -0.17467,0 -1.02533,-0.214666 -1.92533,-0.441333 -0.0347,-0.0093 -2.76934,-0.7 -2.76934,-0.7 l -1.70133,-0.477333 c -0.11333,0.01867 -0.17333,0.118667 -0.20267,0.206667 -0.016,0.05067 -0.0453,0.171999 0.02,0.245333 0.0213,0.01467 0.248,0.101333 0.248,0.101333 0.78667,0.302667 0.77067,0.478667 0.388,1.989333 l -1.32266,5.237334 c -0.38667,1.530666 -0.508,1.674666 -1.296,1.546666 l -0.492,-0.07733 c -0.12267,0.05867 -0.16267,0.173333 -0.17067,0.261333 -0.007,0.09333 0.0147,0.170667 0.0613,0.209334 0.0267,0.01467 2.01334,0.470666 2.01334,0.470666" /><path
       id="path58"
       style="fill:#ffffff;fill-opacity:1;fill-rule:nonzero;stroke:none;stroke-width:0.133333"
       d="m 260.98533,21.084007 c 0.001,-0.036 0.116,-0.117333 0.192,-0.172 0.001,0 2.56533,-1.806667 2.56533,-1.806667 0,0 0.52667,-0.337333 0.71333,-0.456 -0.0453,0.158667 -0.236,0.864 -0.236,0.864 l -0.868,2.8 c -0.04,0.137334 -0.088,0.285334 -0.14666,0.305334 -0.056,0.01867 -0.17734,-0.05867 -0.3,-0.146667 l -1.67734,-1.178667 c -0.108,-0.076 -0.24266,-0.169333 -0.24266,-0.209333 z m 4.572,-4.878667 c 0.30133,-0.429333 0.816,-0.562666 1.18533,-0.301333 0.38,0.268 0.416,0.788 0.11333,1.217333 -0.312,0.441334 -0.80533,0.570667 -1.18533,0.302667 -0.36933,-0.26 -0.42667,-0.778667 -0.11333,-1.218667 z m -9.48934,6.758667 0.92134,0.533333 0.428,0.276 0.85066,0.566667 c 0.11334,0.02267 0.204,-0.02 0.27067,-0.104 0.068,-0.08267 0.0907,-0.185334 0.0613,-0.261334 -0.0187,-0.024 -0.408,-0.318666 -0.408,-0.318666 -0.27866,-0.208 -0.25333,-0.288 -0.18,-0.396 0.096,-0.134667 0.42934,-0.421333 0.992,-0.850667 l 1.01867,-0.694666 c 0.24133,-0.177334 0.30933,-0.174667 0.60533,0.036 l 2.02267,1.418666 c 0.35733,0.250667 0.36,0.298667 0.264,0.596 0,0.0013 -0.48133,1.670667 -0.48133,1.670667 -0.096,0.309333 -0.19867,0.617333 -0.3,0.756 -0.0587,0.084 -0.24,0.04 -0.48534,-0.12 l -0.36533,-0.234667 c -0.10533,-0.012 -0.18533,0.03867 -0.24,0.124 -0.0613,0.092 -0.076,0.198667 -0.0387,0.276 0.0173,0.02133 0.28,0.216 0.28,0.216 l 1.108,0.842667 1.38534,1.166666 c 0.124,0.012 0.20666,-0.06533 0.25333,-0.129333 0.0573,-0.084 0.0787,-0.166667 0.0573,-0.238667 -0.016,-0.024 -0.30266,-0.313333 -0.30266,-0.313333 -0.44534,-0.448 -0.45467,-0.754667 -0.0587,-2.041333 l 1.80267,-6.12 0.21866,-0.748 0.236,-0.794667 c 0.57067,0.114667 1.13467,-0.104 1.448,-0.548 0.432,-0.614666 0.31867,-1.52 -0.404,-2.030666 -0.724,-0.510667 -1.61466,-0.313334 -2.04933,0.3 -0.336,0.476 -0.33333,1.136 0.028,1.646666 l -0.84133,0.586667 -3.58667,2.426667 c 0.10533,0.008 -2.91333,1.917333 -2.036,1.34 l -0.97467,0.637333 c -0.408,0.285333 -0.75466,0.328 -1.12133,0.141333 l -0.44267,-0.22 c -0.10666,0.004 -0.18,0.064 -0.232,0.154667 -0.04,0.072 -0.0733,0.173333 -0.04,0.248 0.024,0.028 0.336,0.204 0.336,0.204" /></g><path
     id="path60"
     style="fill:#231f20;fill-opacity:1;fill-rule:nonzero;stroke:none;stroke-width:0.110812"
     d="m 131.63453,21.938346 c 0,-2.61096 -0.0843,-7.45211 -0.79984,-8.71471 -0.2952,-0.50563 -1.05271,-0.79995 -2.10509,-0.88438 l -1.05272,-0.0843 c -0.25276,-0.29442 -0.16832,-0.84194 0.084,-1.01082 1.60035,0.0844 3.1577,0.12688 4.7996,0.12688 1.76867,0 2.90572,-0.0425 4.42118,-0.12688 0.33632,0.21132 0.29432,0.75751 0.0836,1.01082 l -1.00983,0.0843 c -1.05227,0.0844 -1.85266,0.46319 -2.10543,1.00994 -0.58918,1.38947 -0.58918,6.23228 -0.58918,8.58915 v 4.75804 c 0,3.66239 -0.58952,7.53649 -2.94727,10.06179 -1.81023,1.97903 -4.92593,3.07287 -8.0413,3.07287 -2.90526,0 -5.81022,-0.54627 -7.87323,-2.31493 -2.23139,-1.85178 -3.28367,-4.9255 -3.28367,-9.93545 v -9.93629 c 0,-4.37873 -0.0844,-5.09513 -2.52661,-5.30512 l -1.05271,-0.0843 c -0.25236,-0.16887 -0.16838,-0.88394 0.0844,-1.01082 2.10543,0.0844 3.53646,0.12688 5.22072,0.12688 1.72624,0 3.11572,-0.0425 5.17873,-0.12688 0.25278,0.12688 0.33633,0.84195 0.084,1.01082 l -1.01029,0.0843 c -2.44177,0.20999 -2.52617,0.92639 -2.52617,5.30512 v 9.09445 c 0,6.7781 2.10499,11.24045 8.54636,11.24045 6.10508,0 8.42083,-4.80042 8.42083,-11.19856 v -4.84237" /><path
     id="path62"
     style="fill:#231f20;fill-opacity:1;fill-rule:nonzero;stroke:none;stroke-width:0.110812"
     d="m 155.63752,27.916536 c 0.96828,1.97909 1.89455,3.91613 2.90494,5.7679 h 0.0843 c 1.13671,-1.97816 2.18898,-4.16799 3.24125,-6.31542 l 3.95809,-8.04163 c 1.89467,-3.83088 3.1157,-6.14618 3.19926,-8.08329 1.43191,0.12688 2.31619,0.12688 3.15769,0.12688 1.05316,0 2.44219,-0.0425 3.74778,-0.12688 0.25276,0.16888 0.25276,0.88439 0.0419,1.05316 l -0.88428,0.0844 c -2.65262,0.25187 -2.98893,1.05183 -2.94694,3.9992 0.084,4.46362 0.12644,12.2516 0.46275,18.31514 0.12688,2.10412 0.0844,3.24125 2.06299,3.40963 l 1.34748,0.1264 c 0.25287,0.25279 0.21043,0.88432 -0.0839,1.05271 -1.72679,-0.0844 -3.45257,-0.12639 -4.96804,-0.12639 -1.4738,0 -3.36846,0.042 -5.09469,0.12639 -0.29432,-0.2108 -0.33676,-0.79992 -0.084,-1.05271 l 1.2207,-0.1264 c 2.06299,-0.21037 2.06299,-0.88434 2.06299,-3.57931 l -0.12599,-17.55683 h -0.0844 c -0.29521,0.4632 -1.89411,3.83178 -2.73695,5.47401 l -3.74677,7.36768 c -1.89511,3.70571 -3.78933,7.66292 -4.54718,9.59866 -0.084,0.12769 -0.25287,0.16968 -0.42075,0.16968 -0.084,0 -0.29443,-0.042 -0.37875,-0.16968 -0.71596,-2.23053 -2.73695,-6.35611 -3.70578,-8.41956 l -3.78877,-8.12558 c -0.88439,-1.93623 -1.76823,-4.12698 -2.69451,-6.06264 h -0.084 c -0.16887,2.6105 -0.29476,5.05314 -0.42075,7.49411 -0.12688,2.56762 -0.2952,6.31537 -0.2952,9.89337 0,3.11616 0.25276,3.7897 1.89455,3.91609 l 1.5999,0.1264 c 0.29476,0.25279 0.25232,0.92632 -0.0424,1.05271 -1.43102,-0.0844 -3.07326,-0.12639 -4.67316,-0.12639 -1.34747,0 -2.86294,0.042 -4.29441,0.12639 -0.25276,-0.2108 -0.33676,-0.84235 -0.0839,-1.05271 l 0.92628,-0.1264 c 1.76823,-0.25279 2.3573,-0.50514 2.61018,-3.45292 0.25276,-2.77809 0.46308,-5.09388 0.71595,-9.2615 0.21032,-3.49535 0.37876,-7.07413 0.46309,-9.38911 0.0836,-2.65294 -0.25277,-3.28413 -2.82139,-3.62044 l -0.67351,-0.0844 c -0.21033,-0.25321 -0.16833,-0.88428 0.16887,-1.05316 1.2626,0.0844 2.27287,0.12688 3.32603,0.12688 0.96794,0 2.10454,0 3.49401,-0.12688 -0.16788,1.6419 0.88439,4.25241 2.18942,6.94747 l 4.80005,9.72497" /><path
     id="path64"
     style="fill:#231f20;fill-opacity:1;fill-rule:nonzero;stroke:none;stroke-width:0.110812"
     d="m 184.7352,17.686376 c 0,-4.37841 -0.0844,-5.01037 -2.56862,-5.30468 l -0.67352,-0.0844 c -0.25198,-0.16877 -0.16843,-0.92628 0.0844,-1.05316 1.81056,0.0844 3.24203,0.12688 4.96825,0.12688 h 7.91531 c 2.69461,0 5.1788,0 5.68344,-0.12688 0.25276,0.7164 0.50518,3.74733 0.67351,5.6 -0.16833,0.25276 -0.84184,0.33719 -1.05227,0.0843 -0.63152,-1.979 -1.01028,-3.45291 -3.20014,-4.00043 -0.88384,-0.20999 -2.23131,-0.25199 -4.08309,-0.25199 h -3.03181 c -1.26305,0 -1.26305,0.0844 -1.26305,1.6839 v 8.42039 c 0,1.17915 0.12645,1.17915 1.38904,1.17915 h 2.44218 c 1.76823,0 3.07371,-0.084 3.5789,-0.25288 0.50475,-0.16832 0.79995,-0.42075 1.01027,-1.47346 l 0.33676,-1.72535 c 0.21087,-0.25409 0.92683,-0.25409 1.09471,0.0406 0,1.01071 -0.16788,2.65306 -0.16788,4.25329 0,1.51591 0.16788,3.11482 0.16788,4.04118 -0.16788,0.29478 -0.88384,0.29478 -1.09471,0.042 l -0.3792,-1.64098 c -0.16788,-0.75917 -0.46308,-1.38947 -1.30504,-1.60023 -0.58907,-0.16932 -1.59979,-0.21044 -3.24169,-0.21044 h -2.44218 c -1.26259,0 -1.38904,0.0411 -1.38904,1.13671 v 5.93624 c 0,2.23184 0.12645,3.66373 0.79996,4.37839 0.50508,0.50513 1.38947,0.9683 5.0938,0.9683 3.24214,0 4.46329,-0.16838 5.38912,-0.63155 0.75841,-0.42117 1.89511,-1.89375 2.98982,-4.08446 0.29477,-0.2095 0.88384,-0.0831 1.05227,0.29608 -0.29431,1.47259 -1.34703,4.71471 -1.89422,5.85183 -3.78921,-0.0844 -7.53699,-0.12639 -11.28376,-0.12639 h -3.78889 c -1.81055,0 -3.24202,0.042 -5.7262,0.12639 -0.25243,-0.12639 -0.33676,-0.79992 -0.084,-1.05272 l 1.38947,-0.12639 c 2.39975,-0.21037 2.61018,-0.84235 2.61018,-5.26227 v -15.15702" /><path
     id="path66"
     style="fill:#231f20;fill-opacity:1;fill-rule:nonzero;stroke:none;stroke-width:0.110812"
     d="m 218.92614,8.2552757 c 1.09482,0 1.89488,-0.92639 1.89488,-2.23142 0,-1.26259 -0.80006,-2.18898 -1.89488,-2.18898 -1.05295,0 -1.89489,0.92639 -1.89489,2.18898 0,1.30503 0.84194,2.23142 1.89489,2.23142 z m 3.57922,-2.23142 c 0,1.81066 -1.4749,3.41001 -3.57922,3.41001 -2.10532,0 -3.57868,-1.59935 -3.57868,-3.41001 0,-1.76823 1.47336,-3.41091 3.57868,-3.41091 2.10432,0 3.57922,1.64268 3.57922,3.41091 z m -8.08429,19.6198203 c -0.3372,0.96872 -0.29476,1.01071 0.88439,1.01071 h 5.17869 c 1.22004,0 1.30536,-0.16965 0.92639,-1.30548 l -2.27386,-6.86258 c -0.33687,-1.0116 -0.71585,-2.14743 -0.96828,-2.65262 h -0.0844 c -0.12644,0.20911 -0.54719,1.22115 -1.01027,2.48341 z m 8.33694,3.74679 c -0.29587,-0.92674 -0.46319,-1.05273 -1.72755,-1.05273 h -6.35663 c -1.05271,0 -1.30503,0.12599 -1.59979,1.01031 l -1.47391,4.42167 c -0.63152,1.89462 -0.92584,3.03044 -0.92584,3.4936 0,0.50559 0.21033,0.75795 1.2206,0.84235 l 1.38947,0.1264 c 0.29487,0.21036 0.29487,0.88432 -0.0843,1.05271 -1.09471,-0.0844 -2.39985,-0.0844 -4.3784,-0.12639 -1.38947,0 -2.90494,0.0844 -4.04209,0.12639 -0.25232,-0.16839 -0.33676,-0.84235 -0.0839,-1.05271 l 1.38948,-0.1264 c 1.00982,-0.0844 1.93611,-0.54626 2.52606,-2.06344 0.75752,-1.93705 1.93623,-4.67272 3.70446,-9.38784 l 4.29484,-11.3682 c 0.58908,-1.51502 0.84196,-2.31575 0.71596,-2.98893 1.01016,-0.29565 1.72601,-1.05316 2.1892,-1.60068 0.25265,0 0.54742,0.0844 0.63163,0.38008 0.54741,1.85134 1.22115,3.78834 1.85167,5.641 l 5.76887,16.92436 c 1.22115,3.6213 1.76856,4.25328 3.57812,4.46365 l 1.13694,0.1264 c 0.29475,0.21036 0.21054,0.88432 0,1.05271 -1.72646,-0.0844 -3.19915,-0.12639 -5.09404,-0.12639 -2.02121,0 -3.62133,0.0844 -4.84137,0.12639 -0.33798,-0.16839 -0.38008,-0.84235 -0.0853,-1.05271 l 1.22226,-0.1264 c 0.88317,-0.0844 1.47269,-0.33676 1.47269,-0.75794 0,-0.46315 -0.21054,-1.22023 -0.54741,-2.23182 l -1.85167,-5.72544" /><path
     id="path68"
     style="fill:#231f20;fill-opacity:1;fill-rule:nonzero;stroke:none;stroke-width:0.110812"
     d="m 132.43072,58.506306 c 0,-2.61096 -0.0842,-7.45211 -0.80007,-8.7147 -0.29475,-0.50564 -1.05271,-0.79995 -2.10543,-0.88439 l -1.05271,-0.0843 c -0.25265,-0.29443 -0.16843,-0.84195 0.0842,-1.01083 1.60012,0.0844 3.15814,0.12688 4.79926,0.12688 1.76966,0 2.90549,-0.0425 4.4214,-0.12688 0.33686,0.21132 0.29476,0.75751 0.0842,1.01083 l -1.01061,0.0843 c -1.0527,0.0844 -1.85277,0.46319 -2.10542,1.00994 -0.58841,1.38947 -0.58841,6.23228 -0.58841,8.58915 v 4.75805 c 0,3.66239 -0.59063,7.53649 -2.9476,10.06178 -1.81067,1.97903 -4.92559,3.07287 -8.04162,3.07287 -2.9055,0 -5.80988,-0.54627 -7.8732,-2.31493 -2.23175,-1.85178 -3.28447,-4.9255 -3.28447,-9.93544 v -9.9363 c 0,-4.37873 -0.0842,-5.09513 -2.5254,-5.30512 l -1.05272,-0.0843 c -0.25265,-0.16888 -0.16843,-0.88395 0.0842,-1.01083 2.10544,0.0844 3.53602,0.12688 5.22036,0.12688 1.72645,0 3.11603,-0.0425 5.17936,-0.12688 0.25265,0.12688 0.33576,0.84195 0.0831,1.01083 l -1.00951,0.0843 c -2.44229,0.20999 -2.52651,0.92639 -2.52651,5.30512 v 9.09445 c 0,6.7781 2.10543,11.24045 8.54693,11.24045 6.10463,0 8.42061,-4.80041 8.42061,-11.19856 v -4.84237" /><path
     id="path70"
     style="fill:#231f20;fill-opacity:1;fill-rule:nonzero;stroke:none;stroke-width:0.110812"
     d="m 168.09556,68.569006 c 0,1.26309 0,6.273 0.12632,7.36771 -0.0842,0.25279 -0.33686,0.46229 -0.80006,0.46229 -0.50531,-0.71465 -1.72645,-2.18853 -5.38879,-6.35611 l -9.76808,-11.11584 c -1.13693,-1.30503 -4.00031,-4.75716 -4.88348,-5.68344 h -0.0842 c -0.16844,0.50564 -0.21055,1.47391 -0.21055,2.73695 v 9.17878 c 0,1.97777 0.0421,7.45085 0.75795,8.71435 0.25266,0.46317 1.09372,0.71553 2.14754,0.79993 l 1.30426,0.1264 c 0.25265,0.33676 0.21054,0.84191 -0.0842,1.05271 -1.89377,-0.0844 -3.36757,-0.12639 -4.92558,-0.12639 -1.76856,0 -2.9055,0.042 -4.37819,0.12639 -0.29476,-0.2108 -0.33798,-0.79992 -0.0853,-1.05271 l 1.13693,-0.1264 c 0.9685,-0.12639 1.64224,-0.37875 1.85278,-0.84235 0.58952,-1.51456 0.54741,-6.65174 0.54741,-8.67193 v -12.16805 c 0,-1.17915 -0.0421,-2.06343 -0.92639,-3.03226 -0.58952,-0.58863 -1.59902,-0.88383 -2.61073,-1.00938 l -0.71584,-0.0844 c -0.25265,-0.25321 -0.25265,-0.88428 0.0853,-1.05316 1.76745,0.12688 3.99921,0.12688 4.75716,0.12688 0.67374,0 1.38958,-0.0425 1.937,-0.12688 0.84106,2.14698 5.80987,7.70542 7.19946,9.26367 l 4.08341,4.5875 c 2.9055,3.24247 4.96882,5.60028 6.94681,7.62045 h 0.0842 c 0.16844,-0.20952 0.16844,-0.88305 0.16844,-1.76738 v -9.00999 c 0,-1.97811 -0.0421,-7.45211 -0.84106,-8.7147 -0.25265,-0.37876 -0.92639,-0.63197 -2.61074,-0.84195 l -0.71584,-0.0844 c -0.29477,-0.25321 -0.25265,-0.92628 0.0842,-1.05316 1.93589,0.0844 3.36757,0.12688 4.96771,0.12688 1.81066,0 2.90437,-0.0425 4.33607,-0.12688 0.33686,0.21132 0.33686,0.79995 0.0842,1.05316 l -0.58952,0.0844 c -1.34747,0.20998 -2.18853,0.5463 -2.35808,0.88395 -0.71473,1.51535 -0.63052,6.73659 -0.63052,8.6727 v 10.0627" /><path
     id="path72"
     style="fill:#231f20;fill-opacity:1;fill-rule:nonzero;stroke:none;stroke-width:0.110812"
     d="m 180.09872,54.338326 c 0,-4.46239 -0.0842,-5.17869 -2.56752,-5.38867 l -1.05383,-0.0844 c -0.25153,-0.16877 -0.16732,-0.92628 0.0853,-1.05316 2.10432,0.0844 3.53602,0.12688 5.30458,0.12688 1.68433,0 3.11492,-0.0425 5.22145,-0.12688 0.25155,0.12688 0.33576,0.88439 0.0831,1.05316 l -1.0516,0.0844 c -2.48552,0.20998 -2.56863,0.92628 -2.56863,5.38867 v 14.98733 c 0,4.46364 0.0831,5.0532 2.56863,5.34797 l 1.0516,0.1264 c 0.25265,0.16838 0.16844,0.92632 -0.0831,1.05271 -2.10653,-0.0844 -3.53712,-0.12639 -5.22145,-0.12639 -1.76856,0 -3.20026,0.042 -5.30458,0.12639 -0.25265,-0.12639 -0.33686,-0.79992 -0.0853,-1.05271 l 1.05383,-0.1264 c 2.48329,-0.29477 2.56752,-0.88433 2.56752,-5.34797 v -14.98733" /><path
     id="path74"
     style="fill:#231f20;fill-opacity:1;fill-rule:nonzero;stroke:none;stroke-width:0.110812"
     d="m 194.83671,52.401676 c -0.96739,-2.3582 -1.60012,-3.24204 -3.40969,-3.45202 l -0.75795,-0.0844 c -0.29587,-0.25321 -0.25266,-0.84184 0.0831,-1.05316 1.22226,0.0844 2.56973,0.12688 4.3793,0.12688 1.85277,0 3.32547,-0.0425 5.09403,-0.12688 0.29586,0.16888 0.38008,0.79995 0.0842,1.05316 l -0.63051,0.0844 c -1.60014,0.20998 -1.937,0.46319 -1.97911,0.79951 0.0842,0.4212 0.79896,2.6945 2.10432,5.89464 1.93699,4.8836 3.87399,9.72507 5.97942,14.52419 1.30425,-2.7781 3.07281,-7.1153 4.04131,-9.34584 1.22115,-2.86205 3.20025,-7.62053 3.91499,-9.43121 0.33797,-0.88428 0.37897,-1.34747 0.37897,-1.64178 0,-0.2952 -0.42108,-0.63196 -1.89377,-0.79951 l -0.75795,-0.0844 c -0.29477,-0.25321 -0.21055,-0.88428 0.0842,-1.05316 1.17904,0.0844 2.77917,0.12688 4.37818,0.12688 1.38959,0 2.69495,-0.0425 4.08454,-0.12688 0.29365,0.16888 0.29365,0.84195 0.0842,1.05316 l -1.26326,0.0844 c -1.0106,0.0831 -1.64223,0.58875 -2.18964,1.47258 -1.17904,1.97944 -2.82017,5.38912 -4.71505,9.68397 l -2.27386,5.17824 c -1.68435,3.87413 -3.66234,8.75765 -4.37819,10.98947 -0.12743,0.084 -0.29476,0.12509 -0.46319,0.12509 -0.21055,0 -0.42109,-0.0411 -0.63163,-0.12509 -0.4632,-1.76866 -1.22115,-3.8321 -1.93699,-5.60078 l -7.41,-18.27146" /><path
     id="path76"
     style="fill:#231f20;fill-opacity:1;fill-rule:nonzero;stroke:none;stroke-width:0.110812"
     d="m 226.16437,54.254336 c 0,-4.3784 -0.0842,-5.01037 -2.56752,-5.30468 l -0.67373,-0.0844 c -0.25265,-0.16877 -0.16844,-0.92628 0.0842,-1.05316 1.80955,0.0844 3.24125,0.12688 4.9677,0.12688 h 7.9153 c 2.69384,0 5.17824,0 5.68465,-0.12688 0.25155,0.7164 0.50531,3.74733 0.67264,5.6 -0.16733,0.25276 -0.84218,0.3372 -1.05161,0.0843 -0.63274,-1.97899 -1.01061,-3.45291 -3.20025,-4.00043 -0.88428,-0.20999 -2.23176,-0.25199 -4.08453,-0.25199 h -3.03071 c -1.26326,0 -1.26326,0.0844 -1.26326,1.6839 v 8.42039 c 0,1.17915 0.12632,1.17915 1.38848,1.17915 h 2.4434 c 1.76746,0 3.07282,-0.084 3.57812,-0.25288 0.5053,-0.16832 0.80006,-0.42075 1.0106,-1.47346 l 0.33688,-1.72534 c 0.20943,-0.2541 0.92638,-0.2541 1.09371,0.0406 0,1.01071 -0.16733,2.65306 -0.16733,4.25329 0,1.51591 0.16733,3.11482 0.16733,4.04119 -0.16733,0.29477 -0.88428,0.29477 -1.09371,0.042 l -0.37898,-1.64098 c -0.16844,-0.75918 -0.4632,-1.38948 -1.30537,-1.60024 -0.58951,-0.16932 -1.60012,-0.21043 -3.24125,-0.21043 h -2.4434 c -1.26216,0 -1.38848,0.0411 -1.38848,1.1367 v 5.93625 c 0,2.23183 0.12632,3.66372 0.80006,4.37838 0.5042,0.50513 1.38848,0.9683 5.09403,0.9683 3.24236,0 4.4624,-0.16838 5.38879,-0.63154 0.75907,-0.42118 1.89488,-1.89376 2.98971,-4.08446 0.29476,-0.2095 0.88428,-0.0831 1.05271,0.29607 -0.29475,1.47259 -1.34747,4.71471 -1.89489,5.85183 -3.78865,-0.0844 -7.53632,-0.12639 -11.28287,-0.12639 h -3.78977 c -1.81067,0 -3.24236,0.042 -5.72566,0.12639 -0.25265,-0.12639 -0.33798,-0.79992 -0.0842,-1.05271 l 1.38958,-0.1264 c 2.39907,-0.21037 2.60962,-0.84235 2.60962,-5.26227 v -15.15702" /><path
     id="path78"
     style="fill:#231f20;fill-opacity:1;fill-rule:nonzero;stroke:none;stroke-width:0.110812"
     d="m 255.89301,60.316976 c 0,0.75795 0,1.22114 0.12743,1.38946 0.12633,0.12645 0.75685,0.21044 2.90549,0.21044 1.51481,0 3.11493,-0.16843 4.33608,-1.09472 1.13582,-0.88438 2.10432,-2.3583 2.10432,-5.22035 0,-3.32646 -2.06221,-6.4846 -6.73626,-6.4846 -2.60963,0 -2.73706,0.16876 -2.73706,1.34747 z m -3.45179,-6.02064 c 0,-3.99965 -0.12632,-4.71605 -1.85278,-4.92593 l -1.34747,-0.16888 c -0.29365,-0.20987 -0.29365,-0.88383 0.0432,-1.05271 2.35698,-0.20988 5.26247,-0.33676 9.388,-0.33676 2.61073,0 5.09514,0.21132 7.03102,1.26315 2.02121,1.05271 3.49501,2.94737 3.49501,5.89375 0,4.00054 -3.15703,6.18908 -5.26357,7.03225 -0.20944,0.25287 0,0.67351 0.21165,1.0095 3.36758,5.43191 5.59823,8.80086 8.46161,11.19977 0.71695,0.63153 1.76855,1.09469 2.90549,1.17911 0.21054,0.084 0.25265,0.42117 0.0432,0.58825 -0.38008,0.12769 -1.05382,0.21167 -1.85277,0.21167 -3.57923,0 -5.72677,-1.05272 -8.71647,-5.30469 -1.09483,-1.55916 -2.82017,-4.46322 -4.12553,-6.35832 -0.63163,-0.92628 -1.30537,-1.34614 -2.9886,-1.34614 -1.89489,0 -1.98022,0.042 -1.98022,0.92627 v 5.30473 c 0,4.41992 0.0853,4.92551 2.52762,5.26227 l 0.88428,0.1264 c 0.25155,0.21036 0.16733,0.92632 -0.0853,1.05271 -1.89488,-0.0844 -3.32658,-0.12639 -5.00981,-0.12639 -1.76856,0 -3.28447,0.042 -5.26246,0.12639 -0.25377,-0.12639 -0.33688,-0.75793 -0.0842,-1.05271 l 1.05271,-0.1264 c 2.44119,-0.29477 2.52541,-0.84235 2.52541,-5.26227 v -15.11502" /><path
     id="path80"
     style="fill:#231f20;fill-opacity:1;fill-rule:nonzero;stroke:none;stroke-width:0.110812"
     d="m 285.3269,76.399006 c -3.53602,0 -5.76777,-1.09384 -6.56783,-1.557 -0.50531,-0.92632 -1.05271,-3.91477 -1.13693,-5.89381 0.21054,-0.29477 0.84217,-0.37919 1.0106,-0.12769 0.63052,2.14872 2.35809,6.2743 7.24157,6.2743 3.53601,0 5.26246,-2.31494 5.26246,-4.84241 0,-1.85177 -0.37897,-3.91521 -3.4518,-5.89422 l -4.00031,-2.60973 c -2.10542,-1.38948 -4.54662,-3.78834 -4.54662,-7.24257 0,-3.99921 3.11493,-7.24134 8.58905,-7.24134 1.30536,0 2.82016,0.2532 3.91499,0.54752 0.5474,0.16888 1.13693,0.25332 1.47379,0.25332 0.37898,1.00983 0.75796,3.36758 0.75796,5.13625 -0.16955,0.25276 -0.84217,0.37875 -1.05272,0.12643 -0.54741,-2.02143 -1.68434,-4.75849 -5.72565,-4.75849 -4.12664,0 -5.01092,2.73706 -5.01092,4.67405 0,2.44219 2.02121,4.21086 3.57922,5.17958 l 3.36869,2.10421 c 2.65173,1.6409 5.26247,4.08442 5.26247,8.08359 0,4.63203 -3.49502,7.78801 -8.96802,7.78801" /><path
     id="path82"
     style="fill:#231f20;fill-opacity:1;fill-rule:nonzero;stroke:none;stroke-width:0.110812"
     d="m 303.56101,54.338326 c 0,-4.46239 -0.0842,-5.17869 -2.56751,-5.38867 l -1.05382,-0.0844 c -0.25155,-0.16877 -0.16844,-0.92628 0.0853,-1.05316 2.10432,0.0844 3.53601,0.12688 5.30457,0.12688 1.68323,0 3.11493,-0.0425 5.22035,-0.12688 0.25265,0.12688 0.33688,0.88439 0.0842,1.05316 l -1.05162,0.0844 c -2.4855,0.20998 -2.56973,0.92628 -2.56973,5.38867 v 14.98733 c 0,4.46364 0.0842,5.0532 2.56973,5.34797 l 1.05162,0.1264 c 0.25265,0.16838 0.16842,0.92632 -0.0842,1.05271 -2.10542,-0.0844 -3.53712,-0.12639 -5.22035,-0.12639 -1.76856,0 -3.20025,0.042 -5.30457,0.12639 -0.25376,-0.12639 -0.33687,-0.79992 -0.0853,-1.05271 l 1.05382,-0.1264 c 2.4833,-0.29477 2.56751,-0.88433 2.56751,-5.34797 v -14.98733" /><path
     id="path84"
     style="fill:#231f20;fill-opacity:1;fill-rule:nonzero;stroke:none;stroke-width:0.110812"
     d="m 329.58078,69.411356 c 0,4.41992 0.0853,5.0519 2.52762,5.26227 l 1.34748,0.1264 c 0.25154,0.16838 0.16843,0.92632 -0.0853,1.05271 -2.40019,-0.0844 -3.83077,-0.12639 -5.51511,-0.12639 -1.68435,0 -3.15815,0.042 -5.85198,0.12639 -0.25265,-0.12639 -0.33688,-0.84235 0,-1.05271 l 1.51591,-0.1264 c 2.40018,-0.21037 2.60962,-0.84235 2.60962,-5.26227 v -18.82025 c 0,-1.30514 0,-1.34714 -1.26215,-1.34714 h -2.31598 c -1.81066,0 -4.12663,0.0844 -5.17824,1.05272 -1.0106,0.92638 -1.43169,1.85222 -1.89488,2.90494 -0.33688,0.25276 -0.92639,0.042 -1.09483,-0.29477 0.67374,-1.89466 1.30426,-4.58916 1.60013,-6.27295 0.12521,-0.0844 0.67263,-0.12688 0.80006,0 0.25154,1.34703 1.64113,1.30503 3.57812,1.30503 H 337.413 c 2.27386,0 2.65174,-0.0844 3.28447,-1.17959 0.20944,-0.0834 0.67263,-0.0411 0.75685,0.12643 -0.4632,1.72623 -0.75685,5.1368 -0.63163,6.39984 -0.16733,0.3372 -0.88428,0.3372 -1.09371,0.0844 -0.12744,-1.05271 -0.42109,-2.61018 -1.05383,-3.07337 -0.9685,-0.7164 -2.56752,-1.05272 -4.88348,-1.05272 h -2.9886 c -1.26326,0 -1.22226,0.042 -1.22226,1.43147 v 18.73592" /><path
     id="path86"
     style="fill:#231f20;fill-opacity:1;fill-rule:nonzero;stroke:none;stroke-width:0.110812"
     d="m 358.2146,69.325656 c 0,4.50562 0.25376,5.1796 2.52762,5.34797 l 1.59902,0.1264 c 0.25265,0.25279 0.16843,0.92632 -0.0831,1.05271 -2.61184,-0.0844 -4.04353,-0.12639 -5.72676,-0.12639 -1.76856,0 -3.28336,0.042 -5.51512,0.12639 -0.25265,-0.12639 -0.33686,-0.79992 -0.0842,-1.05271 l 1.30536,-0.1264 c 2.44119,-0.25279 2.52541,-0.84235 2.52541,-5.34797 v -2.14612 c 0,-2.31628 -0.12633,-2.86336 -1.34747,-5.22033 l -4.96771,-9.68386 c -1.43169,-2.77939 -2.06221,-2.98938 -3.32547,-3.20014 l -1.18014,-0.20999 c -0.25155,-0.29565 -0.20944,-0.88428 0.0853,-1.05316 1.34637,0.0844 2.86338,0.12688 4.88349,0.12688 1.93699,0 3.4529,-0.0425 4.50451,-0.12688 0.37897,0.12688 0.37897,0.79995 0.12743,1.05316 l -0.54852,0.0844 c -1.4738,0.20998 -1.76746,0.42075 -1.76746,0.75751 0,0.42075 1.09483,2.8205 1.30427,3.2417 1.55912,3.11614 3.11603,6.44183 4.75826,9.3471 1.30536,-2.23176 2.69494,-4.67394 3.9582,-7.11524 1.17794,-2.18943 2.73595,-5.05281 2.73595,-5.558 0,-0.25232 -0.75795,-0.54752 -1.76745,-0.67307 l -0.75906,-0.0844 c -0.29476,-0.29565 -0.25154,-0.88428 0.0842,-1.05316 1.51591,0.0844 2.73705,0.12688 4.04242,0.12688 1.30426,0 2.4844,-0.0425 3.91498,-0.12688 0.33798,0.21132 0.38009,0.79995 0.0842,1.05316 l -1.17794,0.20999 c -2.18964,0.37876 -3.4529,3.0317 -5.55833,6.65304 l -2.65284,4.58873 c -1.85167,3.19881 -1.9791,3.57801 -1.9791,6.82014 v 2.18854" /></svg>
