<?xml version="1.0" encoding="UTF-8" standalone="no"?>
<!-- Created with Inkscape (http://www.inkscape.org/) -->

<svg
   version="1.1"
   id="svg730"
   xml:space="preserve"
   width="133.58878"
   height="85.333336"
   viewBox="0 0 133.58878 85.333337"
   sodipodi:docname="warsaw-with-text.svg"
   inkscape:version="1.1.1 (c3084ef, 2021-09-22)"
   xmlns:inkscape="http://www.inkscape.org/namespaces/inkscape"
   xmlns:sodipodi="http://sodipodi.sourceforge.net/DTD/sodipodi-0.dtd"
   xmlns="http://www.w3.org/2000/svg"
   xmlns:svg="http://www.w3.org/2000/svg"><defs
     id="defs734" /><sodipodi:namedview
     id="namedview732"
     pagecolor="#ffffff"
     bordercolor="#666666"
     borderopacity="1.0"
     inkscape:pageshadow="2"
     inkscape:pageopacity="0.0"
     inkscape:pagecheckerboard="0"
     showgrid="false"
     fit-margin-top="0"
     fit-margin-left="16"
     fit-margin-right="16"
     fit-margin-bottom="0"
     inkscape:zoom="2.8840049"
     inkscape:cx="-58.772439"
     inkscape:cy="71.60182"
     inkscape:window-width="1400"
     inkscape:window-height="847"
     inkscape:window-x="0"
     inkscape:window-y="25"
     inkscape:window-maximized="0"
     inkscape:current-layer="g736" /><g
     id="g736"
     inkscape:groupmode="layer"
     inkscape:label="ink_ext_XXXXXX"
     transform="matrix(1.3333333,0,0,-1.3333333,-27.69428,122.036)"><g
       id="g738"
       transform="matrix(0.05375712,0,0,0.05375712,32.770711,27.526999)"><path
         d="m 189.684,1111.57 c 41.199,0 87.796,-22.07 126.57,-41.39 l 29.195,85.39 c -43.094,15.2 -95.179,34.97 -171.836,34.97 -76.6325,0 -168.47237,-45.95 -168.47237,-144.18 0,-72.79 34.11327,-102.462 73.82027,-131.618 114.3011,-83.875 -1.7929,3.805 111.5661,-79.715 55.844,-41.086 30.559,-112.886 -35.922,-112.886 -39.484,0 -105.9253,28.14 -134.0112,39.293 L 0,667.5 c 53.2031,-18.812 92.6484,-31.562 176.762,-31.562 99.027,0 176.769,51.398 176.769,142.578 0,74.902 -27.707,107.363 -97.636,158.832 -93.754,69.012 -12.797,9.363 -99.688,73.462 -46.09,33.97 -21.457,100.76 33.477,100.76"
         style="fill:#0a7887;fill-opacity:1;fill-rule:nonzero;stroke:none"
         id="path740" /><path
         d="m 682.594,635.938 c 97.84,0 196.551,45.464 196.551,45.464 V 959.598 H 763.266 V 745.215 c -18.848,-11.18 -38.028,-14.863 -65.215,-15.731 -84.121,0 -136.61,83.965 -141.242,187.118 -4.621,103.168 45.117,192.488 126.222,192.488 69.942,0 147.168,-39.59 147.168,-39.59 0,0 17.188,53.27 29.219,85.88 -53.203,18.91 -111.055,35.16 -168.25,35.16 -149.973,0 -271.527,-124.15 -271.527,-277.294 0,-153.156 112.992,-277.308 262.953,-277.308"
         style="fill:#0a7887;fill-opacity:1;fill-rule:nonzero;stroke:none"
         id="path742" /><path
         d="m 1417.33,648.492 v 529.498 h -120.2 V 966.617 H 1112.64 V 1177.99 H 988.168 V 648.492 h 124.472 v 241.266 h 184.49 V 648.492 h 120.2"
         style="fill:#0a7887;fill-opacity:1;fill-rule:nonzero;stroke:none"
         id="path744" /><path
         d="m 192.777,400.121 h -29.332 l -17.871,-76.738 c -1.144,-4.59 -2.429,-10.645 -3.855,-18.106 -1.403,-7.461 -2.426,-13.691 -3.067,-18.711 -0.714,5.196 -1.726,11.407 -3.082,18.653 -1.336,7.265 -2.468,12.617 -3.367,16.152 l -20.488,78.75 H 83.5547 l -20.4883,-78.75 c -1.2226,-4.219 -2.5156,-10.176 -3.9023,-17.812 -1.375,-7.696 -2.25,-13.321 -2.6446,-16.993 -1.4023,10.372 -3.6718,22.657 -6.8125,36.817 L 31.7188,400.121 H 2.38672 L 38.2656,259.535 h 33.8477 l 18.9375,73.653 c 0.8242,3.281 2.0156,8.75 3.5586,16.425 1.5351,7.657 2.4961,13.203 2.8906,16.68 0.2383,-2.832 1.2266,-8.359 2.922,-16.582 1.695,-8.262 2.914,-13.711 3.617,-16.309 l 19.031,-73.867 h 33.946 l 35.761,140.586"
         style="fill:#0a7887;fill-opacity:1;fill-rule:nonzero;stroke:none"
         id="path746" /><path
         d="m 260.508,300.531 c 0,-6.484 -2.039,-11.679 -6.094,-15.605 -4.082,-3.906 -9.516,-5.86 -16.293,-5.86 -9.488,0 -14.25,4.122 -14.25,12.403 0,5.781 2.074,10.058 6.258,12.91 4.168,2.773 10.5,4.336 19.043,4.609 l 11.336,0.391 z m 29.14,30.645 c 0,12.832 -3.851,22.383 -11.543,28.672 -7.683,6.289 -18.746,9.414 -33.179,9.414 -15.059,0 -28.781,-3.242 -41.141,-9.688 l 9.699,-19.824 c 11.606,5.195 21.707,7.773 30.293,7.773 11.145,0 16.731,-5.429 16.731,-16.347 v -4.707 l -18.653,-0.547 c -16.093,-0.606 -28.125,-3.594 -36.109,-9.024 -7.988,-5.41 -11.961,-13.808 -11.961,-25.234 0,-10.898 2.949,-19.277 8.891,-25.195 5.922,-5.899 14.062,-8.848 24.371,-8.848 8.387,0 15.211,1.211 20.433,3.613 5.231,2.403 10.313,6.739 15.25,12.93 h 0.766 l 5.68,-14.629 h 20.472 v 71.641"
         style="fill:#0a7887;fill-opacity:1;fill-rule:nonzero;stroke:none"
         id="path748" /><path
         d="m 345.27,348.988 h -1.454 l -4.32,18.067 h -22.211 v -107.52 h 29.332 v 54.727 c 0,8.672 2.594,15.39 7.848,20.195 5.207,4.805 12.512,7.207 21.863,7.207 3.406,0 6.285,-0.312 8.645,-0.937 l 2.218,27.48 c -2.621,0.566 -5.925,0.859 -9.906,0.859 -6.664,0 -12.828,-1.836 -18.5,-5.507 -5.68,-3.711 -10.191,-8.555 -13.515,-14.571"
         style="fill:#0a7887;fill-opacity:1;fill-rule:nonzero;stroke:none"
         id="path750" /><path
         d="m 476.184,305.219 c -1.868,3.847 -4.754,7.265 -8.649,10.195 -3.918,2.949 -10.078,6.113 -18.465,9.531 -9.429,3.77 -15.547,6.621 -18.324,8.555 -2.781,1.914 -4.187,4.18 -4.187,6.816 0,4.688 4.32,7.012 12.988,7.012 4.883,0 9.652,-0.723 14.324,-2.187 4.676,-1.465 9.719,-3.379 15.098,-5.703 l 8.84,21.191 c -12.243,5.644 -24.848,8.437 -37.789,8.437 -13.582,0 -24.09,-2.617 -31.504,-7.832 -7.403,-5.195 -11.11,-12.617 -11.11,-22.148 0,-5.586 0.899,-10.273 2.653,-14.102 1.757,-3.808 4.597,-7.187 8.457,-10.136 3.894,-2.93 9.964,-6.172 18.226,-9.629 5.781,-2.422 10.399,-4.551 13.86,-6.387 3.476,-1.836 5.902,-3.457 7.312,-4.902 1.402,-1.426 2.106,-3.34 2.106,-5.625 0,-6.172 -5.325,-9.239 -15.954,-9.239 -5.199,0 -11.211,0.84 -18.019,2.579 -6.848,1.777 -12.984,3.886 -18.43,6.484 v -24.258 c 4.793,-2.051 9.965,-3.594 15.465,-4.648 5.531,-1.055 12.207,-1.602 20.02,-1.602 15.253,0 26.718,2.891 34.378,8.652 7.653,5.801 11.489,14.161 11.489,25.196 0,5.312 -0.926,9.922 -2.785,13.75"
         style="fill:#0a7887;fill-opacity:1;fill-rule:nonzero;stroke:none"
         id="path752" /><path
         d="m 560.289,300.531 c 0,-6.484 -2.035,-11.679 -6.09,-15.605 -4.078,-3.906 -9.515,-5.86 -16.304,-5.86 -9.481,0 -14.243,4.122 -14.243,12.403 0,5.781 2.09,10.058 6.254,12.91 4.172,2.773 10.52,4.336 19.043,4.609 l 11.34,0.391 z m -15.582,68.731 c -15.059,0 -28.785,-3.242 -41.144,-9.688 l 9.718,-19.824 c 11.582,5.195 21.699,7.773 30.289,7.773 11.149,0 16.719,-5.429 16.719,-16.347 v -4.707 l -18.652,-0.547 c -16.102,-0.606 -28.125,-3.594 -36.11,-9.024 -7.988,-5.41 -11.964,-13.808 -11.964,-25.234 0,-10.898 2.945,-19.277 8.902,-25.195 5.914,-5.899 14.055,-8.848 24.359,-8.848 8.387,0 15.211,1.211 20.438,3.613 5.238,2.403 10.32,6.739 15.25,12.93 h 0.769 l 5.68,-14.629 h 20.457 v 71.641 c 0,12.832 -3.844,22.383 -11.531,28.672 -7.688,6.289 -18.746,9.414 -33.18,9.414"
         style="fill:#0a7887;fill-opacity:1;fill-rule:nonzero;stroke:none"
         id="path754" /><path
         d="M 766.391,367.055 H 737.66 l -12.937,-47.617 c -0.625,-2.813 -1.68,-8.243 -3.16,-16.27 -1.465,-8.047 -2.497,-14.375 -3.063,-19.004 h -0.594 c -0.051,1.797 -0.304,4.219 -0.722,7.149 -0.411,3.007 -0.871,6.035 -1.387,9.16 -0.52,3.105 -1.067,6.035 -1.602,8.808 -0.547,2.735 -0.957,4.824 -1.191,6.231 l -12.598,51.543 h -32.324 l -13.254,-51.543 -1.547,-8.164 c -1.988,-10.586 -3.109,-18.301 -3.371,-23.184 h -0.562 c -2.051,15.02 -4.078,26.758 -6.078,35.274 l -12.395,47.617 h -29.238 l 30.59,-107.52 h 31.527 l 19.621,85.117 h 0.691 l 11.145,-47.5 8.269,-37.617 h 31.934 l 30.977,107.52"
         style="fill:#0a7887;fill-opacity:1;fill-rule:nonzero;stroke:none"
         id="path756" /><path
         d="m 842.211,391.488 c -8.418,-7.129 -12.637,-16.914 -12.637,-29.336 0,-6.582 1.289,-12.363 3.828,-17.285 2.559,-4.961 6.016,-9.277 10.332,-13.008 4.258,-3.73 10.704,-7.597 19.297,-11.621 9.16,-4.355 15.254,-7.558 18.223,-9.511 2.988,-2.012 5.254,-4.082 6.777,-6.231 1.543,-2.129 2.324,-4.59 2.324,-7.344 0,-4.922 -1.757,-8.652 -5.234,-11.152 -3.516,-2.5 -8.516,-3.73 -15.078,-3.73 -5.43,0 -11.445,0.839 -18.008,2.578 -6.582,1.718 -14.609,4.726 -24.101,8.945 v -27.715 c 11.543,-5.644 24.804,-8.457 39.824,-8.457 16.269,0 29.004,3.672 38.105,10.996 9.141,7.266 13.731,17.285 13.731,30 0,9.141 -2.461,16.875 -7.305,23.203 -4.902,6.289 -13.887,12.618 -27.051,18.907 -9.922,4.726 -16.23,8.027 -18.886,9.824 -2.657,1.836 -4.59,3.75 -5.821,5.683 -1.211,1.934 -1.816,4.258 -1.816,6.895 0,4.238 1.504,7.656 4.512,10.273 3.027,2.618 7.343,3.946 12.988,3.946 4.726,0 9.57,-0.625 14.453,-1.836 4.922,-1.211 11.113,-3.36 18.633,-6.446 l 9.609,23.184 c -7.246,3.164 -14.18,5.586 -20.82,7.305 -6.66,1.738 -13.613,2.617 -20.918,2.617 -14.863,0 -26.524,-3.574 -34.961,-10.684"
         style="fill:#0a7887;fill-opacity:1;fill-rule:nonzero;stroke:none"
         id="path758" /><path
         d="m 981.898,257.621 c 7.364,0 13.477,0.567 18.322,1.738 4.82,1.153 9.63,3.243 14.37,6.231 v 25.117 c -4.82,-3.203 -9.62,-5.547 -14.43,-7.07 -4.824,-1.504 -10.039,-2.246 -15.683,-2.246 -15.254,0 -22.891,10.488 -22.891,31.543 0,21.66 7.637,32.5 22.891,32.5 4.003,0 7.968,-0.606 11.914,-1.797 3.989,-1.211 8.299,-2.696 12.909,-4.551 l 8.67,22.695 c -9.9,4.864 -21.052,7.285 -33.493,7.285 -16.973,0 -30.039,-4.804 -39.141,-14.453 -9.082,-9.648 -13.613,-23.613 -13.613,-41.894 0,-36.719 16.718,-55.098 50.175,-55.098"
         style="fill:#0a7887;fill-opacity:1;fill-rule:nonzero;stroke:none"
         id="path760" /><path
         d="m 1104.87,322.328 v -62.793 h 29.33 v 70.117 c 0,12.676 -3.26,22.461 -9.8,29.239 -6.54,6.797 -16.15,10.175 -28.73,10.175 -14.26,0 -24.65,-5.234 -31.17,-15.742 h -1.55 l 0.67,8.633 c 0.47,8.809 0.66,14.375 0.66,16.719 v 30.508 h -29.31 V 259.535 h 29.31 v 50.625 c 0,12.481 1.84,21.504 5.51,27.09 3.63,5.566 9.57,8.359 17.77,8.359 11.53,0 17.31,-7.773 17.31,-23.281"
         style="fill:#0a7887;fill-opacity:1;fill-rule:nonzero;stroke:none"
         id="path762" /><path
         d="m 1219.59,289.301 c -3.43,-5.391 -9.06,-8.106 -16.87,-8.106 -7.89,0 -13.57,2.715 -17.09,8.164 -3.48,5.469 -5.23,13.496 -5.23,24.141 0,10.723 1.73,18.691 5.19,23.984 3.48,5.293 9.1,7.95 16.91,7.95 7.92,0 13.58,-2.657 17.02,-7.989 3.47,-5.332 5.21,-13.281 5.21,-23.945 0,-10.703 -1.74,-18.75 -5.14,-24.199 z m 10.61,73.047 c -7.87,4.492 -16.97,6.718 -27.3,6.718 -16.61,0 -29.5,-4.863 -38.66,-14.609 -9.18,-9.727 -13.75,-23.379 -13.75,-40.957 0,-11.27 2.09,-21.172 6.35,-29.609 4.24,-8.496 10.27,-14.961 18.16,-19.493 7.9,-4.511 17.02,-6.777 27.33,-6.777 16.46,0 29.32,4.961 38.55,14.805 9.24,9.883 13.85,23.594 13.85,41.074 0,11.289 -2.11,21.113 -6.35,29.492 -4.21,8.438 -10.29,14.863 -18.18,19.356"
         style="fill:#0a7887;fill-opacity:1;fill-rule:nonzero;stroke:none"
         id="path764" /><path
         d="m 1337.02,289.301 c -3.46,-5.391 -9.07,-8.106 -16.9,-8.106 -7.87,0 -13.57,2.715 -17.09,8.164 -3.47,5.469 -5.23,13.496 -5.23,24.141 0,10.723 1.74,18.691 5.21,23.984 3.46,5.293 9.1,7.95 16.94,7.95 7.87,0 13.53,-2.657 17.03,-7.989 3.45,-5.332 5.17,-13.281 5.17,-23.945 0,-10.703 -1.72,-18.75 -5.13,-24.199 z m 10.6,73.047 c -7.87,4.492 -16.97,6.718 -27.3,6.718 -16.6,0 -29.51,-4.863 -38.67,-14.609 -9.16,-9.727 -13.75,-23.379 -13.75,-40.957 0,-11.27 2.1,-21.172 6.34,-29.609 4.24,-8.496 10.3,-14.961 18.19,-19.493 7.87,-4.511 16.99,-6.777 27.32,-6.777 16.47,0 29.34,4.961 38.56,14.805 9.23,9.883 13.84,23.594 13.84,41.074 0,11.289 -2.11,21.113 -6.34,29.492 -4.22,8.438 -10.3,14.863 -18.19,19.356"
         style="fill:#0a7887;fill-opacity:1;fill-rule:nonzero;stroke:none"
         id="path766" /><path
         d="M 1386.18,409.184 V 259.535 h 29.33 v 149.649 h -29.33"
         style="fill:#0a7887;fill-opacity:1;fill-rule:nonzero;stroke:none"
         id="path768" /><path
         d="M 80.3359,31.6992 C 76.9063,26.2695 71.2813,23.582 63.4531,23.582 c -7.8828,0 -13.5859,2.6875 -17.0742,8.1563 -3.4844,5.4726 -5.2344,13.5 -5.2344,24.1211 0,10.7187 1.7266,18.7109 5.1836,24.0312 3.461,5.2696 9.1172,7.9297 16.9336,7.9297 7.8828,0 13.5586,-2.6601 17.0235,-8.0117 3.4531,-5.3086 5.1836,-13.2773 5.1836,-23.9492 0,-10.6992 -1.6954,-18.7305 -5.1329,-24.1602 z M 90.957,104.75 c -7.8945,4.469 -16.9882,6.699 -27.3125,6.699 -16.6132,0 -29.4765,-4.847 -38.6562,-14.6092 C 15.8086,87.1094 11.2461,73.4414 11.2461,55.8594 11.2461,44.5898 13.3555,34.7109 17.582,26.25 21.8125,17.8008 27.8672,11.3086 35.7617,6.80078 43.6563,2.28906 52.7422,0 63.0664,0 c 16.4805,0 29.3281,4.96094 38.5746,14.832 9.218,9.8399 13.839,23.5469 13.839,41.0274 0,11.289 -2.121,21.1406 -6.359,29.5312 -4.219,8.3985 -10.2694,14.8284 -18.164,19.3594"
         style="fill:#0a7887;fill-opacity:1;fill-rule:nonzero;stroke:none"
         id="path770" /><path
         d="m 153.461,144.16 c -6.02,-5.64 -9.031,-14.609 -9.031,-26.828 v -7.871 L 128.262,101.57 V 87.4219 H 144.43 V 1.92188 h 29.324 V 87.4219 h 25.383 v 22.0391 h -25.383 v 6.711 c 0,3.867 0.934,7.019 2.789,9.476 1.859,2.461 4.879,3.711 9.039,3.711 5.004,0 10.449,-0.937 16.352,-2.789 l 7.5,21.539 c -7.887,3.012 -16.895,4.512 -27.028,4.512 -13.273,0 -22.926,-2.832 -28.945,-8.461"
         style="fill:#0a7887;fill-opacity:1;fill-rule:nonzero;stroke:none"
         id="path772" /><path
         d="m 274.363,1.92188 h 80.953 V 26.5703 H 304.18 v 36.25 h 47.582 V 87.25 H 304.18 v 30.859 h 51.136 V 142.52 H 274.363 V 1.92188"
         style="fill:#0a7887;fill-opacity:1;fill-rule:nonzero;stroke:none"
         id="path774" /><path
         d="m 426.637,87.8203 c 3.972,0 7.949,-0.5898 11.918,-1.8203 3.98,-1.168 8.269,-2.6797 12.894,-4.5508 l 8.653,22.7308 c -9.864,4.851 -21.032,7.269 -33.465,7.269 -16.985,0 -30.035,-4.808 -39.149,-14.449 C 378.398,87.3516 373.84,73.3594 373.84,55.1211 373.84,18.3789 390.57,0 424.043,0 c 7.379,0 13.484,0.570313 18.324,1.73828 4.84,1.15235 9.625,3.24219 14.367,6.25 V 33.0898 c -4.8,-3.1992 -9.605,-5.5703 -14.414,-7.0703 -4.816,-1.5078 -10.035,-2.25 -15.683,-2.25 -15.266,0 -22.887,10.5118 -22.887,31.5313 0,21.6797 7.621,32.5195 22.887,32.5195"
         style="fill:#0a7887;fill-opacity:1;fill-rule:nonzero;stroke:none"
         id="path776" /><path
         d="m 542.227,31.6992 c -3.426,-5.4297 -9.051,-8.1172 -16.872,-8.1172 -7.894,0 -13.574,2.6875 -17.07,8.1563 -3.496,5.4726 -5.222,13.5 -5.222,24.1211 0,10.7187 1.726,18.7109 5.183,24.0312 3.457,5.2696 9.082,7.9297 16.93,7.9297 7.867,0 13.547,-2.6601 17.004,-8.0117 3.48,-5.3086 5.207,-13.2773 5.207,-23.9492 0,-10.6992 -1.727,-18.7305 -5.16,-24.1602 z m 10.632,73.0508 c -7.882,4.469 -16.992,6.699 -27.324,6.699 -16.59,0 -29.48,-4.847 -38.648,-14.6092 -9.16,-9.7304 -13.758,-23.3984 -13.758,-40.9804 0,-11.2696 2.125,-21.1485 6.359,-29.6094 4.223,-8.4492 10.285,-14.9414 18.184,-19.44922 C 505.535,2.28906 514.648,0 524.965,0 c 16.476,0 29.336,4.96094 38.551,14.832 9.25,9.8399 13.855,23.5469 13.855,41.0274 0,11.289 -2.117,21.1406 -6.336,29.5312 -4.242,8.3985 -10.308,14.8284 -18.176,19.3594"
         style="fill:#0a7887;fill-opacity:1;fill-rule:nonzero;stroke:none"
         id="path778" /><path
         d="m 660.699,111.449 c -7.293,0 -13.82,-1.308 -19.57,-3.969 -5.731,-2.648 -10.231,-6.621 -13.496,-11.7886 h -1.653 l -3.933,13.7696 H 599.641 V 1.92188 h 29.32 V 52.5195 c 0,12.6993 1.844,21.7813 5.496,27.25 3.652,5.4922 9.586,8.2188 17.777,8.2188 6.024,0 10.426,-1.9492 13.192,-5.7969 2.742,-3.9101 4.14,-9.7109 4.14,-17.4609 V 1.92188 h 29.317 V 72.0508 c 0,12.7383 -3.235,22.5195 -9.707,29.2582 -6.485,6.781 -15.969,10.14 -28.477,10.14"
         style="fill:#0a7887;fill-opacity:1;fill-rule:nonzero;stroke:none"
         id="path780" /><path
         d="m 789.672,31.6992 c -3.418,-5.4297 -9.043,-8.1172 -16.875,-8.1172 -7.871,0 -13.574,2.6875 -17.051,8.1563 -3.516,5.4726 -5.254,13.5 -5.254,24.1211 0,10.7187 1.719,18.7109 5.196,24.0312 3.457,5.2696 9.101,7.9297 16.933,7.9297 7.852,0 13.555,-2.6601 16.992,-8.0117 3.477,-5.3086 5.215,-13.2773 5.215,-23.9492 0,-10.6992 -1.738,-18.7305 -5.156,-24.1602 z m 10.625,73.0508 c -7.891,4.469 -16.973,6.699 -27.305,6.699 -16.601,0 -29.492,-4.847 -38.672,-14.6092 -9.16,-9.7304 -13.734,-23.3984 -13.734,-40.9804 0,-11.2696 2.094,-21.1485 6.352,-29.6094 4.218,-8.4492 10.273,-14.9414 18.164,-19.44922 C 753.012,2.28906 762.113,0 772.426,0 c 16.465,0 29.316,4.96094 38.554,14.832 9.239,9.8399 13.829,23.5469 13.829,41.0274 0,11.289 -2.09,21.1406 -6.329,29.5312 -4.218,8.3985 -10.292,14.8284 -18.183,19.3594"
         style="fill:#0a7887;fill-opacity:1;fill-rule:nonzero;stroke:none"
         id="path782" /><path
         d="m 973.344,111.449 c -7.071,0 -13.379,-1.367 -18.985,-4.117 -5.605,-2.781 -9.863,-6.641 -12.734,-11.6406 h -2.617 c -5.703,10.5196 -16.582,15.7576 -32.695,15.7576 -7.032,0 -13.282,-1.367 -18.731,-4.179 -5.469,-2.79 -9.629,-6.661 -12.519,-11.5786 h -1.622 l -3.945,13.7696 H 847.074 V 1.92188 H 876.41 V 52.5195 c 0,12.6407 1.699,21.6993 5.117,27.1914 3.399,5.5274 8.828,8.2774 16.328,8.2774 5.606,0 9.668,-1.9492 12.247,-5.7969 2.617,-3.9101 3.906,-9.7109 3.906,-17.4609 V 1.92188 h 29.336 V 55.8594 c 0,11.1719 1.777,19.3203 5.332,24.4609 3.574,5.0899 8.945,7.668 16.113,7.668 5.586,0 9.668,-1.9492 12.246,-5.7969 2.617,-3.9101 3.906,-9.7109 3.906,-17.4609 V 1.92188 h 29.439 V 72.0508 c 0,13.7695 -3.15,23.789 -9.36,30.0192 -6.27,6.289 -15.489,9.379 -27.676,9.379"
         style="fill:#0a7887;fill-opacity:1;fill-rule:nonzero;stroke:none"
         id="path784" /><path
         d="m 1053.21,151.57 c -10.63,0 -15.98,-4.789 -15.98,-14.32 0,-9.629 5.35,-14.449 15.98,-14.449 5.31,0 9.31,1.277 11.97,3.82 2.66,2.52 3.99,6.059 3.99,10.629 0,9.531 -5.34,14.32 -15.96,14.32"
         style="fill:#0a7887;fill-opacity:1;fill-rule:nonzero;stroke:none"
         id="path786" /><path
         d="m 1038.48,1.92188 h 29.34 V 109.461 h -29.34 V 1.92188"
         style="fill:#0a7887;fill-opacity:1;fill-rule:nonzero;stroke:none"
         id="path788" /><path
         d="m 1142.9,87.8203 c 3.98,0 7.94,-0.5898 11.91,-1.8203 3.98,-1.168 8.3,-2.6797 12.89,-4.5508 l 8.67,22.7308 c -9.88,4.851 -21.03,7.269 -33.47,7.269 -17,0 -30.04,-4.808 -39.15,-14.449 -9.1,-9.6484 -13.65,-23.6406 -13.65,-41.8789 C 1090.1,18.3789 1106.86,0 1140.3,0 c 7.38,0 13.49,0.570313 18.32,1.73828 4.84,1.15235 9.65,3.24219 14.35,6.25 V 33.0898 c -4.78,-3.1992 -9.59,-5.5703 -14.41,-7.0703 -4.81,-1.5078 -10.02,-2.25 -15.66,-2.25 -15.26,0 -22.9,10.5118 -22.9,31.5313 0,21.6797 7.64,32.5195 22.9,32.5195"
         style="fill:#0a7887;fill-opacity:1;fill-rule:nonzero;stroke:none"
         id="path790" /><path
         d="m 1260.28,57.8203 c -3.91,2.9297 -10.08,6.1289 -18.48,9.5117 -9.41,3.7696 -15.51,6.6368 -18.32,8.5664 -2.77,1.9024 -4.18,4.1836 -4.18,6.8399 0,4.6719 4.36,6.9922 12.97,6.9922 4.88,0 9.65,-0.7188 14.36,-2.2305 4.66,-1.4609 9.72,-3.3594 15.09,-5.6406 l 8.85,21.1526 c -12.26,5.648 -24.84,8.437 -37.81,8.437 -13.58,0 -24.08,-2.578 -31.47,-7.808 -7.4,-5.2191 -11.13,-12.6215 -11.13,-22.1918 0,-5.5508 0.92,-10.2773 2.64,-14.0586 1.78,-3.832 4.59,-7.2109 8.49,-10.1601 3.87,-2.9492 9.93,-6.1485 18.21,-9.6094 5.78,-2.4609 10.37,-4.5703 13.86,-6.4102 3.42,-1.832 5.88,-3.4726 7.31,-4.9023 1.41,-1.4375 2.11,-3.3203 2.11,-5.6172 0,-6.1797 -5.31,-9.2422 -15.98,-9.2422 -5.17,0 -11.19,0.8594 -18.03,2.5821 -6.81,1.7695 -12.94,3.8984 -18.39,6.4804 V 6.25 c 4.8,-2.07031 9.96,-3.60937 15.48,-4.64844 C 1211.35,0.550781 1218.03,0 1225.84,0 c 15.26,0 26.72,2.89063 34.38,8.66016 7.66,5.78124 11.5,14.16014 11.5,25.17184 0,5.3477 -0.91,9.9375 -2.77,13.7891 -1.87,3.8477 -4.77,7.2305 -8.67,10.1992"
         style="fill:#0a7887;fill-opacity:1;fill-rule:nonzero;stroke:none"
         id="path792" /></g></g></svg>
